<?xml version="1.0" standalone="no"?>
<!DOCTYPE svg PUBLIC "-//W3C//DTD SVG 1.1//EN" "http://www.w3.org/Graphics/SVG/1.1/DTD/svg11.dtd" >
<svg xmlns="http://www.w3.org/2000/svg" xmlns:xlink="http://www.w3.org/1999/xlink" version="1.1">
<metadata>
Created by FontForge 20170910 at Sat Jul 14 16:31:21 2007
 By Jimmy Wärting
Copyright (c) 2007 Canada Type. All rights reserved.
</metadata>
<defs>
<font id="ClarendonTextPro-Bold" horiz-adv-x="704" >
  <font-face 
    font-family="Clarendon Text Pro"
    font-weight="700"
    font-stretch="normal"
    units-per-em="1000"
    panose-1="2 4 8 2 7 4 3 2 2 4"
    ascent="745"
    descent="-255"
    x-height="513"
    cap-height="689"
    bbox="-87 -379 1793 955"
    underline-thickness="50"
    underline-position="-100"
    unicode-range="U+0020-FB06"
  />
<missing-glyph horiz-adv-x="229" 
 />
    <glyph glyph-name="fi" unicode="fi" horiz-adv-x="790" 
d="M429 89h42c9 0 20 1 20 37v274c0 17 -13 25 -26 26h-151v-312c0 -14 8 -25 30 -25h35v-89h-346v89h57c14 0 20 15 20 27v310h-83v89h83c0 33 0 73 6 108c21 106 136 133 228 133c78 0 194 -16 194 -118c0 -57 -40 -92 -93 -92c-50 0 -90 32 -90 83c0 17 4 32 14 46
c-2 2 -3 2 -8 2c-39 0 -60 -31 -60 -66c0 -59 13 -69 13 -97h188l192 18v-405c0 -18 2 -38 20 -38h58v-89h-343v89z" />
    <glyph glyph-name="fl" unicode="fl" horiz-adv-x="809" 
d="M433 89h50c9 0 20 1 20 37v475c0 81 -53 83 -107 83c-59 0 -95 -31 -95 -73c0 -59 8 -75 13 -96h114v-89h-114v-312c0 -14 8 -25 30 -25h43v-89h-354v89h57c14 0 20 15 20 27v310h-83v89h83c0 33 0 73 6 108c21 106 136 133 228 133c37 0 84 -3 122 -19l240 21v-631
c0 -18 2 -38 20 -38h59v-89h-352v89z" />
    <glyph glyph-name=".notdef" horiz-adv-x="229" 
 />
    <glyph glyph-name="A" unicode="A" horiz-adv-x="789" 
d="M-18 102h60c18 0 31 22 36 35l220 552h191l222 -542c16 -39 32 -48 97 -48v-99h-400v102h73c13 0 19 7 19 20c0 21 -21 70 -36 102h-237c-3 -8 -37 -84 -37 -102c0 -10 15 -20 25 -20h75v-102h-308v102zM337 504l-70 -180h160l-68 180l-10 50z" />
    <glyph glyph-name="AE" unicode="&#xc6;" horiz-adv-x="1200" 
d="M440 102h78c12 0 25 10 25 22v100h-258c-6 -9 -63 -86 -63 -104c0 -12 11 -18 20 -18h74v-102h-334v102h59c19 0 38 22 45 35l282 436c2 4 3 7 3 9c0 5 -3 8 -9 8h-124v99h907v-274h-100l-8 79c-4 46 -29 94 -81 94h-217v-179h68c28 0 47 29 47 54v50h100v-312h-100v49
c0 44 -19 55 -46 55h-69v-203h225c62 0 89 68 89 121v76h102v-299h-715v102zM543 598h-11l-183 -274h194v274z" />
    <glyph glyph-name="Aacute" unicode="&#xc1;" horiz-adv-x="789" 
d="M340 774l88 148h182l-158 -148h-112zM-18 102h60c18 0 31 22 36 35l220 552h191l222 -542c16 -39 32 -48 97 -48v-99h-400v102h73c13 0 19 7 19 20c0 21 -21 70 -36 102h-237c-3 -8 -37 -84 -37 -102c0 -10 15 -20 25 -20h75v-102h-308v102zM337 504l-70 -180h160
l-68 180l-10 50z" />
    <glyph glyph-name="Abreve" unicode="&#x102;" horiz-adv-x="789" 
d="M-18 102h60c18 0 31 22 36 35l220 552h191l222 -542c16 -39 32 -48 97 -48v-99h-400v102h73c13 0 19 7 19 20c0 21 -21 70 -36 102h-237c-3 -8 -37 -84 -37 -102c0 -10 15 -20 25 -20h75v-102h-308v102zM337 504l-70 -180h160l-68 180l-10 50zM392 727
c-95 0 -176 27 -176 107h112c0 -23 12 -37 68 -37c49 0 66 14 67 37h112c-1 -82 -88 -107 -183 -107z" />
    <glyph glyph-name="Acircumflex" unicode="&#xc2;" horiz-adv-x="789" 
d="M197 771l103 150h178l114 -150h-134l-73 77l-60 -77h-128zM-18 102h60c18 0 31 22 36 35l220 552h191l222 -542c16 -39 32 -48 97 -48v-99h-400v102h73c13 0 19 7 19 20c0 21 -21 70 -36 102h-237c-3 -8 -37 -84 -37 -102c0 -10 15 -20 25 -20h75v-102h-308v102zM337 504
l-70 -180h160l-68 180l-10 50z" />
    <glyph glyph-name="Adieresis" unicode="&#xc4;" horiz-adv-x="789" 
d="M181 837c0 47 40 85 87 85c45 0 83 -38 83 -85c0 -46 -39 -85 -87 -85c-45 0 -83 39 -83 85zM434 837c0 47 36 85 86 85c46 0 82 -38 82 -83c0 -48 -39 -87 -87 -87c-47 0 -81 39 -81 85zM-18 102h60c18 0 31 22 36 35l220 552h191l222 -542c16 -39 32 -48 97 -48v-99
h-400v102h73c13 0 19 7 19 20c0 21 -21 70 -36 102h-237c-3 -8 -37 -84 -37 -102c0 -10 15 -20 25 -20h75v-102h-308v102zM337 504l-70 -180h160l-68 180l-10 50z" />
    <glyph glyph-name="Agrave" unicode="&#xc0;" horiz-adv-x="789" 
d="M397 913l88 -148h-113l-157 148h182zM-18 102h60c18 0 31 22 36 35l220 552h191l222 -542c16 -39 32 -48 97 -48v-99h-400v102h73c13 0 19 7 19 20c0 21 -21 70 -36 102h-237c-3 -8 -37 -84 -37 -102c0 -10 15 -20 25 -20h75v-102h-308v102zM337 504l-70 -180h160
l-68 180l-10 50z" />
    <glyph glyph-name="Amacron" unicode="&#x100;" horiz-adv-x="789" 
d="M-18 102h60c18 0 31 22 36 35l220 552h191l222 -542c16 -39 32 -48 97 -48v-99h-400v102h73c13 0 19 7 19 20c0 21 -21 70 -36 102h-237c-3 -8 -37 -84 -37 -102c0 -10 15 -20 25 -20h75v-102h-308v102zM337 504l-70 -180h160l-68 180l-10 50zM250 868h290v-100h-290v100
z" />
    <glyph glyph-name="Aogonek" unicode="&#x104;" horiz-adv-x="789" 
d="M-18 102h60c18 0 31 22 36 35l220 552h191l222 -542c16 -39 32 -48 97 -48v-99h-128c-37 -21 -59 -54 -59 -82c0 -26 19 -46 62 -46c14 0 41 2 60 7c12 -52 15 -67 15 -67c-21 -10 -57 -20 -83 -20c-94 0 -166 49 -166 110c0 36 23 68 61 98h-162v102h73c13 0 19 7 19 20
c0 21 -21 70 -36 102h-237c-3 -8 -37 -84 -37 -102c0 -10 15 -20 25 -20h75v-102h-308v102zM337 504l-70 -180h160l-68 180l-10 50z" />
    <glyph glyph-name="Aring" unicode="&#xc5;" horiz-adv-x="789" 
d="M245 824c0 81 83 98 150 98c64 0 149 -23 149 -98c0 -82 -87 -97 -153 -97c-65 0 -146 16 -146 97zM358 824c0 -23 12 -37 37 -37c21 0 37 14 37 37s-16 38 -37 38c-25 0 -37 -15 -37 -38zM-18 102h60c18 0 31 22 36 35l220 552h191l222 -542c16 -39 32 -48 97 -48v-99
h-400v102h73c13 0 19 7 19 20c0 21 -21 70 -36 102h-237c-3 -8 -37 -84 -37 -102c0 -10 15 -20 25 -20h75v-102h-308v102zM337 504l-70 -180h160l-68 180l-10 50z" />
    <glyph glyph-name="Atilde" unicode="&#xc3;" horiz-adv-x="789" 
d="M172 791c0 61 36 131 107 131c65 0 164 -44 219 -44c16 0 22 25 22 45h99l-1 -21c-1 -57 -32 -132 -101 -132c-64 0 -175 42 -212 42c-31 0 -31 -13 -31 -39h-100c-2 2 -2 14 -2 18zM-18 102h60c18 0 31 22 36 35l220 552h191l222 -542c16 -39 32 -48 97 -48v-99h-400
v102h73c13 0 19 7 19 20c0 21 -21 70 -36 102h-237c-3 -8 -37 -84 -37 -102c0 -10 15 -20 25 -20h75v-102h-308v102zM337 504l-70 -180h160l-68 180l-10 50z" />
    <glyph glyph-name="B" unicode="B" horiz-adv-x="827" 
d="M39 102h79c23 0 27 29 27 43v399c0 13 -1 46 -27 46h-79v99h526c107 0 199 -58 199 -172c0 -99 -69 -147 -166 -160c106 -8 189 -52 189 -168c0 -123 -102 -189 -218 -189h-530v102zM361 307v-203h98c66 0 104 35 104 101c0 99 -63 102 -104 102h-98zM361 588v-181h104
c52 0 77 46 77 93c0 44 -27 88 -77 88h-104z" />
    <glyph glyph-name="C" unicode="C" horiz-adv-x="778" 
d="M35 342c0 220 162 370 380 370c69 0 143 -18 201 -58l23 48h96v-274h-104c-25 106 -66 174 -187 174c-148 0 -173 -139 -173 -262c0 -126 33 -243 178 -243c115 0 181 60 190 183h108c0 -197 -163 -301 -339 -301c-213 0 -373 145 -373 363z" />
    <glyph glyph-name="Cacute" unicode="&#x106;" horiz-adv-x="778" 
d="M35 342c0 220 162 370 380 370c69 0 143 -18 201 -58l23 48h96v-274h-104c-25 106 -66 174 -187 174c-148 0 -173 -139 -173 -262c0 -126 33 -243 178 -243c115 0 181 60 190 183h108c0 -197 -163 -301 -339 -301c-213 0 -373 145 -373 363zM332 774l87 148h182
l-157 -148h-112z" />
    <glyph glyph-name="Ccaron" unicode="&#x10c;" horiz-adv-x="778" 
d="M35 342c0 220 162 370 380 370c69 0 143 -18 201 -58l23 48h96v-274h-104c-25 106 -66 174 -187 174c-148 0 -173 -139 -173 -262c0 -126 33 -243 178 -243c115 0 181 60 190 183h108c0 -197 -163 -301 -339 -301c-213 0 -373 145 -373 363zM347 772l-103 150h132l60 -77
l73 77h132l-116 -150h-178z" />
    <glyph glyph-name="Ccedilla" unicode="&#xc7;" horiz-adv-x="778" 
d="M425 -57c54 0 109 -10 109 -77c0 -95 -103 -116 -178 -116c-42 0 -71 4 -98 10l21 73c16 -4 41 -8 63 -8c28 0 53 8 53 39c0 27 -26 33 -51 33c-13 0 -27 -1 -38 -2l28 90c-175 30 -299 165 -299 357c0 220 162 370 380 370c69 0 143 -18 201 -58l23 48h96v-274h-104
c-25 106 -66 174 -187 174c-148 0 -173 -139 -173 -262c0 -126 33 -243 178 -243c115 0 181 60 190 183h108c0 -187 -147 -289 -311 -300z" />
    <glyph glyph-name="Ccircumflex" unicode="&#x108;" horiz-adv-x="778" 
d="M35 342c0 220 162 370 380 370c69 0 143 -18 201 -58l23 48h96v-274h-104c-25 106 -66 174 -187 174c-148 0 -173 -139 -173 -262c0 -126 33 -243 178 -243c115 0 181 60 190 183h108c0 -197 -163 -301 -339 -301c-213 0 -373 145 -373 363zM197 771l103 150h179
l114 -150h-135l-72 78l-60 -78h-129z" />
    <glyph glyph-name="Cdotaccent" unicode="&#x10a;" horiz-adv-x="778" 
d="M35 342c0 220 162 370 380 370c69 0 143 -18 201 -58l23 48h96v-274h-104c-25 106 -66 174 -187 174c-148 0 -173 -139 -173 -262c0 -126 33 -243 178 -243c115 0 181 60 190 183h108c0 -197 -163 -301 -339 -301c-213 0 -373 145 -373 363zM310 838c0 47 39 84 87 84
c45 0 83 -37 83 -84c0 -46 -40 -86 -87 -86c-46 0 -83 40 -83 86z" />
    <glyph glyph-name="D" unicode="D" horiz-adv-x="900" 
d="M39 102h78c12 0 26 12 26 25v430c0 14 -13 33 -29 33h-75v99h474c210 0 352 -151 352 -347c0 -215 -143 -342 -353 -342h-473v102zM357 588v-486h121c134 0 159 145 159 243c0 108 -25 243 -160 243h-120z" />
    <glyph glyph-name="Dcaron" unicode="&#x10e;" horiz-adv-x="900" 
d="M39 102h78c12 0 26 12 26 25v430c0 14 -13 33 -29 33h-75v99h474c210 0 352 -151 352 -347c0 -215 -143 -342 -353 -342h-473v102zM357 588v-486h121c134 0 159 145 159 243c0 108 -25 243 -160 243h-120zM361 772l-103 150h132l60 -77l73 77h132l-116 -150h-178z" />
    <glyph glyph-name="Dcroat" unicode="&#x110;" horiz-adv-x="900" 
d="M42 410h101v147c0 14 -13 33 -29 33h-75v99h474c210 0 352 -151 352 -347c0 -215 -143 -342 -353 -342h-473v102h78c12 0 26 12 26 25v159h-101v124zM357 588v-178h133v-124h-133v-184h121c134 0 159 145 159 243c0 108 -25 243 -160 243h-120z" />
    <glyph glyph-name="E" unicode="E" horiz-adv-x="818" 
d="M39 102h78c12 0 24 10 24 22v439c0 15 -14 27 -29 27h-73v99h723v-274h-100c-2 15 -6 67 -8 79c-4 46 -29 94 -81 94h-216v-179h67c28 0 48 29 48 54v50h99v-312h-99v49c0 44 -20 55 -46 55h-69v-203h224c63 0 89 68 89 121v76h103v-299h-734v102z" />
    <glyph glyph-name="Eacute" unicode="&#xc9;" horiz-adv-x="818" 
d="M39 102h78c12 0 24 10 24 22v439c0 15 -14 27 -29 27h-73v99h723v-274h-100c-2 15 -6 67 -8 79c-4 46 -29 94 -81 94h-216v-179h67c28 0 48 29 48 54v50h99v-312h-99v49c0 44 -20 55 -46 55h-69v-203h224c63 0 89 68 89 121v76h103v-299h-734v102zM336 774l88 148h182
l-157 -148h-113z" />
    <glyph glyph-name="Ecaron" unicode="&#x11a;" horiz-adv-x="818" 
d="M39 102h78c12 0 24 10 24 22v439c0 15 -14 27 -29 27h-73v99h723v-274h-100c-2 15 -6 67 -8 79c-4 46 -29 94 -81 94h-216v-179h67c28 0 48 29 48 54v50h99v-312h-99v49c0 44 -20 55 -46 55h-69v-203h224c63 0 89 68 89 121v76h103v-299h-734v102zM325 752l-103 150h132
l60 -77l73 77h132l-116 -150h-178z" />
    <glyph glyph-name="Ecircumflex" unicode="&#xca;" horiz-adv-x="818" 
d="M39 102h78c12 0 24 10 24 22v439c0 15 -14 27 -29 27h-73v99h723v-274h-100c-2 15 -6 67 -8 79c-4 46 -29 94 -81 94h-216v-179h67c28 0 48 29 48 54v50h99v-312h-99v49c0 44 -20 55 -46 55h-69v-203h224c63 0 89 68 89 121v76h103v-299h-734v102zM223 771l103 150h179
l114 -150h-134l-73 77l-60 -77h-129z" />
    <glyph glyph-name="Edieresis" unicode="&#xcb;" horiz-adv-x="818" 
d="M39 102h78c12 0 24 10 24 22v439c0 15 -14 27 -29 27h-73v99h723v-274h-100c-2 15 -6 67 -8 79c-4 46 -29 94 -81 94h-216v-179h67c28 0 48 29 48 54v50h99v-312h-99v49c0 44 -20 55 -46 55h-69v-203h224c63 0 89 68 89 121v76h103v-299h-734v102zM210 837
c0 47 40 85 88 85c45 0 83 -38 83 -85c0 -46 -40 -85 -88 -85c-45 0 -83 39 -83 85zM463 837c0 47 36 85 86 85c46 0 83 -38 83 -83c0 -48 -40 -87 -88 -87c-47 0 -81 39 -81 85z" />
    <glyph glyph-name="Edotaccent" unicode="&#x116;" horiz-adv-x="818" 
d="M39 102h78c12 0 24 10 24 22v439c0 15 -14 27 -29 27h-73v99h723v-274h-100c-2 15 -6 67 -8 79c-4 46 -29 94 -81 94h-216v-179h67c28 0 48 29 48 54v50h99v-312h-99v49c0 44 -20 55 -46 55h-69v-203h224c63 0 89 68 89 121v76h103v-299h-734v102zM336 838
c0 47 39 84 87 84c45 0 83 -37 83 -84c0 -46 -40 -86 -87 -86c-46 0 -83 40 -83 86z" />
    <glyph glyph-name="Egrave" unicode="&#xc8;" horiz-adv-x="818" 
d="M39 102h78c12 0 24 10 24 22v439c0 15 -14 27 -29 27h-73v99h723v-274h-100c-2 15 -6 67 -8 79c-4 46 -29 94 -81 94h-216v-179h67c28 0 48 29 48 54v50h99v-312h-99v49c0 44 -20 55 -46 55h-69v-203h224c63 0 89 68 89 121v76h103v-299h-734v102zM468 922l87 -148h-112
l-157 148h182z" />
    <glyph glyph-name="Emacron" unicode="&#x112;" horiz-adv-x="818" 
d="M39 102h78c12 0 24 10 24 22v439c0 15 -14 27 -29 27h-73v99h723v-274h-100c-2 15 -6 67 -8 79c-4 46 -29 94 -81 94h-216v-179h67c28 0 48 29 48 54v50h99v-312h-99v49c0 44 -20 55 -46 55h-69v-203h224c63 0 89 68 89 121v76h103v-299h-734v102zM276 868h290v-100h-290
v100z" />
    <glyph glyph-name="Eng" unicode="&#x14a;" horiz-adv-x="872" 
d="M117 102c12 0 24 10 24 22v433c0 12 -3 33 -34 33h-68v99h301l307 -450c2 -3 13 -37 23 -62l-10 66v309c0 35 -16 38 -43 38h-52v99h307v-99h-68c-16 0 -32 -3 -32 -32v-662c0 -137 -68 -217 -195 -217c-114 0 -239 34 -239 168c0 66 48 121 119 121c51 0 96 -36 96 -90
c0 -41 -28 -77 -71 -77c-7 0 -13 2 -17 2c10 -18 32 -24 54 -24c31 0 69 15 69 64v157l-321 444l-26 58l13 -56v-322c0 -12 13 -22 25 -22h77v-102h-317v102h78z" />
    <glyph glyph-name="Eogonek" unicode="&#x118;" horiz-adv-x="818" 
d="M39 102h78c12 0 24 10 24 22v439c0 15 -14 27 -29 27h-73v99h723v-274h-100c-2 15 -6 67 -8 79c-4 46 -29 94 -81 94h-216v-179h67c28 0 48 29 48 54v50h99v-312h-99v49c0 44 -20 55 -46 55h-69v-203h224c63 0 89 68 89 121v76h103v-299h-168c-37 -21 -59 -54 -59 -82
c0 -26 19 -46 62 -46c14 0 41 2 60 7c12 -52 15 -67 15 -67c-21 -10 -57 -20 -83 -20c-94 0 -166 49 -166 110c0 36 23 68 61 98h-456v102z" />
    <glyph glyph-name="Eth" unicode="&#xd0;" horiz-adv-x="900" 
d="M42 410h101v147c0 14 -13 33 -29 33h-75v99h474c210 0 352 -151 352 -347c0 -215 -143 -342 -353 -342h-473v102h78c12 0 26 12 26 25v159h-101v124zM357 588v-178h133v-124h-133v-184h121c134 0 159 145 159 243c0 108 -25 243 -160 243h-120z" />
    <glyph glyph-name="Euro" unicode="&#x20ac;" horiz-adv-x="823" 
d="M29 316h52c-1 8 -1 17 -1 26s0 18 1 27h-52v75h63c42 163 185 268 368 268c145 0 322 -60 322 -204c0 -66 -48 -121 -119 -121c-52 0 -96 36 -96 90c0 43 29 77 72 77c5 0 10 -1 16 -2c-45 46 -120 52 -167 52c-85 0 -142 -56 -163 -160h208v-75h-217v-53h217v-75h-208
c18 -83 64 -144 169 -144c115 0 181 60 190 183h108c0 -197 -163 -301 -339 -301c-178 0 -319 101 -361 262h-63v75z" />
    <glyph glyph-name="F" unicode="F" horiz-adv-x="782" 
d="M382 102h77v-102h-420v102h78c12 0 24 10 24 22v439c0 15 -14 27 -29 27h-73v99h723v-274h-100c-2 15 -6 67 -8 79c-4 46 -29 94 -81 94h-216v-179h67c28 0 48 29 48 54v50h99v-312h-99v49c0 44 -20 55 -46 55h-69v-181c0 -12 13 -22 25 -22z" />
    <glyph glyph-name="G" unicode="G" horiz-adv-x="857" 
d="M35 342c0 218 166 370 380 370c71 0 139 -20 201 -56l21 43h95v-271h-101c-21 109 -73 172 -183 172c-156 0 -177 -131 -177 -260c0 -118 21 -247 165 -247c70 0 106 39 106 82v60c0 22 -19 28 -45 28h-59v100h414v-100h-51c-10 0 -43 -6 -43 -27v-236h-107l-29 62
c-46 -61 -150 -83 -228 -83c-209 0 -359 153 -359 363z" />
    <glyph glyph-name="Gbreve" unicode="&#x11e;" horiz-adv-x="857" 
d="M35 342c0 218 166 370 380 370c71 0 139 -20 201 -56l21 43h95v-271h-101c-21 109 -73 172 -183 172c-156 0 -177 -131 -177 -260c0 -118 21 -247 165 -247c70 0 106 39 106 82v60c0 22 -19 28 -45 28h-59v100h414v-100h-51c-10 0 -43 -6 -43 -27v-236h-107l-29 62
c-46 -61 -150 -83 -228 -83c-209 0 -359 153 -359 363zM426 747c-95 0 -176 27 -176 107h112c0 -23 12 -37 68 -37c49 0 66 14 67 37h112c-1 -82 -88 -107 -183 -107z" />
    <glyph glyph-name="Gcircumflex" unicode="&#x11c;" horiz-adv-x="857" 
d="M35 342c0 218 166 370 380 370c71 0 139 -20 201 -56l21 43h95v-271h-101c-21 109 -73 172 -183 172c-156 0 -177 -131 -177 -260c0 -118 21 -247 165 -247c70 0 106 39 106 82v60c0 22 -19 28 -45 28h-59v100h414v-100h-51c-10 0 -43 -6 -43 -27v-236h-107l-29 62
c-46 -61 -150 -83 -228 -83c-209 0 -359 153 -359 363zM231 771l103 150h179l114 -150h-135l-72 78l-60 -78h-129z" />
    <glyph glyph-name="Gcommaaccent" unicode="&#x122;" horiz-adv-x="857" 
d="M35 342c0 218 166 370 380 370c71 0 139 -20 201 -56l21 43h95v-271h-101c-21 109 -73 172 -183 172c-156 0 -177 -131 -177 -260c0 -118 21 -247 165 -247c70 0 106 39 106 82v60c0 22 -19 28 -45 28h-59v100h414v-100h-51c-10 0 -43 -6 -43 -27v-236h-107l-29 62
c-46 -61 -150 -83 -228 -83c-209 0 -359 153 -359 363zM425 -52c76 0 104 -66 104 -134c0 -111 -69 -183 -181 -183v62c36 0 73 19 73 61v12c-58 0 -92 28 -92 87c0 54 40 95 96 95z" />
    <glyph glyph-name="Gdotaccent" unicode="&#x120;" horiz-adv-x="857" 
d="M35 342c0 218 166 370 380 370c71 0 139 -20 201 -56l21 43h95v-271h-101c-21 109 -73 172 -183 172c-156 0 -177 -131 -177 -260c0 -118 21 -247 165 -247c70 0 106 39 106 82v60c0 22 -19 28 -45 28h-59v100h414v-100h-51c-10 0 -43 -6 -43 -27v-236h-107l-29 62
c-46 -61 -150 -83 -228 -83c-209 0 -359 153 -359 363zM344 838c0 47 39 84 87 84c45 0 83 -37 83 -84c0 -46 -40 -86 -87 -86c-46 0 -83 40 -83 86z" />
    <glyph glyph-name="H" unicode="H" horiz-adv-x="958" 
d="M918 587h-77c-12 0 -25 -10 -25 -22v-441c0 -12 13 -22 25 -22h77v-102h-420v102h78c12 0 25 10 25 22v181h-244v-181c0 -12 13 -22 25 -22h77v-102h-420v102h78c12 0 24 10 24 22v441c0 12 -12 22 -24 22h-78v102h420v-102h-77c-12 0 -25 -10 -25 -22v-156h244v156
c0 12 -13 22 -25 22h-78v102h420v-102z" />
    <glyph glyph-name="Hbar" unicode="&#x126;" horiz-adv-x="958" 
d="M918 587h-77c-12 0 -25 -10 -25 -22v-45h92v-45h-92v-351c0 -12 13 -22 25 -22h77v-102h-420v102h78c12 0 25 10 25 22v181h-244v-181c0 -12 13 -22 25 -22h77v-102h-420v102h78c12 0 24 10 24 22v351h-89v45h89v45c0 12 -12 22 -24 22h-78v102h420v-102h-77
c-12 0 -25 -10 -25 -22v-45h244v45c0 12 -13 22 -25 22h-78v102h420v-102zM357 409h244v66h-244v-66z" />
    <glyph glyph-name="Hcircumflex" unicode="&#x124;" horiz-adv-x="958" 
d="M918 587h-77c-12 0 -25 -10 -25 -22v-441c0 -12 13 -22 25 -22h77v-102h-420v102h78c12 0 25 10 25 22v181h-244v-181c0 -12 13 -22 25 -22h77v-102h-420v102h78c12 0 24 10 24 22v441c0 12 -12 22 -24 22h-78v102h420v-102h-77c-12 0 -25 -10 -25 -22v-156h244v156
c0 12 -13 22 -25 22h-78v102h420v-102zM281 771l103 150h179l114 -150h-135l-72 78l-60 -78h-129z" />
    <glyph glyph-name="I" unicode="I" horiz-adv-x="499" 
d="M357 565v-441c0 -12 13 -22 25 -22h77v-102h-420v102h78c12 0 24 10 24 22v441c0 12 -12 22 -24 22h-78v102h420v-102h-77c-12 0 -25 -10 -25 -22z" />
    <glyph glyph-name="Iacute" unicode="&#xcd;" horiz-adv-x="499" 
d="M357 565v-441c0 -12 13 -22 25 -22h77v-102h-420v102h78c12 0 24 10 24 22v441c0 12 -12 22 -24 22h-78v102h420v-102h-77c-12 0 -25 -10 -25 -22zM193 774l87 148h183l-158 -148h-112z" />
    <glyph glyph-name="Icircumflex" unicode="&#xce;" horiz-adv-x="499" 
d="M357 565v-441c0 -12 13 -22 25 -22h77v-102h-420v102h78c12 0 24 10 24 22v441c0 12 -12 22 -24 22h-78v102h420v-102h-77c-12 0 -25 -10 -25 -22zM51 771l103 150h179l114 -150h-134l-73 77l-60 -77h-129z" />
    <glyph glyph-name="Idieresis" unicode="&#xcf;" horiz-adv-x="499" 
d="M357 565v-441c0 -12 13 -22 25 -22h77v-102h-420v102h78c12 0 24 10 24 22v441c0 12 -12 22 -24 22h-78v102h420v-102h-77c-12 0 -25 -10 -25 -22zM38 837c0 47 40 85 88 85c45 0 83 -38 83 -85c0 -46 -40 -85 -88 -85c-45 0 -83 39 -83 85zM291 837c0 47 36 85 86 85
c46 0 83 -38 83 -83c0 -48 -40 -87 -88 -87c-47 0 -81 39 -81 85z" />
    <glyph glyph-name="Idotaccent" unicode="&#x130;" horiz-adv-x="499" 
d="M357 565v-441c0 -12 13 -22 25 -22h77v-102h-420v102h78c12 0 24 10 24 22v441c0 12 -12 22 -24 22h-78v102h420v-102h-77c-12 0 -25 -10 -25 -22zM164 838c0 47 39 84 87 84c45 0 83 -37 83 -84c0 -46 -40 -86 -87 -86c-46 0 -83 40 -83 86z" />
    <glyph glyph-name="Igrave" unicode="&#xcc;" horiz-adv-x="499" 
d="M357 565v-441c0 -12 13 -22 25 -22h77v-102h-420v102h78c12 0 24 10 24 22v441c0 12 -12 22 -24 22h-78v102h420v-102h-77c-12 0 -25 -10 -25 -22zM250 922l87 -148h-112l-157 148h182z" />
    <glyph glyph-name="Imacron" unicode="&#xe000;" horiz-adv-x="499" 
d="M357 565v-441c0 -12 13 -22 25 -22h77v-102h-420v102h78c12 0 24 10 24 22v441c0 12 -12 22 -24 22h-78v102h420v-102h-77c-12 0 -25 -10 -25 -22zM105 868h290v-100h-290v100z" />
    <glyph glyph-name="Iogonek" unicode="&#x12e;" horiz-adv-x="499" 
d="M357 565v-441c0 -12 13 -22 25 -22h77v-102h-158c-53 -40 -56 -56 -56 -82c0 -18 6 -46 59 -46c14 0 41 2 60 7c12 -52 15 -67 15 -67c-21 -10 -57 -20 -83 -20c-94 0 -166 49 -166 110c0 36 23 68 61 98h-152v102h78c12 0 24 10 24 22v441c0 12 -12 22 -24 22h-78v102
h420v-102h-77c-12 0 -25 -10 -25 -22z" />
    <glyph glyph-name="Itilde" unicode="&#x128;" horiz-adv-x="499" 
d="M357 565v-441c0 -12 13 -22 25 -22h77v-102h-420v102h78c12 0 24 10 24 22v441c0 12 -12 22 -24 22h-78v102h420v-102h-77c-12 0 -25 -10 -25 -22zM26 792c0 60 36 130 107 130c65 0 165 -44 220 -44c15 0 21 26 21 45h99l-1 -21c-1 -56 -32 -132 -101 -132
c-63 0 -175 43 -211 43c-32 0 -32 -13 -32 -40h-100c-2 2 -2 14 -2 19z" />
    <glyph glyph-name="J" unicode="J" horiz-adv-x="588" 
d="M0 147c0 66 48 121 119 121c51 0 96 -36 96 -90c0 -41 -28 -77 -71 -77c-7 0 -13 2 -17 2c10 -18 32 -24 54 -24c41 0 79 15 79 64v403c0 23 -9 44 -33 44h-71v99h417v-99h-70c-17 0 -29 -17 -29 -33v-381c0 -137 -108 -197 -235 -197c-114 0 -239 34 -239 168z" />
    <glyph glyph-name="Jcircumflex" unicode="&#x134;" horiz-adv-x="588" 
d="M0 147c0 66 48 121 119 121c51 0 96 -36 96 -90c0 -41 -28 -77 -71 -77c-7 0 -13 2 -17 2c10 -18 32 -24 54 -24c41 0 79 15 79 64v403c0 23 -9 44 -33 44h-71v99h417v-99h-70c-17 0 -29 -17 -29 -33v-381c0 -137 -108 -197 -235 -197c-114 0 -239 34 -239 168zM167 771
l103 150h179l114 -150h-135l-72 78l-60 -78h-129z" />
    <glyph glyph-name="K" unicode="K" horiz-adv-x="901" 
d="M911 0h-409v98h48c13 1 16 11 16 21c0 29 -59 95 -138 195c-14 -12 -58 -44 -69 -55v-135c0 -13 12 -26 34 -26h64v-98h-413v97h64c19 0 35 4 35 32v423c0 23 -13 36 -36 38h-68v99h418v-99h-64c-15 0 -34 -14 -34 -40v-157c168 130 204 148 204 174c0 13 -8 21 -21 23
h-42v99h382v-101h-65c-55 0 -152 -91 -234 -154c0 -2 107 -134 232 -299c24 -31 57 -32 96 -32v-103z" />
    <glyph glyph-name="Kcommaaccent" unicode="&#x136;" horiz-adv-x="901" 
d="M911 0h-409v98h48c13 1 16 11 16 21c0 29 -59 95 -138 195c-14 -12 -58 -44 -69 -55v-135c0 -13 12 -26 34 -26h64v-98h-413v97h64c19 0 35 4 35 32v423c0 23 -13 36 -36 38h-68v99h418v-99h-64c-15 0 -34 -14 -34 -40v-157c168 130 204 148 204 174c0 13 -8 21 -21 23
h-42v99h382v-101h-65c-55 0 -152 -91 -234 -154c0 -2 107 -134 232 -299c24 -31 57 -32 96 -32v-103zM454 -22c76 0 104 -66 104 -134c0 -111 -69 -183 -181 -183v62c36 0 73 19 73 61v12c-58 0 -92 28 -92 87c0 54 40 95 96 95z" />
    <glyph glyph-name="L" unicode="L" horiz-adv-x="749" 
d="M459 588h-77c-12 0 -25 -10 -25 -22v-464h197c100 0 87 148 89 198h102v-299h-706v99h73c15 0 29 12 29 27v439c0 12 -12 22 -24 22h-78v102h420v-102z" />
    <glyph glyph-name="Lacute" unicode="&#x139;" horiz-adv-x="749" 
d="M459 588h-77c-12 0 -25 -10 -25 -22v-464h197c100 0 87 148 89 198h102v-299h-706v99h73c15 0 29 12 29 27v439c0 12 -12 22 -24 22h-78v102h420v-102zM215 774l87 148h182l-157 -148h-112z" />
    <glyph glyph-name="Lcaron" unicode="&#x13d;" horiz-adv-x="749" 
d="M459 588h-77c-12 0 -25 -10 -25 -22v-464h197c100 0 87 148 89 198h102v-299h-706v99h73c15 0 29 12 29 27v439c0 12 -12 22 -24 22h-78v102h420v-102zM670 708c76 0 104 -66 104 -134c0 -111 -69 -184 -181 -184v63c36 0 73 19 73 61v12c-58 0 -92 28 -92 87
c0 53 40 95 96 95z" />
    <glyph glyph-name="Lcommaaccent" unicode="&#x13b;" horiz-adv-x="749" 
d="M459 588h-77c-12 0 -25 -10 -25 -22v-464h197c100 0 87 148 89 198h102v-299h-706v99h73c15 0 29 12 29 27v439c0 12 -12 22 -24 22h-78v102h420v-102zM415 -42c76 0 104 -66 104 -134c0 -111 -69 -183 -181 -183v62c36 0 73 19 73 61v12c-58 0 -92 28 -92 87
c0 54 40 95 96 95z" />
    <glyph glyph-name="Lslash" unicode="&#x141;" horiz-adv-x="749" 
d="M459 588h-77c-12 0 -25 -10 -25 -22v-116l96 38v-108l-96 -38v-240h197c100 0 87 148 89 198h102v-299h-706v99h73c15 0 29 12 29 27v126l-82 -33v108l82 33v205c0 12 -12 22 -24 22h-78v102h420v-102z" />
    <glyph glyph-name="M" unicode="M" horiz-adv-x="1116" 
d="M735 102c12 0 25 10 25 22v411l6 45l-16 -37l-187 -543h-114l-190 542l-10 36l5 -42v-412c0 -12 13 -22 25 -22h61v-102h-301v102h78c12 0 24 10 24 22v420c0 30 -8 46 -34 46h-68v99h378l138 -394l138 394h382v-99h-70c-23 0 -31 -12 -31 -33v-433c0 -12 13 -22 25 -22
h77v-102h-406v102h65z" />
    <glyph glyph-name="N" unicode="N" horiz-adv-x="872" 
d="M117 102c12 0 24 10 24 22v433c0 12 -3 33 -34 33h-68v99h301l307 -450c2 -3 13 -37 23 -62l-10 66v309c0 35 -16 38 -43 38h-52v99h307v-99h-68c-17 0 -33 -3 -33 -35v-555h-200l-304 444l-26 58l13 -56v-322c0 -12 13 -22 25 -22h77v-102h-317v102h78z" />
    <glyph glyph-name="Nacute" unicode="&#x143;" horiz-adv-x="872" 
d="M117 102c12 0 24 10 24 22v433c0 12 -3 33 -34 33h-68v99h301l307 -450c2 -3 13 -37 23 -62l-10 66v309c0 35 -16 38 -43 38h-52v99h307v-99h-68c-17 0 -33 -3 -33 -35v-555h-200l-304 444l-26 58l13 -56v-322c0 -12 13 -22 25 -22h77v-102h-317v102h78zM404 774l87 148
h182l-157 -148h-112z" />
    <glyph glyph-name="Ncaron" unicode="&#x147;" horiz-adv-x="872" 
d="M117 102c12 0 24 10 24 22v433c0 12 -3 33 -34 33h-68v99h301l307 -450c2 -3 13 -37 23 -62l-10 66v309c0 35 -16 38 -43 38h-52v99h307v-99h-68c-17 0 -33 -3 -33 -35v-555h-200l-304 444l-26 58l13 -56v-322c0 -12 13 -22 25 -22h77v-102h-317v102h78zM353 772
l-103 150h132l60 -77l73 77h132l-116 -150h-178z" />
    <glyph glyph-name="Ncommaaccent" unicode="&#x145;" horiz-adv-x="872" 
d="M117 102c12 0 24 10 24 22v433c0 12 -3 33 -34 33h-68v99h301l307 -450c2 -3 13 -37 23 -62l-10 66v309c0 35 -16 38 -43 38h-52v99h307v-99h-68c-17 0 -33 -3 -33 -35v-555h-200l-304 444l-26 58l13 -56v-322c0 -12 13 -22 25 -22h77v-102h-317v102h78zM445 -22
c76 0 104 -66 104 -134c0 -111 -69 -183 -181 -183v62c36 0 73 19 73 61v12c-58 0 -92 28 -92 87c0 54 40 95 96 95z" />
    <glyph glyph-name="Ntilde" unicode="&#xd1;" horiz-adv-x="872" 
d="M117 102c12 0 24 10 24 22v433c0 12 -3 33 -34 33h-68v99h301l307 -450c2 -3 13 -37 23 -62l-10 66v309c0 35 -16 38 -43 38h-52v99h307v-99h-68c-17 0 -33 -3 -33 -35v-555h-200l-304 444l-26 58l13 -56v-322c0 -12 13 -22 25 -22h77v-102h-317v102h78zM225 791
c0 61 36 131 107 131c65 0 165 -44 220 -44c15 0 21 25 21 45h99l-1 -21c-1 -57 -32 -132 -101 -132c-63 0 -175 42 -211 42c-32 0 -32 -13 -32 -39h-100c-2 2 -2 14 -2 18z" />
    <glyph glyph-name="O" unicode="O" horiz-adv-x="852" 
d="M35 342c0 233 170 368 394 368c218 0 388 -141 388 -368s-163 -364 -389 -364c-221 0 -393 139 -393 364zM271 342c0 -107 14 -259 153 -259c143 0 154 141 154 256c0 114 -3 265 -153 265c-143 0 -154 -151 -154 -262z" />
    <glyph glyph-name="OE" unicode="&#x152;" horiz-adv-x="1225" 
d="M35 342c0 233 170 368 394 368c50 0 97 -7 140 -21h601v-274h-100c-2 15 -7 67 -9 79c-3 46 -28 94 -81 94h-216v-179h67c29 0 48 29 48 54v50h99v-312h-99v49c0 44 -19 55 -46 55h-69v-203h225c62 0 89 68 89 121v76h102v-299h-606c-45 -14 -94 -22 -146 -22
c-221 0 -393 139 -393 364zM271 342c0 -107 14 -259 153 -259c117 0 146 95 152 193v140c-6 95 -34 188 -151 188c-143 0 -154 -151 -154 -262z" />
    <glyph glyph-name="Oacute" unicode="&#xd3;" horiz-adv-x="852" 
d="M35 342c0 233 170 368 394 368c218 0 388 -141 388 -368s-163 -364 -389 -364c-221 0 -393 139 -393 364zM271 342c0 -107 14 -259 153 -259c143 0 154 141 154 256c0 114 -3 265 -153 265c-143 0 -154 -151 -154 -262zM355 774l87 148h182l-157 -148h-112z" />
    <glyph glyph-name="Ocircumflex" unicode="&#xd4;" horiz-adv-x="852" 
d="M35 342c0 233 170 368 394 368c218 0 388 -141 388 -368s-163 -364 -389 -364c-221 0 -393 139 -393 364zM271 342c0 -107 14 -259 153 -259c143 0 154 141 154 256c0 114 -3 265 -153 265c-143 0 -154 -151 -154 -262zM228 771l103 150h178l114 -150h-134l-73 77
l-59 -77h-129z" />
    <glyph glyph-name="Odieresis" unicode="&#xd6;" horiz-adv-x="852" 
d="M35 342c0 233 170 368 394 368c218 0 388 -141 388 -368s-163 -364 -389 -364c-221 0 -393 139 -393 364zM271 342c0 -107 14 -259 153 -259c143 0 154 141 154 256c0 114 -3 265 -153 265c-143 0 -154 -151 -154 -262zM215 837c0 47 39 85 87 85c45 0 83 -38 83 -85
c0 -46 -40 -85 -87 -85c-45 0 -83 39 -83 85zM468 837c0 47 36 85 85 85c46 0 83 -38 83 -83c0 -48 -39 -87 -87 -87c-47 0 -81 39 -81 85z" />
    <glyph glyph-name="Ograve" unicode="&#xd2;" horiz-adv-x="852" 
d="M35 342c0 233 170 368 394 368c218 0 388 -141 388 -368s-163 -364 -389 -364c-221 0 -393 139 -393 364zM271 342c0 -107 14 -259 153 -259c143 0 154 141 154 256c0 114 -3 265 -153 265c-143 0 -154 -151 -154 -262zM428 922l88 -148h-113l-157 148h182z" />
    <glyph glyph-name="Ohorn" unicode="&#x1a0;" horiz-adv-x="852" 
d="M845 868c76 0 104 -66 104 -134c0 -92 -45 -185 -191 -185c37 -57 59 -127 59 -207c0 -227 -163 -364 -389 -364c-221 0 -393 139 -393 364c0 233 170 368 394 368c107 0 202 -34 272 -96c17 -2 32 -3 46 -3c75 0 94 37 94 63v12c-58 0 -92 28 -92 87c0 53 40 95 96 95z
M271 342c0 -107 14 -259 153 -259c143 0 154 141 154 256c0 114 -3 265 -153 265c-143 0 -154 -151 -154 -262z" />
    <glyph glyph-name="Ohungarumlaut" unicode="&#x150;" horiz-adv-x="852" 
d="M35 342c0 233 170 368 394 368c218 0 388 -141 388 -368s-163 -364 -389 -364c-221 0 -393 139 -393 364zM271 342c0 -107 14 -259 153 -259c143 0 154 141 154 256c0 114 -3 265 -153 265c-143 0 -154 -151 -154 -262zM275 774l87 148h162l-157 -148h-92zM465 774
l87 148h162l-157 -148h-92z" />
    <glyph glyph-name="Omacron" unicode="&#x14c;" horiz-adv-x="852" 
d="M35 342c0 233 170 368 394 368c218 0 388 -141 388 -368s-163 -364 -389 -364c-221 0 -393 139 -393 364zM271 342c0 -107 14 -259 153 -259c143 0 154 141 154 256c0 114 -3 265 -153 265c-143 0 -154 -151 -154 -262zM280 868h290v-100h-290v100z" />
    <glyph glyph-name="Oslash" unicode="&#xd8;" horiz-adv-x="852" 
d="M35 342c0 233 170 368 394 368c41 0 80 -5 117 -14l22 47h67l-31 -68c128 -55 213 -173 213 -333c0 -227 -163 -364 -389 -364c-48 0 -92 6 -134 19l-24 -54h-64l33 74c-123 56 -204 170 -204 325zM578 339c0 68 -2 150 -35 204l-199 -437c20 -15 47 -23 80 -23
c143 0 154 141 154 256zM271 342c0 -60 4 -132 31 -186l195 431c-19 10 -43 17 -72 17c-143 0 -154 -151 -154 -262z" />
    <glyph glyph-name="Otilde" unicode="&#xd5;" horiz-adv-x="852" 
d="M35 342c0 233 170 368 394 368c218 0 388 -141 388 -368s-163 -364 -389 -364c-221 0 -393 139 -393 364zM271 342c0 -107 14 -259 153 -259c143 0 154 141 154 256c0 114 -3 265 -153 265c-143 0 -154 -151 -154 -262zM202 791c0 61 36 131 107 131
c65 0 164 -44 220 -44c15 0 21 25 21 45h99l-1 -21c-1 -57 -32 -132 -101 -132c-64 0 -175 42 -212 42c-31 0 -31 -13 -31 -39h-100c-2 2 -2 14 -2 18z" />
    <glyph glyph-name="P" unicode="P" horiz-adv-x="789" 
d="M355 287l-1 -163c0 -12 13 -22 25 -22h77v-102h-417v102h78c12 0 24 10 24 22v441c0 12 -12 22 -24 22h-78v102h470c128 0 255 -58 255 -201c0 -116 -90 -201 -206 -201h-203zM355 588v-200h102c62 0 89 44 89 102c0 54 -27 98 -87 98h-104z" />
    <glyph glyph-name="Q" unicode="Q" horiz-adv-x="904" 
d="M920 135v-108c0 -104 -89 -156 -183 -156c-93 0 -141 43 -184 124c-40 -12 -79 -18 -119 -18c-222 0 -394 139 -394 368c0 228 172 365 394 365c225 0 390 -139 390 -368c0 -109 -37 -215 -126 -284c24 -38 38 -54 73 -54c26 0 49 13 56 50v81h93zM436 604
c-145 0 -158 -145 -158 -259c0 -44 3 -81 13 -132c21 59 71 86 128 86c63 0 121 -32 159 -81c8 43 10 89 10 133c0 110 -13 253 -152 253zM339 110c0 -15 64 -27 87 -27c25 0 50 3 73 16c-17 42 -45 90 -94 90c-45 0 -66 -37 -66 -79z" />
    <glyph glyph-name="R" unicode="R" horiz-adv-x="863" 
d="M355 299v-175c0 -12 13 -22 25 -22h77v-102h-418v102h78c12 0 24 10 24 22v442c0 12 -12 22 -24 22h-78v101h491c120 0 243 -31 243 -172c0 -125 -99 -159 -207 -167c81 -17 139 -36 149 -128c5 -42 1 -120 27 -120c13 0 22 6 22 27v91h94v-54c0 -129 -41 -181 -175 -181
c-84 0 -151 34 -162 121l-16 129c-3 26 -8 64 -68 64h-82zM355 588v-185h69c67 0 124 10 124 97c0 58 -31 88 -83 88h-110z" />
    <glyph glyph-name="Racute" unicode="&#x154;" horiz-adv-x="863" 
d="M355 299v-175c0 -12 13 -22 25 -22h77v-102h-418v102h78c12 0 24 10 24 22v442c0 12 -12 22 -24 22h-78v101h491c120 0 243 -31 243 -172c0 -125 -99 -159 -207 -167c81 -17 139 -36 149 -128c5 -42 1 -120 27 -120c13 0 22 6 22 27v91h94v-54c0 -129 -41 -181 -175 -181
c-84 0 -151 34 -162 121l-16 129c-3 26 -8 64 -68 64h-82zM355 588v-185h69c67 0 124 10 124 97c0 58 -31 88 -83 88h-110zM350 774l87 148h182l-157 -148h-112z" />
    <glyph glyph-name="Rcaron" unicode="&#x158;" horiz-adv-x="863" 
d="M355 299v-175c0 -12 13 -22 25 -22h77v-102h-418v102h78c12 0 24 10 24 22v442c0 12 -12 22 -24 22h-78v101h491c120 0 243 -31 243 -172c0 -125 -99 -159 -207 -167c81 -17 139 -36 149 -128c5 -42 1 -120 27 -120c13 0 22 6 22 27v91h94v-54c0 -129 -41 -181 -175 -181
c-84 0 -151 34 -162 121l-16 129c-3 26 -8 64 -68 64h-82zM355 588v-185h69c67 0 124 10 124 97c0 58 -31 88 -83 88h-110zM342 772l-103 150h132l60 -77l73 77h132l-116 -150h-178z" />
    <glyph glyph-name="Rcommaaccent" unicode="&#x156;" horiz-adv-x="863" 
d="M355 299v-175c0 -12 13 -22 25 -22h77v-102h-418v102h78c12 0 24 10 24 22v442c0 12 -12 22 -24 22h-78v101h491c120 0 243 -31 243 -172c0 -125 -99 -159 -207 -167c81 -17 139 -36 149 -128c5 -42 1 -120 27 -120c13 0 22 6 22 27v91h94v-54c0 -129 -41 -181 -175 -181
c-84 0 -151 34 -162 121l-16 129c-3 26 -8 64 -68 64h-82zM434 -22c76 0 104 -66 104 -134c0 -111 -69 -183 -181 -183v62c36 0 73 19 73 61v12c-58 0 -92 28 -92 87c0 54 40 95 96 95zM355 588v-185h69c67 0 124 10 124 97c0 58 -31 88 -83 88h-110z" />
    <glyph glyph-name="S" unicode="S" 
d="M634 698v-259h-99c-2 0 -13 45 -17 53c-33 76 -109 111 -187 111c-50 0 -120 -15 -120 -75c0 -28 16 -46 41 -52l237 -58c110 -27 183 -83 183 -204c0 -155 -139 -232 -281 -232c-79 0 -160 15 -227 60c-20 -46 -22 -52 -24 -52h-96v268h102c17 -116 122 -171 227 -171
c49 0 130 15 130 80c0 34 -29 49 -60 57l-252 63c-95 24 -155 96 -155 195c0 154 137 226 278 226c72 0 135 -18 199 -51h2l23 41h96z" />
    <glyph glyph-name="Sacute" unicode="&#x15a;" 
d="M634 698v-259h-99c-2 0 -13 45 -17 53c-33 76 -109 111 -187 111c-50 0 -120 -15 -120 -75c0 -28 16 -46 41 -52l237 -58c110 -27 183 -83 183 -204c0 -155 -139 -232 -281 -232c-79 0 -160 15 -227 60c-20 -46 -22 -52 -24 -52h-96v268h102c17 -116 122 -171 227 -171
c49 0 130 15 130 80c0 34 -29 49 -60 57l-252 63c-95 24 -155 96 -155 195c0 154 137 226 278 226c72 0 135 -18 199 -51h2l23 41h96zM216 774l87 148h182l-157 -148h-112z" />
    <glyph glyph-name="Scaron" unicode="&#x160;" 
d="M634 698v-259h-99c-2 0 -13 45 -17 53c-33 76 -109 111 -187 111c-50 0 -120 -15 -120 -75c0 -28 16 -46 41 -52l237 -58c110 -27 183 -83 183 -204c0 -155 -139 -232 -281 -232c-79 0 -160 15 -227 60c-20 -46 -22 -52 -24 -52h-96v268h102c17 -116 122 -171 227 -171
c49 0 130 15 130 80c0 34 -29 49 -60 57l-252 63c-95 24 -155 96 -155 195c0 154 137 226 278 226c72 0 135 -18 199 -51h2l23 41h96zM255 772l-103 150h132l60 -77l73 77h132l-116 -150h-178z" />
    <glyph glyph-name="Scedilla" unicode="&#x15e;" 
d="M419 -48c54 0 109 -10 109 -77c0 -95 -103 -116 -178 -116c-42 0 -71 5 -98 10l21 73c16 -4 41 -7 63 -7c28 0 53 8 53 38c0 28 -27 33 -51 33c-13 0 -27 -1 -38 -2l25 82c-57 7 -113 23 -161 56c-20 -46 -22 -52 -24 -52h-96v268h102c17 -116 122 -171 227 -171
c49 0 130 15 130 80c0 34 -29 49 -60 57l-252 63c-95 24 -155 96 -155 195c0 154 137 226 278 226c72 0 135 -18 199 -51h2l23 41h96v-259h-99c-2 0 -13 45 -17 53c-33 76 -109 111 -187 111c-50 0 -120 -15 -120 -75c0 -28 16 -46 41 -52l237 -58c110 -27 183 -83 183 -204
c0 -141 -115 -217 -243 -230z" />
    <glyph glyph-name="Scircumflex" unicode="&#x15c;" 
d="M634 698v-259h-99c-2 0 -13 45 -17 53c-33 76 -109 111 -187 111c-50 0 -120 -15 -120 -75c0 -28 16 -46 41 -52l237 -58c110 -27 183 -83 183 -204c0 -155 -139 -232 -281 -232c-79 0 -160 15 -227 60c-20 -46 -22 -52 -24 -52h-96v268h102c17 -116 122 -171 227 -171
c49 0 130 15 130 80c0 34 -29 49 -60 57l-252 63c-95 24 -155 96 -155 195c0 154 137 226 278 226c72 0 135 -18 199 -51h2l23 41h96zM152 771l103 150h179l114 -150h-135l-72 78l-60 -78h-129z" />
    <glyph glyph-name="Scommaaccent" unicode="&#x218;" 
d="M634 698v-259h-99c-2 0 -13 45 -17 53c-33 76 -109 111 -187 111c-50 0 -120 -15 -120 -75c0 -28 16 -46 41 -52l237 -58c110 -27 183 -83 183 -204c0 -155 -139 -232 -281 -232c-79 0 -160 15 -227 60c-20 -46 -22 -52 -24 -52h-96v268h102c17 -116 122 -171 227 -171
c49 0 130 15 130 80c0 34 -29 49 -60 57l-252 63c-95 24 -155 96 -155 195c0 154 137 226 278 226c72 0 135 -18 199 -51h2l23 41h96zM375 -42c76 0 104 -66 104 -134c0 -111 -69 -183 -181 -183v62c36 0 73 19 73 61v12c-58 0 -92 28 -92 87c0 54 40 95 96 95z" />
    <glyph glyph-name="T" unicode="T" horiz-adv-x="782" 
d="M497 586v-462c0 -12 13 -22 25 -22h77v-102h-419v102h77c12 0 25 10 25 22v462h-65c-89 -1 -94 -92 -99 -171h-98v277h742v-277h-96c-5 82 -10 170 -105 171h-64z" />
    <glyph glyph-name="Tbar" unicode="&#x166;" horiz-adv-x="782" 
d="M53 343h229v243h-65c-89 -1 -94 -92 -99 -171h-98v277h742v-277h-96c-5 82 -10 170 -105 171h-64v-243h231v-60h-231v-159c0 -12 13 -22 25 -22h77v-102h-419v102h77c12 0 25 10 25 22v159h-229v60z" />
    <glyph glyph-name="Tcaron" unicode="&#x164;" horiz-adv-x="782" 
d="M497 586v-462c0 -12 13 -22 25 -22h77v-102h-419v102h77c12 0 25 10 25 22v462h-65c-89 -1 -94 -92 -99 -171h-98v277h742v-277h-96c-5 82 -10 170 -105 171h-64zM295 772l-103 150h132l60 -77l73 77h132l-116 -150h-178z" />
    <glyph glyph-name="Tcommaaccent" unicode="&#x162;" horiz-adv-x="782" 
d="M497 586v-462c0 -12 13 -22 25 -22h77v-102h-419v102h77c12 0 25 10 25 22v462h-65c-89 -1 -94 -92 -99 -171h-98v277h742v-277h-96c-5 82 -10 170 -105 171h-64zM387 -32c76 0 104 -66 104 -134c0 -111 -69 -183 -181 -183v62c36 0 73 19 73 61v12c-58 0 -92 28 -92 87
c0 54 40 95 96 95z" />
    <glyph glyph-name="Thorn" unicode="&#xde;" horiz-adv-x="788" 
d="M357 565v-27h150c129 0 256 -46 256 -189c0 -116 -91 -192 -207 -192h-199v-33c0 -12 13 -22 25 -22h77v-102h-420v102h78c12 0 25 10 25 22v441c0 12 -13 22 -25 22h-78v102h420v-102h-77c-12 0 -25 -10 -25 -22zM463 434h-106v-181h104c61 0 89 35 89 93
c0 53 -28 88 -87 88z" />
    <glyph glyph-name="U" unicode="U" horiz-adv-x="827" 
d="M746 590c-12 0 -25 -10 -25 -22v-361c0 -161 -138 -224 -320 -224c-124 0 -291 60 -291 208v377c0 12 -13 22 -25 22h-77v102h419v-102h-78c-12 0 -25 -10 -25 -22v-381c0 -63 50 -98 106 -98c103 0 179 14 179 125v354c0 12 -13 22 -25 22h-71v102h310v-102h-77z" />
    <glyph glyph-name="Uacute" unicode="&#xda;" horiz-adv-x="827" 
d="M746 590c-12 0 -25 -10 -25 -22v-361c0 -161 -138 -224 -320 -224c-124 0 -291 60 -291 208v376c0 12 -13 22 -25 22h-77v102h419v-102h-78c-12 0 -25 -10 -25 -22v-380c0 -63 50 -98 106 -98c103 0 179 14 179 125v354c0 12 -13 22 -25 22h-71v102h310v-102h-77z
M404 774l87 148h182l-157 -148h-112z" />
    <glyph glyph-name="Ubreve" unicode="&#x16c;" horiz-adv-x="827" 
d="M746 590c-12 0 -25 -10 -25 -22v-361c0 -161 -138 -224 -320 -224c-124 0 -291 60 -291 208v377c0 12 -13 22 -25 22h-77v102h419v-102h-78c-12 0 -25 -10 -25 -22v-381c0 -63 50 -98 106 -98c103 0 179 14 179 125v354c0 12 -13 22 -25 22h-71v102h310v-102h-77z
M443 747c-95 0 -176 27 -176 107h112c0 -23 12 -37 68 -37c49 0 66 14 67 37h112c-1 -82 -88 -107 -183 -107z" />
    <glyph glyph-name="Ucircumflex" unicode="&#xdb;" horiz-adv-x="827" 
d="M746 590c-12 0 -25 -10 -25 -22v-361c0 -161 -138 -224 -320 -224c-124 0 -291 60 -291 208v376c0 12 -13 22 -25 22h-77v102h419v-102h-78c-12 0 -25 -10 -25 -22v-380c0 -63 50 -98 106 -98c103 0 179 14 179 125v354c0 12 -13 22 -25 22h-71v102h310v-102h-77z
M272 771l103 150h179l114 -150h-135l-72 77l-60 -77h-129z" />
    <glyph glyph-name="Udieresis" unicode="&#xdc;" horiz-adv-x="827" 
d="M746 590c-12 0 -25 -10 -25 -22v-361c0 -161 -138 -224 -320 -224c-124 0 -291 60 -291 208v376c0 12 -13 22 -25 22h-77v102h419v-102h-78c-12 0 -25 -10 -25 -22v-380c0 -63 50 -98 106 -98c103 0 179 14 179 125v354c0 12 -13 22 -25 22h-71v102h310v-102h-77z
M259 837c0 47 40 85 88 85c45 0 83 -38 83 -85c0 -46 -40 -85 -88 -85c-45 0 -83 39 -83 85zM512 837c0 47 36 85 86 85c46 0 83 -38 83 -83c0 -48 -40 -87 -88 -87c-47 0 -81 39 -81 85z" />
    <glyph glyph-name="Ugrave" unicode="&#xd9;" horiz-adv-x="827" 
d="M746 590c-12 0 -25 -10 -25 -22v-361c0 -161 -138 -224 -320 -224c-124 0 -291 60 -291 208v376c0 12 -13 22 -25 22h-77v102h419v-102h-78c-12 0 -25 -10 -25 -22v-380c0 -63 50 -98 106 -98c103 0 179 14 179 125v354c0 12 -13 22 -25 22h-71v102h310v-102h-77z
M441 922l88 -148h-112l-158 148h182z" />
    <glyph glyph-name="Uhorn" unicode="&#x1af;" horiz-adv-x="827" 
d="M746 590c-12 0 -25 -10 -25 -22v-361c0 -161 -138 -224 -320 -224c-124 0 -291 60 -291 208v377c0 12 -13 22 -25 22h-77v102h419v-102h-78c-12 0 -25 -10 -25 -22v-381c0 -63 50 -98 106 -98c103 0 179 14 179 125v354c0 12 -13 22 -25 22h-71v102h292c75 0 94 37 94 63
v12c-58 0 -92 28 -92 87c0 53 40 95 96 95c76 0 104 -66 104 -134c0 -152 -75 -225 -211 -225h-50z" />
    <glyph glyph-name="Uhungarumlaut" unicode="&#x170;" horiz-adv-x="827" 
d="M746 590c-12 0 -25 -10 -25 -22v-361c0 -161 -138 -224 -320 -224c-124 0 -291 60 -291 208v377c0 12 -13 22 -25 22h-77v102h419v-102h-78c-12 0 -25 -10 -25 -22v-381c0 -63 50 -98 106 -98c103 0 179 14 179 125v354c0 12 -13 22 -25 22h-71v102h310v-102h-77z
M305 774l87 148h162l-157 -148h-92zM495 774l87 148h162l-157 -148h-92z" />
    <glyph glyph-name="Umacron" unicode="&#x16a;" horiz-adv-x="827" 
d="M746 590c-12 0 -25 -10 -25 -22v-361c0 -161 -138 -224 -320 -224c-124 0 -291 60 -291 208v377c0 12 -13 22 -25 22h-77v102h419v-102h-78c-12 0 -25 -10 -25 -22v-381c0 -63 50 -98 106 -98c103 0 179 14 179 125v354c0 12 -13 22 -25 22h-71v102h310v-102h-77z
M272 868h290v-100h-290v100z" />
    <glyph glyph-name="Uogonek" unicode="&#x172;" horiz-adv-x="827" 
d="M746 590c-12 0 -25 -10 -25 -22v-361c0 -133 -94 -199 -229 -218c-40 -33 -42 -48 -42 -71c0 -18 6 -46 59 -46c14 0 41 2 60 7c12 -52 15 -67 15 -67c-21 -10 -57 -20 -83 -20c-94 0 -166 49 -166 110c0 30 15 57 42 82c-120 7 -267 68 -267 207v377c0 12 -13 22 -25 22
h-77v102h419v-102h-78c-12 0 -25 -10 -25 -22v-381c0 -63 50 -98 106 -98c103 0 179 14 179 125v354c0 12 -13 22 -25 22h-71v102h310v-102h-77z" />
    <glyph glyph-name="Uring" unicode="&#x16e;" horiz-adv-x="827" 
d="M746 590c-12 0 -25 -10 -25 -22v-361c0 -161 -138 -224 -320 -224c-124 0 -291 60 -291 208v377c0 12 -13 22 -25 22h-77v102h419v-102h-78c-12 0 -25 -10 -25 -22v-381c0 -63 50 -98 106 -98c103 0 179 14 179 125v354c0 12 -13 22 -25 22h-71v102h310v-102h-77z
M297 825c0 81 83 97 150 97c64 0 149 -23 149 -97c0 -83 -87 -98 -153 -98c-65 0 -146 17 -146 98zM409 825c0 -23 12 -38 38 -38c20 0 37 15 37 38s-17 37 -37 37c-26 0 -38 -14 -38 -37z" />
    <glyph glyph-name="Utilde" unicode="&#x168;" horiz-adv-x="827" 
d="M746 590c-12 0 -25 -10 -25 -22v-361c0 -161 -138 -224 -320 -224c-124 0 -291 60 -291 208v377c0 12 -13 22 -25 22h-77v102h419v-102h-78c-12 0 -25 -10 -25 -22v-381c0 -63 50 -98 106 -98c103 0 179 14 179 125v354c0 12 -13 22 -25 22h-71v102h310v-102h-77z
M193 792c0 60 36 130 107 130c65 0 165 -44 220 -44c15 0 21 26 21 45h99l-1 -21c-1 -56 -32 -132 -101 -132c-63 0 -175 43 -211 43c-32 0 -32 -13 -32 -40h-100c-2 2 -2 14 -2 19z" />
    <glyph glyph-name="V" unicode="V" horiz-adv-x="772" 
d="M300 1l-222 544c-16 39 -32 48 -98 48v99h400v-102h-72c-13 0 -20 -7 -20 -20c0 -21 22 -72 141 -384l5 -46l8 46l147 384c0 10 -2 20 -25 20h-74v102h307v-102h-60c-18 0 -31 -22 -35 -35l-220 -554h-182z" />
    <glyph glyph-name="W" unicode="W" horiz-adv-x="1110" 
d="M270 0l-189 557c-11 32 -41 35 -69 35h-27v100h366v-100c-30 -1 -60 -2 -60 -27c0 -16 10 -39 104 -326l10 -52l10 58l87 264c-20 69 -13 83 -107 83v100h375v-100c-47 0 -75 -1 -75 -28c0 -14 29 -98 95 -310l11 -68l10 52c87 269 103 314 103 327c0 22 -21 27 -48 27
h-42v100h306v-100c-62 0 -88 0 -102 -42l-183 -550h-179l-101 313l-8 51l-9 -51l-100 -313h-178z" />
    <glyph glyph-name="Wacute" unicode="&#x1e82;" horiz-adv-x="1110" 
d="M270 0l-189 557c-11 32 -41 35 -69 35h-27v100h366v-100c-30 -1 -60 -2 -60 -27c0 -16 10 -39 104 -326l10 -52l10 58l87 264c-20 69 -13 83 -107 83v100h375v-100c-47 0 -75 -1 -75 -28c0 -14 29 -98 95 -310l11 -68l10 52c87 269 103 314 103 327c0 22 -21 27 -48 27
h-42v100h306v-100c-62 0 -88 0 -102 -42l-183 -550h-179l-101 313l-8 51l-9 -51l-100 -313h-178zM533 774l87 148h182l-157 -148h-112z" />
    <glyph glyph-name="Wcircumflex" unicode="&#x174;" horiz-adv-x="1110" 
d="M270 0l-189 557c-11 32 -41 35 -69 35h-27v100h366v-100c-30 -1 -60 -2 -60 -27c0 -16 10 -39 104 -326l10 -52l10 58l87 264c-20 69 -13 83 -107 83v100h375v-100c-47 0 -75 -1 -75 -28c0 -14 29 -98 95 -310l11 -68l10 52c87 269 103 314 103 327c0 22 -21 27 -48 27
h-42v100h306v-100c-62 0 -88 0 -102 -42l-183 -550h-179l-101 313l-8 51l-9 -51l-100 -313h-178zM384 771l103 150h179l114 -150h-135l-72 78l-60 -78h-129z" />
    <glyph glyph-name="Wdieresis" unicode="&#x1e84;" horiz-adv-x="1110" 
d="M270 0l-189 557c-11 32 -41 35 -69 35h-27v100h366v-100c-30 -1 -60 -2 -60 -27c0 -16 10 -39 104 -326l10 -52l10 58l87 264c-20 69 -13 83 -107 83v100h375v-100c-47 0 -75 -1 -75 -28c0 -14 29 -98 95 -310l11 -68l10 52c87 269 103 314 103 327c0 22 -21 27 -48 27
h-42v100h306v-100c-62 0 -88 0 -102 -42l-183 -550h-179l-101 313l-8 51l-9 -51l-100 -313h-178zM369 838c0 47 39 84 87 84c45 0 83 -37 83 -84c0 -46 -40 -86 -87 -86c-46 0 -83 40 -83 86zM622 838c0 47 36 84 85 84c46 0 83 -37 83 -83c0 -47 -39 -87 -87 -87
c-47 0 -81 40 -81 86z" />
    <glyph glyph-name="Wgrave" unicode="&#x1e80;" horiz-adv-x="1110" 
d="M270 0l-189 557c-11 32 -41 35 -69 35h-27v100h366v-100c-30 -1 -60 -2 -60 -27c0 -16 10 -39 104 -326l10 -52l10 58l87 264c-20 69 -13 83 -107 83v100h375v-100c-47 0 -75 -1 -75 -28c0 -14 29 -98 95 -310l11 -68l10 52c87 269 103 314 103 327c0 22 -21 27 -48 27
h-42v100h306v-100c-62 0 -88 0 -102 -42l-183 -550h-179l-101 313l-8 51l-9 -51l-100 -313h-178zM549 922l87 -148h-112l-157 148h182z" />
    <glyph glyph-name="X" unicode="X" horiz-adv-x="767" 
d="M-1 99c30 1 69 -1 83 15l198 216l-198 241c-15 19 -43 21 -83 21v100h402v-100h-26c-24 0 -47 -2 -47 -21c0 -17 18 -35 89 -122c96 103 100 107 100 122c0 19 -23 21 -47 21h-26v100h324v-100c-58 0 -74 0 -92 -21l-191 -203l202 -247c17 -22 37 -22 81 -22v-99h-399v99
h22c26 0 51 2 51 22c0 16 -21 35 -96 126c-23 -24 -102 -105 -102 -125c0 -21 28 -23 56 -23h23v-99h-324v99z" />
    <glyph glyph-name="Y" unicode="Y" horiz-adv-x="737" 
d="M158 0v102h75c25 0 29 27 29 45v137l-199 279c-19 26 -31 29 -56 29h-32v100h399v-100h-70c-11 0 -20 -11 -20 -21c0 -16 17 -36 121 -185c107 145 125 165 125 185c0 17 -13 21 -21 21h-65v100h321v-100h-22c-26 0 -52 -2 -66 -19l-201 -276v-165c0 -32 22 -33 41 -33
h63v-99h-422z" />
    <glyph glyph-name="Yacute" unicode="&#xdd;" horiz-adv-x="737" 
d="M158 0v102h75c25 0 29 27 29 45v137l-199 279c-19 26 -31 29 -56 29h-32v100h399v-100h-70c-11 0 -20 -11 -20 -21c0 -16 17 -36 121 -185c107 145 125 165 125 185c0 17 -13 21 -21 21h-65v100h321v-100h-22c-26 0 -52 -2 -66 -19l-201 -276v-165c0 -32 22 -33 41 -33
h63v-99h-422zM341 774l87 148h182l-157 -148h-112z" />
    <glyph glyph-name="Ycircumflex" unicode="&#x176;" horiz-adv-x="737" 
d="M158 0v102h75c25 0 29 27 29 45v137l-199 279c-19 26 -31 29 -56 29h-32v100h399v-100h-70c-11 0 -20 -11 -20 -21c0 -16 17 -36 121 -185c107 145 125 165 125 185c0 17 -13 21 -21 21h-65v100h321v-100h-22c-26 0 -52 -2 -66 -19l-201 -276v-165c0 -32 22 -33 41 -33
h63v-99h-422zM212 771l103 150h179l114 -150h-135l-72 78l-60 -78h-129z" />
    <glyph glyph-name="Ydieresis" unicode="&#x178;" horiz-adv-x="737" 
d="M158 0v102h75c25 0 29 27 29 45v137l-199 279c-19 26 -31 29 -56 29h-32v100h399v-100h-70c-11 0 -20 -11 -20 -21c0 -16 17 -36 121 -185c107 145 125 165 125 185c0 17 -13 21 -21 21h-65v100h321v-100h-22c-26 0 -52 -2 -66 -19l-201 -276v-165c0 -32 22 -33 41 -33
h63v-99h-422zM193 837c0 47 40 85 88 85c45 0 83 -38 83 -85c0 -46 -40 -85 -88 -85c-45 0 -83 39 -83 85zM446 837c0 47 36 85 86 85c46 0 83 -38 83 -83c0 -48 -40 -87 -88 -87c-47 0 -81 39 -81 85z" />
    <glyph glyph-name="Ygrave" unicode="&#x1ef2;" horiz-adv-x="737" 
d="M158 0v102h75c25 0 29 27 29 45v137l-199 279c-19 26 -31 29 -56 29h-32v100h399v-100h-70c-11 0 -20 -11 -20 -21c0 -16 17 -36 121 -185c107 145 125 165 125 185c0 17 -13 21 -21 21h-65v100h321v-100h-22c-26 0 -52 -2 -66 -19l-201 -276v-165c0 -32 22 -33 41 -33
h63v-99h-422zM401 922l87 -148h-112l-157 148h182z" />
    <glyph glyph-name="Z" unicode="Z" horiz-adv-x="684" 
d="M18 98l401 492h-175c-97 0 -108 -93 -112 -175h-98v277h630v-100l-395 -490h154c92 0 133 22 139 116l4 66h98v-284h-646v98z" />
    <glyph glyph-name="Zacute" unicode="&#x179;" horiz-adv-x="684" 
d="M18 98l401 492h-175c-97 0 -108 -93 -112 -175h-98v277h630v-100l-395 -490h154c92 0 133 22 139 116l4 66h98v-284h-646v98zM288 774l87 148h182l-157 -148h-112z" />
    <glyph glyph-name="Zcaron" unicode="&#x17d;" horiz-adv-x="684" 
d="M18 98l401 492h-175c-97 0 -108 -93 -112 -175h-98v277h630v-100l-395 -490c43 -4 108 -4 154 -4c92 0 130 26 139 120c0 10 4 56 4 66h98v-284h-646v98zM249 772l-103 150h132l60 -77l73 77h132l-116 -150h-178z" />
    <glyph glyph-name="Zdotaccent" unicode="&#x17b;" horiz-adv-x="684" 
d="M18 98l401 492h-175c-97 0 -108 -93 -112 -175h-98v277h630v-100l-395 -490h154c92 0 133 22 139 116l4 66h98v-284h-646v98zM287 838c0 47 39 84 87 84c45 0 83 -37 83 -84c0 -46 -40 -86 -87 -86c-46 0 -83 40 -83 86z" />
    <glyph glyph-name="a" unicode="a" horiz-adv-x="665" 
d="M172 319c-52 0 -102 30 -102 86c0 120 168 130 252 130c102 0 244 -24 244 -157v-238c0 -24 9 -34 32 -34c14 0 31 6 46 13v-102c-24 -11 -47 -30 -151 -30c-48 0 -100 9 -113 90c-36 -65 -103 -90 -169 -90c-87 0 -170 44 -170 142c0 104 89 141 177 168
c46 14 93 25 145 31v83c-3 46 -37 57 -67 57c-42 0 -60 -14 -68 -22c25 -12 39 -26 39 -56c0 -50 -51 -71 -95 -71zM251 155c0 -26 15 -49 43 -49c36 0 69 33 69 68v77c-52 -8 -112 -33 -112 -96z" />
    <glyph glyph-name="a.001" unicode="&#xe001;" horiz-adv-x="657" 
d="M-18 89h48c15 0 25 17 29 28l176 436h185l178 -428c13 -31 26 -39 78 -39v-86h-341v89h59c10 0 15 5 15 16c0 7 -11 43 -23 69h-196c-2 -7 -25 -55 -25 -69c0 -8 12 -16 20 -16h56v-89h-259v89zM279 404l-53 -138h125l-55 138l-8 40z" />
    <glyph glyph-name="a.alt" unicode="&#xe4c0;" horiz-adv-x="701" 
d="M375 66c-37 -56 -98 -79 -164 -79c-88 0 -170 44 -170 142c0 104 89 141 176 168c46 14 93 25 146 31v83c-3 46 -37 50 -67 50c-42 0 -60 -7 -69 -15c25 -12 40 -26 40 -56c0 -50 -52 -71 -96 -71c-51 0 -101 30 -101 86c0 120 168 130 251 130c102 0 245 -24 245 -157
v-251c0 -17 13 -21 17 -21c6 0 16 3 16 21v99h89v-117c0 -92 -87 -124 -165 -124c-67 0 -123 17 -148 81zM250 155c0 -26 15 -49 44 -49c36 0 69 33 69 68v77c-53 -8 -113 -33 -113 -96z" />
    <glyph glyph-name="aacute" unicode="&#xe1;" horiz-adv-x="665" 
d="M644 119v-102c-24 -11 -47 -30 -151 -30c-48 0 -100 9 -113 90c-36 -65 -103 -90 -169 -90c-87 0 -170 44 -170 142c0 104 89 141 177 168c46 14 93 25 145 31v83c-3 46 -37 57 -67 57c-42 0 -60 -14 -68 -22c25 -12 39 -26 39 -56c0 -50 -51 -71 -95 -71
c-52 0 -102 30 -102 86c0 120 168 130 252 130c102 0 244 -24 244 -157v-238c0 -24 9 -34 32 -34c14 0 31 7 46 13zM251 155c0 -26 15 -49 43 -49c36 0 69 33 69 68v77c-52 -8 -112 -33 -112 -96zM231 596l88 148h182l-157 -148h-113z" />
    <glyph glyph-name="aacute.001" unicode="&#xe002;" horiz-adv-x="657" 
d="M-18 89h48c15 0 25 17 29 28l176 436h185l178 -428c13 -31 26 -39 78 -39v-86h-341v89h59c10 0 15 5 15 16c0 7 -11 43 -23 69h-196c-2 -7 -25 -55 -25 -69c0 -8 12 -16 20 -16h56v-89h-259v89zM279 404l-53 -138h125l-55 138l-8 40zM275 596l87 148h182l-157 -148h-112z
" />
    <glyph glyph-name="aacute.002" unicode="&#xe003;" horiz-adv-x="701" 
d="M375 66c-37 -56 -98 -79 -164 -79c-88 0 -170 44 -170 142c0 104 89 141 176 168c46 14 93 25 146 31v83c-3 46 -37 50 -67 50c-42 0 -60 -7 -69 -15c25 -12 40 -26 40 -56c0 -50 -52 -71 -96 -71c-51 0 -101 30 -101 86c0 120 168 130 251 130c102 0 245 -24 245 -157
v-251c0 -17 13 -21 17 -21c6 0 16 3 16 21v99h89v-117c0 -92 -87 -124 -165 -124c-67 0 -123 17 -148 81zM250 155c0 -26 15 -49 44 -49c36 0 69 33 69 68v77c-53 -8 -113 -33 -113 -96zM266 596l87 148h182l-157 -148h-112z" />
    <glyph glyph-name="abreve" unicode="&#x103;" horiz-adv-x="665" 
d="M172 319c-52 0 -102 30 -102 86c0 120 168 130 252 130c102 0 244 -24 244 -157v-238c0 -24 9 -34 32 -34c14 0 31 6 46 13v-102c-24 -11 -47 -30 -151 -30c-48 0 -100 9 -113 90c-36 -65 -103 -90 -169 -90c-87 0 -170 44 -170 142c0 104 89 141 177 168
c46 14 93 25 145 31v83c-3 46 -37 57 -67 57c-42 0 -60 -14 -68 -22c25 -12 39 -26 39 -56c0 -50 -51 -71 -95 -71zM251 155c0 -26 15 -49 43 -49c36 0 69 33 69 68v77c-52 -8 -112 -33 -112 -96zM335 549c-95 0 -176 27 -176 107h112c0 -23 12 -37 68 -37c49 0 66 14 67 37
h112c-1 -82 -88 -107 -183 -107z" />
    <glyph glyph-name="abreve.001" unicode="&#xe004;" horiz-adv-x="657" 
d="M-18 89h48c15 0 25 17 29 28l176 436h185l178 -428c13 -31 26 -39 78 -39v-86h-341v89h59c10 0 15 5 15 16c0 7 -11 43 -23 69h-196c-2 -7 -25 -55 -25 -69c0 -8 12 -16 20 -16h56v-89h-259v89zM279 404l-53 -138h125l-55 138l-8 40zM326 579c-95 0 -176 27 -176 107h112
c0 -23 12 -37 68 -37c49 0 66 14 67 37h112c-1 -82 -88 -107 -183 -107z" />
    <glyph glyph-name="abreve.002" unicode="&#xe005;" horiz-adv-x="701" 
d="M375 66c-37 -56 -98 -79 -164 -79c-88 0 -170 44 -170 142c0 104 89 141 176 168c46 14 93 25 146 31v83c-3 46 -37 50 -67 50c-42 0 -60 -7 -69 -15c25 -12 40 -26 40 -56c0 -50 -52 -71 -96 -71c-51 0 -101 30 -101 86c0 120 168 130 251 130c102 0 245 -24 245 -157
v-251c0 -17 13 -21 17 -21c6 0 16 3 16 21v99h89v-117c0 -92 -87 -124 -165 -124c-67 0 -123 17 -148 81zM250 155c0 -26 15 -49 44 -49c36 0 69 33 69 68v77c-53 -8 -113 -33 -113 -96zM317 569c-95 0 -176 27 -176 107h112c0 -23 12 -37 68 -37c49 0 66 14 67 37h112
c-1 -82 -88 -107 -183 -107z" />
    <glyph glyph-name="acircumflex" unicode="&#xe2;" horiz-adv-x="665" 
d="M644 119v-102c-24 -11 -47 -30 -151 -30c-48 0 -100 9 -113 90c-36 -65 -103 -90 -169 -90c-87 0 -170 44 -170 142c0 104 89 141 177 168c46 14 93 25 145 31v83c-3 46 -37 57 -67 57c-42 0 -60 -14 -68 -22c25 -12 39 -26 39 -56c0 -50 -51 -71 -95 -71
c-52 0 -102 30 -102 86c0 120 168 130 252 130c102 0 244 -24 244 -157v-238c0 -24 9 -34 32 -34c14 0 31 7 46 13zM251 155c0 -26 15 -49 43 -49c36 0 69 33 69 68v77c-52 -8 -112 -33 -112 -96zM141 593l103 150h179l114 -150h-134l-73 78l-60 -78h-129z" />
    <glyph glyph-name="acircumflex.001" unicode="&#xe006;" horiz-adv-x="657" 
d="M-18 89h48c15 0 25 17 29 28l176 436h185l178 -428c13 -31 26 -39 78 -39v-86h-341v89h59c10 0 15 5 15 16c0 7 -11 43 -23 69h-196c-2 -7 -25 -55 -25 -69c0 -8 12 -16 20 -16h56v-89h-259v89zM279 404l-53 -138h125l-55 138l-8 40zM134 593l103 150h179l114 -150h-135
l-72 78l-60 -78h-129z" />
    <glyph glyph-name="acircumflex.002" unicode="&#xe007;" horiz-adv-x="701" 
d="M375 66c-37 -56 -98 -79 -164 -79c-88 0 -170 44 -170 142c0 104 89 141 176 168c46 14 93 25 146 31v83c-3 46 -37 50 -67 50c-42 0 -60 -7 -69 -15c25 -12 40 -26 40 -56c0 -50 -52 -71 -96 -71c-51 0 -101 30 -101 86c0 120 168 130 251 130c102 0 245 -24 245 -157
v-251c0 -17 13 -21 17 -21c6 0 16 3 16 21v99h89v-117c0 -92 -87 -124 -165 -124c-67 0 -123 17 -148 81zM250 155c0 -26 15 -49 44 -49c36 0 69 33 69 68v77c-53 -8 -113 -33 -113 -96zM122 593l103 150h179l114 -150h-135l-72 78l-60 -78h-129z" />
    <glyph glyph-name="acute" unicode="&#xb4;" horiz-adv-x="339" 
d="M102 596l87 148h182l-157 -148h-112z" />
    <glyph glyph-name="acutecomb" unicode="&#x301;" horiz-adv-x="339" 
d="M102 596l87 148h182l-157 -148h-112z" />
    <glyph glyph-name="adieresis" unicode="&#xe4;" horiz-adv-x="665" 
d="M644 119v-102c-24 -11 -47 -30 -151 -30c-48 0 -100 9 -113 90c-36 -65 -103 -90 -169 -90c-87 0 -170 44 -170 142c0 104 89 141 177 168c46 14 93 25 145 31v83c-3 46 -37 57 -67 57c-42 0 -60 -14 -68 -22c25 -12 39 -26 39 -56c0 -50 -51 -71 -95 -71
c-52 0 -102 30 -102 86c0 120 168 130 252 130c102 0 244 -24 244 -157v-238c0 -24 9 -34 32 -34c14 0 31 7 46 13zM251 155c0 -26 15 -49 43 -49c36 0 69 33 69 68v77c-52 -8 -112 -33 -112 -96zM128 660c0 47 40 84 88 84c45 0 83 -37 83 -84c0 -46 -40 -86 -88 -86
c-45 0 -83 40 -83 86zM381 660c0 47 36 84 86 84c46 0 83 -37 83 -83c0 -47 -40 -87 -88 -87c-47 0 -81 40 -81 86z" />
    <glyph glyph-name="adieresis.001" unicode="&#xe008;" horiz-adv-x="657" 
d="M-18 89h48c15 0 25 17 29 28l176 436h185l178 -428c13 -31 26 -39 78 -39v-86h-341v89h59c10 0 15 5 15 16c0 7 -11 43 -23 69h-196c-2 -7 -25 -55 -25 -69c0 -8 12 -16 20 -16h56v-89h-259v89zM279 404l-53 -138h125l-55 138l-8 40zM119 660c0 47 39 84 87 84
c45 0 83 -37 83 -84c0 -46 -40 -86 -87 -86c-46 0 -83 40 -83 86zM372 660c0 47 36 84 85 84c46 0 83 -37 83 -83c0 -47 -39 -87 -87 -87c-47 0 -81 40 -81 86z" />
    <glyph glyph-name="adieresis.002" unicode="&#xe009;" horiz-adv-x="701" 
d="M375 66c-37 -56 -98 -79 -164 -79c-88 0 -170 44 -170 142c0 104 89 141 176 168c46 14 93 25 146 31v83c-3 46 -37 50 -67 50c-42 0 -60 -7 -69 -15c25 -12 40 -26 40 -56c0 -50 -52 -71 -96 -71c-51 0 -101 30 -101 86c0 120 168 130 251 130c102 0 245 -24 245 -157
v-251c0 -17 13 -21 17 -21c6 0 16 3 16 21v99h89v-117c0 -92 -87 -124 -165 -124c-67 0 -123 17 -148 81zM250 155c0 -26 15 -49 44 -49c36 0 69 33 69 68v77c-53 -8 -113 -33 -113 -96zM110 660c0 47 39 84 87 84c45 0 83 -37 83 -84c0 -46 -40 -86 -87 -86
c-46 0 -83 40 -83 86zM363 660c0 47 36 84 85 84c46 0 83 -37 83 -83c0 -47 -39 -87 -87 -87c-47 0 -81 40 -81 86z" />
    <glyph glyph-name="ae" unicode="&#xe6;" horiz-adv-x="979" 
d="M172 319c-52 0 -102 30 -102 86c0 120 168 130 252 130c57 0 126 -8 176 -37c45 24 101 36 162 36c192 0 291 -111 291 -299h-370c0 -94 33 -148 131 -148c72 0 110 23 129 93h103c-8 -145 -158 -195 -280 -195c-96 0 -176 24 -229 77c-71 -62 -121 -75 -224 -75
c-87 0 -170 44 -170 142c0 104 89 141 177 168c46 14 93 25 145 31v83c-3 46 -37 57 -67 57c-42 0 -60 -14 -68 -22c25 -12 39 -26 39 -56c0 -50 -51 -71 -95 -71zM660 440c-58 0 -77 -68 -77 -116h150c0 48 -10 116 -73 116zM251 155c0 -26 15 -49 43 -49c36 0 69 33 69 68
v77c-52 -8 -112 -33 -112 -96z" />
    <glyph glyph-name="ae.001" unicode="&#xe00a;" horiz-adv-x="1025" 
d="M361 89h62c10 0 20 8 20 18v67h-208c-5 -8 -43 -56 -43 -70c0 -10 9 -15 16 -15h54v-89h-280v89h47c15 0 30 18 36 28l226 334c1 3 2 5 2 7c0 5 -2 7 -7 7h-99v87h785v-220h-88l-6 56c-3 36 -23 76 -66 76h-165v-137h42c22 0 37 23 37 43v33h87v-235h-87v32
c0 35 -15 44 -37 44h-42v-155h173c49 0 71 55 71 98v52h89v-239h-619v89zM443 478h-9l-141 -213h150v213z" />
    <glyph glyph-name="agrave" unicode="&#xe0;" horiz-adv-x="665" 
d="M644 119v-102c-24 -11 -47 -30 -151 -30c-48 0 -100 9 -113 90c-36 -65 -103 -90 -169 -90c-87 0 -170 44 -170 142c0 104 89 141 177 168c46 14 93 25 145 31v83c-3 46 -37 57 -67 57c-42 0 -60 -14 -68 -22c25 -12 39 -26 39 -56c0 -50 -51 -71 -95 -71
c-52 0 -102 30 -102 86c0 120 168 130 252 130c102 0 244 -24 244 -157v-238c0 -24 9 -34 32 -34c14 0 31 7 46 13zM251 155c0 -26 15 -49 43 -49c36 0 69 33 69 68v77c-52 -8 -112 -33 -112 -96zM334 744l87 -148h-112l-158 148h183z" />
    <glyph glyph-name="agrave.001" unicode="&#xe00b;" horiz-adv-x="657" 
d="M-18 89h48c15 0 25 17 29 28l176 436h185l178 -428c13 -31 26 -39 78 -39v-86h-341v89h59c10 0 15 5 15 16c0 7 -11 43 -23 69h-196c-2 -7 -25 -55 -25 -69c0 -8 12 -16 20 -16h56v-89h-259v89zM279 404l-53 -138h125l-55 138l-8 40zM317 744l87 -148h-112l-157 148h182z
" />
    <glyph glyph-name="agrave.002" unicode="&#xe00c;" horiz-adv-x="701" 
d="M375 66c-37 -56 -98 -79 -164 -79c-88 0 -170 44 -170 142c0 104 89 141 176 168c46 14 93 25 146 31v83c-3 46 -37 50 -67 50c-42 0 -60 -7 -69 -15c25 -12 40 -26 40 -56c0 -50 -52 -71 -96 -71c-51 0 -101 30 -101 86c0 120 168 130 251 130c102 0 245 -24 245 -157
v-251c0 -17 13 -21 17 -21c6 0 16 3 16 21v99h89v-117c0 -92 -87 -124 -165 -124c-67 0 -123 17 -148 81zM250 155c0 -26 15 -49 44 -49c36 0 69 33 69 68v77c-53 -8 -113 -33 -113 -96zM358 744l87 -148h-112l-157 148h182z" />
    <glyph glyph-name="amacron" unicode="&#x101;" horiz-adv-x="665" 
d="M172 319c-52 0 -102 30 -102 86c0 120 168 130 252 130c102 0 244 -24 244 -157v-238c0 -24 9 -34 32 -34c14 0 31 6 46 13v-102c-24 -11 -47 -30 -151 -30c-48 0 -100 9 -113 90c-36 -65 -103 -90 -169 -90c-87 0 -170 44 -170 142c0 104 89 141 177 168
c46 14 93 25 145 31v83c-3 46 -37 57 -67 57c-42 0 -60 -14 -68 -22c25 -12 39 -26 39 -56c0 -50 -51 -71 -95 -71zM251 155c0 -26 15 -49 43 -49c36 0 69 33 69 68v77c-52 -8 -112 -33 -112 -96zM194 690h290v-100h-290v100z" />
    <glyph glyph-name="amacron.001" unicode="&#xe00d;" horiz-adv-x="657" 
d="M-18 89h48c15 0 25 17 29 28l176 436h185l178 -428c13 -31 26 -39 78 -39v-86h-341v89h59c10 0 15 5 15 16c0 7 -11 43 -23 69h-196c-2 -7 -25 -55 -25 -69c0 -8 12 -16 20 -16h56v-89h-259v89zM279 404l-53 -138h125l-55 138l-8 40zM174 690h290v-100h-290v100z" />
    <glyph glyph-name="amacron.002" unicode="&#xe00e;" horiz-adv-x="701" 
d="M375 66c-37 -56 -98 -79 -164 -79c-88 0 -170 44 -170 142c0 104 89 141 176 168c46 14 93 25 146 31v83c-3 46 -37 50 -67 50c-42 0 -60 -7 -69 -15c25 -12 40 -26 40 -56c0 -50 -52 -71 -96 -71c-51 0 -101 30 -101 86c0 120 168 130 251 130c102 0 245 -24 245 -157
v-251c0 -17 13 -21 17 -21c6 0 16 3 16 21v99h89v-117c0 -92 -87 -124 -165 -124c-67 0 -123 17 -148 81zM250 155c0 -26 15 -49 44 -49c36 0 69 33 69 68v77c-53 -8 -113 -33 -113 -96zM175 690h290v-100h-290v100z" />
    <glyph glyph-name="ampersand" unicode="&#x26;" horiz-adv-x="864" 
d="M725 243h97c1 -31 1 -82 1 -87c0 -130 -97 -169 -190 -169c-47 0 -96 19 -142 52c-69 -39 -142 -51 -208 -51c-118 0 -237 82 -237 207c0 110 78 169 163 216c-23 55 -36 102 -36 135c0 91 56 158 217 158c79 0 138 -56 138 -140c0 -69 -56 -113 -120 -152
c37 -64 86 -134 133 -188c33 49 51 103 51 128c0 22 -5 26 -26 26c-9 0 -20 -1 -35 -1v94h260v-94h-27c-31 0 -63 -3 -68 -25c-20 -84 -48 -150 -83 -200c22 -18 40 -28 56 -28c44 0 56 11 56 119zM351 99c21 0 40 3 57 10c-57 59 -110 133 -150 205
c-23 -22 -37 -48 -37 -78c0 -87 64 -137 130 -137zM337 575c0 -17 9 -45 25 -79c32 22 52 48 52 81c0 29 -19 43 -39 43c-26 0 -38 -24 -38 -45z" />
    <glyph glyph-name="aogonek" unicode="&#x105;" horiz-adv-x="665" 
d="M172 319c-52 0 -102 30 -102 86c0 120 168 130 252 130c102 0 244 -24 244 -157v-238c0 -24 9 -34 32 -34c14 0 31 6 46 13v-102c-19 -9 -36 -22 -91 -27c-41 -34 -43 -48 -43 -72c0 -18 6 -46 59 -46c14 0 41 2 60 7c12 -52 15 -67 15 -67c-21 -10 -57 -20 -83 -20
c-94 0 -166 49 -166 110c0 33 19 63 52 90c-32 8 -58 30 -67 85c-36 -65 -103 -90 -169 -90c-87 0 -170 44 -170 142c0 104 89 141 177 168c46 14 93 25 145 31v83c-3 46 -37 57 -67 57c-42 0 -60 -14 -68 -22c25 -12 39 -26 39 -56c0 -50 -51 -71 -95 -71zM251 155
c0 -26 15 -49 43 -49c36 0 69 33 69 68v77c-52 -8 -112 -33 -112 -96z" />
    <glyph glyph-name="aogonek.001" unicode="&#xe00f;" horiz-adv-x="657" 
d="M-18 89h48c15 0 25 17 29 28l176 436h185l178 -428c13 -31 26 -39 78 -39v-86h-78c-53 -40 -56 -56 -56 -82c0 -18 6 -46 59 -46c14 0 41 2 60 7c12 -52 15 -67 15 -67c-21 -10 -57 -20 -83 -20c-94 0 -166 49 -166 110c0 36 23 68 61 98h-153v89h59c10 0 15 5 15 16
c0 7 -11 43 -23 69h-196c-2 -7 -25 -55 -25 -69c0 -8 12 -16 20 -16h56v-89h-259v89zM279 404l-53 -138h125l-55 138l-8 40z" />
    <glyph glyph-name="aogonek.002" unicode="&#xe010;" horiz-adv-x="701" 
d="M375 66c-37 -56 -98 -79 -164 -79c-88 0 -170 44 -170 142c0 104 89 141 176 168c46 14 93 25 146 31v83c-3 46 -37 50 -67 50c-42 0 -60 -7 -69 -15c25 -12 40 -26 40 -56c0 -50 -52 -71 -96 -71c-51 0 -101 30 -101 86c0 120 168 130 251 130c102 0 245 -24 245 -157
v-251c0 -17 13 -21 17 -21c6 0 16 3 16 21v99h89v-117c0 -57 -35 -86 -77 -109c-56 -31 -57 -56 -57 -82c0 -18 6 -46 59 -46c14 0 41 2 60 7c12 -52 15 -67 15 -67c-21 -10 -57 -20 -83 -20c-94 0 -166 49 -166 110c0 31 17 59 46 85c-50 7 -90 27 -110 79zM250 155
c0 -26 15 -49 44 -49c36 0 69 33 69 68v77c-53 -8 -113 -33 -113 -96z" />
    <glyph glyph-name="apple" unicode="&#xf8ff;" horiz-adv-x="875" 
d="M731 121l-71 14l71 93l-104 -40l-12 77l-110 -103l63 196l-63 -30l-59 107l-66 -107l-50 30l37 -196l-103 103l-10 -77l-103 40l66 -93l-77 -14l173 -127l-49 -58l165 32v-168h-409l-1 698h835v-698h-395v168l156 -32l-45 58zM438 662v-99c-3 -24 -15 -33 -31 -33h-40
v170h40c16 0 28 -12 31 -38zM271 530h-30l-27 109l-5 13l3 -14v-108h-23v170h28l28 -117l5 -14l-2 15v116h23v-170zM178 530h-20l-7 35h-24l-3 -35h-23l23 170h34zM357 530h-21l-5 35h-24l-4 -35h-23l23 170h33zM523 530h-23l-5 35h-24l-3 -35h-22l22 170h32zM781 662v-27
c0 -24 -14 -34 -31 -34h-18v-71h-20v170h38c17 0 31 -12 31 -38zM96 585v-23c0 -26 -15 -33 -36 -33c-20 0 -33 7 -36 33v103c3 26 16 36 36 36c21 0 36 -10 36 -36v-27h-24v24c-2 13 -5 17 -12 17c-6 0 -11 -4 -13 -17v-99c2 -9 7 -16 13 -16c7 0 10 7 12 16v22h24z
M703 700l-27 -113v-57h-27v57l-25 113h24l14 -75l16 75h25zM847 530h-54v170h54v-25h-32v-49h30v-24h-30v-51h32v-21zM623 675h-22v-145h-23v145h-19v25h64v-25zM414 567v94c0 12 -4 14 -12 14h-12v-126h12c8 0 12 8 12 18zM757 637v25c0 12 -3 16 -12 16h-13v-58h13
c9 0 12 6 12 17zM150 589l-8 75c0 5 0 9 -2 11v-11l-10 -75h20zM330 589l-10 75c0 5 0 9 -2 11v-11l-7 -75h19zM493 589l-9 75c0 5 0 9 -1 11v-11l-10 -75h20z" />
    <glyph glyph-name="aring" unicode="&#xe5;" horiz-adv-x="665" 
d="M644 119v-102c-24 -11 -47 -30 -151 -30c-48 0 -100 9 -113 90c-36 -65 -103 -90 -169 -90c-87 0 -170 44 -170 142c0 104 89 141 177 168c46 14 93 25 145 31v83c-3 46 -37 57 -67 57c-42 0 -60 -14 -68 -22c25 -12 39 -26 39 -56c0 -50 -51 -71 -95 -71
c-52 0 -102 30 -102 86c0 120 168 130 252 130c102 0 244 -24 244 -157v-238c0 -24 9 -34 32 -34c14 0 31 7 46 13zM251 155c0 -26 15 -49 43 -49c36 0 69 33 69 68v77c-52 -8 -112 -33 -112 -96zM189 647c0 81 83 97 150 97c64 0 149 -23 149 -97c0 -83 -87 -98 -153 -98
c-65 0 -146 17 -146 98zM301 647c0 -23 12 -38 38 -38c20 0 37 15 37 38s-17 37 -37 37c-26 0 -38 -14 -38 -37z" />
    <glyph glyph-name="aring.001" unicode="&#xe011;" horiz-adv-x="657" 
d="M-18 89h48c15 0 25 17 29 28l176 436h185l178 -428c13 -31 26 -39 78 -39v-86h-341v89h59c10 0 15 5 15 16c0 7 -11 43 -23 69h-196c-2 -7 -25 -55 -25 -69c0 -8 12 -16 20 -16h56v-89h-259v89zM279 404l-53 -138h125l-55 138l-8 40zM180 667c0 81 83 97 150 97
c64 0 149 -23 149 -97c0 -83 -87 -98 -153 -98c-65 0 -146 17 -146 98zM292 667c0 -23 12 -38 38 -38c20 0 37 15 37 38s-17 37 -37 37c-26 0 -38 -14 -38 -37z" />
    <glyph glyph-name="aring.002" unicode="&#xe012;" horiz-adv-x="701" 
d="M375 66c-37 -56 -98 -79 -164 -79c-88 0 -170 44 -170 142c0 104 89 141 176 168c46 14 93 25 146 31v83c-3 46 -37 50 -67 50c-42 0 -60 -7 -69 -15c25 -12 40 -26 40 -56c0 -50 -52 -71 -96 -71c-51 0 -101 30 -101 86c0 120 168 130 251 130c102 0 245 -24 245 -157
v-251c0 -17 13 -21 17 -21c6 0 16 3 16 21v99h89v-117c0 -92 -87 -124 -165 -124c-67 0 -123 17 -148 81zM250 155c0 -26 15 -49 44 -49c36 0 69 33 69 68v77c-53 -8 -113 -33 -113 -96zM171 647c0 81 83 97 150 97c64 0 149 -23 149 -97c0 -83 -87 -98 -153 -98
c-65 0 -146 17 -146 98zM283 647c0 -23 12 -38 38 -38c20 0 37 15 37 38s-17 37 -37 37c-26 0 -38 -14 -38 -37z" />
    <glyph glyph-name="asciicircum" unicode="^" horiz-adv-x="415" 
d="M156 693h120l132 -241h-129l-67 140l-70 -138h-136z" />
    <glyph glyph-name="asciitilde" unicode="~" horiz-adv-x="534" 
d="M50 483c0 61 36 131 107 131c65 0 165 -45 220 -45c15 0 21 26 21 46h99l-1 -22c-1 -56 -32 -131 -101 -131c-63 0 -175 42 -211 42c-32 0 -32 -13 -32 -39h-100c-2 1 -2 13 -2 18z" />
    <glyph glyph-name="asterisk" unicode="*" horiz-adv-x="508" 
d="M102 415c0 44 45 66 77 92c-49 0 -129 5 -129 71c0 34 25 66 64 66c42 0 67 -30 95 -49c-6 28 -21 71 -21 89c0 35 34 62 68 62c38 0 64 -27 64 -66c0 -24 -17 -59 -19 -85c30 23 69 51 95 51c35 0 62 -34 62 -68c0 -51 -38 -65 -76 -65c-37 0 -55 0 -64 1
c28 -11 88 -56 88 -99c0 -34 -32 -66 -66 -66c-54 0 -75 62 -85 103c-19 -40 -22 -103 -85 -103c-40 0 -68 25 -68 66z" />
    <glyph glyph-name="at" unicode="@" horiz-adv-x="1181" 
d="M653 77c-36 -65 -103 -90 -169 -90c-87 0 -170 44 -170 142c0 104 89 141 177 168c46 14 93 25 145 31v83c-3 46 -37 57 -67 57c-42 0 -60 -14 -68 -22c25 -12 39 -26 39 -56c0 -50 -51 -71 -95 -71c-52 0 -102 30 -102 86c0 120 168 130 252 130c102 0 244 -24 244 -157
v-238c0 -24 9 -34 32 -34c50 0 109 106 109 209c0 185 -146 295 -367 295c-226 0 -423 -150 -423 -397c0 -220 165 -359 395 -359c164 0 263 41 368 130l51 -76c-122 -96 -252 -148 -419 -148c-270 0 -497 195 -497 455c0 270 248 490 525 490c240 0 467 -164 467 -389
c0 -200 -133 -329 -314 -329c-53 0 -101 13 -113 90zM524 155c0 -26 14 -49 43 -49c36 0 69 33 69 68v77c-52 -8 -112 -33 -112 -96z" />
    <glyph glyph-name="atilde" unicode="&#xe3;" horiz-adv-x="665" 
d="M644 119v-102c-24 -11 -47 -30 -151 -30c-48 0 -100 9 -113 90c-36 -65 -103 -90 -169 -90c-87 0 -170 44 -170 142c0 104 89 141 177 168c46 14 93 25 145 31v83c-3 46 -37 57 -67 57c-42 0 -60 -14 -68 -22c25 -12 39 -26 39 -56c0 -50 -51 -71 -95 -71
c-52 0 -102 30 -102 86c0 120 168 130 252 130c102 0 244 -24 244 -157v-238c0 -24 9 -34 32 -34c14 0 31 7 46 13zM251 155c0 -26 15 -49 43 -49c36 0 69 33 69 68v77c-52 -8 -112 -33 -112 -96zM116 614c0 60 35 130 106 130c66 0 165 -44 220 -44c16 0 21 26 21 45h100
l-1 -21c-1 -56 -32 -132 -101 -132c-64 0 -175 43 -212 43c-31 0 -31 -13 -31 -40h-101c-1 2 -1 14 -1 19z" />
    <glyph glyph-name="atilde.001" unicode="&#xe013;" horiz-adv-x="657" 
d="M-18 89h48c15 0 25 17 29 28l176 436h185l178 -428c13 -31 26 -39 78 -39v-86h-341v89h59c10 0 15 5 15 16c0 7 -11 43 -23 69h-196c-2 -7 -25 -55 -25 -69c0 -8 12 -16 20 -16h56v-89h-259v89zM279 404l-53 -138h125l-55 138l-8 40zM106 614c0 60 36 130 107 130
c65 0 165 -44 220 -44c15 0 21 26 21 45h99l-1 -21c-1 -56 -32 -132 -101 -132c-63 0 -175 43 -211 43c-32 0 -32 -13 -32 -40h-100c-2 2 -2 14 -2 19z" />
    <glyph glyph-name="atilde.002" unicode="&#xe014;" horiz-adv-x="701" 
d="M375 66c-37 -56 -98 -79 -164 -79c-88 0 -170 44 -170 142c0 104 89 141 176 168c46 14 93 25 146 31v83c-3 46 -37 50 -67 50c-42 0 -60 -7 -69 -15c25 -12 40 -26 40 -56c0 -50 -52 -71 -96 -71c-51 0 -101 30 -101 86c0 120 168 130 251 130c102 0 245 -24 245 -157
v-251c0 -17 13 -21 17 -21c6 0 16 3 16 21v99h89v-117c0 -92 -87 -124 -165 -124c-67 0 -123 17 -148 81zM250 155c0 -26 15 -49 44 -49c36 0 69 33 69 68v77c-53 -8 -113 -33 -113 -96zM97 614c0 60 36 130 107 130c65 0 165 -44 220 -44c15 0 21 26 21 45h99l-1 -21
c-1 -56 -32 -132 -101 -132c-63 0 -175 43 -211 43c-32 0 -32 -13 -32 -40h-100c-2 2 -2 14 -2 19z" />
    <glyph glyph-name="b" unicode="b" horiz-adv-x="684" 
d="M227 85l-37 -85h-117v628c0 19 -4 26 -27 26h-55v89l284 18v-234l-10 -66c35 51 98 73 160 73c153 0 224 -131 224 -273c0 -152 -81 -276 -243 -276c-85 0 -133 27 -179 100zM433 247c0 69 -4 189 -79 189c-80 0 -83 -106 -83 -188c0 -95 12 -169 79 -169
c81 0 83 107 83 168z" />
    <glyph glyph-name="b.001" unicode="&#xe015;" horiz-adv-x="729" 
d="M39 90h60c19 0 22 23 22 34v302c0 11 -1 37 -22 37h-60v90h449c86 0 183 -47 183 -146c0 -71 -56 -113 -134 -124c85 -6 152 -38 152 -131c0 -99 -82 -152 -175 -152h-475v90zM324 228v-137h79c53 0 83 28 83 63c0 60 -50 74 -83 74h-79zM324 464v-144h84
c41 0 61 35 61 73c0 35 -21 71 -61 71h-84z" />
    <glyph glyph-name="backslash" unicode="\" horiz-adv-x="341" 
d="M22 713h110l193 -736h-108z" />
    <glyph glyph-name="bar" unicode="|" horiz-adv-x="349" 
d="M259 743v-1005h-169v1005h169z" />
    <glyph glyph-name="braceleft" unicode="{" horiz-adv-x="373" 
d="M328 -242h-51c-82 0 -161 21 -161 121v279c0 64 -4 84 -53 84h-20v103h20c48 0 53 18 53 75v218c0 100 79 121 161 121h51v-85h-12c-51 0 -63 -12 -63 -73v-147c0 -89 -13 -147 -81 -161c67 -17 81 -59 81 -175v-198c0 -61 12 -74 63 -74h12v-88z" />
    <glyph glyph-name="braceright" unicode="}" horiz-adv-x="372" 
d="M96 -242h-51v88h12c51 0 63 13 63 74v198c0 116 13 158 81 175c-69 14 -81 72 -81 161v147c0 61 -12 73 -63 73h-12v85h51c82 0 161 -21 161 -121v-218c0 -57 4 -75 52 -75h20v-103h-20c-49 0 -52 -20 -52 -84v-279c0 -100 -79 -121 -161 -121z" />
    <glyph glyph-name="bracketleft" unicode="[" horiz-adv-x="382" 
d="M65 774h287v-90h-115v-805h115v-93h-287v988z" />
    <glyph glyph-name="bracketright" unicode="]" horiz-adv-x="382" 
d="M30 774h287v-988h-287v93h115v805h-115v90z" />
    <glyph glyph-name="breve" unicode="&#x2d8;" horiz-adv-x="399" 
d="M199 549c-95 0 -176 27 -176 107h112c0 -23 12 -37 68 -37c49 0 66 14 67 37h112c-1 -82 -88 -107 -183 -107z" />
    <glyph glyph-name="brokenbar" unicode="&#xa6;" horiz-adv-x="369" 
d="M269 -262h-169v387h169v-387zM269 743v-384h-169v384h169z" />
    <glyph glyph-name="bullet" unicode="&#x2022;" horiz-adv-x="514" 
d="M65 357c0 104 85 189 191 189c104 0 193 -80 193 -187c0 -108 -83 -189 -191 -189c-104 0 -193 81 -193 187z" />
    <glyph glyph-name="c" unicode="c" horiz-adv-x="599" 
d="M29 259c0 179 131 275 301 275c102 0 235 -42 235 -164c0 -63 -45 -107 -106 -107c-53 0 -99 31 -99 88c0 34 13 57 43 77c-9 9 -37 13 -49 13c-78 0 -118 -87 -118 -174c0 -89 42 -180 127 -180c69 0 116 47 117 114h99c0 -160 -135 -216 -259 -216
c-175 0 -291 98 -291 274z" />
    <glyph glyph-name="c.001" unicode="&#xe016;" horiz-adv-x="667" 
d="M35 271c0 177 144 298 319 298c56 0 119 -15 165 -47l19 39h88v-221h-94c-21 85 -57 140 -154 140c-100 0 -128 -112 -128 -211c0 -102 35 -196 132 -196c93 0 149 49 156 148h98c0 -159 -131 -243 -273 -243c-172 0 -328 117 -328 293z" />
    <glyph glyph-name="cacute" unicode="&#x107;" horiz-adv-x="599" 
d="M29 259c0 179 131 275 301 275c102 0 235 -42 235 -164c0 -63 -45 -107 -106 -107c-53 0 -99 31 -99 88c0 34 13 57 43 77c-9 9 -37 13 -49 13c-78 0 -118 -87 -118 -174c0 -89 42 -180 127 -180c69 0 116 47 117 114h99c0 -160 -135 -216 -259 -216
c-175 0 -291 98 -291 274zM253 596l87 148h182l-157 -148h-112z" />
    <glyph glyph-name="cacute.001" unicode="&#xe017;" horiz-adv-x="667" 
d="M35 271c0 177 144 298 319 298c56 0 119 -15 165 -47l19 39h88v-221h-94c-21 85 -57 140 -154 140c-100 0 -128 -112 -128 -211c0 -102 35 -196 132 -196c93 0 149 49 156 148h98c0 -159 -131 -243 -273 -243c-172 0 -328 117 -328 293zM275 606l87 148h182l-157 -148
h-112z" />
    <glyph glyph-name="caron" unicode="&#x2c7;" horiz-adv-x="460" 
d="M138 594l-103 150h132l60 -77l73 77h132l-116 -150h-178z" />
    <glyph glyph-name="ccaron" unicode="&#x10d;" horiz-adv-x="599" 
d="M29 259c0 179 131 275 301 275c102 0 235 -42 235 -164c0 -63 -45 -107 -106 -107c-53 0 -99 31 -99 88c0 34 13 57 43 77c-9 9 -37 13 -49 13c-78 0 -118 -87 -118 -174c0 -89 42 -180 127 -180c69 0 116 47 117 114h99c0 -160 -135 -216 -259 -216
c-175 0 -291 98 -291 274zM221 594l-103 150h132l60 -77l73 77h132l-116 -150h-178z" />
    <glyph glyph-name="ccaron.001" unicode="&#xe018;" horiz-adv-x="667" 
d="M35 271c0 177 144 298 319 298c56 0 119 -15 165 -47l19 39h88v-221h-94c-21 85 -57 140 -154 140c-100 0 -128 -112 -128 -211c0 -102 35 -196 132 -196c93 0 149 49 156 148h98c0 -159 -131 -243 -273 -243c-172 0 -328 117 -328 293zM264 604l-103 150h132l60 -77
l73 77h132l-116 -150h-178z" />
    <glyph glyph-name="ccedilla" unicode="&#xe7;" horiz-adv-x="599" 
d="M330 -49c54 0 110 -10 110 -77c0 -95 -103 -116 -179 -116c-41 0 -71 5 -97 10l21 73c15 -4 40 -8 62 -8c29 0 54 9 54 39c0 28 -27 33 -52 33c-13 0 -26 -1 -38 -2l28 91c-129 25 -210 117 -210 265c0 179 131 275 301 275c102 0 235 -42 235 -164
c0 -63 -45 -107 -106 -107c-53 0 -99 31 -99 88c0 34 13 57 43 77c-9 9 -37 13 -49 13c-78 0 -118 -87 -118 -174c0 -89 42 -180 127 -180c69 0 116 47 117 114h99c0 -150 -120 -209 -238 -215z" />
    <glyph glyph-name="ccedilla.001" unicode="&#xe019;" horiz-adv-x="667" 
d="M376 -58c54 0 109 -10 109 -77c0 -95 -103 -116 -178 -116c-42 0 -71 5 -98 10l21 73c16 -4 41 -7 63 -7c28 0 53 8 53 38c0 28 -27 33 -51 33c-13 0 -27 -1 -38 -2l28 92c-138 29 -250 136 -250 285c0 177 144 298 319 298c56 0 119 -15 165 -47l19 39h88v-221h-94
c-21 85 -57 140 -154 140c-100 0 -128 -112 -128 -211c0 -102 35 -196 132 -196c93 0 149 49 156 148h98c0 -150 -117 -233 -249 -242z" />
    <glyph glyph-name="ccircumflex" unicode="&#x109;" horiz-adv-x="599" 
d="M29 259c0 179 131 275 301 275c102 0 235 -42 235 -164c0 -63 -45 -107 -106 -107c-53 0 -99 31 -99 88c0 34 13 57 43 77c-9 9 -37 13 -49 13c-78 0 -118 -87 -118 -174c0 -89 42 -180 127 -180c69 0 116 47 117 114h99c0 -160 -135 -216 -259 -216
c-175 0 -291 98 -291 274zM102 593l103 150h179l114 -150h-135l-72 78l-60 -78h-129z" />
    <glyph glyph-name="ccircumflex.001" unicode="&#xe01a;" horiz-adv-x="667" 
d="M35 271c0 177 144 298 319 298c56 0 119 -15 165 -47l19 39h88v-221h-94c-21 85 -57 140 -154 140c-100 0 -128 -112 -128 -211c0 -102 35 -196 132 -196c93 0 149 49 156 148h98c0 -159 -131 -243 -273 -243c-172 0 -328 117 -328 293zM151 603l103 150h178l116 -150
h-132l-73 77l-60 -77h-132z" />
    <glyph glyph-name="cdotaccent" unicode="&#x10b;" horiz-adv-x="599" 
d="M29 259c0 179 131 275 301 275c102 0 235 -42 235 -164c0 -63 -45 -107 -106 -107c-53 0 -99 31 -99 88c0 34 13 57 43 77c-9 9 -37 13 -49 13c-78 0 -118 -87 -118 -174c0 -89 42 -180 127 -180c69 0 116 47 117 114h99c0 -160 -135 -216 -259 -216
c-175 0 -291 98 -291 274zM215 660c0 47 39 84 87 84c45 0 83 -37 83 -84c0 -46 -40 -86 -87 -86c-46 0 -83 40 -83 86z" />
    <glyph glyph-name="cdotaccent.001" unicode="&#xe01b;" horiz-adv-x="667" 
d="M35 271c0 177 144 298 319 298c56 0 119 -15 165 -47l19 39h88v-221h-94c-21 85 -57 140 -154 140c-100 0 -128 -112 -128 -211c0 -102 35 -196 132 -196c93 0 149 49 156 148h98c0 -159 -131 -243 -273 -243c-172 0 -328 117 -328 293zM274 690c0 47 39 84 87 84
c45 0 83 -37 83 -84c0 -46 -40 -86 -87 -86c-46 0 -83 40 -83 86z" />
    <glyph glyph-name="cedilla" unicode="&#xb8;" horiz-adv-x="362" 
d="M211 -38c54 0 109 -10 109 -77c0 -95 -103 -116 -178 -116c-42 0 -71 5 -98 10l21 73c16 -4 41 -7 63 -7c28 0 53 8 53 38c0 28 -27 33 -51 33c-13 0 -27 -1 -38 -2l33 106h104z" />
    <glyph glyph-name="cent" unicode="&#xa2;" horiz-adv-x="626" 
d="M42 342c0 157 101 249 240 270v76h101v-73c94 -11 195 -56 195 -162c0 -63 -45 -107 -106 -107c-53 0 -99 31 -99 87c0 34 13 58 43 78c-9 9 -37 12 -49 12c-78 0 -118 -86 -118 -173c0 -90 42 -180 127 -180c69 0 116 47 117 114h99c0 -139 -102 -199 -209 -213v-71
h-101v71c-146 17 -240 112 -240 271z" />
    <glyph glyph-name="circumflex" unicode="&#x2c6;" horiz-adv-x="479" 
d="M44 593l103 150h179l114 -150h-135l-72 78l-60 -78h-129z" />
    <glyph glyph-name="colon" unicode=":" horiz-adv-x="335" 
d="M70 93c0 56 42 96 96 96s99 -42 99 -96s-45 -98 -99 -98s-96 44 -96 98zM70 440c0 54 42 95 96 95s99 -41 99 -95c0 -56 -45 -98 -99 -98c-56 0 -96 43 -96 98z" />
    <glyph glyph-name="comma" unicode="," horiz-adv-x="309" 
d="M152 184c76 0 104 -66 104 -134c0 -111 -69 -183 -181 -183v62c36 0 73 19 73 61v12c-58 0 -92 28 -92 87c0 54 40 95 96 95z" />
    <glyph glyph-name="commaaccent" unicode="&#xf6c3;" horiz-adv-x="285" 
d="M138 -22c76 0 104 -66 104 -134c0 -111 -69 -183 -181 -183v62c36 0 73 19 73 61v12c-58 0 -92 28 -92 87c0 54 40 95 96 95z" />
    <glyph glyph-name="copyright" unicode="&#xa9;" horiz-adv-x="957" 
d="M889 348c0 -227 -185 -411 -410 -411c-228 0 -412 184 -412 411c0 225 184 410 412 410c225 0 410 -185 410 -410zM829 347c0 193 -157 350 -350 350c-195 0 -352 -157 -352 -350c0 -194 157 -352 352 -352c193 0 350 158 350 352zM241 339c0 144 106 242 249 242
c45 0 93 -12 132 -37l14 32h63v-180h-68c-15 69 -43 114 -122 114c-97 0 -113 -91 -113 -171c0 -83 21 -161 117 -161c75 0 117 40 123 121h72c0 -130 -108 -199 -223 -199c-139 0 -244 96 -244 239z" />
    <glyph glyph-name="ct" unicode="&#xe01c;" horiz-adv-x="1078" 
d="M433 519c-29 37 -44 79 -44 120c0 106 58 227 280 227c140 0 258 -86 258 -229v-123h129v-89h-129v-272c0 -37 11 -46 49 -46c23 0 45 2 78 10v-111c-52 -13 -82 -17 -150 -17c-94 0 -179 30 -179 137v299h-97v84c125 0 187 79 187 150c0 92 -64 144 -151 144
c-131 0 -192 -84 -192 -179c0 -48 15 -98 45 -142c43 -25 48 -82 48 -112c0 -63 -45 -107 -106 -107c-53 0 -99 31 -99 88c0 34 13 57 43 77c-9 9 -37 13 -49 13c-78 0 -118 -87 -118 -174c0 -89 42 -180 127 -180c69 0 116 47 117 114h99c0 -160 -135 -216 -259 -216
c-175 0 -291 98 -291 274c0 179 131 275 301 275c33 0 69 -5 103 -15z" />
    <glyph glyph-name="currency" unicode="&#xa4;" horiz-adv-x="823" 
d="M29 316h52c-1 8 -1 17 -1 26s0 18 1 27h-52v75h63c42 163 185 268 368 268c145 0 322 -60 322 -204c0 -66 -48 -121 -119 -121c-52 0 -96 36 -96 90c0 43 29 77 72 77c5 0 10 -1 16 -2c-45 46 -120 52 -167 52c-85 0 -142 -56 -163 -160h208v-75h-217v-53h217v-75h-208
c18 -83 64 -144 169 -144c115 0 181 60 190 183h108c0 -197 -163 -301 -339 -301c-178 0 -319 101 -361 262h-63v75z" />
    <glyph glyph-name="d" unicode="d" horiz-adv-x="695" 
d="M32 264c0 149 79 270 239 270c39 0 101 -6 147 -74l-10 37v126c0 21 -4 33 -25 33h-60v88l287 16v-650c0 -11 10 -21 20 -21h54v-89h-274v52c-34 -52 -97 -69 -155 -69c-163 0 -223 136 -223 281zM331 438c-64 0 -81 -54 -81 -185c0 -132 15 -174 77 -174
c77 0 84 101 84 176c0 61 0 183 -80 183z" />
    <glyph glyph-name="d.001" unicode="&#xe01d;" horiz-adv-x="781" 
d="M39 89h64c10 0 21 9 21 20v328c0 11 -10 26 -23 26h-62v90h424c169 0 283 -121 283 -278c0 -173 -115 -275 -284 -275h-423v89zM328 461v-372h73c108 0 128 110 128 188c0 86 -20 184 -129 184h-72z" />
    <glyph glyph-name="dagger" unicode="&#x2020;" horiz-adv-x="753" 
d="M534 317h-77v-439c0 -28 14 -33 39 -36h71v-104h-373v104h76c20 0 35 16 35 37v438h-76c-58 0 -64 -47 -64 -94v-39h-105v368h104c0 -17 1 -40 1 -67c0 -31 22 -60 60 -60h80v127c0 20 -15 37 -35 37h-76v104h373v-104h-71c-25 -3 -39 -8 -39 -36v-128h81
c37 0 59 29 59 60c0 27 1 50 1 67h95v-368h-96v39c0 47 -6 94 -63 94z" />
    <glyph glyph-name="daggerdbl" unicode="&#x2021;" horiz-adv-x="744" 
d="M447 425h81c38 0 60 29 60 60c0 27 1 50 1 67h95v-626h-96v39c0 47 -6 95 -63 95h-78v-182c0 -28 15 -33 40 -36h71v-104h-373v104h76c20 0 35 16 35 37v181h-77c-57 0 -63 -48 -63 -95v-39h-96v626h95c0 -17 1 -40 1 -67c0 -31 22 -60 60 -60h80v127c0 20 -15 37 -35 37
h-76v104h373v-104h-71c-25 -3 -40 -8 -40 -36v-128zM525 317h-78v-150h81c38 0 60 18 60 77c0 45 -8 73 -63 73zM156 239c1 -57 24 -72 60 -72h80v150h-77c-57 0 -63 -31 -63 -78z" />
    <glyph glyph-name="dcaron" unicode="&#x10f;" horiz-adv-x="815" 
d="M32 264c0 149 79 270 239 270c39 0 101 -6 147 -74l-10 37v126c0 21 -4 33 -25 33h-60v88l287 16v-650c0 -11 10 -21 20 -21h54v-89h-274v52c-34 -52 -97 -69 -155 -69c-163 0 -223 136 -223 281zM331 438c-64 0 -81 -54 -81 -185c0 -132 15 -174 77 -174
c77 0 84 101 84 176c0 61 0 183 -80 183zM793 761c76 0 104 -66 104 -134c0 -111 -69 -184 -181 -184v63c36 0 73 19 73 61v12c-58 0 -92 28 -92 87c0 53 40 95 96 95z" />
    <glyph glyph-name="dcaron.001" unicode="&#xe01e;" horiz-adv-x="781" 
d="M39 89h64c10 0 21 9 21 20v328c0 11 -10 26 -23 26h-62v90h424c169 0 283 -121 283 -278c0 -173 -115 -275 -284 -275h-423v89zM328 461v-372h73c108 0 128 110 128 188c0 86 -20 184 -129 184h-72zM267 594l-103 150h132l60 -77l73 77h132l-116 -150h-178z" />
    <glyph glyph-name="dcroat" unicode="&#x111;" horiz-adv-x="695" 
d="M32 264c0 149 79 270 239 270c39 0 101 -6 147 -74l-10 37v82h-182v45h182c0 20 -5 32 -25 32h-60v88l287 16v-136h78v-45h-78v-469c0 -11 10 -21 20 -21h54v-89h-274v52c-34 -52 -97 -69 -155 -69c-163 0 -223 136 -223 281zM331 438c-64 0 -81 -54 -81 -185
c0 -132 15 -174 77 -174c77 0 84 101 84 176c0 61 0 183 -80 183z" />
    <glyph glyph-name="dcroat.001" unicode="&#xe01f;" horiz-adv-x="781" 
d="M62 329h62v108c0 11 -10 26 -23 26h-62v90h424c169 0 283 -121 283 -278c0 -173 -115 -275 -284 -275h-423v89h64c10 0 21 9 21 20v116h-62v104zM328 461v-132h92v-104h-92v-136h73c108 0 128 110 128 188c0 86 -20 184 -129 184h-72z" />
    <glyph glyph-name="degree" unicode="&#xb0;" horiz-adv-x="405" 
d="M50 576c0 93 92 132 156 132c62 0 149 -33 149 -129c0 -101 -82 -139 -151 -139c-65 0 -154 38 -154 136zM164 576c0 -27 8 -56 42 -56c36 0 39 34 39 60c0 25 -6 56 -39 56c-34 0 -42 -34 -42 -60z" />
    <glyph glyph-name="dieresis" unicode="&#xa8;" horiz-adv-x="532" 
d="M59 660c0 47 39 84 87 84c45 0 83 -37 83 -84c0 -46 -40 -86 -87 -86c-46 0 -83 40 -83 86zM312 660c0 47 36 84 85 84c46 0 83 -37 83 -83c0 -47 -39 -87 -87 -87c-47 0 -81 40 -81 86z" />
    <glyph glyph-name="divide" unicode="&#xf7;" horiz-adv-x="546" 
d="M61 377h425v-124h-425v124zM179 122c0 56 42 96 96 96s99 -41 99 -96c0 -54 -45 -97 -99 -97s-96 43 -96 97zM179 510c0 54 42 95 96 95s99 -41 99 -95c0 -56 -45 -98 -99 -98c-56 0 -96 43 -96 98z" />
    <glyph glyph-name="dollar" unicode="$" horiz-adv-x="761" 
d="M325 -76v70c-109 6 -255 43 -255 168c0 75 51 94 103 94c46 0 89 -41 89 -82c0 -19 -9 -39 -30 -54c17 -15 53 -26 93 -30v185c-119 22 -248 54 -248 216c0 122 117 205 248 222v67h100v-66c111 -11 241 -59 241 -176c0 -62 -56 -85 -97 -85c-63 0 -92 36 -92 76
c0 21 8 44 26 61c-21 10 -48 19 -78 25v-183c124 -24 266 -57 266 -227c0 -139 -138 -195 -266 -208v-73h-100zM515 173c0 46 -37 67 -90 82v-161c50 10 90 35 90 79zM249 527c0 -39 30 -60 76 -73v157c-43 -12 -76 -39 -76 -84z" />
    <glyph glyph-name="dong" unicode="&#x20ab;" horiz-adv-x="695" 
d="M32 264c0 149 79 270 239 270c39 0 101 -6 147 -74l-10 37v82h-182v45h182c0 20 -5 32 -25 32h-60v88l287 16v-136h78v-45h-78v-469c0 -11 10 -21 20 -21h54v-89h-274v52c-34 -52 -97 -69 -155 -69c-163 0 -223 136 -223 281zM331 438c-64 0 -81 -54 -81 -185
c0 -132 15 -174 77 -174c77 0 84 101 84 176c0 61 0 183 -80 183zM134 -70h466v-118h-466v118z" />
    <glyph glyph-name="dotaccent" unicode="&#x2d9;" horiz-adv-x="476" 
d="M159 660c0 47 39 84 87 84c45 0 83 -37 83 -84c0 -46 -40 -86 -87 -86c-46 0 -83 40 -83 86z" />
    <glyph glyph-name="dotbelowcomb" unicode="&#x323;" horiz-adv-x="307" 
d="M57 -118c0 56 42 96 96 96s99 -42 99 -96s-45 -98 -99 -98s-96 44 -96 98z" />
    <glyph glyph-name="dotlessi" unicode="&#x131;" horiz-adv-x="401" 
d="M30 89h58c8 0 19 1 19 37v274c0 17 -13 25 -25 25h-52v89l281 12v-399c0 -18 1 -38 20 -38h52v-89h-353v89z" />
    <glyph glyph-name="dotlessi.001" unicode="&#xe020;" horiz-adv-x="448" 
d="M324 446v-339c0 -9 11 -18 21 -18h63v-89h-369v89h63c9 0 18 9 18 18v339c0 10 -9 18 -18 18h-63v89h369v-89h-63c-10 0 -21 -8 -21 -18z" />
    <glyph glyph-name="dotlessj" unicode="&#x237;" horiz-adv-x="416" 
d="M-87 -131c0 62 38 100 102 100c48 0 89 -27 89 -79c0 -28 -14 -47 -40 -57c8 -2 15 -5 24 -5c28 0 56 19 56 49c0 20 -5 55 -5 80v449c0 8 -8 23 -18 23h-61v85l281 12v-585c0 -158 -91 -200 -233 -200c-83 0 -195 24 -195 128z" />
    <glyph glyph-name="dotlessj.001" unicode="&#xe021;" horiz-adv-x="519" 
d="M0 114c0 53 34 108 96 108c47 0 88 -19 88 -73c0 -34 -28 -54 -60 -54c-4 0 -7 0 -11 1c10 -20 31 -23 51 -23c28 0 56 18 56 52v302c0 19 -7 36 -26 36h-58v90h368v-90h-56c-14 0 -24 -14 -24 -27v-299c0 -100 -87 -159 -190 -159c-122 0 -234 37 -234 136z" />
    <glyph glyph-name="e" unicode="e" horiz-adv-x="650" 
d="M34 259c0 177 125 275 297 275c193 0 291 -111 291 -299h-370c0 -94 33 -148 131 -148c73 0 110 23 129 93h104c-9 -145 -158 -195 -281 -195c-176 0 -301 83 -301 274zM331 440c-57 0 -77 -68 -77 -116h150c0 48 -10 116 -73 116z" />
    <glyph glyph-name="e.001" unicode="&#xe022;" 
d="M39 89h63c9 0 19 8 19 18v336c0 12 -11 22 -23 22h-59v88h611v-220h-89l-6 63c-4 37 -24 67 -65 67h-165v-135h40c22 0 39 24 39 44v31h87v-235h-87v33c0 35 -17 44 -37 44h-42v-156h171c51 0 71 47 71 90v61h92v-240h-620v89z" />
    <glyph glyph-name="eacute" unicode="&#xe9;" horiz-adv-x="650" 
d="M34 259c0 177 125 275 297 275c193 0 291 -111 291 -299h-370c0 -94 33 -148 131 -148c73 0 110 23 129 93h104c-9 -145 -158 -195 -281 -195c-176 0 -301 83 -301 274zM331 440c-57 0 -77 -68 -77 -116h150c0 48 -10 116 -73 116zM263 596l88 148h182l-157 -148h-113z
" />
    <glyph glyph-name="eacute.001" unicode="&#xe023;" 
d="M39 89h63c9 0 19 8 19 18v336c0 12 -11 22 -23 22h-59v88h611v-220h-89l-6 63c-4 37 -24 67 -65 67h-165v-135h40c22 0 39 24 39 44v31h87v-235h-87v33c0 35 -17 44 -37 44h-42v-156h171c51 0 71 47 71 90v61h92v-240h-620v89zM289 596l87 148h182l-157 -148h-112z" />
    <glyph glyph-name="ecaron" unicode="&#x11b;" horiz-adv-x="650" 
d="M34 259c0 177 125 275 297 275c193 0 291 -111 291 -299h-370c0 -94 33 -148 131 -148c73 0 110 23 129 93h104c-9 -145 -158 -195 -281 -195c-176 0 -301 83 -301 274zM331 440c-57 0 -77 -68 -77 -116h150c0 48 -10 116 -73 116zM230 569l-103 150h132l60 -77l73 77
h132l-116 -150h-178z" />
    <glyph glyph-name="ecaron.001" unicode="&#xe024;" 
d="M39 89h63c9 0 19 8 19 18v336c0 12 -11 22 -23 22h-59v88h611v-220h-89l-6 63c-4 37 -24 67 -65 67h-165v-135h40c22 0 39 24 39 44v31h87v-235h-87v33c0 35 -17 44 -37 44h-42v-156h171c51 0 71 47 71 90v61h92v-240h-620v89zM268 594l-103 150h132l60 -77l73 77h132
l-116 -150h-178z" />
    <glyph glyph-name="ecircumflex" unicode="&#xea;" horiz-adv-x="650" 
d="M34 259c0 177 125 275 297 275c193 0 291 -111 291 -299h-370c0 -94 33 -148 131 -148c73 0 110 23 129 93h104c-9 -145 -158 -195 -281 -195c-176 0 -301 83 -301 274zM331 440c-57 0 -77 -68 -77 -116h150c0 48 -10 116 -73 116zM137 593l103 150h179l114 -150h-134
l-73 78l-60 -78h-129z" />
    <glyph glyph-name="ecircumflex.001" unicode="&#xe025;" 
d="M39 89h63c9 0 19 8 19 18v336c0 12 -11 22 -23 22h-59v88h611v-220h-89l-6 63c-4 37 -24 67 -65 67h-165v-135h40c22 0 39 24 39 44v31h87v-235h-87v33c0 35 -17 44 -37 44h-42v-156h171c51 0 71 47 71 90v61h92v-240h-620v89zM183 593l103 150h179l114 -150h-135l-72 78
l-60 -78h-129z" />
    <glyph glyph-name="edieresis" unicode="&#xeb;" horiz-adv-x="650" 
d="M34 259c0 177 125 275 297 275c193 0 291 -111 291 -299h-370c0 -94 33 -148 131 -148c73 0 110 23 129 93h104c-9 -145 -158 -195 -281 -195c-176 0 -301 83 -301 274zM331 440c-57 0 -77 -68 -77 -116h150c0 48 -10 116 -73 116zM124 660c0 47 40 84 88 84
c45 0 83 -37 83 -84c0 -46 -40 -86 -88 -86c-45 0 -83 40 -83 86zM377 660c0 47 36 84 86 84c46 0 83 -37 83 -83c0 -47 -40 -87 -88 -87c-46 0 -81 40 -81 86z" />
    <glyph glyph-name="edieresis.001" unicode="&#xe026;" 
d="M39 89h63c9 0 19 8 19 18v336c0 12 -11 22 -23 22h-59v88h611v-220h-89l-6 63c-4 37 -24 67 -65 67h-165v-135h40c22 0 39 24 39 44v31h87v-235h-87v33c0 35 -17 44 -37 44h-42v-156h171c51 0 71 47 71 90v61h92v-240h-620v89zM153 660c0 47 39 84 87 84
c45 0 83 -37 83 -84c0 -46 -40 -86 -87 -86c-46 0 -83 40 -83 86zM406 660c0 47 36 84 85 84c46 0 83 -37 83 -83c0 -47 -39 -87 -87 -87c-47 0 -81 40 -81 86z" />
    <glyph glyph-name="edotaccent" unicode="&#x117;" horiz-adv-x="650" 
d="M34 259c0 177 125 275 297 275c193 0 291 -111 291 -299h-370c0 -94 33 -148 131 -148c73 0 110 23 129 93h104c-9 -145 -158 -195 -281 -195c-176 0 -301 83 -301 274zM331 440c-57 0 -77 -68 -77 -116h150c0 48 -10 116 -73 116zM241 660c0 47 39 84 87 84
c45 0 83 -37 83 -84c0 -46 -40 -86 -87 -86c-46 0 -83 40 -83 86z" />
    <glyph glyph-name="edotaccent.001" unicode="&#xe027;" 
d="M39 89h63c9 0 19 8 19 18v336c0 12 -11 22 -23 22h-59v88h611v-220h-89l-6 63c-4 37 -24 67 -65 67h-165v-135h40c22 0 39 24 39 44v31h87v-235h-87v33c0 35 -17 44 -37 44h-42v-156h171c51 0 71 47 71 90v61h92v-240h-620v89zM279 680c0 47 39 84 87 84
c45 0 83 -37 83 -84c0 -46 -40 -86 -87 -86c-46 0 -83 40 -83 86z" />
    <glyph glyph-name="egrave" unicode="&#xe8;" horiz-adv-x="650" 
d="M34 259c0 177 125 275 297 275c193 0 291 -111 291 -299h-370c0 -94 33 -148 131 -148c73 0 110 23 129 93h104c-9 -145 -158 -195 -281 -195c-176 0 -301 83 -301 274zM331 440c-57 0 -77 -68 -77 -116h150c0 48 -10 116 -73 116zM345 744l88 -148h-113l-157 148h182z
" />
    <glyph glyph-name="egrave.001" unicode="&#xe028;" 
d="M39 89h63c9 0 19 8 19 18v336c0 12 -11 22 -23 22h-59v88h611v-220h-89l-6 63c-4 37 -24 67 -65 67h-165v-135h40c22 0 39 24 39 44v31h87v-235h-87v33c0 35 -17 44 -37 44h-42v-156h171c51 0 71 47 71 90v61h92v-240h-620v89zM371 744l87 -148h-112l-157 148h182z" />
    <glyph glyph-name="eight" unicode="8" horiz-adv-x="677" 
d="M55 185c0 79 41 119 112 154c-68 46 -104 80 -104 163c0 159 139 217 281 217c114 0 258 -44 258 -181c0 -81 -46 -120 -119 -148c83 -37 139 -83 139 -178c0 -166 -156 -212 -297 -212c-123 0 -270 35 -270 185zM209 200c0 -49 27 -98 121 -98c86 0 110 33 110 76
c0 36 -20 58 -53 71l-120 46c-37 -19 -58 -53 -58 -95zM238 542c0 -40 27 -63 60 -76c8 -4 85 -35 83 -34c49 28 64 49 64 100c0 64 -50 87 -109 87c-46 0 -98 -23 -98 -77z" />
    <glyph glyph-name="eight.osf" unicode="&#xe029;" horiz-adv-x="677" 
d="M55 171c0 79 42 119 113 154c-69 46 -104 80 -104 164c0 158 139 216 280 216c114 0 258 -44 258 -181c0 -81 -46 -120 -119 -148c83 -37 139 -83 139 -178c0 -166 -155 -212 -297 -212c-122 0 -270 35 -270 185zM209 186c0 -49 28 -98 121 -98c86 0 110 33 110 77
c0 36 -19 58 -53 71l-120 46c-37 -20 -58 -54 -58 -96zM238 528c0 -39 27 -62 60 -76c8 -4 85 -35 83 -33c49 27 64 48 64 99c0 64 -49 87 -109 87c-46 0 -98 -23 -98 -77z" />
    <glyph glyph-name="eight.tf" unicode="&#xe02a;" horiz-adv-x="660" 
d="M46 185c0 79 41 119 112 154c-68 46 -104 80 -104 163c0 159 139 217 281 217c114 0 258 -44 258 -181c0 -81 -46 -120 -119 -148c83 -37 139 -83 139 -178c0 -166 -156 -212 -297 -212c-123 0 -270 35 -270 185zM200 200c0 -49 27 -98 121 -98c86 0 110 33 110 76
c0 36 -20 58 -53 71l-120 46c-37 -19 -58 -53 -58 -95zM229 542c0 -40 27 -63 60 -76c8 -4 85 -35 83 -34c49 28 64 49 64 100c0 64 -50 87 -109 87c-46 0 -98 -23 -98 -77z" />
    <glyph glyph-name="eightinferior" unicode="&#x2088;" horiz-adv-x="415" 
d="M5 -77c0 45 21 77 71 93c-42 21 -68 48 -68 97c0 97 98 125 181 125c74 0 155 -33 155 -106c0 -44 -15 -64 -64 -85c69 -32 85 -58 85 -108c0 -85 -89 -129 -185 -129c-83 0 -175 33 -175 113zM114 -70c0 -14 5 -55 62 -55c38 0 53 21 53 42c0 26 -18 35 -86 68
c-21 -17 -29 -33 -29 -55zM138 136c0 -32 47 -46 71 -56c14 12 29 25 29 51c0 41 -39 44 -49 44c-6 0 -51 -3 -51 -39z" />
    <glyph glyph-name="eightsuperior" unicode="&#x2078;" horiz-adv-x="415" 
d="M5 448c0 45 21 77 71 93c-42 21 -68 48 -68 97c0 97 98 125 181 125c74 0 155 -33 155 -106c0 -44 -15 -64 -64 -85c69 -32 85 -58 85 -108c0 -85 -89 -129 -185 -129c-83 0 -175 33 -175 113zM114 455c0 -14 5 -55 62 -55c38 0 53 21 53 42c0 26 -18 35 -86 68
c-21 -17 -29 -33 -29 -55zM138 661c0 -32 47 -46 71 -56c14 12 29 25 29 51c0 41 -39 44 -49 44c-6 0 -51 -3 -51 -39z" />
    <glyph glyph-name="ellipsis" unicode="&#x2026;" horiz-adv-x="942" 
d="M70 93c0 56 42 96 96 96s99 -42 99 -96s-45 -98 -99 -98s-96 44 -96 98zM379 93c0 56 41 96 96 96c54 0 99 -42 99 -96s-45 -98 -99 -98c-55 0 -96 44 -96 98zM687 93c0 56 42 96 96 96s99 -42 99 -96s-45 -98 -99 -98s-96 44 -96 98z" />
    <glyph glyph-name="emacron" unicode="&#x113;" horiz-adv-x="650" 
d="M34 259c0 177 125 275 297 275c193 0 291 -111 291 -299h-370c0 -94 33 -148 131 -148c73 0 110 23 129 93h104c-9 -145 -158 -195 -281 -195c-176 0 -301 83 -301 274zM331 440c-57 0 -77 -68 -77 -116h150c0 48 -10 116 -73 116zM181 690h290v-100h-290v100z" />
    <glyph glyph-name="emacron.001" unicode="&#xe02b;" 
d="M39 89h63c9 0 19 8 19 18v336c0 12 -11 22 -23 22h-59v88h611v-220h-89l-6 63c-4 37 -24 67 -65 67h-165v-135h40c22 0 39 24 39 44v31h87v-235h-87v33c0 35 -17 44 -37 44h-42v-156h171c51 0 71 47 71 90v61h92v-240h-620v89zM219 690h290v-100h-290v100z" />
    <glyph glyph-name="emdash" unicode="&#x2014;" horiz-adv-x="895" 
d="M61 374h773v-125h-773v125z" />
    <glyph glyph-name="endash" unicode="&#x2013;" horiz-adv-x="545" 
d="M50 374h445v-125h-445v125z" />
    <glyph glyph-name="eng" unicode="&#x14b;" horiz-adv-x="734" 
d="M457 355c0 40 -29 60 -64 60c-52 0 -90 -33 -90 -85v-203c0 -18 2 -38 20 -38h39v-89h-337v89h55c9 0 20 1 20 37v275c0 19 -9 25 -21 25h-54v88l274 9l-6 -88c37 73 104 97 183 97c83 0 183 -38 183 -137v-457c0 -158 -91 -200 -233 -200c-83 0 -195 24 -195 128
c0 62 38 100 102 100c48 0 89 -27 89 -79c0 -28 -14 -47 -40 -57c8 -2 15 -5 24 -5c28 0 56 19 56 49c0 20 -5 55 -5 80v401z" />
    <glyph glyph-name="eng.001" unicode="&#xe02c;" horiz-adv-x="764" 
d="M102 89c9 0 19 8 19 18v330c0 10 -3 27 -27 27h-55v89h290l221 -361c2 -3 10 -30 18 -50l-8 53v238c0 28 -12 31 -34 31h-42v89h280v-89h-55c-14 0 -26 -3 -26 -29v-546c0 -100 -87 -159 -180 -159c-122 0 -234 37 -234 136c0 53 34 108 96 108c47 0 88 -19 88 -73
c0 -34 -28 -54 -60 -54c-4 0 -7 0 -11 1c10 -20 31 -23 51 -23c28 0 56 18 56 52v123l-234 356l-21 47l11 -45v-251c0 -10 10 -18 20 -18h61v-89h-287v89h63z" />
    <glyph glyph-name="eogonek" unicode="&#x119;" horiz-adv-x="650" 
d="M34 259c0 177 125 275 297 275c193 0 291 -111 291 -299h-370c0 -94 33 -148 131 -148c73 0 110 23 129 93h104c-6 -108 -83 -145 -160 -184c-41 -17 -63 -45 -63 -74c0 -27 20 -50 63 -50c14 0 41 2 60 7c12 -52 15 -67 15 -67c-21 -10 -57 -20 -83 -20
c-94 0 -166 49 -166 110c0 30 16 58 44 83c-171 3 -292 86 -292 274zM331 440c-57 0 -77 -68 -77 -116h150c0 48 -10 116 -73 116z" />
    <glyph glyph-name="eogonek.001" unicode="&#xe02d;" 
d="M39 89h63c9 0 19 8 19 18v336c0 12 -11 22 -23 22h-59v88h611v-220h-89l-6 63c-4 37 -24 67 -65 67h-165v-135h40c22 0 39 24 39 44v31h87v-235h-87v33c0 35 -17 44 -37 44h-42v-156h171c51 0 71 47 71 90v61h92v-240h-108c-53 -40 -56 -56 -56 -82c0 -18 6 -46 59 -46
c14 0 41 2 60 7c12 -52 15 -67 15 -67c-21 -10 -57 -20 -83 -20c-94 0 -166 49 -166 110c0 36 23 68 61 98h-402v89z" />
    <glyph glyph-name="equal" unicode="=" horiz-adv-x="547" 
d="M61 460h425v-124h-425v124zM61 248h425v-124h-425v124z" />
    <glyph glyph-name="eth" unicode="&#xf0;" horiz-adv-x="634" 
d="M442 672l52 37l44 -62l-30 -22c69 -69 88 -172 88 -275c0 -208 -56 -367 -289 -367c-145 0 -274 80 -274 238c0 130 94 211 220 211c49 0 101 -11 137 -48c4 22 5 43 5 63c0 32 -5 61 -15 85l-45 -32l-44 61l39 30c-21 12 -48 19 -81 19c-11 0 -44 -3 -52 -16
c23 -10 33 -28 33 -54c0 -50 -41 -78 -89 -78c-60 0 -100 37 -100 97c0 118 133 148 228 148c72 0 128 -13 173 -35zM233 210c0 -55 5 -126 76 -126c73 0 73 79 73 132c0 89 -27 117 -75 117c-71 0 -74 -69 -74 -123z" />
    <glyph glyph-name="eth.001" unicode="&#xe02e;" horiz-adv-x="781" 
d="M62 329h62v108c0 11 -10 26 -23 26h-62v90h424c169 0 283 -121 283 -278c0 -173 -115 -275 -284 -275h-423v89h64c10 0 21 9 21 20v116h-62v104zM328 461v-132h92v-104h-92v-136h73c108 0 128 110 128 188c0 86 -20 184 -129 184h-72z" />
    <glyph glyph-name="exclam" unicode="!" horiz-adv-x="438" 
d="M315 93c0 -54 -47 -98 -100 -98c-56 0 -95 46 -95 100c0 53 43 94 94 94c54 0 101 -40 101 -96zM215 719c73 0 108 -43 108 -113c0 -54 -53 -214 -53 -386h-101c0 141 -58 363 -58 388c0 62 41 111 104 111z" />
    <glyph glyph-name="exclamdown" unicode="&#xa1;" horiz-adv-x="438" 
d="M124 438c0 54 47 97 99 97c56 0 96 -46 96 -99s-43 -94 -94 -94c-54 0 -101 40 -101 96zM223 -188c-73 0 -108 43 -108 113c0 54 54 214 54 386h100c0 -141 58 -363 58 -388c0 -62 -40 -111 -104 -111z" />
    <glyph glyph-name="f" unicode="f" horiz-adv-x="483" 
d="M33 89h57c14 0 20 15 20 27v310h-83v89h83c0 33 0 73 6 108c20 106 136 133 228 133c78 0 194 -16 194 -118c0 -57 -40 -92 -93 -92c-50 0 -90 32 -90 83c0 17 4 32 14 46c-2 2 -3 2 -8 2c-39 0 -60 -31 -60 -66c0 -59 13 -75 13 -96h114v-89h-114v-312
c0 -14 8 -25 30 -25h84v-89h-395v89z" />
    <glyph glyph-name="f.001" unicode="&#xe02f;" horiz-adv-x="669" 
d="M345 89h62v-89h-368v89h63c9 0 19 8 19 17v336c0 12 -11 22 -23 22h-59v89h610v-220h-89l-4 55c-3 37 -18 75 -67 75h-164v-135h41c22 0 38 23 38 43v32h87v-235h-87v32c0 36 -16 44 -37 44h-42v-138c0 -9 10 -17 20 -17z" />
    <glyph glyph-name="fb" unicode="&#xe030;" horiz-adv-x="1114" 
d="M503 601c0 81 -53 83 -107 83c-59 0 -95 -31 -95 -73c0 -59 8 -75 13 -96h114v-89h-114v-312c0 -14 8 -25 30 -25h43v-89h-354v89h57c14 0 20 15 20 27v310h-83v89h83c0 33 0 73 6 108c20 106 136 133 228 133c37 0 84 -3 122 -19l239 21v-231l-10 -66
c35 51 98 73 160 73c153 0 224 -131 224 -273c0 -152 -81 -276 -243 -276c-85 0 -133 27 -179 100l-37 -85h-117v601zM863 247c0 69 -4 189 -79 189c-80 0 -83 -106 -83 -188c0 -95 12 -169 79 -169c81 0 83 107 83 168z" />
    <glyph glyph-name="fh" unicode="&#xe031;" horiz-adv-x="1152" 
d="M705 758v-264l-8 -55c37 73 104 96 183 96c83 0 183 -37 183 -137v-271c0 -18 2 -38 20 -38h53v-89h-331v89h37c8 0 19 1 19 37v233c0 39 -29 60 -64 60c-53 0 -90 -34 -90 -85v-207c0 -18 2 -38 20 -38h39v-89h-333v89h51c8 0 19 1 19 37v475c0 81 -53 83 -107 83
c-59 0 -95 -31 -95 -73c0 -59 8 -75 13 -96h114v-89h-114v-312c0 -14 8 -25 30 -25h43v-89h-354v89h57c14 0 20 15 20 27v310h-83v89h83c0 33 0 73 6 108c20 106 136 133 228 133c37 0 84 -3 122 -19z" />
    <glyph glyph-name="fi.001" unicode="&#xe032;" horiz-adv-x="1117" 
d="M345 89h62v-89h-368v89h63c9 0 19 8 19 17v336c0 12 -11 22 -23 22h-59v89h610v-220h-89l-4 55c-3 37 -18 75 -67 75h-164v-135h41c22 0 38 23 38 43v32h87v-235h-87v32c0 36 -16 44 -37 44h-42v-138c0 -9 10 -17 20 -17zM993 446v-339c0 -9 11 -18 21 -18h63v-89h-369
v89h63c9 0 18 9 18 18v339c0 10 -9 18 -18 18h-63v89h369v-89h-63c-10 0 -21 -8 -21 -18z" />
    <glyph glyph-name="five" unicode="5" horiz-adv-x="677" 
d="M64 147c0 56 40 100 100 100c47 0 92 -32 92 -83c0 -27 -12 -48 -33 -65c21 -10 45 -14 68 -14c83 0 127 76 127 151c0 73 -41 144 -123 144c-52 0 -71 -17 -95 -61l-3 -2h-103c0 136 3 334 3 379c8 -2 141 -9 274 -9c83 0 167 3 219 12v-2c0 -1 -7 -23 -11 -31
c-40 -97 -182 -109 -286 -109c-38 0 -71 1 -92 1c0 -11 -1 -58 -1 -138c47 51 97 59 165 59c148 0 249 -82 249 -232c0 -179 -138 -260 -305 -260c-98 0 -245 38 -245 160z" />
    <glyph glyph-name="five.osf" unicode="&#xe033;" horiz-adv-x="678" 
d="M64 -29c0 57 40 100 100 100c48 0 92 -31 92 -83c0 -27 -12 -48 -33 -64c21 -10 45 -15 68 -15c83 0 127 76 127 152c0 72 -41 143 -123 143c-52 0 -71 -16 -95 -60l-3 -2h-103c0 135 3 332 3 376c8 -2 141 -8 274 -8c83 0 167 2 219 12v-2c0 -2 -7 -23 -10 -31
c-41 -97 -183 -110 -287 -110c-38 0 -71 2 -92 2c0 -11 -1 -56 -1 -137c47 51 97 60 165 60c148 0 250 -83 250 -233c0 -179 -139 -260 -306 -260c-97 0 -245 38 -245 160z" />
    <glyph glyph-name="five.tf" unicode="&#xe034;" horiz-adv-x="660" 
d="M55 147c0 56 40 100 100 100c47 0 92 -32 92 -83c0 -27 -12 -48 -33 -65c21 -10 45 -14 68 -14c83 0 127 76 127 151c0 73 -41 144 -123 144c-52 0 -71 -17 -95 -61l-3 -2h-103c0 136 3 334 3 379c8 -2 141 -9 274 -9c83 0 167 3 219 12v-2c0 -1 -7 -23 -11 -31
c-40 -97 -182 -109 -286 -109c-38 0 -71 1 -92 1c0 -11 -1 -58 -1 -138c47 51 97 59 165 59c148 0 249 -82 249 -232c0 -179 -138 -260 -305 -260c-98 0 -245 38 -245 160z" />
    <glyph glyph-name="fiveeighths" unicode="&#x215d;" horiz-adv-x="975" 
d="M565 105c0 45 21 77 71 93c-42 21 -68 48 -68 97c0 97 98 125 181 125c74 0 155 -33 155 -106c0 -44 -15 -64 -64 -85c69 -32 85 -58 85 -108c0 -85 -89 -129 -185 -129c-83 0 -175 33 -175 113zM674 112c0 -14 5 -55 62 -55c38 0 53 21 53 42c0 26 -18 35 -86 68
c-21 -17 -29 -33 -29 -55zM698 318c0 -32 47 -46 71 -56c14 12 29 25 29 51c0 41 -39 44 -49 44c-6 0 -51 -3 -51 -39zM641 716h104l-452 -743h-101zM5 369c0 46 38 66 73 66c30 0 59 -15 59 -43c0 -21 -6 -31 -20 -44c14 -7 26 -10 38 -10c43 0 63 41 63 83s-21 85 -58 85
c-17 0 -35 -9 -52 -29h-89l8 220c41 -9 85 -13 130 -13c60 0 123 7 187 17c0 -39 -42 -101 -191 -101c-23 0 -28 1 -52 2l-3 -79c23 30 65 45 108 45c75 0 155 -45 155 -139c0 -97 -76 -156 -199 -156c-69 0 -157 27 -157 96z" />
    <glyph glyph-name="fiveinferior" unicode="&#x2085;" horiz-adv-x="411" 
d="M5 -97c0 46 38 66 73 66c30 0 59 -15 59 -43c0 -21 -6 -31 -20 -44c14 -7 26 -10 38 -10c43 0 63 41 63 83s-21 85 -58 85c-17 0 -35 -9 -52 -29h-89l8 220c41 -9 85 -13 130 -13c60 0 123 7 187 17c0 -39 -42 -101 -191 -101c-23 0 -28 1 -52 2l-3 -79
c23 30 65 45 108 45c75 0 155 -45 155 -139c0 -97 -76 -156 -199 -156c-69 0 -157 27 -157 96z" />
    <glyph glyph-name="fivesevenths" unicode="&#xe035;" horiz-adv-x="999" 
d="M5 369c0 46 38 66 73 66c30 0 59 -15 59 -43c0 -21 -6 -31 -20 -44c14 -7 26 -10 38 -10c43 0 63 41 63 83s-21 85 -58 85c-17 0 -35 -9 -52 -29h-89l8 220c41 -9 85 -13 130 -13c60 0 123 7 187 17c0 -39 -42 -101 -191 -101c-23 0 -28 1 -52 2l-3 -79
c23 30 65 45 108 45c75 0 155 -45 155 -139c0 -97 -76 -156 -199 -156c-69 0 -157 27 -157 96zM687 45c0 147 165 214 175 305c-20 -37 -49 -54 -82 -54c-31 0 -55 10 -75 10c-33 0 -36 -19 -36 -35v-26h-74v165h74v-58c14 47 26 62 64 62c41 0 88 -26 117 -26
c18 0 21 4 22 22h77c0 -46 -16 -113 -46 -151c-65 -82 -78 -148 -78 -213c0 -27 -9 -68 -70 -68c-57 0 -68 39 -68 67zM641 716h104l-452 -743h-101z" />
    <glyph glyph-name="fivesixths" unicode="&#xe036;" horiz-adv-x="968" 
d="M641 716h104l-452 -743h-101zM5 369c0 46 38 66 73 66c30 0 59 -15 59 -43c0 -21 -6 -31 -20 -44c14 -7 26 -10 38 -10c43 0 63 41 63 83s-21 85 -58 85c-17 0 -35 -9 -52 -29h-89l8 220c41 -9 85 -13 130 -13c60 0 123 7 187 17c0 -39 -42 -101 -191 -101
c-23 0 -28 1 -52 2l-3 -79c23 30 65 45 108 45c75 0 155 -45 155 -139c0 -97 -76 -156 -199 -156c-69 0 -157 27 -157 96zM912 331c0 -27 -13 -59 -70 -59c-31 0 -60 12 -60 45c0 22 12 31 17 35c-12 6 -20 7 -29 7c-60 0 -64 -51 -64 -128c19 21 43 29 76 29
c87 0 136 -55 136 -125c0 -86 -76 -142 -177 -142c-148 0 -182 96 -182 202c0 131 51 226 210 226c79 0 143 -27 143 -90zM777 127c0 49 -9 70 -34 70c-34 0 -39 -27 -39 -66c0 -49 7 -74 36 -74c28 0 37 22 37 70z" />
    <glyph glyph-name="fivesuperior" unicode="&#x2075;" horiz-adv-x="411" 
d="M5 428c0 46 38 66 73 66c30 0 59 -15 59 -43c0 -21 -6 -31 -20 -44c14 -7 26 -10 38 -10c43 0 63 41 63 83s-21 85 -58 85c-17 0 -35 -9 -52 -29h-89l8 220c41 -9 85 -13 130 -13c60 0 123 7 187 17c0 -39 -42 -101 -191 -101c-23 0 -28 1 -52 2l-3 -79
c23 30 65 45 108 45c75 0 155 -45 155 -139c0 -97 -76 -156 -199 -156c-69 0 -157 27 -157 96z" />
    <glyph glyph-name="fj" unicode="&#xe037;" horiz-adv-x="769" 
d="M694 532v-591c0 -158 -92 -200 -234 -200c-83 0 -195 24 -195 128c0 62 38 100 102 100c48 0 89 -27 89 -79c0 -28 -14 -47 -40 -57c8 -2 15 -5 24 -5c28 0 56 19 56 49c0 20 -5 55 -5 80v443c0 17 -13 25 -26 26h-151v-312c0 -14 8 -25 30 -25h35v-89h-346v89h57
c14 0 20 15 20 27v310h-83v89h83c0 33 0 73 6 108c20 106 136 133 228 133c78 0 194 -16 194 -118c0 -57 -40 -92 -93 -92c-50 0 -90 32 -90 83c0 17 4 32 14 46c-2 2 -3 2 -8 2c-39 0 -60 -31 -60 -66c0 -59 13 -69 13 -97h188z" />
    <glyph glyph-name="fk" unicode="&#xe038;" horiz-adv-x="1140" 
d="M707 293c102 74 143 98 143 116c0 11 -4 14 -14 15h-48v91h334v-89h-69c-33 0 -87 -52 -130 -84l154 -232c15 -23 41 -23 72 -23v-87h-351v87h14c15 0 34 2 34 21c0 15 -21 38 -72 120l-67 -50v-66c0 -25 35 -26 58 -26v-86h-334v89h51c21 0 21 21 21 32v480
c0 81 -53 83 -107 83c-59 0 -95 -31 -95 -73c0 -59 8 -75 13 -96h114v-89h-114v-312c0 -14 8 -25 30 -25h43v-89h-354v89h57c14 0 20 15 20 27v310h-83v89h83c0 33 0 73 6 108c20 106 136 133 228 133c37 0 84 -3 122 -19l241 21v-465z" />
    <glyph glyph-name="fl.001" unicode="&#xe039;" horiz-adv-x="1309" 
d="M345 89h62v-89h-368v89h63c9 0 19 8 19 17v336c0 12 -11 22 -23 22h-59v89h610v-220h-89l-4 55c-3 37 -18 75 -67 75h-164v-135h41c22 0 38 23 38 43v32h87v-235h-87v32c0 36 -16 44 -37 44h-42v-138c0 -9 10 -17 20 -17zM1075 463h-61c-10 0 -20 -8 -20 -17v-357h150
c76 0 68 86 73 151h88v-240h-597v87h58c13 0 24 10 24 22v337c0 9 -10 17 -20 17h-62v90h367v-90z" />
    <glyph glyph-name="florin" unicode="&#x192;" horiz-adv-x="628" 
d="M192 -267c-68 0 -99 4 -150 18v110c33 -7 54 -10 77 -10c39 0 50 9 50 46v437h-83v89h83c0 125 0 165 6 200c21 106 136 133 228 133c78 0 194 -16 194 -118c0 -57 -40 -92 -93 -92c-50 0 -90 32 -90 83c0 17 4 32 14 46c-2 2 -3 2 -8 2c-39 0 -60 -31 -60 -66
c0 -59 13 -75 13 -188h114v-89h-114v-464c0 -106 -87 -137 -181 -137z" />
    <glyph glyph-name="four" unicode="4" horiz-adv-x="691" 
d="M254 0v99h56c27 0 33 22 33 40v46h-306v96l324 411h171v-411h103v-96h-103v-63c0 -23 21 -24 32 -24c48 0 53 0 57 -1v-97h-367zM166 281h179v198l5 60l-36 -62z" />
    <glyph glyph-name="four.osf" unicode="&#xe03a;" horiz-adv-x="691" 
d="M532 0v-184h-189v184h-306v96l324 411h171v-411h103v-96h-103zM166 96h179v198l5 60l-36 -62z" />
    <glyph glyph-name="four.tf" unicode="&#xe03b;" horiz-adv-x="660" 
d="M248 0v99h56c27 0 33 22 33 40v46h-306v96l324 411h171v-411h103v-96h-103v-63c0 -23 21 -24 32 -24c48 0 53 0 57 -1v-97h-367zM160 281h179v198l5 60l-36 -62z" />
    <glyph glyph-name="fourfifths" unicode="&#xe03c;" horiz-adv-x="1025" 
d="M619 85c0 46 38 66 73 66c30 0 59 -15 59 -43c0 -21 -6 -31 -20 -44c14 -7 26 -10 38 -10c43 0 63 41 63 83s-21 85 -58 85c-17 0 -35 -9 -52 -29h-89l8 220c41 -9 85 -13 130 -13c60 0 123 7 187 17c0 -39 -42 -101 -191 -101c-23 0 -28 1 -52 2l-3 -79
c23 30 65 45 108 45c75 0 155 -45 155 -139c0 -97 -76 -156 -199 -156c-69 0 -157 27 -157 96zM685 716h104l-452 -743h-101zM174 348c12 0 22 10 22 23v17h-191v61l186 244h127v-240h76v-65h-76v-18c0 -17 10 -20 25 -22h39v-64h-253v64h45zM196 609l-121 -156h121v156z
" />
    <glyph glyph-name="fourinferior" unicode="&#x2084;" horiz-adv-x="444" 
d="M174 -117c12 0 22 10 22 23v17h-191v61l186 244h127v-240h76v-65h-76v-18c0 -17 10 -20 25 -22h39v-64h-253v64h45zM196 144l-121 -156h121v156z" />
    <glyph glyph-name="foursevenths" unicode="&#xe03d;" horiz-adv-x="1043" 
d="M174 348c12 0 22 10 22 23v17h-191v61l186 244h127v-240h76v-65h-76v-18c0 -17 10 -20 25 -22h39v-64h-253v64h45zM731 45c0 147 165 214 175 305c-20 -37 -49 -54 -82 -54c-31 0 -55 10 -75 10c-33 0 -36 -19 -36 -35v-26h-74v165h74v-58c14 47 26 62 64 62
c41 0 88 -26 117 -26c18 0 21 4 22 22h77c0 -46 -16 -113 -46 -151c-65 -82 -78 -148 -78 -213c0 -27 -9 -68 -70 -68c-57 0 -68 39 -68 67zM685 716h104l-452 -743h-101zM196 609l-121 -156h121v156z" />
    <glyph glyph-name="foursuperior" unicode="&#x2074;" horiz-adv-x="444" 
d="M174 408c12 0 22 10 22 23v17h-191v61l186 244h127v-240h76v-65h-76v-18c0 -17 10 -20 25 -22h39v-64h-253v64h45zM196 669l-121 -156h121v156z" />
    <glyph glyph-name="fraction" unicode="&#x2044;" horiz-adv-x="513" 
d="M430 743h104l-452 -743h-101z" />
    <glyph glyph-name="ft" unicode="&#xe03e;" horiz-adv-x="853" 
d="M679 -11c-94 0 -178 30 -178 137v300h-187v-312c0 -14 8 -25 30 -25h49v-89h-360v89h57c14 0 20 15 20 27v310h-83v89h83c0 33 0 73 6 108c21 106 136 133 228 133c78 0 194 -16 194 -118c0 -57 -40 -92 -93 -92c-50 0 -90 32 -90 83c0 17 4 32 14 46c-2 2 -3 2 -8 2
c-39 0 -60 -31 -60 -66c0 -59 13 -75 13 -96h127c142 0 156 71 156 199h105v-200h129v-89h-129v-272c0 -37 11 -46 50 -46c23 0 44 2 77 10v-111c-51 -13 -82 -17 -150 -17z" />
    <glyph glyph-name="g" unicode="g" horiz-adv-x="677" 
d="M34 -119c0 46 32 71 73 83c-46 25 -66 61 -66 111c0 72 37 103 101 134c-52 39 -75 75 -75 138c0 145 142 188 264 188c50 0 106 -10 154 -28l23 10h156v-87h-91c9 -27 16 -52 16 -78c0 -145 -135 -188 -259 -188c-43 0 -71 2 -117 13c-23 0 -31 -22 -31 -40
c0 -28 27 -33 49 -33h283c90 0 143 -67 143 -152c0 -131 -93 -208 -317 -208c-111 0 -306 10 -306 137zM170 -98c0 -68 109 -69 160 -69c107 0 182 11 182 71c0 23 -16 37 -39 37h-271c-21 0 -32 -20 -32 -39zM331 458c-56 0 -56 -66 -56 -107c0 -80 10 -108 55 -108
c51 0 51 73 51 111c0 73 -10 104 -50 104z" />
    <glyph glyph-name="g.001" unicode="&#xe03f;" horiz-adv-x="724" 
d="M35 271c0 175 142 298 314 298c58 0 120 -16 170 -45l17 35h89v-219h-93c-17 88 -67 139 -136 139c-126 0 -146 -106 -146 -210c0 -95 27 -190 133 -190c57 0 86 31 86 66v31c0 18 -16 23 -37 23h-47v89h334v-89h-41c-8 0 -35 -5 -35 -22v-182h-98l-15 49
c-37 -49 -108 -66 -171 -66c-168 0 -324 123 -324 293z" />
    <glyph glyph-name="g.alt" unicode="&#xe4c6;" horiz-adv-x="751" 
d="M67 347c0 145 142 188 264 188c56 0 132 -13 188 -52c32 33 78 52 119 52c73 0 123 -47 123 -112c0 -49 -31 -78 -74 -78c-42 0 -73 28 -73 62c0 23 10 41 29 59c-7 9 -17 14 -26 14c-17 0 -37 -12 -59 -33c19 -25 31 -56 31 -95c0 -145 -135 -188 -259 -188
c-43 0 -71 2 -117 13c-23 0 -31 -22 -31 -40c0 -28 27 -33 49 -33h283c90 0 143 -67 143 -152c0 -131 -93 -208 -317 -208c-111 0 -306 10 -306 137c0 46 32 71 73 83c-46 25 -66 61 -66 111c0 72 37 103 101 134c-52 39 -75 75 -75 138zM170 -98c0 -68 109 -69 160 -69
c107 0 182 11 182 71c0 23 -16 37 -39 37h-271c-21 0 -32 -20 -32 -39zM331 458c-56 0 -56 -66 -56 -107c0 -80 10 -108 55 -108c51 0 51 73 51 111c0 73 -10 104 -50 104z" />
    <glyph glyph-name="gbreve" unicode="&#x11f;" horiz-adv-x="677" 
d="M34 -119c0 46 32 71 73 83c-46 25 -66 61 -66 111c0 72 37 103 101 134c-52 39 -75 75 -75 138c0 145 142 188 264 188c50 0 106 -10 154 -28l23 10h156v-87h-91c9 -27 16 -52 16 -78c0 -145 -135 -188 -259 -188c-43 0 -71 2 -117 13c-23 0 -31 -22 -31 -40
c0 -28 27 -33 49 -33h283c90 0 143 -67 143 -152c0 -131 -93 -208 -317 -208c-111 0 -306 10 -306 137zM170 -98c0 -68 109 -69 160 -69c107 0 182 11 182 71c0 23 -16 37 -39 37h-271c-21 0 -32 -20 -32 -39zM331 458c-56 0 -56 -66 -56 -107c0 -80 10 -108 55 -108
c51 0 51 73 51 111c0 73 -10 104 -50 104zM324 569c-95 0 -176 27 -176 107h112c0 -23 12 -37 68 -37c49 0 66 14 67 37h112c-1 -82 -88 -107 -183 -107z" />
    <glyph glyph-name="gbreve.001" unicode="&#xe040;" horiz-adv-x="724" 
d="M35 271c0 175 142 298 314 298c58 0 120 -16 170 -45l17 35h89v-219h-93c-17 88 -67 139 -136 139c-126 0 -146 -106 -146 -210c0 -95 27 -190 133 -190c57 0 86 31 86 66v31c0 18 -16 23 -37 23h-47v89h334v-89h-41c-8 0 -35 -5 -35 -22v-182h-98l-15 49
c-37 -49 -108 -66 -171 -66c-168 0 -324 123 -324 293zM365 589c-95 0 -176 27 -176 107h112c0 -23 12 -37 68 -37c49 0 66 14 67 37h112c-1 -82 -88 -107 -183 -107z" />
    <glyph glyph-name="gbreve.002" unicode="&#xe041;" horiz-adv-x="751" 
d="M67 347c0 145 142 188 264 188c56 0 132 -13 188 -52c32 33 78 52 119 52c73 0 123 -47 123 -112c0 -49 -31 -78 -74 -78c-42 0 -73 28 -73 62c0 23 10 41 29 59c-7 9 -17 14 -26 14c-17 0 -37 -12 -59 -33c19 -25 31 -56 31 -95c0 -145 -135 -188 -259 -188
c-43 0 -71 2 -117 13c-23 0 -31 -22 -31 -40c0 -28 27 -33 49 -33h283c90 0 143 -67 143 -152c0 -131 -93 -208 -317 -208c-111 0 -306 10 -306 137c0 46 32 71 73 83c-46 25 -66 61 -66 111c0 72 37 103 101 134c-52 39 -75 75 -75 138zM170 -98c0 -68 109 -69 160 -69
c107 0 182 11 182 71c0 23 -16 37 -39 37h-271c-21 0 -32 -20 -32 -39zM331 458c-56 0 -56 -66 -56 -107c0 -80 10 -108 55 -108c51 0 51 73 51 111c0 73 -10 104 -50 104zM329 589c-95 0 -176 27 -176 107h112c0 -23 12 -37 68 -37c49 0 66 14 67 37h112
c-1 -82 -88 -107 -183 -107z" />
    <glyph glyph-name="gcircumflex" unicode="&#x11d;" horiz-adv-x="677" 
d="M34 -119c0 46 32 71 73 83c-46 25 -66 61 -66 111c0 72 37 103 101 134c-52 39 -75 75 -75 138c0 145 142 188 264 188c50 0 106 -10 154 -28l23 10h156v-87h-91c9 -27 16 -52 16 -78c0 -145 -135 -188 -259 -188c-43 0 -71 2 -117 13c-23 0 -31 -22 -31 -40
c0 -28 27 -33 49 -33h283c90 0 143 -67 143 -152c0 -131 -93 -208 -317 -208c-111 0 -306 10 -306 137zM170 -98c0 -68 109 -69 160 -69c107 0 182 11 182 71c0 23 -16 37 -39 37h-271c-21 0 -32 -20 -32 -39zM331 458c-56 0 -56 -66 -56 -107c0 -80 10 -108 55 -108
c51 0 51 73 51 111c0 73 -10 104 -50 104zM130 593l103 150h179l114 -150h-135l-72 78l-60 -78h-129z" />
    <glyph glyph-name="gcircumflex.001" unicode="&#xe042;" horiz-adv-x="724" 
d="M35 271c0 175 142 298 314 298c58 0 120 -16 170 -45l17 35h89v-219h-93c-17 88 -67 139 -136 139c-126 0 -146 -106 -146 -210c0 -95 27 -190 133 -190c57 0 86 31 86 66v31c0 18 -16 23 -37 23h-47v89h334v-89h-41c-8 0 -35 -5 -35 -22v-182h-98l-15 49
c-37 -49 -108 -66 -171 -66c-168 0 -324 123 -324 293zM171 603l103 150h179l114 -150h-135l-72 78l-60 -78h-129z" />
    <glyph glyph-name="gcircumflex.002" unicode="&#xe043;" horiz-adv-x="751" 
d="M67 347c0 145 142 188 264 188c56 0 132 -13 188 -52c32 33 78 52 119 52c73 0 123 -47 123 -112c0 -49 -31 -78 -74 -78c-42 0 -73 28 -73 62c0 23 10 41 29 59c-7 9 -17 14 -26 14c-17 0 -37 -12 -59 -33c19 -25 31 -56 31 -95c0 -145 -135 -188 -259 -188
c-43 0 -71 2 -117 13c-23 0 -31 -22 -31 -40c0 -28 27 -33 49 -33h283c90 0 143 -67 143 -152c0 -131 -93 -208 -317 -208c-111 0 -306 10 -306 137c0 46 32 71 73 83c-46 25 -66 61 -66 111c0 72 37 103 101 134c-52 39 -75 75 -75 138zM170 -98c0 -68 109 -69 160 -69
c107 0 182 11 182 71c0 23 -16 37 -39 37h-271c-21 0 -32 -20 -32 -39zM331 458c-56 0 -56 -66 -56 -107c0 -80 10 -108 55 -108c51 0 51 73 51 111c0 73 -10 104 -50 104zM132 593l103 150h179l114 -150h-135l-72 78l-60 -78h-129z" />
    <glyph glyph-name="gcommaaccent" unicode="&#x123;" horiz-adv-x="677" 
d="M34 -119c0 46 32 71 73 83c-46 25 -66 61 -66 111c0 72 37 103 101 134c-52 39 -75 75 -75 138c0 145 142 188 264 188c50 0 106 -10 154 -28l23 10h156v-87h-91c9 -27 16 -52 16 -78c0 -145 -135 -188 -259 -188c-43 0 -71 2 -117 13c-23 0 -31 -22 -31 -40
c0 -28 27 -33 49 -33h283c90 0 143 -67 143 -152c0 -131 -93 -208 -317 -208c-111 0 -306 10 -306 137zM170 -98c0 -68 109 -69 160 -69c107 0 182 11 182 71c0 23 -16 37 -39 37h-271c-21 0 -32 -20 -32 -39zM331 458c-56 0 -56 -66 -56 -107c0 -80 10 -108 55 -108
c51 0 51 73 51 111c0 73 -10 104 -50 104zM332 572c-76 0 -104 67 -104 135c0 110 69 183 182 183v-63c-36 0 -74 -19 -74 -61c0 -3 0 -8 1 -11c58 0 91 -29 91 -88c0 -53 -40 -95 -96 -95z" />
    <glyph glyph-name="gcommaaccent.001" unicode="&#xe044;" horiz-adv-x="724" 
d="M35 271c0 175 142 298 314 298c58 0 120 -16 170 -45l17 35h89v-219h-93c-17 88 -67 139 -136 139c-126 0 -146 -106 -146 -210c0 -95 27 -190 133 -190c57 0 86 31 86 66v31c0 18 -16 23 -37 23h-47v89h334v-89h-41c-8 0 -35 -5 -35 -22v-182h-98l-15 49
c-37 -49 -108 -66 -171 -66c-168 0 -324 123 -324 293zM352 -62c76 0 104 -66 104 -134c0 -111 -69 -183 -181 -183v62c36 0 73 19 73 61v12c-58 0 -92 28 -92 87c0 54 40 95 96 95z" />
    <glyph glyph-name="gcommaaccent.002" unicode="&#xe045;" horiz-adv-x="751" 
d="M67 347c0 145 142 188 264 188c56 0 132 -13 188 -52c32 33 78 52 119 52c73 0 123 -47 123 -112c0 -49 -31 -78 -74 -78c-42 0 -73 28 -73 62c0 23 10 41 29 59c-7 9 -17 14 -26 14c-17 0 -37 -12 -59 -33c19 -25 31 -56 31 -95c0 -145 -135 -188 -259 -188
c-43 0 -71 2 -117 13c-23 0 -31 -22 -31 -40c0 -28 27 -33 49 -33h283c90 0 143 -67 143 -152c0 -131 -93 -208 -317 -208c-111 0 -306 10 -306 137c0 46 32 71 73 83c-46 25 -66 61 -66 111c0 72 37 103 101 134c-52 39 -75 75 -75 138zM170 -98c0 -68 109 -69 160 -69
c107 0 182 11 182 71c0 23 -16 37 -39 37h-271c-21 0 -32 -20 -32 -39zM331 458c-56 0 -56 -66 -56 -107c0 -80 10 -108 55 -108c51 0 51 73 51 111c0 73 -10 104 -50 104zM334 583c-76 0 -104 66 -104 134c0 111 69 183 181 183v-62c-36 0 -73 -19 -73 -61v-12
c58 0 92 -28 92 -87c0 -54 -40 -95 -96 -95z" />
    <glyph glyph-name="gdotaccent" unicode="&#x121;" horiz-adv-x="677" 
d="M34 -119c0 46 32 71 73 83c-46 25 -66 61 -66 111c0 72 37 103 101 134c-52 39 -75 75 -75 138c0 145 142 188 264 188c50 0 106 -10 154 -28l23 10h156v-87h-91c9 -27 16 -52 16 -78c0 -145 -135 -188 -259 -188c-43 0 -71 2 -117 13c-23 0 -31 -22 -31 -40
c0 -28 27 -33 49 -33h283c90 0 143 -67 143 -152c0 -131 -93 -208 -317 -208c-111 0 -306 10 -306 137zM170 -98c0 -68 109 -69 160 -69c107 0 182 11 182 71c0 23 -16 37 -39 37h-271c-21 0 -32 -20 -32 -39zM331 458c-56 0 -56 -66 -56 -107c0 -80 10 -108 55 -108
c51 0 51 73 51 111c0 73 -10 104 -50 104zM243 660c0 47 39 84 87 84c45 0 83 -37 83 -84c0 -46 -40 -86 -87 -86c-46 0 -83 40 -83 86z" />
    <glyph glyph-name="gdotaccent.001" unicode="&#xe046;" horiz-adv-x="724" 
d="M35 271c0 175 142 298 314 298c58 0 120 -16 170 -45l17 35h89v-219h-93c-17 88 -67 139 -136 139c-126 0 -146 -106 -146 -210c0 -95 27 -190 133 -190c57 0 86 31 86 66v31c0 18 -16 23 -37 23h-47v89h334v-89h-41c-8 0 -35 -5 -35 -22v-182h-98l-15 49
c-37 -49 -108 -66 -171 -66c-168 0 -324 123 -324 293zM274 690c0 47 39 84 87 84c45 0 83 -37 83 -84c0 -46 -40 -86 -87 -86c-46 0 -83 40 -83 86z" />
    <glyph glyph-name="gdotaccent.002" unicode="&#xe047;" horiz-adv-x="751" 
d="M67 347c0 145 142 188 264 188c56 0 132 -13 188 -52c32 33 78 52 119 52c73 0 123 -47 123 -112c0 -49 -31 -78 -74 -78c-42 0 -73 28 -73 62c0 23 10 41 29 59c-7 9 -17 14 -26 14c-17 0 -37 -12 -59 -33c19 -25 31 -56 31 -95c0 -145 -135 -188 -259 -188
c-43 0 -71 2 -117 13c-23 0 -31 -22 -31 -40c0 -28 27 -33 49 -33h283c90 0 143 -67 143 -152c0 -131 -93 -208 -317 -208c-111 0 -306 10 -306 137c0 46 32 71 73 83c-46 25 -66 61 -66 111c0 72 37 103 101 134c-52 39 -75 75 -75 138zM170 -98c0 -68 109 -69 160 -69
c107 0 182 11 182 71c0 23 -16 37 -39 37h-271c-21 0 -32 -20 -32 -39zM331 458c-56 0 -56 -66 -56 -107c0 -80 10 -108 55 -108c51 0 51 73 51 111c0 73 -10 104 -50 104zM245 660c0 47 39 84 87 84c45 0 83 -37 83 -84c0 -46 -40 -86 -87 -86c-46 0 -83 40 -83 86z" />
    <glyph glyph-name="germandbls" unicode="&#xdf;" horiz-adv-x="801" 
d="M290 0h-291v88h45c34 0 43 8 43 40v404c0 156 159 229 308 229c167 0 314 -73 314 -183c0 -78 -41 -118 -128 -136c128 -17 185 -88 185 -225c0 -135 -103 -232 -213 -232c-186 0 -201 77 -201 203h106c1 -53 3 -85 46 -85c60 0 61 43 61 127c0 124 -53 157 -195 157v95
c45 2 59 3 78 10c38 15 62 39 62 89c0 47 -43 76 -105 76c-72 0 -115 -49 -115 -132v-525z" />
    <glyph glyph-name="germandbls.001" unicode="&#xe048;" horiz-adv-x="1208" 
d="M541 561v-201h-90c-19 81 -88 114 -166 114c-41 0 -98 -13 -98 -52c0 -18 13 -30 34 -35l193 -47c89 -22 158 -75 158 -173c0 -126 -122 -189 -238 -189c-64 0 -132 12 -187 49c-16 -38 -16 -37 -17 -37h-87v206h92c13 -95 99 -123 184 -123c40 0 106 13 106 56
c0 20 -23 32 -49 39l-205 51c-77 20 -135 85 -135 166c0 125 121 184 235 184c59 0 110 -15 164 -42l19 34h87zM1145 561v-201h-90c-19 81 -88 114 -166 114c-41 0 -98 -13 -98 -52c0 -18 13 -30 34 -35l193 -47c89 -22 158 -75 158 -173c0 -126 -122 -189 -238 -189
c-64 0 -132 12 -187 49c-16 -38 -16 -37 -17 -37h-87v206h92c13 -95 99 -123 184 -123c40 0 106 13 106 56c0 20 -23 32 -49 39l-205 51c-77 20 -135 85 -135 166c0 125 121 184 235 184c59 0 110 -15 164 -42l19 34h87z" />
    <glyph glyph-name="grave" unicode="`" horiz-adv-x="312" 
d="M207 744l87 -148h-112l-157 148h182z" />
    <glyph glyph-name="gravecomb" unicode="&#x300;" horiz-adv-x="312" 
d="M207 744l87 -148h-112l-157 148h182z" />
    <glyph glyph-name="greater" unicode="&#x3e;" horiz-adv-x="456" 
d="M187 604l223 -300l-223 -304h-138l221 304l-219 300h136z" />
    <glyph glyph-name="guillemotleft" unicode="&#xab;" horiz-adv-x="513" 
d="M36 255l117 193h118l-95 -193l95 -190h-120zM239 255l117 193h117l-94 -193l94 -190h-119z" />
    <glyph glyph-name="guillemotright" unicode="&#xbb;" horiz-adv-x="512" 
d="M360 448l116 -193l-115 -190h-119l95 190l-95 193h118zM157 448l117 -193l-115 -190h-120l95 190l-95 193h118z" />
    <glyph glyph-name="guilsinglleft" unicode="&#x2039;" horiz-adv-x="310" 
d="M36 255l117 193h118l-95 -193l95 -190h-120z" />
    <glyph glyph-name="guilsinglright" unicode="&#x203a;" horiz-adv-x="290" 
d="M147 448l117 -193l-115 -190h-120l95 190l-95 193h118z" />
    <glyph glyph-name="h" unicode="h" horiz-adv-x="745" 
d="M398 89h37c8 0 19 1 19 37v233c0 39 -29 60 -64 60c-53 0 -90 -34 -90 -85v-207c0 -18 2 -38 20 -38h39v-89h-333v89h51c8 0 19 1 19 37v504c0 19 -8 25 -20 25h-57v88l279 19v-268l-8 -55c37 73 104 96 183 96c83 0 183 -37 183 -137v-271c0 -18 2 -38 20 -38h53v-89
h-331v89z" />
    <glyph glyph-name="h.001" unicode="&#xe049;" horiz-adv-x="846" 
d="M806 464h-62c-10 0 -20 -9 -20 -18v-339c0 -10 10 -18 20 -18h62v-89h-369v89h62c10 0 21 8 21 18v133h-196v-133c0 -10 10 -18 20 -18h62v-89h-367v89h63c9 0 19 8 19 18v339c0 9 -10 18 -19 18h-63v89h367v-89h-62c-10 0 -20 -9 -20 -18v-114h196v114
c0 9 -11 18 -21 18h-62v89h369v-89z" />
    <glyph glyph-name="hbar" unicode="&#x127;" horiz-adv-x="745" 
d="M398 89h37c8 0 19 1 19 37v233c0 39 -29 60 -64 60c-53 0 -90 -34 -90 -85v-207c0 -18 2 -38 20 -38h39v-89h-333v89h51c8 0 19 1 19 37v446h-63v45h63v13c0 19 -8 25 -20 25h-57v88l279 19v-145h240v-45h-240v-78l-8 -55c37 73 104 96 183 96c83 0 183 -37 183 -137
v-271c0 -18 2 -38 20 -38h53v-89h-331v89z" />
    <glyph glyph-name="hbar.001" unicode="&#xe04a;" horiz-adv-x="833" 
d="M45 420h69v26c0 9 -10 18 -19 18h-63v89h367v-89h-62c-10 0 -20 -9 -20 -18v-26h196v26c0 9 -11 18 -21 18h-62v89h369v-89h-62c-10 0 -20 -9 -20 -18v-26h74v-45h-74v-268c0 -10 10 -18 20 -18h62v-89h-369v89h62c10 0 21 8 21 18v133h-196v-133c0 -10 10 -18 20 -18h62
v-89h-367v89h63c9 0 19 8 19 18v268h-69v45zM317 332h196v43h-196v-43z" />
    <glyph glyph-name="hcircumflex" unicode="&#x125;" horiz-adv-x="745" 
d="M398 89h37c8 0 19 1 19 37v233c0 39 -29 60 -64 60c-53 0 -90 -34 -90 -85v-207c0 -18 2 -38 20 -38h39v-89h-333v89h51c8 0 19 1 19 37v504c0 19 -8 25 -20 25h-57v88l279 19v-268l-8 -55c37 73 104 96 183 96c83 0 183 -37 183 -137v-271c0 -18 2 -38 20 -38h53v-89
h-331v89zM-4 795l103 150h179l114 -150h-135l-72 78l-60 -78h-129z" />
    <glyph glyph-name="hcircumflex.001" unicode="&#xe04b;" horiz-adv-x="833" 
d="M799 464h-62c-10 0 -20 -9 -20 -18v-339c0 -10 10 -18 20 -18h62v-89h-369v89h62c10 0 21 8 21 18v133h-196v-133c0 -10 10 -18 20 -18h62v-89h-367v89h63c9 0 19 8 19 18v339c0 9 -10 18 -19 18h-63v89h367v-89h-62c-10 0 -20 -9 -20 -18v-114h196v114
c0 9 -11 18 -21 18h-62v89h369v-89zM218 593l103 150h179l114 -150h-135l-72 78l-60 -78h-129z" />
    <glyph glyph-name="hookabovecomb" unicode="&#x309;" horiz-adv-x="240" 
d="M394 872c76 0 104 -66 104 -134c0 -92 -45 -185 -191 -185c-30 0 -64 4 -102 12v63c37 -10 67 -13 91 -13c75 0 94 37 94 63v12c-58 0 -92 28 -92 87c0 53 40 95 96 95z" />
    <glyph glyph-name="hungarumlaut" unicode="&#x2dd;" horiz-adv-x="539" 
d="M152 596l87 148h162l-157 -148h-92zM342 596l87 148h162l-157 -148h-92z" />
    <glyph glyph-name="hyphen" unicode="-" horiz-adv-x="325" 
d="M37 374h251v-125h-251v125z" />
    <glyph glyph-name="i" unicode="i" horiz-adv-x="401" 
d="M99 669c0 58 48 104 106 104c56 0 99 -48 99 -104s-45 -102 -101 -102c-54 0 -104 44 -104 102zM30 89h58c8 0 19 1 19 37v274c0 17 -13 25 -25 25h-52v89l281 12v-399c0 -18 1 -38 20 -38h52v-89h-353v89z" />
    <glyph glyph-name="i.001" unicode="&#xe04c;" horiz-adv-x="448" 
d="M324 446v-339c0 -9 11 -18 21 -18h63v-89h-369v89h63c9 0 18 9 18 18v339c0 10 -9 18 -18 18h-63v89h369v-89h-63c-10 0 -21 -8 -21 -18z" />
    <glyph glyph-name="iacute" unicode="&#xed;" horiz-adv-x="407" 
d="M30 89h58c8 0 19 1 19 37v274c0 17 -13 25 -25 25h-52v89l281 10v-397c0 -18 1 -38 20 -38h52v-89h-353v89zM119 596l88 148h182l-157 -148h-113z" />
    <glyph glyph-name="iacute.001" unicode="&#xe04d;" horiz-adv-x="448" 
d="M324 446v-339c0 -9 11 -18 21 -18h63v-89h-369v89h63c9 0 18 9 18 18v339c0 10 -9 18 -18 18h-63v89h369v-89h-63c-10 0 -21 -8 -21 -18zM169 596l87 148h182l-157 -148h-112z" />
    <glyph glyph-name="icircumflex" unicode="&#xee;" horiz-adv-x="444" 
d="M56 89h58c8 0 19 1 19 37v274c0 17 -13 25 -25 25h-52v89l281 10v-397c0 -18 1 -38 20 -38h52v-89h-353v89zM30 593l103 150h179l114 -150h-134l-73 78l-60 -78h-129z" />
    <glyph glyph-name="icircumflex.001" unicode="&#xe04e;" horiz-adv-x="448" 
d="M324 446v-339c0 -9 11 -18 21 -18h63v-89h-369v89h63c9 0 18 9 18 18v339c0 10 -9 18 -18 18h-63v89h369v-89h-63c-10 0 -21 -8 -21 -18zM26 593l103 150h179l114 -150h-135l-72 78l-60 -78h-129z" />
    <glyph glyph-name="idieresis" unicode="&#xef;" horiz-adv-x="470" 
d="M69 89h58c8 0 19 1 19 37v274c0 17 -13 25 -25 25h-52v89l281 10v-397c0 -18 1 -38 20 -38h52v-89h-353v89zM30 660c0 47 40 84 88 84c45 0 83 -37 83 -84c0 -46 -40 -86 -88 -86c-45 0 -83 40 -83 86zM283 660c0 47 36 84 86 84c46 0 83 -37 83 -83
c0 -47 -40 -87 -88 -87c-47 0 -81 40 -81 86z" />
    <glyph glyph-name="idieresis.001" unicode="&#xe04f;" horiz-adv-x="448" 
d="M324 446v-339c0 -9 11 -18 21 -18h63v-89h-369v89h63c9 0 18 9 18 18v339c0 10 -9 18 -18 18h-63v89h369v-89h-63c-10 0 -21 -8 -21 -18zM13 660c0 47 39 84 87 84c45 0 83 -37 83 -84c0 -46 -40 -86 -87 -86c-46 0 -83 40 -83 86zM266 660c0 47 36 84 85 84
c46 0 83 -37 83 -83c0 -47 -39 -87 -87 -87c-47 0 -81 40 -81 86z" />
    <glyph glyph-name="igrave" unicode="&#xec;" horiz-adv-x="419" 
d="M48 89h58c8 0 19 1 19 37v274c0 17 -13 25 -25 25h-52v89l281 10v-397c0 -18 1 -38 20 -38h52v-89h-353v89zM212 744l87 -148h-112l-157 148h182z" />
    <glyph glyph-name="igrave.001" unicode="&#xe050;" horiz-adv-x="448" 
d="M324 446v-339c0 -9 11 -18 21 -18h63v-89h-369v89h63c9 0 18 9 18 18v339c0 10 -9 18 -18 18h-63v89h369v-89h-63c-10 0 -21 -8 -21 -18zM221 744l87 -148h-112l-157 148h182z" />
    <glyph glyph-name="imacron" unicode="&#x12b;" horiz-adv-x="419" 
d="M48 89h58c8 0 19 1 19 37v274c0 17 -13 25 -25 25h-52v89l281 10v-397c0 -18 1 -38 20 -38h52v-89h-353v89zM75 690h290v-100h-290v100z" />
    <glyph glyph-name="imacron.001" unicode="&#xe051;" horiz-adv-x="448" 
d="M324 446v-339c0 -9 11 -18 21 -18h63v-89h-369v89h63c9 0 18 9 18 18v339c0 10 -9 18 -18 18h-63v89h369v-89h-63c-10 0 -21 -8 -21 -18zM79 690h290v-100h-290v100z" />
    <glyph glyph-name="iogonek" unicode="&#x12f;" horiz-adv-x="419" 
d="M48 89h58c8 0 19 1 19 37v274c0 17 -13 25 -25 25h-52v89l281 12v-399c0 -18 1 -38 20 -38h52v-89h-124c-53 -40 -56 -56 -56 -82c0 -18 6 -46 59 -46c14 0 41 2 60 7c12 -52 15 -67 15 -67c-21 -10 -57 -20 -83 -20c-94 0 -166 49 -166 110c0 36 23 68 61 98h-119v89z
M117 669c0 58 48 104 106 104c56 0 99 -48 99 -104s-45 -102 -101 -102c-54 0 -104 44 -104 102z" />
    <glyph glyph-name="iogonek.001" unicode="&#xe052;" horiz-adv-x="448" 
d="M324 446v-339c0 -9 11 -18 21 -18h63v-89h-118c-53 -40 -56 -56 -56 -82c0 -18 6 -46 59 -46c14 0 41 2 60 7c12 -52 15 -67 15 -67c-21 -10 -57 -20 -83 -20c-94 0 -166 49 -166 110c0 36 23 68 61 98h-141v89h63c9 0 18 9 18 18v339c0 10 -9 18 -18 18h-63v89h369v-89
h-63c-10 0 -21 -8 -21 -18z" />
    <glyph glyph-name="itilde" unicode="&#x129;" horiz-adv-x="419" 
d="M48 89h58c8 0 19 1 19 37v274c0 17 -13 25 -25 25h-52v89l281 10v-397c0 -18 1 -38 20 -38h52v-89h-353v89zM-3 614c0 60 36 130 107 130c65 0 165 -44 220 -44c15 0 21 26 21 45h99l-1 -21c-1 -56 -32 -132 -101 -132c-63 0 -175 43 -211 43c-32 0 -32 -13 -32 -40h-100
c-2 2 -2 14 -2 19z" />
    <glyph glyph-name="itilde.001" unicode="&#xe053;" horiz-adv-x="448" 
d="M324 446v-339c0 -9 11 -18 21 -18h63v-89h-369v89h63c9 0 18 9 18 18v339c0 10 -9 18 -18 18h-63v89h369v-89h-63c-10 0 -21 -8 -21 -18zM0 614c0 60 36 130 107 130c65 0 165 -44 220 -44c15 0 21 26 21 45h99l-1 -21c-1 -56 -32 -132 -101 -132c-63 0 -175 43 -211 43
c-32 0 -32 -13 -32 -40h-100c-2 2 -2 14 -2 19z" />
    <glyph glyph-name="j" unicode="j" horiz-adv-x="416" 
d="M-87 -131c0 62 38 100 102 100c48 0 89 -27 89 -79c0 -28 -14 -47 -40 -57c8 -2 15 -5 24 -5c28 0 56 19 56 49c0 20 -5 55 -5 80v449c0 8 -8 23 -18 23h-61v85l281 12v-585c0 -158 -91 -200 -233 -200c-83 0 -195 24 -195 128zM129 667c0 58 48 103 106 103
c54 0 101 -48 101 -101c0 -58 -47 -102 -103 -102c-54 0 -104 44 -104 100z" />
    <glyph glyph-name="j.001" unicode="&#xe054;" horiz-adv-x="519" 
d="M0 114c0 53 34 108 96 108c47 0 88 -19 88 -73c0 -34 -28 -54 -60 -54c-4 0 -7 0 -11 1c10 -20 31 -23 51 -23c28 0 56 18 56 52v302c0 19 -7 36 -26 36h-58v90h368v-90h-56c-14 0 -24 -14 -24 -27v-299c0 -100 -87 -159 -190 -159c-122 0 -234 37 -234 136z" />
    <glyph glyph-name="jcircumflex" unicode="&#x135;" horiz-adv-x="416" 
d="M-87 -131c0 62 38 100 102 100c48 0 89 -27 89 -79c0 -28 -14 -47 -40 -57c8 -2 15 -5 24 -5c28 0 56 19 56 49c0 20 -5 55 -5 80v449c0 8 -8 23 -18 23h-61v85l281 12v-585c0 -158 -91 -200 -233 -200c-83 0 -195 24 -195 128zM8 593l103 150h179l114 -150h-135l-72 78
l-60 -78h-129z" />
    <glyph glyph-name="jcircumflex.001" unicode="&#xe055;" horiz-adv-x="519" 
d="M0 114c0 53 34 108 96 108c47 0 88 -19 88 -73c0 -34 -28 -54 -60 -54c-4 0 -7 0 -11 1c10 -20 31 -23 51 -23c28 0 56 18 56 52v302c0 19 -7 36 -26 36h-58v90h368v-90h-56c-14 0 -24 -14 -24 -27v-299c0 -100 -87 -159 -190 -159c-122 0 -234 37 -234 136zM123 593
l103 150h179l114 -150h-135l-72 78l-60 -78h-129z" />
    <glyph glyph-name="k" unicode="k" horiz-adv-x="718" 
d="M9 89h51c21 0 21 21 21 32v502c0 17 -4 33 -28 33h-51v87l283 18v-468c102 74 143 98 143 116c0 11 -4 14 -14 15h-48v91h334v-89h-69c-33 0 -87 -52 -130 -84l154 -232c15 -23 41 -23 72 -23v-87h-351v87h14c15 0 34 2 34 21c0 15 -21 38 -72 120l-67 -50v-66
c0 -25 35 -26 58 -26v-86h-334v89z" />
    <glyph glyph-name="k.001" unicode="&#xe056;" horiz-adv-x="771" 
d="M781 0h-342v90h38c11 0 13 8 13 17c0 23 -47 65 -111 145c-11 -10 -46 -35 -55 -44v-98c0 -11 9 -20 27 -20h51v-90h-359v89h51c16 0 28 3 28 26v318c0 19 -10 29 -28 31h-55v89h363v-89h-51c-12 0 -27 -12 -27 -33v-116c135 105 164 109 164 130c0 11 -7 17 -17 19h-34
v89h321v-91h-53c-44 0 -122 -61 -187 -114c0 -1 113 -138 185 -229c19 -24 47 -25 78 -25v-94z" />
    <glyph glyph-name="kcommaaccent" unicode="&#x137;" horiz-adv-x="718" 
d="M9 89h51c21 0 21 21 21 32v502c0 17 -4 33 -28 33h-51v87l283 18v-468c102 74 143 98 143 116c0 11 -4 14 -14 15h-48v91h334v-89h-69c-33 0 -87 -52 -130 -84l154 -232c15 -23 41 -23 72 -23v-87h-351v87h14c15 0 34 2 34 21c0 15 -21 38 -72 120l-67 -50v-66
c0 -25 35 -26 58 -26v-86h-334v89zM357 -22c76 0 104 -66 104 -134c0 -111 -69 -183 -181 -183v62c36 0 73 19 73 61v12c-58 0 -92 28 -92 87c0 54 40 95 96 95z" />
    <glyph glyph-name="kcommaaccent.001" unicode="&#xe057;" horiz-adv-x="771" 
d="M781 0h-342v90h38c11 0 13 8 13 17c0 23 -47 65 -111 145c-11 -10 -46 -35 -55 -44v-98c0 -11 9 -20 27 -20h51v-90h-359v89h51c16 0 28 3 28 26v318c0 19 -10 29 -28 31h-55v89h363v-89h-51c-12 0 -27 -12 -27 -33v-116c135 105 164 109 164 130c0 11 -7 17 -17 19h-34
v89h321v-91h-53c-44 0 -122 -61 -187 -114c0 -1 113 -138 185 -229c19 -24 47 -25 78 -25v-94zM389 -22c76 0 104 -66 104 -134c0 -111 -69 -183 -181 -183v62c36 0 73 19 73 61v12c-58 0 -92 28 -92 87c0 54 40 95 96 95z" />
    <glyph glyph-name="kgreenlandic" unicode="&#x138;" horiz-adv-x="718" 
d="M9 89h51c21 0 21 21 21 32v274c0 17 -4 33 -28 33h-51v87l283 18v-240c102 74 143 98 143 116c0 11 -4 14 -14 15h-48v91h334v-89h-69c-33 0 -87 -52 -130 -84l154 -232c15 -23 41 -23 72 -23v-87h-351v87h14c15 0 34 2 34 21c0 15 -21 38 -72 120l-67 -50v-66
c0 -25 35 -26 58 -26v-86h-334v89z" />
    <glyph glyph-name="l" unicode="l" horiz-adv-x="404" 
d="M27 89h51c8 0 19 1 19 37v503c0 17 -12 25 -25 25h-52v89l281 18v-634c0 -18 2 -38 20 -38h59v-89h-353v89z" />
    <glyph glyph-name="l.001" unicode="&#xe058;" horiz-adv-x="640" 
d="M406 463h-61c-10 0 -20 -8 -20 -17v-357h150c76 0 68 86 73 151h88v-240h-597v87h58c13 0 24 10 24 22v337c0 9 -10 17 -20 17h-62v90h367v-90z" />
    <glyph glyph-name="lacute" unicode="&#x13a;" horiz-adv-x="404" 
d="M27 89h51c8 0 19 1 19 37v503c0 17 -12 25 -25 25h-52v89l281 18v-634c0 -18 2 -38 20 -38h59v-89h-353v89zM123 807l87 148h182l-157 -148h-112z" />
    <glyph glyph-name="lacute.001" unicode="&#xe059;" horiz-adv-x="640" 
d="M406 463h-61c-10 0 -20 -8 -20 -17v-357h150c76 0 68 86 73 151h88v-240h-597v87h58c13 0 24 10 24 22v337c0 9 -10 17 -20 17h-62v90h367v-90zM170 596l87 148h182l-157 -148h-112z" />
    <glyph glyph-name="lcaron" unicode="&#x13e;" horiz-adv-x="498" 
d="M27 89h51c8 0 19 1 19 37v503c0 17 -12 25 -25 25h-52v89l281 18v-634c0 -18 2 -38 20 -38h59v-89h-353v89zM476 761c76 0 104 -66 104 -134c0 -111 -69 -184 -181 -184v63c36 0 73 19 73 61v12c-58 0 -92 28 -92 87c0 53 40 95 96 95z" />
    <glyph glyph-name="lcaron.001" unicode="&#xe05a;" horiz-adv-x="675" 
d="M406 463h-61c-10 0 -20 -8 -20 -17v-357h150c76 0 68 86 73 151h88v-240h-597v87h58c13 0 24 10 24 22v337c0 9 -10 17 -20 17h-62v90h367v-90zM604 761c76 0 104 -66 104 -134c0 -111 -69 -184 -181 -184v63c36 0 73 19 73 61v12c-58 0 -92 28 -92 87c0 53 40 95 96 95z
" />
    <glyph glyph-name="lcommaaccent" unicode="&#x13c;" horiz-adv-x="404" 
d="M27 89h51c8 0 19 1 19 37v503c0 17 -12 25 -25 25h-52v89l281 18v-634c0 -18 2 -38 20 -38h59v-89h-353v89zM197 -22c76 0 104 -66 104 -134c0 -111 -69 -183 -181 -183v62c36 0 73 19 73 61v12c-58 0 -92 28 -92 87c0 54 40 95 96 95z" />
    <glyph glyph-name="lcommaaccent.001" unicode="&#xe05b;" horiz-adv-x="640" 
d="M406 463h-61c-10 0 -20 -8 -20 -17v-357h150c76 0 68 86 73 151h88v-240h-597v87h58c13 0 24 10 24 22v337c0 9 -10 17 -20 17h-62v90h367v-90zM321 -22c76 0 104 -66 104 -134c0 -111 -69 -183 -181 -183v62c36 0 73 19 73 61v12c-58 0 -92 28 -92 87c0 54 40 95 96 95z
" />
    <glyph glyph-name="less" unicode="&#x3c;" horiz-adv-x="455" 
d="M46 304l222 300h137l-219 -300l220 -304h-138z" />
    <glyph glyph-name="lslash" unicode="&#x142;" horiz-adv-x="404" 
d="M27 89h51c8 0 19 1 19 37v153l-88 -35v108l88 36v241c0 17 -12 25 -25 25h-52v89l281 18v-290l102 41v-108l-102 -41v-236c0 -18 2 -38 20 -38h59v-89h-353v89z" />
    <glyph glyph-name="lslash.001" unicode="&#xe05c;" horiz-adv-x="640" 
d="M406 463h-61c-10 0 -20 -8 -20 -17v-77l91 36v-108l-91 -36v-172h150c76 0 68 86 73 151h88v-240h-597v87h58c13 0 24 10 24 22v66l-76 -30v108l76 30v163c0 9 -10 17 -20 17h-62v90h367v-90z" />
    <glyph glyph-name="m" unicode="m" horiz-adv-x="1086" 
d="M388 89h37c9 0 20 1 20 37v227c0 40 -23 62 -63 62c-60 0 -79 -41 -79 -95v-193c0 -18 2 -38 20 -38h39v-89h-336v89h54c9 0 20 1 20 37v275c0 10 -2 25 -28 25h-47v88l276 9l-8 -82c44 68 100 93 178 93c73 0 126 -22 161 -87c53 65 101 85 181 85
c90 0 182 -47 182 -160v-245c0 -18 2 -38 20 -38h51v-89h-333v89h37c9 0 20 1 20 37v231c0 40 -28 61 -65 61c-46 0 -77 -36 -77 -81v-210c0 -18 2 -38 20 -38h36v-89h-316v89z" />
    <glyph glyph-name="m.001" unicode="&#xe05d;" horiz-adv-x="949" 
d="M636 89c9 0 20 8 20 18v312l5 37l-11 -25l-142 -431h-117l-142 425l-8 29l4 -34v-313c0 -10 10 -18 20 -18h49v-89h-275v89h63c9 0 19 8 19 18v320c0 24 -7 37 -27 37h-55v89h336l111 -316l101 316h322v-89h-57c-18 0 -25 -10 -25 -27v-330c0 -10 11 -18 21 -18h61v-89
h-326v89h53z" />
    <glyph glyph-name="macron" unicode="&#xaf;" horiz-adv-x="512" 
d="M116 690h290v-100h-290v100z" />
    <glyph glyph-name="minus" unicode="&#x2212;" horiz-adv-x="547" 
d="M61 377h425v-124h-425v124z" />
    <glyph glyph-name="multiply" unicode="&#xd7;" horiz-adv-x="569" 
d="M91 209l106 106l-106 106l88 88l106 -106l106 106l88 -88l-106 -106l106 -106l-87 -88l-107 106l-107 -106z" />
    <glyph glyph-name="n" unicode="n" horiz-adv-x="752" 
d="M401 89h37c8 0 19 1 19 37v229c0 40 -29 60 -64 60c-52 0 -90 -33 -90 -85v-203c0 -18 2 -38 20 -38h39v-89h-337v89h55c9 0 20 1 20 37v275c0 19 -9 25 -21 25h-54v88l274 9l-6 -88c37 73 104 97 183 97c83 0 183 -38 183 -137v-268c0 -18 2 -38 20 -38h54v-89h-332v89z
" />
    <glyph glyph-name="n.001" unicode="&#xe05e;" horiz-adv-x="764" 
d="M102 89c9 0 19 8 19 18v330c0 10 -3 27 -27 27h-55v89h290l221 -361c2 -3 10 -30 18 -50l-8 53v238c0 28 -12 31 -34 31h-42v89h280v-89h-55c-14 0 -26 -3 -26 -29v-435h-206l-222 356l-21 47l11 -45v-251c0 -10 10 -18 20 -18h61v-89h-287v89h63z" />
    <glyph glyph-name="nacute" unicode="&#x144;" horiz-adv-x="752" 
d="M401 89h37c8 0 19 1 19 37v229c0 40 -29 60 -64 60c-52 0 -90 -33 -90 -85v-203c0 -18 2 -38 20 -38h39v-89h-337v89h55c9 0 20 1 20 37v275c0 19 -9 25 -21 25h-54v88l274 9l-6 -88c37 73 104 97 183 97c83 0 183 -38 183 -137v-268c0 -18 2 -38 20 -38h54v-89h-332v89z
M288 596l87 148h182l-157 -148h-112z" />
    <glyph glyph-name="nacute.001" unicode="&#xe05f;" horiz-adv-x="764" 
d="M102 89c9 0 19 8 19 18v330c0 10 -3 27 -27 27h-55v89h290l221 -361c2 -3 10 -30 18 -50l-8 53v238c0 28 -12 31 -34 31h-42v89h280v-89h-55c-14 0 -26 -3 -26 -29v-435h-206l-222 356l-21 47l11 -45v-251c0 -10 10 -18 20 -18h61v-89h-287v89h63zM330 596l87 148h182
l-157 -148h-112z" />
    <glyph glyph-name="ncaron" unicode="&#x148;" horiz-adv-x="752" 
d="M401 89h37c8 0 19 1 19 37v229c0 40 -29 60 -64 60c-52 0 -90 -33 -90 -85v-203c0 -18 2 -38 20 -38h39v-89h-337v89h55c9 0 20 1 20 37v275c0 19 -9 25 -21 25h-54v88l274 9l-6 -88c37 73 104 97 183 97c83 0 183 -38 183 -137v-268c0 -18 2 -38 20 -38h54v-89h-332v89z
M277 594l-103 150h132l60 -77l73 77h132l-116 -150h-178z" />
    <glyph glyph-name="ncaron.001" unicode="&#xe060;" horiz-adv-x="764" 
d="M102 89c9 0 19 8 19 18v330c0 10 -3 27 -27 27h-55v89h290l221 -361c2 -3 10 -30 18 -50l-8 53v238c0 28 -12 31 -34 31h-42v89h280v-89h-55c-14 0 -26 -3 -26 -29v-435h-206l-222 356l-21 47l11 -45v-251c0 -10 10 -18 20 -18h61v-89h-287v89h63zM299 594l-103 150h132
l60 -77l73 77h132l-116 -150h-178z" />
    <glyph glyph-name="ncommaaccent" unicode="&#x146;" horiz-adv-x="752" 
d="M401 89h37c8 0 19 1 19 37v229c0 40 -29 60 -64 60c-52 0 -90 -33 -90 -85v-203c0 -18 2 -38 20 -38h39v-89h-337v89h55c9 0 20 1 20 37v275c0 19 -9 25 -21 25h-54v88l274 9l-6 -88c37 73 104 97 183 97c83 0 183 -38 183 -137v-268c0 -18 2 -38 20 -38h54v-89h-332v89z
M368 -22c76 0 104 -66 104 -134c0 -111 -69 -183 -181 -183v62c36 0 73 19 73 61v12c-58 0 -92 28 -92 87c0 54 40 95 96 95z" />
    <glyph glyph-name="ncommaaccent.001" unicode="&#xe061;" horiz-adv-x="764" 
d="M102 89c9 0 19 8 19 18v330c0 10 -3 27 -27 27h-55v89h290l221 -361c2 -3 10 -30 18 -50l-8 53v238c0 28 -12 31 -34 31h-42v89h280v-89h-55c-14 0 -26 -3 -26 -29v-435h-206l-222 356l-21 47l11 -45v-251c0 -10 10 -18 20 -18h61v-89h-287v89h63zM391 -22
c76 0 104 -66 104 -134c0 -111 -69 -183 -181 -183v62c36 0 73 19 73 61v12c-58 0 -92 28 -92 87c0 54 40 95 96 95z" />
    <glyph glyph-name="nine" unicode="9" horiz-adv-x="676" 
d="M58 141c0 60 40 97 99 97c48 0 90 -28 90 -78c0 -26 -10 -44 -33 -54c8 -13 41 -16 52 -16c103 0 146 65 146 163c0 20 -2 41 -5 63c-36 -37 -89 -48 -137 -48c-126 0 -220 81 -220 211c0 159 129 238 274 238c233 0 289 -159 289 -366c0 -178 -56 -357 -327 -357
c-95 0 -228 29 -228 147zM249 490c0 -54 4 -123 75 -123c48 0 74 29 74 117c0 53 0 132 -72 132c-71 0 -77 -70 -77 -126z" />
    <glyph glyph-name="nine.osf" unicode="&#xe062;" horiz-adv-x="676" 
d="M59 -44c0 61 39 97 99 97c48 0 89 -28 89 -78c0 -26 -10 -44 -33 -54c8 -13 42 -16 53 -16c103 0 146 66 146 163c0 20 -2 41 -6 64c-36 -38 -88 -49 -137 -49c-126 0 -220 81 -220 211c0 159 129 238 275 238c232 0 288 -158 288 -366c0 -178 -56 -357 -326 -357
c-96 0 -228 29 -228 147zM250 305c0 -54 4 -123 75 -123c47 0 74 29 74 117c0 53 0 132 -73 132c-70 0 -76 -70 -76 -126z" />
    <glyph glyph-name="nine.tf" unicode="&#xe063;" horiz-adv-x="660" 
d="M56 141c0 60 40 97 99 97c48 0 90 -28 90 -78c0 -26 -10 -44 -33 -54c8 -13 41 -16 52 -16c103 0 146 65 146 163c0 20 -2 41 -5 63c-36 -37 -89 -48 -137 -48c-126 0 -220 81 -220 211c0 159 129 238 274 238c233 0 289 -159 289 -366c0 -178 -56 -357 -327 -357
c-95 0 -228 29 -228 147zM247 490c0 -54 4 -123 75 -123c48 0 74 29 74 117c0 53 0 132 -72 132c-71 0 -77 -70 -77 -126z" />
    <glyph glyph-name="nineinferior" unicode="&#x2089;" horiz-adv-x="414" 
d="M11 -99c0 27 13 59 70 59c31 0 60 -12 60 -45c0 -22 -12 -31 -17 -35c12 -6 20 -7 29 -7c60 0 64 51 64 128c-19 -21 -43 -29 -76 -29c-87 0 -136 55 -136 125c0 86 76 142 177 142c148 0 182 -96 182 -202c0 -131 -51 -226 -210 -226c-79 0 -143 27 -143 90zM146 105
c0 -49 9 -70 34 -70c34 0 39 27 39 66c0 49 -7 74 -36 74c-28 0 -37 -22 -37 -70z" />
    <glyph glyph-name="ninesuperior" unicode="&#x2079;" horiz-adv-x="414" 
d="M11 426c0 27 13 59 70 59c31 0 60 -12 60 -45c0 -22 -12 -31 -17 -35c12 -6 20 -7 29 -7c60 0 64 51 64 128c-19 -21 -43 -29 -76 -29c-87 0 -136 55 -136 125c0 86 76 142 177 142c148 0 182 -96 182 -202c0 -131 -51 -226 -210 -226c-79 0 -143 27 -143 90zM146 630
c0 -49 9 -70 34 -70c34 0 39 27 39 66c0 49 -7 74 -36 74c-28 0 -37 -22 -37 -70z" />
    <glyph glyph-name="ntilde" unicode="&#xf1;" horiz-adv-x="752" 
d="M401 89h37c8 0 19 1 19 37v229c0 40 -29 60 -64 60c-52 0 -90 -33 -90 -85v-203c0 -18 2 -38 20 -38h39v-89h-337v89h55c9 0 20 1 20 37v275c0 19 -9 25 -21 25h-54v88l274 9l-6 -88c37 73 104 97 183 97c83 0 183 -38 183 -137v-268c0 -18 2 -38 20 -38h54v-89h-332v89z
M148 614c0 60 36 130 107 130c65 0 165 -44 220 -44c16 0 21 26 21 45h99v-21c-1 -56 -33 -132 -102 -132c-63 0 -174 43 -211 43c-32 0 -32 -13 -32 -40h-100c-2 2 -2 14 -2 19z" />
    <glyph glyph-name="ntilde.001" unicode="&#xe064;" horiz-adv-x="764" 
d="M102 89c9 0 19 8 19 18v330c0 10 -3 27 -27 27h-55v89h290l221 -361c2 -3 10 -30 18 -50l-8 53v238c0 28 -12 31 -34 31h-42v89h280v-89h-55c-14 0 -26 -3 -26 -29v-435h-206l-222 356l-21 47l11 -45v-251c0 -10 10 -18 20 -18h61v-89h-287v89h63zM171 614
c0 60 36 130 107 130c65 0 165 -44 220 -44c15 0 21 26 21 45h99l-1 -21c-1 -56 -32 -132 -101 -132c-63 0 -175 43 -211 43c-32 0 -32 -13 -32 -40h-100c-2 2 -2 14 -2 19z" />
    <glyph glyph-name="numbersign" unicode="#" horiz-adv-x="1291" 
d="M132 102c12 0 24 10 24 22v433c0 12 -3 33 -34 33h-68v99h301l307 -450c2 -3 13 -37 23 -62l-10 66v309c0 35 -16 38 -43 38h-52v99h307v-99h-68c-17 0 -33 -3 -33 -35v-555h-200l-304 444l-26 58l13 -56v-322c0 -12 13 -22 25 -22h77v-102h-317v102h78zM866 418
c0 112 78 214 201 214c119 0 188 -105 188 -212c0 -113 -72 -219 -196 -219c-128 0 -193 104 -193 217zM1003 413c0 -51 9 -116 53 -116c48 0 62 55 62 115c0 57 -9 123 -56 123c-50 0 -59 -67 -59 -122zM915 146h287v-124h-287v124z" />
    <glyph glyph-name="o" unicode="o" horiz-adv-x="656" 
d="M623 259c0 -182 -129 -274 -300 -274c-154 0 -290 84 -290 274c0 185 123 275 301 275c169 0 289 -95 289 -275zM250 258c0 -105 14 -179 79 -179c64 0 76 73 76 179s-12 182 -75 182c-66 0 -80 -77 -80 -182z" />
    <glyph glyph-name="o.001" unicode="&#xe065;" horiz-adv-x="726" 
d="M35 272c0 188 150 297 331 297c176 0 325 -114 325 -297s-143 -294 -326 -294c-178 0 -330 112 -330 294zM251 272c0 -87 11 -201 111 -201c91 0 111 106 111 198c0 93 -14 206 -110 206c-104 0 -112 -113 -112 -203z" />
    <glyph glyph-name="oacute" unicode="&#xf3;" horiz-adv-x="656" 
d="M623 259c0 -182 -129 -274 -300 -274c-154 0 -290 84 -290 274c0 185 123 275 301 275c169 0 289 -95 289 -275zM250 258c0 -105 14 -179 79 -179c64 0 76 73 76 179s-12 182 -75 182c-66 0 -80 -77 -80 -182zM258 596l87 148h182l-157 -148h-112z" />
    <glyph glyph-name="oacute.001" unicode="&#xe066;" horiz-adv-x="726" 
d="M35 272c0 188 150 297 331 297c176 0 325 -114 325 -297s-143 -294 -326 -294c-178 0 -330 112 -330 294zM251 272c0 -87 11 -201 111 -201c91 0 111 106 111 198c0 93 -14 206 -110 206c-104 0 -112 -113 -112 -203zM298 596l87 148h182l-157 -148h-112z" />
    <glyph glyph-name="ocircumflex" unicode="&#xf4;" horiz-adv-x="656" 
d="M623 259c0 -182 -129 -274 -300 -274c-154 0 -290 84 -290 274c0 185 123 275 301 275c169 0 289 -95 289 -275zM250 258c0 -105 14 -179 79 -179c64 0 76 73 76 179s-12 182 -75 182c-66 0 -80 -77 -80 -182zM130 593l103 150h178l115 -150h-135l-72 78l-60 -78h-129z
" />
    <glyph glyph-name="ocircumflex.001" unicode="&#xe067;" horiz-adv-x="726" 
d="M35 272c0 188 150 297 331 297c176 0 325 -114 325 -297s-143 -294 -326 -294c-178 0 -330 112 -330 294zM251 272c0 -87 11 -201 111 -201c91 0 111 106 111 198c0 93 -14 206 -110 206c-104 0 -112 -113 -112 -203zM164 593l103 150h179l114 -150h-135l-72 78l-60 -78
h-129z" />
    <glyph glyph-name="odieresis" unicode="&#xf6;" horiz-adv-x="656" 
d="M623 259c0 -182 -129 -274 -300 -274c-154 0 -290 84 -290 274c0 185 123 275 301 275c169 0 289 -95 289 -275zM250 258c0 -105 14 -179 79 -179c64 0 76 73 76 179s-12 182 -75 182c-66 0 -80 -77 -80 -182zM117 660c0 47 40 84 87 84c46 0 83 -37 83 -84
c0 -46 -39 -86 -87 -86c-45 0 -83 40 -83 86zM370 660c0 47 36 84 86 84c46 0 82 -37 82 -83c0 -47 -39 -87 -87 -87c-47 0 -81 40 -81 86z" />
    <glyph glyph-name="odieresis.001" unicode="&#xe068;" horiz-adv-x="726" 
d="M35 272c0 188 150 297 331 297c176 0 325 -114 325 -297s-143 -294 -326 -294c-178 0 -330 112 -330 294zM251 272c0 -87 11 -201 111 -201c91 0 111 106 111 198c0 93 -14 206 -110 206c-104 0 -112 -113 -112 -203zM152 660c0 47 39 84 87 84c45 0 83 -37 83 -84
c0 -46 -40 -86 -87 -86c-46 0 -83 40 -83 86zM405 660c0 47 36 84 85 84c46 0 83 -37 83 -83c0 -47 -39 -87 -87 -87c-47 0 -81 40 -81 86z" />
    <glyph glyph-name="oe" unicode="&#x153;" horiz-adv-x="1021" 
d="M334 534c71 0 134 -17 182 -50c50 32 113 50 186 50c192 0 291 -111 291 -299h-370c0 -94 33 -148 131 -148c72 0 110 23 128 93h104c-8 -145 -158 -195 -280 -195c-77 0 -145 16 -195 49c-51 -32 -116 -49 -188 -49c-154 0 -290 84 -290 274c0 185 123 275 301 275z
M250 258c0 -105 14 -179 79 -179c64 0 76 73 76 179s-12 182 -75 182c-66 0 -80 -77 -80 -182zM702 440c-58 0 -77 -68 -77 -116h150c0 48 -10 116 -73 116z" />
    <glyph glyph-name="oe.001" unicode="&#xe069;" horiz-adv-x="1045" 
d="M35 272c0 188 150 297 331 297c38 0 76 -6 111 -16h514v-220h-89l-6 63c-4 37 -24 67 -65 67h-165v-135h40c22 0 39 24 39 44v31h87v-235h-87v33c0 35 -17 44 -37 44h-42v-156h171c51 0 71 47 71 90v61h92v-240h-503c-40 -14 -85 -22 -132 -22c-178 0 -330 112 -330 294z
M251 272c0 -87 11 -201 111 -201c79 0 110 81 110 201c0 121 -28 203 -109 203c-104 0 -112 -113 -112 -203z" />
    <glyph glyph-name="ogonek" unicode="&#x2db;" horiz-adv-x="341" 
d="M163 7h110c-63 -46 -66 -62 -66 -89c0 -18 6 -46 59 -46c14 0 41 2 60 7c12 -52 15 -67 15 -67c-21 -10 -57 -20 -83 -20c-94 0 -166 49 -166 110c0 39 27 73 71 105z" />
    <glyph glyph-name="ograve" unicode="&#xf2;" horiz-adv-x="656" 
d="M623 259c0 -182 -129 -274 -300 -274c-154 0 -290 84 -290 274c0 185 123 275 301 275c169 0 289 -95 289 -275zM250 258c0 -105 14 -179 79 -179c64 0 76 73 76 179s-12 182 -75 182c-66 0 -80 -77 -80 -182zM330 744l87 -148h-112l-158 148h183z" />
    <glyph glyph-name="ograve.001" unicode="&#xe06a;" horiz-adv-x="726" 
d="M35 272c0 188 150 297 331 297c176 0 325 -114 325 -297s-143 -294 -326 -294c-178 0 -330 112 -330 294zM251 272c0 -87 11 -201 111 -201c91 0 111 106 111 198c0 93 -14 206 -110 206c-104 0 -112 -113 -112 -203zM360 744l87 -148h-112l-157 148h182z" />
    <glyph glyph-name="ohorn" unicode="&#x1a1;" horiz-adv-x="656" 
d="M670 731c76 0 104 -66 104 -134c0 -92 -45 -185 -190 -185c25 -41 39 -92 39 -153c0 -182 -129 -274 -300 -274c-154 0 -290 84 -290 274c0 185 123 275 301 275c76 0 142 -19 191 -57c18 -2 33 -3 47 -3c75 0 94 37 94 63v12c-58 0 -92 28 -92 87c0 53 40 95 96 95z
M250 258c0 -105 14 -179 79 -179c64 0 76 73 76 179s-12 182 -75 182c-66 0 -80 -77 -80 -182z" />
    <glyph glyph-name="ohorn.001" unicode="&#xe06b;" horiz-adv-x="726" 
d="M700 783c76 0 104 -66 104 -134c0 -91 -44 -182 -184 -185c44 -50 71 -115 71 -192c0 -183 -143 -294 -326 -294c-178 0 -330 112 -330 294c0 188 150 297 331 297c55 0 106 -16 155 -33c16 -6 43 -11 72 -11c50 0 103 15 103 64v12c-58 0 -92 28 -92 87
c0 53 40 95 96 95zM251 272c0 -87 11 -201 111 -201c91 0 111 106 111 198c0 93 -14 206 -110 206c-104 0 -112 -113 -112 -203z" />
    <glyph glyph-name="ohungarumlaut" unicode="&#x151;" horiz-adv-x="656" 
d="M623 259c0 -182 -129 -274 -300 -274c-154 0 -290 84 -290 274c0 185 123 275 301 275c169 0 289 -95 289 -275zM250 258c0 -105 14 -179 79 -179c64 0 76 73 76 179s-12 182 -75 182c-66 0 -80 -77 -80 -182zM170 596l87 148h162l-157 -148h-92zM360 596l87 148h162
l-157 -148h-92z" />
    <glyph glyph-name="ohungarumlaut.002" unicode="&#xe06c;" horiz-adv-x="726" 
d="M35 272c0 188 150 297 331 297c176 0 325 -114 325 -297s-143 -294 -326 -294c-178 0 -330 112 -330 294zM251 272c0 -87 11 -201 111 -201c91 0 111 106 111 198c0 93 -14 206 -110 206c-104 0 -112 -113 -112 -203zM213 606l87 148h162l-157 -148h-92zM403 606l87 148
h162l-157 -148h-92z" />
    <glyph glyph-name="omacron" unicode="&#x14d;" horiz-adv-x="656" 
d="M623 259c0 -182 -129 -274 -300 -274c-154 0 -290 84 -290 274c0 185 123 275 301 275c169 0 289 -95 289 -275zM250 258c0 -105 14 -179 79 -179c64 0 76 73 76 179s-12 182 -75 182c-66 0 -80 -77 -80 -182zM183 690h290v-100h-290v100z" />
    <glyph glyph-name="omacron.002" unicode="&#xe06d;" horiz-adv-x="726" 
d="M35 272c0 188 150 297 331 297c176 0 325 -114 325 -297s-143 -294 -326 -294c-178 0 -330 112 -330 294zM251 272c0 -87 11 -201 111 -201c91 0 111 106 111 198c0 93 -14 206 -110 206c-104 0 -112 -113 -112 -203zM213 606l87 148h162l-157 -148h-92zM403 606l87 148
h162l-157 -148h-92z" />
    <glyph glyph-name="one" unicode="1" horiz-adv-x="557" 
d="M49 0v102h113c13 0 31 10 31 37v353c-52 -12 -101 -15 -150 -15v90c108 8 183 13 216 129h129v-556c0 -19 6 -38 33 -38h106v-102h-478z" />
    <glyph glyph-name="one.osf" unicode="&#xe06e;" horiz-adv-x="557" 
d="M49 0v102h112c14 0 32 10 32 37v229c-53 -12 -102 -15 -150 -15v90c107 8 183 15 216 103h129v-406c0 -19 6 -38 33 -38h106v-102h-478z" />
    <glyph glyph-name="one.tf" unicode="&#xe06f;" horiz-adv-x="660" 
d="M44 0v102h163c13 0 31 10 31 37v348c-52 -12 -81 -15 -200 -15v95c149 0 233 13 266 129h129v-556c0 -19 6 -38 33 -38h156v-102h-578z" />
    <glyph glyph-name="oneeighth" unicode="&#x215b;" horiz-adv-x="959" 
d="M625 716h104l-452 -743h-101zM77 361c20 0 28 17 28 37v177c-29 -11 -41 -15 -93 -15v64c28 0 102 7 117 69h112v-296c0 -28 15 -33 40 -36h56v-71h-332v71h72zM549 105c0 45 21 77 71 93c-42 21 -68 48 -68 97c0 97 98 125 181 125c74 0 155 -33 155 -106
c0 -44 -15 -64 -64 -85c69 -32 85 -58 85 -108c0 -85 -89 -129 -185 -129c-83 0 -175 33 -175 113zM658 112c0 -14 5 -55 62 -55c38 0 53 21 53 42c0 26 -18 35 -86 68c-21 -17 -29 -33 -29 -55zM682 318c0 -32 47 -46 71 -56c14 12 29 25 29 51c0 41 -39 44 -49 44
c-6 0 -51 -3 -51 -39z" />
    <glyph glyph-name="onefifth" unicode="&#xe070;" horiz-adv-x="965" 
d="M625 716h104l-452 -743h-101zM77 361c20 0 28 17 28 37v177c-29 -11 -41 -15 -93 -15v64c28 0 102 7 117 69h112v-296c0 -28 15 -33 40 -36h56v-71h-332v71h72zM559 85c0 46 38 66 73 66c30 0 59 -15 59 -43c0 -21 -6 -31 -20 -44c14 -7 26 -10 38 -10c43 0 63 41 63 83
s-21 85 -58 85c-17 0 -35 -9 -52 -29h-89l8 220c41 -9 85 -13 130 -13c60 0 123 7 187 17c0 -39 -42 -101 -191 -101c-23 0 -28 1 -52 2l-3 -79c23 30 65 45 108 45c75 0 155 -45 155 -139c0 -97 -76 -156 -199 -156c-69 0 -157 27 -157 96z" />
    <glyph glyph-name="onehalf" unicode="&#xbd;" horiz-adv-x="1005" 
d="M670 716h104l-452 -743h-101zM122 361c20 0 28 17 28 37v177c-29 -11 -41 -15 -93 -15v64c28 0 102 7 117 69h112v-296c0 -28 15 -33 40 -36h56v-71h-332v71h72zM879 142h76v-65c0 -48 -28 -83 -87 -83c-52 0 -132 39 -167 39c-16 0 -30 -10 -30 -33h-76
c0 79 22 119 77 158c120 86 127 109 127 143c0 37 -27 49 -59 49c-17 0 -29 -8 -38 -17c20 -6 28 -19 28 -39c0 -42 -40 -52 -63 -52c-29 0 -69 14 -69 67c0 75 96 106 157 106c74 0 195 -16 195 -117c0 -68 -51 -88 -96 -118c-47 -31 -177 -65 -178 -125c11 16 31 46 67 46
c39 0 73 -11 108 -11c17 0 28 10 28 26v26z" />
    <glyph glyph-name="oneinferior" unicode="&#x2081;" horiz-adv-x="387" 
d="M77 -104c20 0 28 17 28 37v177c-29 -11 -41 -15 -93 -15v64c28 0 102 7 117 69h112v-296c0 -28 15 -33 40 -36h56v-71h-332v71h72z" />
    <glyph glyph-name="onequarter" unicode="&#xbc;" horiz-adv-x="956" 
d="M670 716h104l-452 -743h-101zM122 361c20 0 28 17 28 37v177c-29 -11 -41 -15 -93 -15v64c28 0 102 7 117 69h112v-296c0 -28 15 -33 40 -36h56v-71h-332v71h72zM686 64c12 0 22 10 22 23v17h-191v61l186 244h127v-240h76v-65h-76v-18c0 -17 10 -20 25 -22h39v-64h-253
v64h45zM708 325l-121 -156h121v156z" />
    <glyph glyph-name="oneseventh" unicode="&#xe071;" horiz-adv-x="983" 
d="M671 45c0 147 165 214 175 305c-20 -37 -49 -54 -82 -54c-31 0 -55 10 -75 10c-33 0 -36 -19 -36 -35v-26h-74v165h74v-58c14 47 26 62 64 62c41 0 88 -26 117 -26c18 0 21 4 22 22h77c0 -46 -16 -113 -46 -151c-65 -82 -78 -148 -78 -213c0 -27 -9 -68 -70 -68
c-57 0 -68 39 -68 67zM625 716h104l-452 -743h-101zM77 361c20 0 28 17 28 37v177c-29 -11 -41 -15 -93 -15v64c28 0 102 7 117 69h112v-296c0 -28 15 -33 40 -36h56v-71h-332v71h72z" />
    <glyph glyph-name="onesixth" unicode="&#xe072;" horiz-adv-x="948" 
d="M625 716h104l-452 -743h-101zM77 361c20 0 28 17 28 37v177c-29 -11 -41 -15 -93 -15v64c28 0 102 7 117 69h112v-296c0 -28 15 -33 40 -36h56v-71h-332v71h72zM892 330c0 -27 -13 -59 -70 -59c-31 0 -60 12 -60 45c0 22 12 31 17 35c-12 6 -20 7 -29 7
c-60 0 -64 -51 -64 -128c19 21 43 29 76 29c87 0 136 -55 136 -125c0 -86 -76 -142 -177 -142c-148 0 -182 96 -182 202c0 131 51 226 210 226c79 0 143 -27 143 -90zM757 126c0 49 -9 70 -34 70c-34 0 -39 -27 -39 -66c0 -49 7 -74 36 -74c28 0 37 22 37 70z" />
    <glyph glyph-name="onesuperior" unicode="&#xb9;" horiz-adv-x="442" 
d="M132 421c20 0 28 17 28 37v177c-29 -11 -41 -15 -93 -15v64c28 0 102 7 117 69h112v-296c0 -28 15 -33 40 -36h56v-71h-332v71h72z" />
    <glyph glyph-name="onethird" unicode="&#x2153;" horiz-adv-x="960" 
d="M625 716h104l-452 -743h-101zM77 361c20 0 28 17 28 37v177c-29 -11 -41 -15 -93 -15v64c28 0 102 7 117 69h112v-296c0 -28 15 -33 40 -36h56v-71h-332v71h72zM549 91c0 46 33 64 69 64c34 0 61 -18 61 -50c0 -20 -5 -26 -17 -37c14 -8 22 -12 39 -12c22 0 64 13 64 68
s-31 60 -108 60v62c67 0 101 6 101 59c0 17 -8 54 -50 54c-17 0 -28 -6 -39 -11c12 -8 17 -14 17 -34c0 -27 -18 -50 -65 -50c-28 0 -67 15 -67 64c0 71 104 92 172 92c88 0 175 -29 175 -110c0 -69 -50 -88 -106 -94c85 -5 115 -41 115 -101c0 -84 -92 -123 -193 -123
c-72 0 -168 18 -168 99z" />
    <glyph glyph-name="ordfeminine" unicode="&#xaa;" horiz-adv-x="1814" 
d="M780 -85c18 14 32 32 32 56c0 18 -4 45 -37 53c3 -16 6 -35 6 -67c0 -70 -73 -99 -132 -99c-40 0 -85 25 -85 68c0 45 42 54 59 54c6 0 11 0 16 -1c10 20 29 39 57 51v3c-3 10 -3 22 -3 30c-14 -29 -37 -52 -70 -52s-57 40 -57 90s45 121 45 159c0 22 -4 29 -11 29
c-21 0 -40 -31 -42 -38c0 -33 -19 -55 -44 -67c0 -122 -51 -180 -146 -180c-51 0 -102 21 -102 82c0 34 22 70 55 70c23 0 32 -20 32 -37c0 -33 -19 -68 -52 -68c-7 0 -14 4 -21 6c5 -20 26 -36 43 -36c57 0 80 88 97 163c-19 8 -35 21 -45 40c-7 -3 -13 -5 -18 -5
c-49 0 -71 26 -71 75c0 73 60 147 138 147c80 0 95 -32 127 -32c6 0 13 1 20 2v-5c-45 -11 -90 -43 -117 -80c-4 32 -29 53 -63 53c-50 0 -95 -50 -95 -100c0 -35 20 -53 58 -53c5 0 12 1 18 4c-5 10 -7 22 -7 35c0 37 25 61 41 61c15 0 22 -12 22 -25
c0 -28 -23 -58 -46 -73c8 -17 23 -28 40 -35c11 45 25 92 59 133c12 14 54 56 88 60v-7c-48 -23 -59 -87 -59 -138c0 -14 1 -30 3 -47c23 11 40 31 40 58c0 18 -6 38 -15 47v2c10 -6 17 -24 19 -38c8 16 29 41 62 41c41 0 60 -46 60 -95c0 -33 -45 -108 -45 -157
c0 -13 4 -21 12 -21c52 0 73 186 94 270c10 -5 21 -10 33 -10c19 0 30 12 43 20c-14 -68 -48 -192 -44 -256l1 -17c27 -6 46 -29 46 -63c0 -26 -14 -47 -30 -60h-9zM1599 18h4c-8 -41 -53 -64 -91 -64c-24 0 -46 4 -67 12c-45 -45 -98 -75 -143 -75c-43 0 -74 33 -74 121
c-2 -1 -4 -1 -7 -1c-49 0 -97 44 -97 138c0 53 80 155 161 155c26 0 50 -19 50 -67c0 -62 -73 -105 -128 -111c-8 -45 -12 -82 -12 -83c0 -15 11 -22 26 -22c2 0 4 0 7 1v1c0 45 35 122 85 122c12 0 17 -13 17 -25c0 -43 -49 -102 -94 -107c0 -78 31 -110 72 -110
c37 0 84 27 125 68c-47 22 -80 64 -80 122c0 39 24 85 67 94v-4c-41 -12 -60 -54 -60 -94c0 -49 35 -89 81 -109c32 35 61 80 76 129l-114 35l50 20l-67 136l54 -16l-12 80l52 -59l31 45l31 -98l42 135l21 -35l79 46v-89h49l-104 -103l103 29l-17 -53l78 -8l-75 -36l40 -32
l-143 -27l9 -51l-88 71c-20 -46 -48 -90 -82 -124c17 -6 35 -9 53 -9c50 0 76 19 92 52zM739 461c-10 5 -20 11 -33 11c-18 0 -27 -4 -39 -12c8 48 42 228 42 264c0 9 -2 17 -9 17c-16 0 -27 -27 -37 -53h-10c10 31 23 66 64 66c37 0 54 -26 59 -57c17 22 34 58 69 58
c42 0 63 -60 63 -115c0 -97 -50 -160 -50 -236c0 -108 91 -55 105 -149c24 41 39 49 59 49c50 0 75 -87 75 -127c0 -22 -5 -50 -16 -77c11 -16 19 -36 19 -58c0 -53 -34 -117 -94 -117c-22 0 -40 13 -40 35c0 15 14 28 28 28c3 0 6 0 9 -1v-4c-12 0 -29 -8 -29 -23
c0 -17 14 -27 29 -27c52 0 89 68 89 113c0 17 -6 32 -14 45c-19 -41 -48 -80 -88 -80c-30 0 -39 27 -39 53c0 51 37 74 56 78c7 49 15 116 15 139c0 3 -4 10 -12 10c-12 0 -43 -23 -43 -79c0 -41 -59 -325 -64 -340c-10 5 -20 10 -33 10c-18 0 -30 -12 -42 -20
c8 47 73 376 73 412c0 90 -100 38 -100 224c0 71 46 150 46 223c0 13 -2 22 -9 22c-14 0 -43 -30 -61 -77c-4 -38 -34 -191 -38 -205zM203 318l3 5c13 0 43 13 43 36c0 2 0 4 -1 6c-16 -6 -33 -8 -49 -8c-25 0 -86 9 -86 43c0 23 35 30 52 30c28 0 74 -21 89 -48
c25 11 46 30 46 58c0 15 -4 27 -11 36c-21 -13 -45 -21 -71 -21c-77 0 -137 59 -137 156c0 14 5 33 13 54c-23 16 -33 43 -33 73c0 60 43 130 102 130c5 0 11 -1 16 -2v-6c-4 1 -8 1 -12 1c-55 0 -98 -65 -98 -121c0 -26 9 -50 30 -64c42 96 148 230 209 230
c35 0 40 -40 40 -68c0 -75 -77 -149 -149 -176c0 -1 -1 -2 -1 -4c-12 -46 -28 -108 -28 -147c0 -43 42 -47 46 -47c23 0 44 8 63 22c-13 9 -29 12 -44 12c-12 0 -32 -4 -35 -7v4c7 6 25 11 33 11c19 0 38 -5 52 -14c32 27 53 72 53 114c0 25 -5 57 -35 57
c-48 0 -78 -52 -78 -95c0 -12 5 -37 23 -37c27 0 40 42 40 65c0 4 -2 10 -3 16h8c2 -6 2 -14 2 -16c0 -29 -20 -73 -47 -73c-25 0 -30 28 -30 48c0 42 32 100 82 100c36 0 58 -37 58 -80c0 -42 -24 -84 -61 -110c10 -10 16 -25 16 -43c0 -35 -25 -57 -55 -70c1 -2 1 -3 1 -5
c0 -26 -28 -45 -51 -45h-5zM1410 869c10 -5 21 -10 33 -10c19 0 30 12 43 20c-8 -47 -69 -349 -69 -385c0 -9 2 -17 9 -17c25 0 50 65 58 95h11c-4 -18 -27 -108 -77 -108c-26 0 -55 18 -64 61c-28 -54 -44 -63 -65 -63c-51 0 -72 83 -72 128c0 58 83 165 134 165
c14 0 23 -8 30 -24c13 68 27 131 29 138zM1194 530h10c-8 -31 -22 -67 -58 -67c-27 0 -52 18 -60 61c-28 -53 -44 -62 -65 -62c-51 0 -72 83 -72 128c0 58 83 165 134 165c15 0 25 -9 32 -29l7 26c10 -5 20 -10 33 -10c18 0 30 12 42 20c-8 -47 -48 -233 -48 -268
c0 -10 2 -17 8 -17c16 0 27 27 37 53zM1758 530h10c-8 -31 -22 -67 -58 -67c-27 0 -52 18 -60 61c-28 -53 -44 -62 -65 -62c-51 0 -72 83 -72 128c0 58 83 165 134 165c15 0 25 -9 32 -29l7 26c10 -5 20 -10 33 -10c18 0 30 12 42 20c-8 -47 -48 -233 -48 -268
c0 -10 2 -17 8 -17c16 0 27 27 37 53zM625 530h9c-7 -31 -22 -67 -58 -67c-26 0 -52 18 -60 61c-27 -53 -43 -62 -65 -62c-50 0 -71 83 -71 128c0 58 83 165 134 165c14 0 24 -9 31 -29l7 26c10 -5 21 -10 33 -10c19 0 30 12 43 20c-8 -47 -49 -233 -49 -268
c0 -10 2 -17 9 -17c16 0 27 27 37 53zM157 223v-9c-13 -19 -40 -40 -66 -40c-33 0 -64 19 -64 49c0 51 56 61 95 61c74 0 116 -42 116 -105c0 -55 -70 -110 -90 -124l18 -4c65 -14 110 -35 157 -97h-2v-2c-8 2 -15 4 -21 4c-24 0 -32 -14 -32 -28c0 -40 60 -55 90 -55
c23 0 47 11 59 26h-4c-22 0 -72 13 -72 47c0 20 15 28 33 28c30 0 62 -24 62 -52c0 -3 -1 -7 -2 -10c36 8 77 34 77 84c0 15 -1 22 -6 38h4c3 -5 7 -23 7 -38c0 -50 -40 -87 -86 -95c-13 -24 -47 -35 -72 -35c-38 0 -97 18 -97 62c0 18 12 36 33 36c4 0 9 0 15 -2
c-57 51 -106 72 -182 72c-30 0 -62 -4 -108 -10c41 14 68 21 93 30c60 22 115 82 115 130c0 59 -45 90 -100 90c-35 0 -90 -5 -90 -51c0 -22 29 -35 54 -35s46 18 66 35zM723 -72c0 28 -18 66 -25 91c-22 -7 -41 -21 -51 -43c26 -9 37 -33 37 -45c0 -9 -7 -25 -25 -25
c-16 0 -28 21 -28 38c0 6 0 12 2 18c-6 1 -11 1 -16 1c-25 0 -42 -15 -42 -40c0 -37 37 -57 72 -57c31 0 76 23 76 62zM1055 680c-5 -28 -31 -161 -31 -194c0 -4 0 -11 8 -11c18 0 37 26 52 90c2 30 13 82 22 124c0 44 -8 56 -18 56c-25 0 -29 -47 -33 -65zM1619 680
c-5 -28 -31 -161 -31 -194c0 -4 0 -11 8 -11c18 0 37 26 52 90c2 30 13 82 22 124c0 44 -8 56 -18 56c-25 0 -29 -47 -33 -65zM486 680c-6 -28 -31 -161 -31 -194c0 -4 0 -11 8 -11c17 0 36 26 51 90c3 30 13 82 23 124c0 44 -9 56 -18 56c-18 0 -31 -48 -33 -65zM1323 680
c-5 -28 -31 -161 -31 -194c0 -4 0 -11 8 -11c34 0 45 52 74 224c-1 36 -10 46 -18 46c-25 0 -29 -47 -33 -65zM260 833c-1 -4 -42 -108 -58 -159c67 30 123 113 123 194c0 13 -2 25 -17 25s-25 -12 -48 -60zM1491 485h2c-9 -58 -55 -85 -96 -91c-1 -35 -41 -68 -89 -68
c-34 0 -80 14 -80 62c0 25 25 55 53 56v-4c-21 -4 -43 -22 -43 -45c0 -43 36 -51 72 -51c34 0 77 9 80 50c-3 -1 -5 -1 -7 -1c-30 0 -55 13 -55 34c0 11 14 20 23 20c21 0 40 -20 45 -41c41 5 84 38 95 79zM1280 294c-33 0 -57 -86 -71 -158c52 8 81 96 81 136
c0 14 -3 22 -10 22zM913 394c23 -27 53 -50 95 -50c16 0 32 4 43 13c-41 7 -128 34 -128 104c0 10 1 25 10 34l4 -4c-3 -9 -5 -18 -5 -27c0 -63 80 -89 130 -93c2 5 3 11 3 17c0 31 -29 55 -62 55c-13 0 -28 -3 -40 -10l-4 1c11 11 27 15 42 15c34 0 71 -24 71 -60
c0 -7 -1 -13 -3 -18h4c43 0 95 21 105 73l10 -5c-9 -45 -62 -84 -118 -84h-11c-11 -11 -29 -16 -48 -16c-39 0 -80 17 -99 54zM1235 25v-2c32 0 84 59 84 100c0 7 -1 14 -9 14c-40 0 -75 -70 -75 -112zM193 369c16 0 34 3 51 9c-14 26 -53 45 -79 45c-12 0 -40 -3 -40 -23
c0 -26 43 -31 68 -31zM709 419l2 -7c-6 -3 -14 -6 -22 -6c-13 0 -25 7 -25 19c0 16 23 25 38 25c23 0 43 -13 43 -35s-23 -30 -38 -30l-59 7c-14 0 -38 -7 -38 -27c0 -13 16 -18 26 -18c32 0 70 33 95 33c35 0 60 -27 60 -64l-6 1v3c-6 38 -33 49 -47 49
c-24 0 -47 -29 -100 -29c-24 0 -34 13 -34 25c0 24 28 32 44 32l58 -6c14 0 32 5 32 23c0 20 -19 30 -37 30c-13 0 -29 -6 -29 -18c0 -9 7 -13 16 -13c7 0 15 2 21 6zM957 58c0 -12 5 -34 24 -34c17 0 21 74 25 107c-29 -3 -49 -40 -49 -73zM408 -92c13 0 19 2 19 16
c0 24 -28 42 -49 42c-15 0 -27 -8 -27 -25c0 -25 37 -33 57 -33zM374 264c0 -11 1 -21 5 -29c21 14 42 41 42 64c0 10 -3 20 -15 20c-26 0 -32 -37 -32 -55zM1385 406h4c-4 18 -16 33 -35 33c-8 0 -15 -2 -15 -13c0 -16 23 -20 46 -20zM672 -72c0 15 -14 25 -29 31
c-1 -4 -1 -9 -1 -13c0 -13 5 -30 15 -30c12 0 15 7 15 12z" />
    <glyph glyph-name="ordmasculine" unicode="&#xba;" horiz-adv-x="482" 
d="M38 418c0 112 78 214 201 214c119 0 188 -105 188 -212c0 -113 -72 -219 -196 -219c-128 0 -193 104 -193 217zM175 413c0 -51 9 -116 53 -116c48 0 62 55 62 115c0 57 -9 123 -56 123c-50 0 -59 -67 -59 -122zM86 146h288v-124h-288v124z" />
    <glyph glyph-name="oslash" unicode="&#xf8;" horiz-adv-x="656" 
d="M623 259c0 -182 -129 -274 -300 -274c-30 0 -60 4 -88 10l-20 -43h-65l30 62c-87 38 -147 118 -147 245c0 185 123 275 301 275c31 0 61 -4 88 -11l18 36h67l-27 -55c88 -41 143 -124 143 -245zM250 258c0 -33 0 -62 4 -87l120 249c-11 12 -25 20 -44 20
c-66 0 -80 -77 -80 -182zM405 258c0 30 -1 58 -4 81l-117 -242c11 -12 25 -18 45 -18c64 0 76 73 76 179z" />
    <glyph glyph-name="oslash.001" unicode="&#xe073;" horiz-adv-x="726" 
d="M35 272c0 188 150 297 331 297c34 0 67 -5 98 -13l18 37h71l-28 -59c98 -47 166 -139 166 -262c0 -183 -143 -294 -326 -294c-36 0 -70 5 -102 13l-19 -39h-68l28 60c-100 46 -169 137 -169 260zM251 272c0 -42 2 -90 16 -129l150 315c-14 10 -32 17 -54 17
c-104 0 -112 -113 -112 -203zM473 269c0 42 -3 89 -15 127l-150 -311c14 -9 32 -14 54 -14c91 0 111 106 111 198z" />
    <glyph glyph-name="otilde" unicode="&#xf5;" horiz-adv-x="656" 
d="M623 259c0 -182 -129 -274 -300 -274c-154 0 -290 84 -290 274c0 185 123 275 301 275c169 0 289 -95 289 -275zM250 258c0 -105 14 -179 79 -179c64 0 76 73 76 179s-12 182 -75 182c-66 0 -80 -77 -80 -182zM104 614c0 60 36 130 107 130c65 0 165 -44 220 -44
c15 0 21 26 21 45h99l-1 -21c-1 -56 -32 -132 -101 -132c-63 0 -175 43 -211 43c-32 0 -32 -13 -32 -40h-100c-2 2 -2 14 -2 19z" />
    <glyph glyph-name="otilde.001" unicode="&#xe074;" horiz-adv-x="726" 
d="M35 272c0 188 150 297 331 297c176 0 325 -114 325 -297s-143 -294 -326 -294c-178 0 -330 112 -330 294zM251 272c0 -87 11 -201 111 -201c91 0 111 106 111 198c0 93 -14 206 -110 206c-104 0 -112 -113 -112 -203zM139 614c0 60 36 130 107 130c65 0 165 -44 220 -44
c15 0 21 26 21 45h99l-1 -21c-1 -56 -32 -132 -101 -132c-63 0 -175 43 -211 43c-32 0 -32 -13 -32 -40h-100c-2 2 -2 14 -2 19z" />
    <glyph glyph-name="p" unicode="p" horiz-adv-x="702" 
d="M17 -162h53c9 0 20 1 20 37v533c0 11 -10 21 -21 21h-54v86l276 9l-8 -63c38 51 100 74 162 74c163 0 222 -136 222 -281c0 -149 -79 -270 -239 -270c-38 0 -100 6 -146 74l10 -47v-135c0 -19 2 -38 20 -38h63v-89h-358v89zM368 80c65 0 81 54 81 185
c0 132 -14 174 -77 174c-76 0 -84 -101 -84 -176c0 -62 0 -183 80 -183z" />
    <glyph glyph-name="p.001" unicode="&#xe075;" horiz-adv-x="698" 
d="M324 228l-1 -121c0 -9 11 -17 20 -17h62v-90h-366v90h63c9 0 19 8 19 17v339c0 9 -10 17 -19 17h-63v90h430c102 0 204 -46 204 -161c0 -93 -72 -164 -165 -164h-184zM324 464v-144h73c50 0 71 27 71 74c0 43 -21 70 -69 70h-75z" />
    <glyph glyph-name="paragraph" unicode="&#xb6;" horiz-adv-x="715" 
d="M491 -103l-1 726h-51v-725h-119v404h-78c-111 0 -184 88 -184 194c0 132 99 196 224 196h401v-67h-76c-20 0 -34 -17 -34 -37v-691h-82z" />
    <glyph glyph-name="parenleft" unicode="(" horiz-adv-x="452" 
d="M401 -136l-42 -68c-213 86 -319 267 -319 481c0 212 128 383 321 466l41 -69c-96 -76 -184 -172 -184 -412c0 -241 86 -327 183 -398z" />
    <glyph glyph-name="parenright" unicode=")" horiz-adv-x="452" 
d="M93 -204l-42 68c97 71 183 157 183 398c0 240 -88 336 -184 412l41 69c194 -83 321 -254 321 -466c0 -214 -106 -395 -319 -481z" />
    <glyph glyph-name="percent" unicode="%" horiz-adv-x="866" 
d="M60 559c0 114 64 185 180 185c112 0 170 -74 170 -185c0 -110 -70 -180 -178 -180s-172 75 -172 180zM236 673c-25 0 -31 -28 -31 -47v-133c0 -18 6 -44 29 -44c21 0 25 19 27 38c2 44 3 88 3 137c0 18 -3 49 -28 49zM455 166c0 114 65 185 181 185
c112 0 170 -75 170 -185c0 -111 -70 -181 -179 -181c-107 0 -172 75 -172 181zM632 280c-25 0 -31 -29 -31 -48v-133c0 -18 6 -44 29 -44c20 0 25 20 27 38c2 44 3 88 3 137c0 18 -3 50 -28 50zM611 743h104l-452 -743h-101z" />
    <glyph glyph-name="period" unicode="." horiz-adv-x="307" 
d="M57 93c0 56 42 96 96 96s99 -42 99 -96s-45 -98 -99 -98s-96 44 -96 98z" />
    <glyph glyph-name="periodcentered" unicode="&#xb7;" horiz-adv-x="303" 
d="M54 396c0 54 42 95 96 95s99 -41 99 -95c0 -57 -45 -98 -99 -98c-56 0 -96 43 -96 98z" />
    <glyph glyph-name="perthousand" unicode="&#x2030;" horiz-adv-x="1258" 
d="M60 559c0 114 64 185 180 185c112 0 170 -74 170 -185c0 -110 -70 -180 -178 -180s-172 75 -172 180zM236 673c-25 0 -31 -28 -31 -47v-133c0 -18 6 -44 29 -44c21 0 25 19 27 38c2 44 3 88 3 137c0 18 -3 49 -28 49zM455 166c0 114 65 185 181 185
c112 0 170 -75 170 -185c0 -111 -70 -181 -179 -181c-107 0 -172 75 -172 181zM632 280c-25 0 -31 -29 -31 -48v-133c0 -18 6 -44 29 -44c20 0 25 20 27 38c2 44 3 88 3 137c0 18 -3 50 -28 50zM611 743h104l-452 -743h-101zM847 166c0 114 65 185 181 185
c112 0 170 -75 170 -185c0 -111 -70 -181 -179 -181c-107 0 -172 75 -172 181zM1024 280c-25 0 -31 -29 -31 -48v-133c0 -18 6 -44 29 -44c20 0 25 20 27 38c2 44 2 88 2 137c0 18 -2 50 -27 50z" />
    <glyph glyph-name="plus" unicode="+" horiz-adv-x="547" 
d="M211 102v151h-150v124h150v150h124v-150h151v-124h-151v-151h-124z" />
    <glyph glyph-name="plusminus" unicode="&#xb1;" horiz-adv-x="546" 
d="M61 396h150v150h124v-150h151v-125h-151v-147h151v-124h-425v124h150v147h-150v125z" />
    <glyph glyph-name="q" unicode="q" horiz-adv-x="680" 
d="M382 -163c11 0 24 10 24 22v133l10 72c-34 -51 -91 -79 -160 -79c-153 0 -224 131 -224 273c0 151 81 276 244 276c84 0 132 -27 178 -100l37 93h117v-668c0 -12 13 -22 25 -22h52v-89h-357v89h54zM248 271c0 -68 4 -188 79 -188c80 0 83 106 83 187
c0 96 -12 170 -79 170c-81 0 -83 -107 -83 -169z" />
    <glyph glyph-name="q.001" unicode="&#xe076;" horiz-adv-x="755" 
d="M771 106v-87c0 -84 -76 -126 -152 -126c-64 0 -119 31 -154 96c-32 -10 -66 -11 -98 -11c-179 0 -327 112 -327 297c0 183 148 294 327 294c181 0 329 -113 329 -296c0 -89 -34 -175 -112 -231c15 -26 35 -31 54 -31c21 0 39 10 45 40v55h88zM368 474
c-96 0 -116 -98 -116 -190c0 -35 3 -55 10 -96c17 47 59 69 105 69c43 0 79 -32 104 -71c6 34 11 68 11 103c0 89 -36 185 -114 185zM303 94c16 -16 38 -22 57 -22c20 0 41 3 59 14c-14 34 -35 72 -63 72c-37 0 -53 -30 -53 -64z" />
    <glyph glyph-name="q.alt" unicode="&#xe4d0;" horiz-adv-x="699" 
d="M629 -162h53v-89h-358v89h63c18 0 20 19 20 38v135l12 55c-46 -68 -120 -82 -148 -82c-160 0 -239 121 -239 270c0 145 79 281 242 281c62 0 137 -20 181 -101l-27 90l256 -9v-86h-54c-11 0 -21 -10 -21 -21v-533c0 -36 11 -37 20 -37zM331 83c80 0 80 118 80 180
c0 105 -8 176 -84 176c-63 0 -77 -72 -77 -174c0 -111 16 -182 81 -182z" />
    <glyph glyph-name="question" unicode="?" horiz-adv-x="575" 
d="M163 95c0 54 44 94 98 94s97 -42 97 -96c0 -56 -46 -98 -102 -98c-53 0 -93 48 -93 100zM325 534c0 51 -21 91 -79 91c-29 0 -54 -6 -66 -38c55 0 79 -34 79 -72c0 -44 -32 -93 -86 -93s-114 43 -114 122c0 122 127 172 233 172c110 0 225 -52 225 -174
c0 -187 -206 -187 -206 -322h-104c-1 8 -1 16 -1 23c0 141 119 168 119 291z" />
    <glyph glyph-name="questiondown" unicode="&#xbf;" horiz-adv-x="574" 
d="M411 436c0 -54 -43 -94 -97 -94s-98 42 -98 96c0 56 46 97 103 97c53 0 92 -47 92 -99zM250 -3c0 -51 21 -91 79 -91c29 0 54 6 66 38c-55 0 -79 34 -79 72c0 44 32 93 85 93c55 0 114 -43 114 -122c0 -122 -127 -172 -232 -172c-110 0 -225 52 -225 174
c0 187 206 187 206 322h104c1 -8 1 -16 1 -23c0 -141 -119 -168 -119 -291z" />
    <glyph glyph-name="quotedbl" unicode="&#x22;" horiz-adv-x="480" 
d="M91 459l-30 238c0 33 26 48 75 48s76 -15 76 -46l-31 -240h-90zM298 459l-30 238c0 33 26 48 75 48s76 -15 76 -46l-31 -240h-90z" />
    <glyph glyph-name="quotedblbase" unicode="&#x201e;" horiz-adv-x="546" 
d="M147 184c76 0 104 -66 104 -134c0 -111 -69 -183 -181 -183v62c36 0 73 19 73 61v12c-58 0 -92 28 -92 87c0 54 40 95 96 95zM397 184c77 0 104 -66 104 -134c0 -111 -69 -183 -181 -183v62c36 0 74 19 74 61c0 4 0 8 -1 12c-58 0 -91 28 -91 87c0 54 39 95 95 95z" />
    <glyph glyph-name="quotedblleft" unicode="&#x201c;" horiz-adv-x="546" 
d="M395 445c-77 0 -104 67 -104 135c0 110 69 183 181 183v-63c-36 0 -74 -19 -74 -61c0 -3 0 -8 1 -12c58 0 91 -28 91 -87c0 -53 -39 -95 -95 -95zM144 445c-76 0 -104 67 -104 135c0 110 69 183 182 183v-63c-36 0 -74 -19 -74 -61c0 -3 0 -8 1 -12c58 0 91 -28 91 -87
c0 -53 -40 -95 -96 -95z" />
    <glyph glyph-name="quotedblright" unicode="&#x201d;" horiz-adv-x="546" 
d="M147 762c76 0 104 -66 104 -135c0 -110 -69 -183 -181 -183v63c36 0 73 19 73 61v12c-58 0 -92 28 -92 87c0 53 40 95 96 95zM397 762c77 0 104 -66 104 -135c0 -110 -69 -183 -181 -183v63c36 0 74 19 74 61c0 3 0 8 -1 12c-58 0 -91 28 -91 87c0 53 39 95 95 95z" />
    <glyph glyph-name="quoteleft" unicode="&#x2018;" horiz-adv-x="296" 
d="M151 444c-76 0 -104 67 -104 135c0 110 69 183 182 183v-63c-36 0 -74 -19 -74 -61c0 -3 0 -8 1 -11c58 0 91 -29 91 -88c0 -53 -40 -95 -96 -95z" />
    <glyph glyph-name="quoteright" unicode="&#x2019;" horiz-adv-x="296" 
d="M147 761c76 0 104 -66 104 -134c0 -111 -69 -184 -181 -184v63c36 0 73 19 73 61v12c-58 0 -92 28 -92 87c0 53 40 95 96 95z" />
    <glyph glyph-name="quotesinglbase" unicode="&#x201a;" horiz-adv-x="296" 
d="M147 184c76 0 104 -66 104 -134c0 -111 -69 -183 -181 -183v62c36 0 73 19 73 61v12c-58 0 -92 28 -92 87c0 54 40 95 96 95z" />
    <glyph glyph-name="quotesingle" unicode="'" horiz-adv-x="273" 
d="M91 459l-30 238c0 33 26 48 75 48s76 -15 76 -46l-31 -240h-90z" />
    <glyph glyph-name="r" unicode="r" horiz-adv-x="597" 
d="M29 89h56c8 0 17 3 17 17v282c0 38 -17 38 -42 38h-31v89l275 9l-9 -88c47 85 108 96 154 96c74 0 135 -38 135 -119c0 -62 -42 -106 -104 -106c-50 0 -94 32 -94 83c0 21 7 33 17 46c-44 0 -96 -61 -96 -132v-194c0 -15 9 -21 19 -21h106v-89h-403v89z" />
    <glyph glyph-name="r.001" unicode="&#xe077;" horiz-adv-x="759" 
d="M324 228v-120c0 -10 10 -18 20 -18h59v-90h-364v90h63c10 0 19 8 19 18v338c0 10 -9 18 -19 18h-63v89h438c96 0 195 -25 195 -138c0 -101 -79 -128 -166 -135c65 -14 112 -29 120 -103c4 -34 1 -99 22 -99c11 0 18 5 18 22v73h88v-63c0 -86 -54 -126 -176 -126
c-68 0 -121 27 -131 97l-14 95c-3 21 -6 52 -54 52h-55zM324 464v-144h44c54 0 100 4 100 74c0 47 -25 70 -67 70h-77z" />
    <glyph glyph-name="racute" unicode="&#x155;" horiz-adv-x="597" 
d="M29 89h56c8 0 17 3 17 17v282c0 38 -17 38 -42 38h-31v89l275 9l-9 -88c47 85 108 96 154 96c74 0 135 -38 135 -119c0 -62 -42 -106 -104 -106c-50 0 -94 32 -94 83c0 21 7 33 17 46c-44 0 -96 -61 -96 -132v-194c0 -15 9 -21 19 -21h106v-89h-403v89zM243 596l87 148
h182l-157 -148h-112z" />
    <glyph glyph-name="racute.001" unicode="&#xe078;" horiz-adv-x="759" 
d="M324 228v-120c0 -10 10 -18 20 -18h59v-90h-364v90h63c10 0 19 8 19 18v338c0 10 -9 18 -19 18h-63v89h438c96 0 195 -25 195 -138c0 -101 -79 -128 -166 -135c65 -14 112 -29 120 -103c4 -34 1 -99 22 -99c11 0 18 5 18 22v73h88v-63c0 -86 -54 -126 -176 -126
c-68 0 -121 27 -131 97l-14 95c-3 21 -6 52 -54 52h-55zM324 464v-144h44c54 0 100 4 100 74c0 47 -25 70 -67 70h-77zM251 596l87 148h182l-157 -148h-112z" />
    <glyph glyph-name="rcaron" unicode="&#x159;" horiz-adv-x="597" 
d="M29 89h56c8 0 17 3 17 17v282c0 38 -17 38 -42 38h-31v89l275 9l-9 -88c47 85 108 96 154 96c74 0 135 -38 135 -119c0 -62 -42 -106 -104 -106c-50 0 -94 32 -94 83c0 21 7 33 17 46c-44 0 -96 -61 -96 -132v-194c0 -15 9 -21 19 -21h106v-89h-403v89zM196 594l-103 150
h132l60 -77l73 77h132l-116 -150h-178z" />
    <glyph glyph-name="rcaron.001" unicode="&#xe079;" horiz-adv-x="759" 
d="M324 228v-120c0 -10 10 -18 20 -18h59v-90h-364v90h63c10 0 19 8 19 18v338c0 10 -9 18 -19 18h-63v89h438c96 0 195 -25 195 -138c0 -101 -79 -128 -166 -135c65 -14 112 -29 120 -103c4 -34 1 -99 22 -99c11 0 18 5 18 22v73h88v-63c0 -86 -54 -126 -176 -126
c-68 0 -121 27 -131 97l-14 95c-3 21 -6 52 -54 52h-55zM324 464v-144h44c54 0 100 4 100 74c0 47 -25 70 -67 70h-77zM263 594l-103 150h132l60 -77l73 77h132l-116 -150h-178z" />
    <glyph glyph-name="rcommaaccent" unicode="&#x157;" horiz-adv-x="597" 
d="M29 89h56c8 0 17 3 17 17v282c0 38 -17 38 -42 38h-31v89l275 9l-9 -88c47 85 108 96 154 96c74 0 135 -38 135 -119c0 -62 -42 -106 -104 -106c-50 0 -94 32 -94 83c0 21 7 33 17 46c-44 0 -96 -61 -96 -132v-194c0 -15 9 -21 19 -21h106v-89h-403v89zM218 -22
c76 0 104 -66 104 -134c0 -111 -69 -183 -181 -183v62c36 0 73 19 73 61v12c-58 0 -92 28 -92 87c0 54 40 95 96 95z" />
    <glyph glyph-name="rcommaaccent.001" unicode="&#xe07a;" horiz-adv-x="759" 
d="M324 228v-120c0 -10 10 -18 20 -18h59v-90h-364v90h63c10 0 19 8 19 18v338c0 10 -9 18 -19 18h-63v89h438c96 0 195 -25 195 -138c0 -101 -79 -128 -166 -135c65 -14 112 -29 120 -103c4 -34 1 -99 22 -99c11 0 18 5 18 22v73h88v-63c0 -86 -54 -126 -176 -126
c-68 0 -121 27 -131 97l-14 95c-3 21 -6 52 -54 52h-55zM382 -22c76 0 104 -66 104 -134c0 -111 -69 -183 -181 -183v62c36 0 73 19 73 61v12c-58 0 -92 28 -92 87c0 54 40 95 96 95zM324 464v-144h44c54 0 100 4 100 74c0 47 -25 70 -67 70h-77z" />
    <glyph glyph-name="registered" unicode="&#xae;" horiz-adv-x="957" 
d="M889 348c0 -227 -185 -411 -410 -411c-228 0 -412 184 -412 411c0 225 184 410 412 410c225 0 410 -185 410 -410zM829 347c0 193 -157 350 -350 350c-195 0 -352 -157 -352 -350c0 -194 157 -352 352 -352c193 0 350 158 350 352zM442 321v-104c0 -7 7 -14 14 -14h46
v-60h-250v60h47c7 0 15 7 15 14v263c0 8 -8 14 -15 14h-47v60h294c71 0 145 -19 145 -102c0 -76 -59 -96 -123 -101c49 -10 83 -21 88 -76c3 -25 1 -72 17 -72c8 0 13 4 13 17v54h56v-32c0 -77 -24 -109 -104 -109c-51 0 -90 22 -97 73l-10 76c-2 17 -5 39 -41 39h-48z
M442 494v-110h40c41 0 75 5 75 58c0 34 -19 52 -50 52h-65z" />
    <glyph glyph-name="ring" unicode="&#x2da;" horiz-adv-x="379" 
d="M43 647c0 81 83 97 150 97c64 0 149 -23 149 -97c0 -83 -87 -98 -153 -98c-65 0 -146 17 -146 98zM155 647c0 -23 12 -38 38 -38c20 0 37 15 37 38s-17 37 -37 37c-26 0 -38 -14 -38 -37z" />
    <glyph glyph-name="s" unicode="s" horiz-adv-x="596" 
d="M144 40l-18 -40h-81v190h89c24 -72 101 -103 169 -103c29 0 82 5 82 46c0 23 -12 34 -35 37l-195 43c-79 16 -120 61 -120 142c0 132 119 183 234 183c63 0 115 -13 171 -39l23 39h74v-187h-89c-23 66 -84 93 -152 93c-30 0 -78 -8 -78 -47c0 -17 10 -25 27 -29l216 -50
c68 -15 107 -77 107 -143c0 -129 -135 -185 -242 -185c-65 0 -130 13 -182 50z" />
    <glyph glyph-name="s.001" unicode="&#xe07b;" horiz-adv-x="604" 
d="M541 561v-201h-90c-19 81 -88 114 -166 114c-41 0 -98 -13 -98 -52c0 -18 13 -30 34 -35l193 -47c89 -22 158 -75 158 -173c0 -126 -122 -189 -238 -189c-64 0 -132 12 -187 49c-16 -38 -16 -37 -17 -37h-87v206h92c13 -95 99 -123 184 -123c40 0 106 13 106 56
c0 20 -23 32 -49 39l-205 51c-77 20 -135 85 -135 166c0 125 121 184 235 184c59 0 110 -15 162 -42h2l19 34h87z" />
    <glyph glyph-name="sacute" unicode="&#x15b;" horiz-adv-x="596" 
d="M144 40l-18 -40h-81v190h89c24 -72 101 -103 169 -103c29 0 82 5 82 46c0 23 -12 34 -35 37l-195 43c-79 16 -120 61 -120 142c0 132 119 183 234 183c63 0 115 -13 171 -39l23 39h74v-187h-89c-23 66 -84 93 -152 93c-30 0 -78 -8 -78 -47c0 -17 10 -25 27 -29l216 -50
c68 -15 107 -77 107 -143c0 -129 -135 -185 -242 -185c-65 0 -130 13 -182 50zM203 596l87 148h182l-157 -148h-112z" />
    <glyph glyph-name="sacute.001" unicode="&#xe07c;" horiz-adv-x="579" 
d="M544 561v-201h-90c-19 81 -88 114 -166 114c-41 0 -98 -13 -98 -52c0 -18 13 -30 34 -35l193 -47c89 -22 158 -75 158 -173c0 -126 -122 -189 -238 -189c-64 0 -132 12 -187 49c-16 -38 -16 -37 -17 -37h-87v206h92c13 -95 99 -123 184 -123c40 0 106 13 106 56
c0 20 -23 32 -49 39l-205 51c-77 20 -135 85 -135 166c0 125 121 184 235 184c59 0 110 -15 162 -42h2l19 34h87zM209 596l87 148h182l-157 -148h-112z" />
    <glyph glyph-name="scaron" unicode="&#x161;" horiz-adv-x="596" 
d="M144 40l-18 -40h-81v190h89c24 -72 101 -103 169 -103c29 0 82 5 82 46c0 23 -12 34 -35 37l-195 43c-79 16 -120 61 -120 142c0 132 119 183 234 183c63 0 115 -13 171 -39l23 39h74v-187h-89c-23 66 -84 93 -152 93c-30 0 -78 -8 -78 -47c0 -17 10 -25 27 -29l216 -50
c68 -15 107 -77 107 -143c0 -129 -135 -185 -242 -185c-65 0 -130 13 -182 50zM201 594l-103 150h133l60 -77l72 77h133l-116 -150h-179z" />
    <glyph glyph-name="scaron.001" unicode="&#xe07d;" horiz-adv-x="604" 
d="M541 561v-201h-90c-19 81 -88 114 -166 114c-41 0 -98 -13 -98 -52c0 -18 13 -30 34 -35l193 -47c89 -22 158 -75 158 -173c0 -126 -122 -189 -238 -189c-64 0 -132 12 -187 49c-16 -38 -16 -37 -17 -37h-87v206h92c13 -95 99 -123 184 -123c40 0 106 13 106 56
c0 20 -23 32 -49 39l-205 51c-77 20 -135 85 -135 166c0 125 121 184 235 184c59 0 110 -15 162 -42h2l19 34h87zM205 594l-103 150h132l60 -77l73 77h132l-116 -150h-178z" />
    <glyph glyph-name="scedilla" unicode="&#x15f;" horiz-adv-x="596" 
d="M356 -38c54 0 109 -10 109 -77c0 -95 -103 -116 -178 -116c-42 0 -71 5 -98 10l21 73c16 -4 41 -7 63 -7c28 0 53 8 53 38c0 28 -27 33 -51 33c-13 0 -27 -1 -38 -2l25 81c-43 6 -83 20 -118 45l-18 -40h-81v190h89c24 -72 101 -103 169 -103c29 0 82 5 82 46
c0 23 -12 34 -35 37l-195 43c-79 16 -120 61 -120 142c0 132 119 183 234 183c63 0 115 -13 171 -39l23 39h74v-187h-89c-23 66 -84 93 -152 93c-30 0 -78 -8 -78 -47c0 -17 10 -25 27 -29l216 -50c68 -15 107 -77 107 -143c0 -114 -105 -171 -203 -182z" />
    <glyph glyph-name="scedilla.001" unicode="&#xe07e;" horiz-adv-x="604" 
d="M359 -48c54 0 109 -10 109 -77c0 -95 -103 -116 -178 -116c-42 0 -71 5 -98 10l21 73c16 -4 41 -7 63 -7c28 0 53 8 53 38c0 28 -27 33 -51 33c-13 0 -27 -1 -38 -2l24 79c-41 7 -82 20 -117 44c-16 -38 -16 -37 -17 -37h-87v206h92c13 -95 99 -123 184 -123
c40 0 106 13 106 56c0 20 -23 32 -49 39l-205 51c-77 20 -135 85 -135 166c0 125 121 184 235 184c59 0 110 -15 162 -42h2l19 34h87v-201h-90c-19 81 -88 114 -166 114c-41 0 -98 -13 -98 -52c0 -18 13 -30 34 -35l193 -47c89 -22 158 -75 158 -173
c0 -114 -100 -176 -205 -187z" />
    <glyph glyph-name="scircumflex" unicode="&#x15d;" horiz-adv-x="596" 
d="M144 40l-18 -40h-81v190h89c24 -72 101 -103 169 -103c29 0 82 5 82 46c0 23 -12 34 -35 37l-195 43c-79 16 -120 61 -120 142c0 132 119 183 234 183c63 0 115 -13 171 -39l23 39h74v-187h-89c-23 66 -84 93 -152 93c-30 0 -78 -8 -78 -47c0 -17 10 -25 27 -29l216 -50
c68 -15 107 -77 107 -143c0 -129 -135 -185 -242 -185c-65 0 -130 13 -182 50zM99 593l103 150h179l114 -150h-135l-72 78l-60 -78h-129z" />
    <glyph glyph-name="scircumflex.001" unicode="&#xe07f;" horiz-adv-x="604" 
d="M541 561v-201h-90c-19 81 -88 114 -166 114c-41 0 -98 -13 -98 -52c0 -18 13 -30 34 -35l193 -47c89 -22 158 -75 158 -173c0 -126 -122 -189 -238 -189c-64 0 -132 12 -187 49c-16 -38 -16 -37 -17 -37h-87v206h92c13 -95 99 -123 184 -123c40 0 106 13 106 56
c0 20 -23 32 -49 39l-205 51c-77 20 -135 85 -135 166c0 125 121 184 235 184c59 0 110 -15 162 -42h2l19 34h87zM102 603l103 150h179l114 -150h-135l-72 78l-60 -78h-129z" />
    <glyph glyph-name="scommaaccent" unicode="&#x219;" horiz-adv-x="596" 
d="M144 40l-18 -40h-81v190h89c24 -72 101 -103 169 -103c29 0 82 5 82 46c0 23 -12 34 -35 37l-195 43c-79 16 -120 61 -120 142c0 132 119 183 234 183c63 0 115 -13 171 -39l23 39h74v-187h-89c-23 66 -84 93 -152 93c-30 0 -78 -8 -78 -47c0 -17 10 -25 27 -29l216 -50
c68 -15 107 -77 107 -143c0 -129 -135 -185 -242 -185c-65 0 -130 13 -182 50zM293 -22c76 0 104 -66 104 -134c0 -111 -69 -183 -181 -183v62c36 0 73 19 73 61v12c-58 0 -92 28 -92 87c0 54 40 95 96 95z" />
    <glyph glyph-name="scommaaccent.001" unicode="&#xe080;" horiz-adv-x="579" 
d="M544 561v-201h-90c-19 81 -88 114 -166 114c-41 0 -98 -13 -98 -52c0 -18 13 -30 34 -35l193 -47c89 -22 158 -75 158 -173c0 -126 -122 -189 -238 -189c-64 0 -132 12 -187 49c-16 -38 -16 -37 -17 -37h-87v206h92c13 -95 99 -123 184 -123c40 0 106 13 106 56
c0 20 -23 32 -49 39l-205 51c-77 20 -135 85 -135 166c0 125 121 184 235 184c59 0 110 -15 162 -42h2l19 34h87zM329 -62c76 0 104 -66 104 -134c0 -111 -69 -183 -181 -183v62c36 0 73 19 73 61v12c-58 0 -92 28 -92 87c0 54 40 95 96 95z" />
    <glyph glyph-name="section" unicode="&#xa7;" horiz-adv-x="641" 
d="M96 0c0 52 39 87 91 87c43 0 85 -24 85 -72c0 -37 -18 -42 -29 -52c16 -13 33 -16 56 -16c37 0 87 18 87 64s-21 45 -208 124c-70 30 -120 69 -120 147c0 71 38 111 97 138c-37 35 -58 69 -58 120c0 135 121 185 237 185c89 0 210 -35 210 -145c0 -57 -35 -85 -91 -85
c-46 0 -83 27 -83 73c0 33 16 42 28 55c-20 8 -37 13 -58 13c-41 0 -85 -15 -85 -62c0 -31 23 -50 50 -61l162 -66c62 -25 116 -79 116 -150c0 -61 -43 -107 -97 -133c37 -34 58 -77 58 -126c0 -129 -126 -179 -237 -179c-87 0 -211 32 -211 141zM203 312
c8 -20 30 -33 50 -42l147 -62c22 10 40 26 40 50c0 21 -17 37 -35 46l-162 70c-29 0 -40 -27 -40 -62z" />
    <glyph glyph-name="semicolon" unicode=";" horiz-adv-x="335" 
d="M163 184c76 0 104 -66 104 -134c0 -111 -69 -183 -181 -183v62c36 0 73 19 73 61v12c-58 0 -92 28 -92 87c0 54 40 95 96 95zM69 438c0 53 46 97 101 97c53 0 94 -44 94 -97c0 -56 -45 -98 -99 -98c-52 0 -96 45 -96 98z" />
    <glyph glyph-name="seven" unicode="7" horiz-adv-x="616" 
d="M177 115c0 76 41 159 94 215c128 137 191 205 191 244c0 3 0 6 -1 8c-18 -36 -61 -47 -97 -47c-37 0 -150 20 -161 20c-35 0 -66 -10 -66 -43v-88h-97v270h89v-74c21 54 46 83 104 83c40 0 185 -48 218 -48c25 0 33 17 35 39h98v-17c0 -125 -35 -160 -171 -369
c-40 -62 -42 -130 -43 -203c0 -64 -23 -117 -94 -117c-81 0 -99 60 -99 127z" />
    <glyph glyph-name="seven.osf" unicode="&#xe081;" horiz-adv-x="616" 
d="M178 -61c0 77 41 159 93 216c128 137 192 204 192 243c0 3 0 6 -1 9c-19 -36 -62 -47 -98 -47s-150 19 -161 19c-35 0 -65 -10 -65 -43v-88h-98v270h90v-74c21 55 46 83 104 83c39 0 185 -48 218 -48c25 0 33 17 35 39h97v-17c0 -125 -34 -160 -170 -369
c-40 -62 -42 -130 -43 -203c0 -63 -23 -117 -94 -117c-81 0 -99 60 -99 127z" />
    <glyph glyph-name="seven.tf" unicode="&#xe082;" horiz-adv-x="660" 
d="M195 115c0 76 41 159 94 215c128 137 191 205 191 244c0 3 0 6 -1 8c-18 -36 -61 -47 -97 -47c-37 0 -150 20 -161 20c-35 0 -66 -10 -66 -43v-88h-97v270h89v-74c21 54 46 83 104 83c40 0 185 -48 218 -48c25 0 33 17 35 39h98v-17c0 -125 -35 -160 -171 -369
c-40 -62 -42 -130 -43 -203c0 -64 -23 -117 -94 -117c-81 0 -99 60 -99 127z" />
    <glyph glyph-name="seveneighths" unicode="&#x215e;" horiz-adv-x="905" 
d="M495 105c0 45 21 77 71 93c-42 21 -68 48 -68 97c0 97 98 125 181 125c74 0 155 -33 155 -106c0 -44 -15 -64 -64 -85c69 -32 85 -58 85 -108c0 -85 -89 -129 -185 -129c-83 0 -175 33 -175 113zM97 329c0 147 165 214 175 305c-20 -37 -49 -54 -82 -54
c-31 0 -55 10 -75 10c-33 0 -36 -19 -36 -35v-26h-74v165h74v-58c14 47 26 62 64 62c41 0 88 -26 117 -26c18 0 21 4 22 22h77c0 -46 -16 -113 -46 -151c-65 -82 -78 -148 -78 -213c0 -27 -9 -68 -70 -68c-57 0 -68 39 -68 67zM571 716h104l-452 -743h-101zM604 112
c0 -14 5 -55 62 -55c38 0 53 21 53 42c0 26 -18 35 -86 68c-21 -17 -29 -33 -29 -55zM628 318c0 -32 47 -46 71 -56c14 12 29 25 29 51c0 41 -39 44 -49 44c-6 0 -51 -3 -51 -39z" />
    <glyph glyph-name="seveninferior" unicode="&#x2087;" horiz-adv-x="409" 
d="M97 -137c0 147 165 214 175 305c-20 -37 -49 -54 -82 -54c-31 0 -55 10 -75 10c-33 0 -36 -19 -36 -35v-26h-74v165h74v-58c14 47 26 62 64 62c41 0 88 -26 117 -26c18 0 21 4 22 22h77c0 -46 -16 -113 -46 -151c-65 -82 -78 -148 -78 -213c0 -27 -9 -68 -70 -68
c-57 0 -68 39 -68 67z" />
    <glyph glyph-name="sevensuperior" unicode="&#x2077;" horiz-adv-x="409" 
d="M97 388c0 147 165 214 175 305c-20 -37 -49 -54 -82 -54c-31 0 -55 10 -75 10c-33 0 -36 -19 -36 -35v-26h-74v165h74v-58c14 47 26 62 64 62c41 0 88 -26 117 -26c18 0 21 4 22 22h77c0 -46 -16 -113 -46 -151c-65 -82 -78 -148 -78 -213c0 -27 -9 -68 -70 -68
c-57 0 -68 39 -68 67z" />
    <glyph glyph-name="six" unicode="6" horiz-adv-x="679" 
d="M612 559c0 -60 -40 -97 -100 -97c-47 0 -89 28 -89 78c0 26 10 44 33 54c-8 13 -41 16 -52 16c-103 0 -145 -65 -145 -163c0 -20 0 -41 4 -63c36 37 88 48 137 48c126 0 220 -81 220 -211c0 -158 -129 -238 -274 -238c-233 0 -289 159 -289 367c0 177 56 357 327 357
c95 0 228 -30 228 -148zM420 210c0 54 -3 123 -74 123c-48 0 -75 -28 -75 -117c0 -53 0 -132 73 -132c71 0 76 71 76 126z" />
    <glyph glyph-name="six.osf" unicode="&#xe083;" horiz-adv-x="679" 
d="M611 558c0 -60 -39 -97 -99 -97c-48 0 -89 28 -89 78c0 26 10 44 33 54c-8 13 -42 16 -53 16c-103 0 -145 -65 -145 -163c0 -20 1 -41 5 -63c36 37 88 48 137 48c126 0 220 -80 220 -211c0 -158 -129 -237 -275 -237c-232 0 -288 158 -288 366c0 177 56 357 326 357
c96 0 228 -30 228 -148zM420 209c0 54 -4 123 -75 123c-47 0 -74 -28 -74 -117c0 -53 0 -132 73 -132c70 0 76 71 76 126z" />
    <glyph glyph-name="six.tf" unicode="&#xe084;" horiz-adv-x="660" 
d="M603 559c0 -60 -40 -97 -100 -97c-47 0 -89 28 -89 78c0 26 10 44 33 54c-8 13 -41 16 -52 16c-103 0 -145 -65 -145 -163c0 -20 0 -41 4 -63c36 37 88 48 137 48c126 0 220 -81 220 -211c0 -158 -129 -238 -274 -238c-233 0 -289 159 -289 367c0 177 56 357 327 357
c95 0 228 -30 228 -148zM411 210c0 54 -3 123 -74 123c-48 0 -75 -28 -75 -117c0 -53 0 -132 73 -132c71 0 76 71 76 126z" />
    <glyph glyph-name="sixinferior" unicode="&#x2086;" horiz-adv-x="414" 
d="M358 148c0 -27 -13 -59 -70 -59c-31 0 -60 12 -60 45c0 22 12 31 17 35c-12 6 -20 7 -29 7c-60 0 -64 -51 -64 -128c19 21 43 29 76 29c87 0 136 -55 136 -125c0 -86 -76 -142 -177 -142c-148 0 -182 96 -182 202c0 131 51 226 210 226c79 0 143 -27 143 -90zM223 -56
c0 49 -9 70 -34 70c-34 0 -39 -27 -39 -66c0 -49 7 -74 36 -74c28 0 37 22 37 70z" />
    <glyph glyph-name="sixsevenths" unicode="&#xe085;" horiz-adv-x="1005" 
d="M358 612c0 -27 -13 -59 -70 -59c-31 0 -60 12 -60 45c0 22 12 31 17 35c-12 6 -20 7 -29 7c-60 0 -64 -51 -64 -128c19 21 43 29 76 29c87 0 136 -55 136 -125c0 -86 -76 -142 -177 -142c-148 0 -182 96 -182 202c0 131 51 226 210 226c79 0 143 -27 143 -90zM693 45
c0 147 165 214 175 305c-20 -37 -49 -54 -82 -54c-31 0 -55 10 -75 10c-33 0 -36 -19 -36 -35v-26h-74v165h74v-58c14 47 26 62 64 62c41 0 88 -26 117 -26c18 0 21 4 22 22h77c0 -46 -16 -113 -46 -151c-65 -82 -78 -148 -78 -213c0 -27 -9 -68 -70 -68
c-57 0 -68 39 -68 67zM647 716h104l-452 -743h-101zM223 408c0 49 -9 70 -34 70c-34 0 -39 -27 -39 -66c0 -49 7 -74 36 -74c28 0 37 22 37 70z" />
    <glyph glyph-name="sixsuperior" unicode="&#x2076;" horiz-adv-x="414" 
d="M358 673c0 -27 -13 -59 -70 -59c-31 0 -60 12 -60 45c0 22 12 31 17 35c-12 6 -20 7 -29 7c-60 0 -64 -51 -64 -128c19 21 43 29 76 29c87 0 136 -55 136 -125c0 -86 -76 -142 -177 -142c-148 0 -182 96 -182 202c0 131 51 226 210 226c79 0 143 -27 143 -90zM223 469
c0 49 -9 70 -34 70c-34 0 -39 -27 -39 -66c0 -49 7 -74 36 -74c28 0 37 22 37 70z" />
    <glyph glyph-name="slash" unicode="/" horiz-adv-x="504" 
d="M376 743h104l-358 -743h-101z" />
    <glyph glyph-name="sp" unicode="&#xe086;" horiz-adv-x="1308" 
d="M623 -162h53c9 0 20 1 20 37v542c-4 7 -11 12 -19 12h-60v84c125 0 167 75 167 146c0 92 -44 144 -131 144c-139 0 -172 -80 -172 -154c0 -39 17 -79 56 -111v-187h-89c-23 66 -84 93 -152 93c-30 0 -78 -8 -78 -47c0 -17 10 -25 27 -29l216 -50c68 -15 107 -77 107 -143
c0 -129 -135 -185 -242 -185c-65 0 -130 13 -182 50l-18 -40h-81v190h89c24 -72 101 -103 169 -103c29 0 82 5 82 46c0 23 -12 34 -35 37l-195 43c-79 17 -120 61 -120 142c0 132 119 183 234 183c63 0 115 -13 171 -39c-41 42 -62 91 -62 140c0 106 58 227 280 227
c140 0 238 -86 238 -229v-113l-20 -78c42 61 113 89 175 89c163 0 222 -136 222 -281c0 -149 -79 -270 -239 -270c-38 0 -100 6 -146 74l10 -47v-135c0 -19 2 -38 20 -38h63v-89h-358v89zM974 80c65 0 81 54 81 185c0 132 -14 174 -77 174c-76 0 -84 -101 -84 -176
c0 -62 0 -183 80 -183z" />
    <glyph glyph-name="space" unicode=" " horiz-adv-x="229" 
 />
    <glyph glyph-name="st" unicode="&#xfb06;" horiz-adv-x="1067" 
d="M144 40l-18 -40h-81v190h89c24 -72 101 -103 169 -103c29 0 82 5 82 46c0 23 -12 34 -35 37l-195 43c-79 17 -120 61 -120 142c0 132 119 183 234 183c63 0 115 -13 171 -39c-41 42 -62 91 -62 140c0 106 58 227 280 227c140 0 258 -86 258 -229v-123h129v-89h-129v-272
c0 -37 11 -46 49 -46c23 0 45 2 78 10v-111c-52 -13 -82 -17 -150 -17c-94 0 -179 30 -179 137v299h-97v84c125 0 187 79 187 150c0 92 -64 144 -151 144c-139 0 -172 -80 -172 -154c0 -39 17 -79 56 -111v-187h-89c-23 66 -84 93 -152 93c-30 0 -78 -8 -78 -47
c0 -17 10 -25 27 -29l216 -50c68 -15 107 -77 107 -143c0 -129 -135 -185 -242 -185c-65 0 -130 13 -182 50z" />
    <glyph glyph-name="sterling" unicode="&#xa3;" horiz-adv-x="736" 
d="M68 83c0 76 83 93 145 97c3 10 6 17 6 25c0 37 -24 64 -47 116h-131v92h91c-11 29 -20 60 -20 89c0 166 180 205 315 205c102 0 252 -33 252 -163c0 -56 -46 -94 -100 -94c-52 0 -94 27 -94 84c0 22 13 41 33 55c-33 18 -56 23 -91 23c-62 0 -130 -25 -130 -100
c0 -34 12 -68 25 -99h151v-92h-125c5 -22 8 -44 8 -64c0 -30 -6 -56 -21 -85c69 -11 139 -33 208 -33c17 0 38 16 38 41v68h102c0 -120 0 -261 -156 -261c-91 0 -162 63 -241 100c-24 -31 -44 -88 -140 -88c-42 0 -78 39 -78 84z" />
    <glyph glyph-name="t" unicode="t" horiz-adv-x="462" 
d="M288 -11c-94 0 -179 30 -179 137v299h-97v84c123 0 193 72 193 205h106v-200h129v-89h-129v-272c0 -37 11 -46 49 -46c23 0 45 2 78 10v-111c-52 -13 -82 -17 -150 -17z" />
    <glyph glyph-name="t.001" unicode="&#xe087;" horiz-adv-x="649" 
d="M425 459v-360c0 -9 11 -17 20 -17h62v-82h-367v82h61c10 0 20 8 20 17v360h-31c-71 -1 -75 -24 -79 -127h-91v221h609v-221h-90c-4 105 -8 126 -84 127h-30z" />
    <glyph glyph-name="t.alt" unicode="&#xe4d3;" horiz-adv-x="479" 
d="M109 425h-97v84c128 1 192 73 193 205h106v-200h129v-89h-129v-288c0 -17 8 -29 25 -29c27 0 29 15 29 29v93h92v-69c0 -90 -22 -175 -152 -175c-121 0 -196 49 -196 152v287z" />
    <glyph glyph-name="tbar" unicode="&#x167;" horiz-adv-x="462" 
d="M288 -11c-94 0 -179 30 -179 137v157h-77v45h77v97h-97v84c123 0 193 72 193 205h106v-200h129v-89h-129v-97h121v-45h-121v-130c0 -37 11 -46 49 -46c23 0 45 2 78 10v-111c-52 -13 -82 -17 -150 -17z" />
    <glyph glyph-name="tbar.001" unicode="&#xe088;" horiz-adv-x="649" 
d="M38 271h183v188h-31c-71 -1 -75 -24 -79 -127h-91v221h609v-221h-90c-4 105 -8 126 -84 127h-30v-188h186v-45h-186v-127c0 -9 11 -17 20 -17h62v-82h-367v82h61c10 0 20 8 20 17v127h-183v45z" />
    <glyph glyph-name="tbar.002" unicode="&#xe089;" horiz-adv-x="479" 
d="M109 425h-97v84c128 1 192 73 193 205h106v-200h129v-89h-129v-75h121v-45h-121v-168c0 -17 8 -29 25 -29c27 0 29 15 29 29v93h92v-69c0 -90 -22 -175 -152 -175c-121 0 -196 49 -196 152v167h-77v45h77v75z" />
    <glyph glyph-name="tcaron" unicode="&#x165;" horiz-adv-x="566" 
d="M288 -11c-94 0 -179 30 -179 137v299h-97v84c123 0 193 72 193 205h106v-200h129v-89h-129v-272c0 -37 11 -46 49 -46c23 0 45 2 78 10v-111c-52 -13 -82 -17 -150 -17zM544 761c76 0 104 -66 104 -134c0 -111 -69 -184 -181 -184v63c36 0 73 19 73 61v12
c-58 0 -92 28 -92 87c0 53 40 95 96 95z" />
    <glyph glyph-name="tcaron.001" unicode="&#xe08a;" horiz-adv-x="649" 
d="M425 459v-360c0 -9 11 -17 20 -17h62v-82h-367v82h61c10 0 20 8 20 17v360h-31c-71 -1 -75 -24 -79 -127h-91v221h609v-221h-90c-4 105 -8 126 -84 127h-30zM241 594l-103 150h132l60 -77l73 77h132l-116 -150h-178z" />
    <glyph glyph-name="tcaron.002" unicode="&#xe08b;" horiz-adv-x="577" 
d="M109 425h-97v84c128 1 192 73 193 205h106v-200h129v-89h-129v-288c0 -17 8 -29 25 -29c27 0 29 15 29 29v93h92v-69c0 -90 -22 -175 -152 -175c-121 0 -196 49 -196 152v287zM555 758c76 0 104 -66 104 -134c0 -111 -69 -183 -181 -183v62c36 0 73 19 73 61v12
c-58 0 -92 28 -92 87c0 54 40 95 96 95z" />
    <glyph glyph-name="tcommaaccent" unicode="&#x163;" horiz-adv-x="462" 
d="M288 -11c-94 0 -179 30 -179 137v299h-97v84c123 0 193 72 193 205h106v-200h129v-89h-129v-272c0 -37 11 -46 49 -46c23 0 45 2 78 10v-111c-52 -13 -82 -17 -150 -17zM268 -32c76 0 104 -66 104 -134c0 -111 -69 -183 -181 -183v62c36 0 73 19 73 61v12
c-58 0 -92 28 -92 87c0 54 40 95 96 95z" />
    <glyph glyph-name="tcommaaccent.001" unicode="&#xe08c;" horiz-adv-x="649" 
d="M425 459v-360c0 -9 11 -17 20 -17h62v-82h-367v82h61c10 0 20 8 20 17v360h-31c-71 -1 -75 -24 -79 -127h-91v221h609v-221h-90c-4 105 -8 126 -84 127h-30zM320 -22c76 0 104 -66 104 -134c0 -111 -69 -183 -181 -183v62c36 0 73 19 73 61v12c-58 0 -92 28 -92 87
c0 54 40 95 96 95z" />
    <glyph glyph-name="tcommaaccent.002" unicode="&#xe08d;" horiz-adv-x="479" 
d="M109 425h-97v84c128 1 192 73 193 205h106v-200h129v-89h-129v-288c0 -17 8 -29 25 -29c27 0 29 15 29 29v93h92v-69c0 -90 -22 -175 -152 -175c-121 0 -196 49 -196 152v287zM265 -52c76 0 104 -66 104 -134c0 -111 -69 -183 -181 -183v62c36 0 73 19 73 61v12
c-58 0 -92 28 -92 87c0 54 40 95 96 95z" />
    <glyph glyph-name="thorn" unicode="&#xfe;" horiz-adv-x="678" 
d="M-7 -162h53c9 0 20 1 20 37v762c0 11 -10 21 -21 21h-54v86l277 14v-248l-9 -49c38 51 100 74 162 74c163 0 222 -136 222 -281c0 -149 -79 -270 -239 -270c-38 0 -100 6 -146 74l10 -47v-135c0 -19 2 -38 20 -38h63v-89h-358v89zM344 80c65 0 81 54 81 185
c0 132 -14 174 -77 174c-76 0 -84 -101 -84 -176c0 -62 0 -183 80 -183z" />
    <glyph glyph-name="thorn.001" unicode="&#xe08e;" horiz-adv-x="699" 
d="M324 445v-14h144c104 0 206 -36 206 -151c0 -94 -73 -155 -166 -155h-184v-17c0 -10 10 -18 20 -18h62v-90h-367v90h63c9 0 20 8 20 18v337c0 10 -11 18 -20 18h-63v89h367v-89h-62c-10 0 -20 -8 -20 -18zM409 336h-85v-122h83c49 0 72 29 72 63c0 31 -23 59 -70 59z" />
    <glyph glyph-name="three" unicode="3" horiz-adv-x="658" 
d="M32 149c0 58 48 98 104 98c54 0 89 -27 89 -83c0 -30 -8 -48 -35 -63c22 -12 54 -16 78 -16c79 0 121 41 121 120c0 55 -15 111 -151 111h-31v89h13c81 0 169 2 169 109c0 69 -60 101 -117 101c-27 0 -52 -7 -72 -20c25 -16 37 -35 37 -64c0 -54 -41 -83 -91 -83
c-66 0 -99 40 -99 102c0 133 174 157 274 157c122 0 271 -36 271 -186c0 -100 -78 -147 -170 -159c109 -4 179 -57 179 -172c0 -161 -166 -203 -300 -203c-99 0 -269 30 -269 162z" />
    <glyph glyph-name="three.osf" unicode="&#xe08f;" horiz-adv-x="659" 
d="M32 -29c0 58 48 98 104 98c55 0 90 -27 90 -83c0 -29 -9 -48 -35 -62c22 -12 53 -17 78 -17c79 0 120 41 120 121c0 55 -14 110 -150 110h-32v89h13c81 0 169 2 169 110c0 69 -59 100 -116 100c-27 0 -53 -6 -72 -19c25 -17 37 -35 37 -65c0 -53 -42 -83 -91 -83
c-67 0 -100 40 -100 103c0 132 174 157 274 157c123 0 272 -37 272 -187c0 -99 -78 -146 -170 -159c108 -4 179 -57 179 -171c0 -162 -167 -203 -300 -203c-99 0 -270 29 -270 161z" />
    <glyph glyph-name="three.tf" unicode="&#xe090;" horiz-adv-x="660" 
d="M45 149c0 58 48 98 104 98c54 0 89 -27 89 -83c0 -30 -8 -48 -35 -63c22 -12 54 -16 78 -16c79 0 121 41 121 120c0 55 -15 111 -151 111h-31v89h13c81 0 169 2 169 109c0 69 -60 101 -117 101c-27 0 -52 -7 -72 -20c25 -16 37 -35 37 -64c0 -54 -41 -83 -91 -83
c-66 0 -99 40 -99 102c0 133 174 157 274 157c122 0 271 -36 271 -186c0 -100 -78 -147 -170 -159c109 -4 179 -57 179 -172c0 -161 -166 -203 -300 -203c-99 0 -269 30 -269 162z" />
    <glyph glyph-name="threeeighths" unicode="&#x215c;" horiz-adv-x="986" 
d="M576 105c0 45 21 77 71 93c-42 21 -68 48 -68 97c0 97 98 125 181 125c74 0 155 -33 155 -106c0 -44 -15 -64 -64 -85c69 -32 85 -58 85 -108c0 -85 -89 -129 -185 -129c-83 0 -175 33 -175 113zM685 112c0 -14 5 -55 62 -55c38 0 53 21 53 42c0 26 -18 35 -86 68
c-21 -17 -29 -33 -29 -55zM709 318c0 -32 47 -46 71 -56c14 12 29 25 29 51c0 41 -39 44 -49 44c-6 0 -51 -3 -51 -39zM652 716h104l-452 -743h-101zM5 374c0 46 33 64 69 64c34 0 61 -18 61 -50c0 -20 -5 -26 -17 -37c14 -8 22 -12 39 -12c22 0 64 13 64 68s-31 60 -108 60
v62c67 0 101 6 101 59c0 17 -8 54 -50 54c-17 0 -28 -6 -39 -11c12 -8 17 -14 17 -34c0 -27 -18 -50 -65 -50c-28 0 -67 15 -67 64c0 71 104 92 172 92c88 0 175 -29 175 -110c0 -69 -50 -88 -106 -94c85 -5 115 -41 115 -101c0 -84 -92 -123 -193 -123
c-72 0 -168 18 -168 99z" />
    <glyph glyph-name="threefifths" unicode="&#xe091;" horiz-adv-x="992" 
d="M586 85c0 46 38 66 73 66c30 0 59 -15 59 -43c0 -21 -6 -31 -20 -44c14 -7 26 -10 38 -10c43 0 63 41 63 83s-21 85 -58 85c-17 0 -35 -9 -52 -29h-89l8 220c41 -9 85 -13 130 -13c60 0 123 7 187 17c0 -39 -42 -101 -191 -101c-23 0 -28 1 -52 2l-3 -79
c23 30 65 45 108 45c75 0 155 -45 155 -139c0 -97 -76 -156 -199 -156c-69 0 -157 27 -157 96zM652 716h104l-452 -743h-101zM5 374c0 46 33 64 69 64c34 0 61 -18 61 -50c0 -20 -5 -26 -17 -37c14 -8 22 -12 39 -12c22 0 64 13 64 68s-31 60 -108 60v62c67 0 101 6 101 59
c0 17 -8 54 -50 54c-17 0 -28 -6 -39 -11c12 -8 17 -14 17 -34c0 -27 -18 -50 -65 -50c-28 0 -67 15 -67 64c0 71 104 92 172 92c88 0 175 -29 175 -110c0 -69 -50 -88 -106 -94c85 -5 115 -41 115 -101c0 -84 -92 -123 -193 -123c-72 0 -168 18 -168 99z" />
    <glyph glyph-name="threeinferior" unicode="&#x2083;" horiz-adv-x="416" 
d="M5 -91c0 46 33 64 69 64c34 0 61 -18 61 -50c0 -20 -5 -26 -17 -37c14 -8 22 -12 39 -12c22 0 64 13 64 68s-31 60 -108 60v62c67 0 101 6 101 59c0 17 -8 54 -50 54c-17 0 -28 -6 -39 -11c12 -8 17 -14 17 -34c0 -27 -18 -50 -65 -50c-28 0 -67 15 -67 64
c0 71 104 92 172 92c88 0 175 -29 175 -110c0 -69 -50 -88 -106 -94c85 -5 115 -41 115 -101c0 -84 -92 -123 -193 -123c-72 0 -168 18 -168 99z" />
    <glyph glyph-name="threequarters" unicode="&#xbe;" horiz-adv-x="983" 
d="M697 716h104l-452 -743h-101zM713 64c12 0 22 10 22 23v17h-191v61l186 244h127v-240h76v-65h-76v-18c0 -17 10 -20 25 -22h39v-64h-253v64h45zM735 325l-121 -156h121v156zM50 374c0 46 33 64 69 64c34 0 61 -18 61 -50c0 -20 -5 -26 -17 -37c14 -8 22 -12 39 -12
c22 0 64 13 64 68s-31 60 -108 60v62c67 0 101 6 101 59c0 17 -8 54 -50 54c-17 0 -28 -6 -39 -11c12 -8 17 -14 17 -34c0 -27 -18 -50 -65 -50c-28 0 -67 15 -67 64c0 71 104 92 172 92c88 0 175 -29 175 -110c0 -69 -50 -88 -106 -94c85 -5 115 -41 115 -101
c0 -84 -92 -123 -193 -123c-72 0 -168 18 -168 99z" />
    <glyph glyph-name="threesevenths" unicode="&#xe092;" horiz-adv-x="1010" 
d="M5 374c0 46 33 64 69 64c34 0 61 -18 61 -50c0 -20 -5 -26 -17 -37c14 -8 22 -12 39 -12c22 0 64 13 64 68s-31 60 -108 60v62c67 0 101 6 101 59c0 17 -8 54 -50 54c-17 0 -28 -6 -39 -11c12 -8 17 -14 17 -34c0 -27 -18 -50 -65 -50c-28 0 -67 15 -67 64
c0 71 104 92 172 92c88 0 175 -29 175 -110c0 -69 -50 -88 -106 -94c85 -5 115 -41 115 -101c0 -84 -92 -123 -193 -123c-72 0 -168 18 -168 99zM698 45c0 147 165 214 175 305c-20 -37 -49 -54 -82 -54c-31 0 -55 10 -75 10c-33 0 -36 -19 -36 -35v-26h-74v165h74v-58
c14 47 26 62 64 62c41 0 88 -26 117 -26c18 0 21 4 22 22h77c0 -46 -16 -113 -46 -151c-65 -82 -78 -148 -78 -213c0 -27 -9 -68 -70 -68c-57 0 -68 39 -68 67zM652 716h104l-452 -743h-101z" />
    <glyph glyph-name="threesuperior" unicode="&#xb3;" horiz-adv-x="451" 
d="M46 434c0 46 33 64 69 64c34 0 61 -18 61 -50c0 -20 -5 -26 -17 -37c14 -8 22 -12 39 -12c22 0 64 13 64 68s-31 60 -108 60v62c67 0 101 6 101 59c0 17 -8 54 -50 54c-17 0 -28 -6 -39 -11c12 -8 17 -14 17 -34c0 -27 -18 -50 -65 -50c-28 0 -67 15 -67 64
c0 71 104 92 172 92c88 0 175 -29 175 -110c0 -69 -50 -88 -106 -94c85 -5 115 -41 115 -101c0 -84 -92 -123 -193 -123c-72 0 -168 18 -168 99z" />
    <glyph glyph-name="tilde" unicode="&#x2dc;" horiz-adv-x="553" 
d="M52 614c0 60 36 130 107 130c65 0 165 -44 220 -44c15 0 21 26 21 45h99l-1 -21c-1 -56 -32 -132 -101 -132c-63 0 -175 43 -211 43c-32 0 -32 -13 -32 -40h-100c-2 2 -2 14 -2 19z" />
    <glyph glyph-name="tildecomb" unicode="&#x303;" horiz-adv-x="553" 
d="M52 614c0 60 36 130 107 130c65 0 165 -44 220 -44c15 0 21 26 21 45h99l-1 -21c-1 -56 -32 -132 -101 -132c-63 0 -175 43 -211 43c-32 0 -32 -13 -32 -40h-100c-2 2 -2 14 -2 19z" />
    <glyph glyph-name="trademark" unicode="&#x2122;" horiz-adv-x="1273" 
d="M510 693v-190h-64c-6 43 -14 101 -92 101h-16v-218c0 -20 10 -23 28 -25h52v-86h-283v86h55c15 0 26 13 26 27v216h-14c-79 0 -85 -58 -92 -101h-63v190h463zM1008 361c17 0 26 13 26 27v213l-137 -326h-47l-136 323v-212c0 -20 10 -23 29 -25h51v-86h-253v86h53
c16 0 26 13 26 27v192c0 14 -10 26 -26 26h-53v87h229c3 0 37 -71 120 -244l113 244h234v-87h-53c-17 -2 -28 -5 -28 -25v-195c0 -20 11 -23 28 -25h53v-86h-283v86h54z" />
    <glyph glyph-name="two" unicode="2" horiz-adv-x="679" 
d="M616 241v-124c-11 -79 -70 -127 -149 -127c-92 0 -223 66 -268 66c-33 0 -39 -24 -44 -56h-102v19c0 54 22 152 78 205c79 76 267 146 267 278c0 70 -44 107 -110 107c-25 0 -80 -7 -91 -36c35 -7 53 -34 53 -68c0 -50 -36 -83 -86 -83c-63 0 -106 45 -106 108
c0 141 172 175 280 175c130 0 272 -48 272 -200c0 -87 -59 -157 -135 -193c-238 -112 -301 -156 -301 -197c35 31 60 47 106 47c58 0 120 -10 178 -20c33 0 59 6 61 41l4 58h93z" />
    <glyph glyph-name="two.osf" unicode="&#xe093;" horiz-adv-x="683" 
d="M197 45c-38 0 -45 -16 -49 -45h-94l-1 42c0 101 34 172 137 212c173 67 201 77 201 131c0 56 -41 75 -90 75c-34 0 -70 -6 -98 -28c36 -17 51 -42 51 -66c0 -39 -42 -78 -95 -78c-60 0 -102 40 -102 100c0 134 176 164 277 164c112 0 282 -28 282 -173
c0 -138 -105 -143 -323 -189c-49 -12 -105 -25 -130 -75c-2 -6 -11 -21 -11 -29c36 39 76 57 126 63c69 0 127 -10 192 -10c50 0 50 15 55 62h95v-57c0 -78 -27 -159 -148 -159c-85 0 -241 60 -275 60z" />
    <glyph glyph-name="two.tf" unicode="&#xe094;" horiz-adv-x="660" 
d="M611 241v-124c-11 -79 -70 -127 -149 -127c-92 0 -223 66 -268 66c-33 0 -39 -24 -44 -56h-102v19c0 54 22 152 78 205c79 76 267 146 267 278c0 70 -44 107 -110 107c-25 0 -80 -7 -91 -36c35 -7 53 -34 53 -68c0 -50 -36 -83 -86 -83c-63 0 -106 45 -106 108
c0 141 172 175 280 175c130 0 272 -48 272 -200c0 -87 -59 -157 -135 -193c-238 -112 -301 -156 -301 -197c35 31 60 47 106 47c58 0 120 -10 178 -20c33 0 59 6 61 41l4 58h93z" />
    <glyph glyph-name="twofifths" unicode="&#xe095;" horiz-adv-x="993" 
d="M587 85c0 46 38 66 73 66c30 0 59 -15 59 -43c0 -21 -6 -31 -20 -44c14 -7 26 -10 38 -10c43 0 63 41 63 83s-21 85 -58 85c-17 0 -35 -9 -52 -29h-89l8 220c41 -9 85 -13 130 -13c60 0 123 7 187 17c0 -39 -42 -101 -191 -101c-23 0 -28 1 -52 2l-3 -79
c23 30 65 45 108 45c75 0 155 -45 155 -139c0 -97 -76 -156 -199 -156c-69 0 -157 27 -157 96zM653 716h104l-452 -743h-101zM289 433h76v-65c0 -48 -28 -83 -87 -83c-52 0 -132 39 -167 39c-16 0 -30 -10 -30 -33h-76c0 79 22 129 77 168c120 86 127 109 127 143
c0 37 -27 49 -59 49c-17 0 -29 -8 -38 -17c20 -6 28 -19 28 -39c0 -42 -40 -52 -63 -52c-29 0 -69 14 -69 67c0 75 96 106 157 106c74 0 195 -16 195 -117c0 -68 -51 -88 -96 -118c-47 -31 -177 -65 -178 -125c11 16 39 36 67 36c39 0 73 -11 108 -11c17 0 28 10 28 26v26z
" />
    <glyph glyph-name="twoinferior" unicode="&#x2082;" horiz-adv-x="415" 
d="M289 -43h76v-65c0 -48 -28 -83 -87 -83c-52 0 -132 39 -167 39c-16 0 -30 -10 -30 -33h-76c0 79 22 129 77 168c120 86 127 109 127 143c0 37 -27 49 -59 49c-17 0 -29 -8 -38 -17c20 -6 28 -19 28 -39c0 -42 -40 -52 -63 -52c-29 0 -69 14 -69 67c0 75 96 106 157 106
c74 0 195 -16 195 -117c0 -68 -51 -88 -96 -118c-47 -31 -177 -65 -178 -125c11 16 39 36 67 36c39 0 73 -11 108 -11c17 0 28 10 28 26v26z" />
    </font>
</defs>
</svg>
