<?xml version="1.0" standalone="no"?>
<!DOCTYPE svg PUBLIC "-//W3C//DTD SVG 1.1//EN" "http://www.w3.org/Graphics/SVG/1.1/DTD/svg11.dtd" >
<svg xmlns="http://www.w3.org/2000/svg" xmlns:xlink="http://www.w3.org/1999/xlink" version="1.1">
<metadata>
Created by FontForge 20170910 at Sat Jul 14 16:28:17 2007
 By Jimmy Wärting
Copyright (c) 2007 Canada Type. All rights reserved.
</metadata>
<defs>
<font id="ClarendonTextPro" horiz-adv-x="771" >
  <font-face 
    font-family="Clarendon Text Pro"
    font-weight="400"
    font-stretch="normal"
    units-per-em="1000"
    panose-1="2 4 6 2 5 4 3 2 2 4"
    ascent="745"
    descent="-255"
    x-height="515"
    cap-height="693"
    bbox="-87 -350 1793 952"
    underline-thickness="50"
    underline-position="-100"
    unicode-range="U+0020-FB06"
  />
<missing-glyph horiz-adv-x="229" 
 />
    <glyph glyph-name="fi" unicode="fi" horiz-adv-x="655" 
d="M636 0h-271v58l49 3c10 0 29 6 29 38v332c0 21 -14 26 -24 26h-198v-358c0 -28 11 -38 31 -38h51v-61h-276v58l56 3c10 0 30 6 30 38v358h-80v58h81v133c0 90 81 127 192 127c58 0 156 -21 156 -94c0 -39 -28 -69 -67 -69c-34 0 -58 25 -58 58c0 20 8 31 18 45
c0 0 -33 4 -51 4c-38 0 -83 -29 -83 -65v-139h192l138 17v-433c0 -28 11 -38 30 -38h55v-61z" />
    <glyph glyph-name="fl" unicode="fl" horiz-adv-x="661" 
d="M455 726l96 37v-664c0 -28 11 -38 31 -38h55v-61h-273v58l49 3c10 0 30 6 30 38v556c-30 48 -80 63 -113 63c-65 0 -109 -37 -109 -101v-102h140v-58h-140v-358c0 -28 11 -38 31 -38h56v-61h-281v58l56 3c10 0 30 6 30 38v358h-80v58h81v78c0 109 40 181 201 181
c49 0 112 -16 140 -48z" />
    <glyph glyph-name=".notdef" horiz-adv-x="229" 
 />
    <glyph glyph-name="AE" unicode="&#xc6;" horiz-adv-x="1070" 
d="M224 626v67h791v-257h-62c-5 79 -13 189 -117 189l-235 -1v-228h113c38 0 61 28 61 59v68h58v-331h-59v39c0 47 -6 95 -63 95h-110v-257h245c104 0 112 109 117 215h62v-284h-638v67h64c21 0 35 17 35 37v128h-278c-76 -117 -92 -133 -92 -146c0 -20 31 -22 64 -22h47
v-64h-282v64c41 3 50 -3 77 38c114 175 244 374 324 490c5 7 10 15 10 23c0 6 -4 11 -15 11h-117zM476 635c-2 0 -56 -78 -223 -337h233v337h-10z" />
    <glyph glyph-name="Aacute" unicode="&#xc1;" horiz-adv-x="694" 
d="M-18 64c41 3 68 -3 84 38c99 265 225 594 225 594h109l229 -604c10 -26 42 -28 68 -28h16v-64h-299v64h62c19 0 26 18 26 33c0 5 -1 11 -44 128h-270c-41 -121 -41 -123 -41 -131c0 -28 34 -30 71 -30h19v-64h-255v64zM215 292h216l-95 257l-11 51c-2 0 -9 -39 -13 -52z
M370 922h141l-153 -144h-73z" />
    <glyph glyph-name="Abreve" unicode="&#x102;" horiz-adv-x="694" 
d="M-18 64c41 3 68 -3 84 38c99 265 225 594 225 594h109l229 -604c10 -26 42 -28 68 -28h16v-64h-299v64h62c19 0 26 18 26 33c0 5 -1 11 -44 128h-270c-41 -121 -41 -123 -41 -131c0 -28 34 -30 71 -30h19v-64h-255v64zM215 292h216l-95 257l-11 51c-2 0 -9 -39 -13 -52z
M349 737c-78 0 -142 26 -144 101h76c0 -27 20 -45 68 -45s65 20 66 45h74c-3 -75 -60 -101 -140 -101z" />
    <glyph glyph-name="Acircumflex" unicode="&#xc2;" horiz-adv-x="694" 
d="M-18 64c41 3 68 -3 84 38c99 265 225 594 225 594h109l229 -604c10 -26 42 -28 68 -28h16v-64h-299v64h62c19 0 26 18 26 33c0 5 -1 11 -44 128h-270c-41 -121 -41 -123 -41 -131c0 -28 34 -30 71 -30h19v-64h-255v64zM215 292h216l-95 257l-11 51c-2 0 -9 -39 -13 -52z
M285 922h120l108 -148h-94l-83 83l-78 -83h-77z" />
    <glyph glyph-name="Adieresis" unicode="&#xc4;" horiz-adv-x="694" 
d="M-18 64c41 3 68 -3 84 38c99 265 225 594 225 594h109l229 -604c10 -26 42 -28 68 -28h16v-64h-299v64h62c19 0 26 18 26 33c0 5 -1 11 -44 128h-270c-41 -121 -41 -123 -41 -131c0 -28 34 -30 71 -30h19v-64h-255v64zM215 292h216l-95 257l-11 51c-2 0 -9 -39 -13 -52z
M393 862c0 35 28 60 62 60c33 0 63 -27 63 -60c0 -36 -28 -67 -63 -67c-38 0 -62 31 -62 67zM177 862c0 35 27 60 63 60c38 0 62 -27 62 -60c0 -38 -29 -65 -64 -65c-36 0 -61 29 -61 65z" />
    <glyph glyph-name="Agrave" unicode="&#xc0;" horiz-adv-x="694" 
d="M-18 64c41 3 68 -3 84 38c99 265 225 594 225 594h109l229 -604c10 -26 42 -28 68 -28h16v-64h-299v64h62c19 0 26 18 26 33c0 5 -1 11 -44 128h-270c-41 -121 -41 -123 -41 -131c0 -28 34 -30 71 -30h19v-64h-255v64zM215 292h216l-95 257l-11 51c-2 0 -9 -39 -13 -52z
M200 922h142l85 -144h-73z" />
    <glyph glyph-name="Amacron" unicode="&#x100;" horiz-adv-x="694" 
d="M-18 64c41 3 68 -3 84 38c99 265 225 594 225 594h109l229 -604c10 -26 42 -28 68 -28h16v-64h-299v64h62c19 0 26 18 26 33c0 5 -1 11 -44 128h-270c-41 -121 -41 -123 -41 -131c0 -28 34 -30 71 -30h19v-64h-255v64zM215 292h216l-95 257l-11 51c-2 0 -9 -39 -13 -52z
M222 848h250v-69h-250v69z" />
    <glyph glyph-name="Aogonek" unicode="&#x104;" horiz-adv-x="694" 
d="M-18 64c41 3 68 -3 84 38c99 265 225 594 225 594h109l229 -604c10 -26 42 -28 68 -28h16v-64h-106c-53 -40 -56 -56 -56 -82c0 -18 6 -46 59 -46c14 0 41 2 60 7c15 -54 15 -57 15 -57c-21 -7 -57 -10 -83 -10c-74 0 -146 29 -146 90c0 36 23 68 61 98h-103v64h62
c19 0 26 18 26 33c0 5 -1 11 -44 128h-270c-41 -121 -41 -123 -41 -131c0 -28 34 -30 71 -30h19v-64h-255v64zM215 292h216l-95 257l-11 51c-2 0 -9 -39 -13 -52z" />
    <glyph glyph-name="Aring" unicode="&#xc5;" horiz-adv-x="694" 
d="M-18 64c41 3 68 -3 84 38c99 265 225 594 225 594h109l229 -604c10 -26 42 -28 68 -28h16v-64h-299v64h62c19 0 26 18 26 33c0 5 -1 11 -44 128h-270c-41 -121 -41 -123 -41 -131c0 -28 34 -30 71 -30h19v-64h-255v64zM215 292h216l-95 257l-11 51c-2 0 -9 -39 -13 -52z
M219 830c0 64 67 92 125 92c56 0 119 -23 119 -90c0 -69 -58 -96 -121 -96c-59 0 -123 27 -123 94zM294 828c0 -28 20 -46 48 -46c29 0 46 21 46 48s-19 46 -46 46c-28 0 -48 -21 -48 -48z" />
    <glyph glyph-name="Atilde" unicode="&#xc3;" horiz-adv-x="694" 
d="M-18 64c41 3 68 -3 84 38c99 265 225 594 225 594h109l229 -604c10 -26 42 -28 68 -28h16v-64h-299v64h62c19 0 26 18 26 33c0 5 -1 11 -44 128h-270c-41 -121 -41 -123 -41 -131c0 -28 34 -30 71 -30h19v-64h-255v64zM215 292h216l-95 257l-11 51c-2 0 -9 -39 -13 -52z
M143 790c0 61 25 124 96 124c65 0 154 -46 209 -46c15 0 21 35 21 54h64l-1 -21c0 -56 -23 -119 -92 -119c-55 0 -165 48 -193 48c-31 0 -37 -28 -37 -54h-65c-2 1 -2 10 -2 14z" />
    <glyph glyph-name="B" unicode="B" horiz-adv-x="730" 
d="M115 626h-76v67h426c114 0 193 -59 193 -170c0 -102 -70 -140 -162 -161c105 -9 194 -61 194 -170c0 -105 -83 -192 -188 -192h-463v67h76c20 0 35 17 35 37v485c0 20 -15 37 -35 37zM267 326v-260h95c108 0 205 13 205 130c0 61 -45 130 -115 130h-185zM267 626v-231
h161c67 0 110 62 110 119c0 51 -35 112 -92 112h-179z" />
    <glyph glyph-name="C" unicode="C" horiz-adv-x="704" 
d="M35 342c0 196 121 377 332 377c76 0 150 -30 205 -83l32 65h59v-265h-66c-28 158 -126 206 -220 206c-168 0 -209 -156 -209 -300s48 -290 217 -290c143 0 215 111 215 246h73c0 -178 -85 -321 -304 -321c-224 0 -334 155 -334 365z" />
    <glyph glyph-name="Cacute" unicode="&#x106;" horiz-adv-x="704" 
d="M35 342c0 196 121 377 332 377c76 0 148 -31 204 -82h2l31 64h59v-265h-66c-28 158 -126 206 -220 206c-168 0 -209 -156 -209 -300s48 -290 217 -290c143 0 215 111 215 246h73c0 -178 -85 -321 -304 -321c-224 0 -334 155 -334 365zM391 923h141l-153 -143h-73
c3 4 17 28 85 143z" />
    <glyph glyph-name="Ccaron" unicode="&#x10c;" horiz-adv-x="704" 
d="M35 342c0 196 121 377 332 377c76 0 148 -31 204 -82h2l31 64h59v-265h-66c-28 158 -126 206 -220 206c-168 0 -209 -156 -209 -300s48 -290 217 -290c143 0 215 111 215 246h73c0 -178 -85 -321 -304 -321c-224 0 -334 155 -334 365zM420 775h-119l-109 148h94l84 -84
l77 84h77z" />
    <glyph glyph-name="Ccedilla" unicode="&#xc7;" horiz-adv-x="704" 
d="M35 342c0 196 121 377 332 377c76 0 148 -31 204 -82h2l31 64h59v-265h-66c-28 158 -126 206 -220 206c-168 0 -209 -156 -209 -300s48 -290 217 -290c143 0 215 111 215 246h73c0 -170 -77 -306 -273 -320l-12 -41c56 -1 106 -10 106 -79c-1 -81 -82 -110 -157 -110
c-25 0 -51 4 -72 10c0 0 0 3 14 57c20 -5 36 -6 50 -6c53 0 69 27 69 46c0 26 -24 35 -47 36h-49l28 88c-198 17 -295 165 -295 363z" />
    <glyph glyph-name="Ccircumflex" unicode="&#x108;" horiz-adv-x="704" 
d="M35 342c0 196 121 377 332 377c76 0 148 -31 204 -82h2l31 64h59v-265h-66c-28 158 -126 206 -220 206c-168 0 -209 -156 -209 -300s48 -290 217 -290c143 0 215 111 215 246h73c0 -178 -85 -321 -304 -321c-224 0 -334 155 -334 365zM296 923h120l108 -148h-94l-83 84
l-78 -84h-77z" />
    <glyph glyph-name="Cdotaccent" unicode="&#x10a;" horiz-adv-x="704" 
d="M35 342c0 196 121 377 332 377c76 0 148 -31 204 -82h2l31 64h59v-265h-66c-28 158 -126 206 -220 206c-168 0 -209 -156 -209 -300s48 -290 217 -290c143 0 215 111 215 246h73c0 -178 -85 -321 -304 -321c-224 0 -334 155 -334 365zM296 831c0 35 27 60 62 60
c38 0 63 -26 63 -60c0 -37 -29 -65 -64 -65c-36 0 -61 30 -61 65z" />
    <glyph glyph-name="D" unicode="D" horiz-adv-x="805" 
d="M115 626h-76v67h428c175 0 303 -159 303 -329c0 -205 -121 -364 -319 -364h-412v67h76c20 0 35 17 35 37v485c0 20 -15 37 -35 37zM267 626v-559h146c189 0 225 144 225 306c0 127 -73 253 -198 253h-173z" />
    <glyph glyph-name="Dcaron" unicode="&#x10e;" horiz-adv-x="805" 
d="M115 626h-76v67h428c175 0 303 -159 303 -329c0 -205 -121 -364 -319 -364h-412v67h76c20 0 35 17 35 37v485c0 20 -15 37 -35 37zM267 626v-559h146c189 0 225 144 225 306c0 127 -73 253 -198 253h-173zM471 775h-119l-109 148h94l84 -84l77 84h77z" />
    <glyph glyph-name="Dcroat" unicode="&#x110;" horiz-adv-x="808" 
d="M61 383h92v206c0 20 -15 37 -35 37h-76v67h428c175 0 303 -159 303 -329c0 -205 -121 -364 -319 -364h-412v67h76c20 0 35 17 35 37v210h-92v69zM270 626v-243h196v-69h-196v-247h146c189 0 225 144 225 306c0 127 -73 253 -198 253h-173z" />
    <glyph glyph-name="E" unicode="E" horiz-adv-x="734" 
d="M499 626h-234v-230h113c38 0 61 28 61 59v68h58v-331h-59v39c0 47 -7 95 -64 95h-109v-257h244c104 0 113 109 117 215h63v-284h-650v67h76c20 0 35 17 35 37v485c0 27 -15 37 -35 37h-76v67h640v-257h-63c-4 81 -13 190 -117 190z" />
    <glyph glyph-name="Eacute" unicode="&#xc9;" horiz-adv-x="734" 
d="M499 625l-234 -1v-228h113c38 0 61 28 61 59v68h58v-331h-59v39c0 47 -7 95 -64 95h-109v-257h244c104 0 113 109 117 215h63v-284h-650v67h76c20 0 35 17 35 37v485c0 27 -15 37 -35 37h-76v67h640v-257h-63c-4 79 -13 189 -117 189zM419 922h142l-154 -144h-72
c2 5 16 29 84 144z" />
    <glyph glyph-name="Ecaron" unicode="&#x11a;" horiz-adv-x="734" 
d="M499 625l-234 -1v-228h113c38 0 61 28 61 59v68h58v-331h-59v39c0 47 -7 95 -64 95h-109v-257h244c104 0 113 109 117 215h63v-284h-650v67h76c20 0 35 17 35 37v485c0 27 -15 37 -35 37h-76v67h640v-257h-63c-4 79 -13 189 -117 189zM441 775h-119l-109 148h94l84 -84
l77 84h77z" />
    <glyph glyph-name="Ecircumflex" unicode="&#xca;" horiz-adv-x="734" 
d="M499 625l-234 -1v-228h113c38 0 61 28 61 59v68h58v-331h-59v39c0 47 -7 95 -64 95h-109v-257h244c104 0 113 109 117 215h63v-284h-650v67h76c20 0 35 17 35 37v485c0 27 -15 37 -35 37h-76v67h640v-257h-63c-4 79 -13 189 -117 189zM336 922h119l109 -148h-94l-84 83
l-77 -83h-77z" />
    <glyph glyph-name="Edieresis" unicode="&#xcb;" horiz-adv-x="734" 
d="M499 625l-234 -1v-228h113c38 0 61 28 61 59v68h58v-331h-59v39c0 47 -7 95 -64 95h-109v-257h244c104 0 113 109 117 215h63v-284h-650v67h76c20 0 35 17 35 37v485c0 27 -15 37 -35 37h-76v67h640v-257h-63c-4 79 -13 189 -117 189zM442 862c0 35 29 60 63 60
c33 0 62 -27 62 -60c0 -36 -27 -67 -62 -67c-38 0 -63 31 -63 67zM227 862c0 35 27 60 63 60c37 0 62 -27 62 -60c0 -38 -29 -65 -64 -65c-36 0 -61 29 -61 65z" />
    <glyph glyph-name="Edotaccent" unicode="&#x116;" horiz-adv-x="734" 
d="M499 625l-234 -1v-228h113c38 0 61 28 61 59v68h58v-331h-59v39c0 47 -7 95 -64 95h-109v-257h244c104 0 113 109 117 215h63v-284h-650v67h76c20 0 35 17 35 37v485c0 27 -15 37 -35 37h-76v67h640v-257h-63c-4 79 -13 189 -117 189zM317 821c0 35 27 60 62 60
c38 0 63 -26 63 -60c0 -37 -29 -65 -64 -65c-36 0 -61 30 -61 65z" />
    <glyph glyph-name="Egrave" unicode="&#xc8;" horiz-adv-x="734" 
d="M499 625l-234 -1v-228h113c38 0 61 28 61 59v68h58v-331h-59v39c0 47 -7 95 -64 95h-109v-257h244c104 0 113 109 117 215h63v-284h-650v67h76c20 0 35 17 35 37v485c0 27 -15 37 -35 37h-76v67h640v-257h-63c-4 79 -13 189 -117 189zM232 922h141l85 -144h-73z" />
    <glyph glyph-name="Emacron" unicode="&#x112;" horiz-adv-x="734" 
d="M499 625l-234 -1v-228h113c38 0 61 28 61 59v68h58v-331h-59v39c0 47 -7 95 -64 95h-109v-257h244c104 0 113 109 117 215h63v-284h-650v67h76c20 0 35 17 35 37v485c0 27 -15 37 -35 37h-76v67h640v-257h-63c-4 79 -13 189 -117 189zM254 848h250v-69h-250v69z" />
    <glyph glyph-name="Eng" unicode="&#x14a;" horiz-adv-x="802" 
d="M692 589v-675c0 -120 -79 -180 -170 -180c-83 0 -171 48 -171 142c0 46 33 87 81 87c41 0 69 -26 69 -66s-26 -63 -64 -64c16 -22 44 -28 69 -28c62 0 101 40 101 102v94l-356 519l-33 68c2 -12 6 -48 8 -56v-429c0 -28 15 -33 40 -36h70v-67h-297v67h76
c20 0 35 17 35 37v485c0 20 -15 37 -35 37h-76v67h228l341 -503l13 -34l-5 61v373c0 27 -15 33 -39 36h-71v67h296v-67h-75c-21 0 -35 -17 -35 -37z" />
    <glyph glyph-name="Eogonek" unicode="&#x118;" horiz-adv-x="734" 
d="M499 625l-234 -1v-228h113c38 0 61 28 61 59v68h58v-331h-59v39c0 47 -7 95 -64 95h-109v-257h244c104 0 113 109 117 215h63v-284h-136c-53 -40 -56 -56 -56 -82c0 -18 6 -46 59 -46c14 0 41 2 60 7c15 -54 15 -57 15 -57c-21 -7 -57 -10 -83 -10c-74 0 -146 29 -146 90
c0 36 23 68 61 98h-424v67h76c20 0 35 17 35 37v485c0 27 -15 37 -35 37h-76v67h640v-257h-63c-4 79 -13 189 -117 189z" />
    <glyph glyph-name="Eth" unicode="&#xd0;" horiz-adv-x="808" 
d="M61 383h92v206c0 20 -15 37 -35 37h-76v67h428c175 0 303 -159 303 -329c0 -205 -121 -364 -319 -364h-412v67h76c20 0 35 17 35 37v210h-92v69zM270 626v-243h196v-69h-196v-247h146c189 0 225 144 225 306c0 127 -73 253 -198 253h-173z" />
    <glyph glyph-name="Euro" unicode="&#x20ac;" horiz-adv-x="753" 
d="M29 430h61c34 195 182 289 323 289c168 0 282 -81 282 -211c0 -45 -40 -71 -76 -71c-38 0 -67 27 -67 64c0 32 17 48 48 63c-46 80 -127 81 -182 81c-98 0 -172 -80 -194 -215h278v-60h-285v-28c0 -14 0 -26 1 -39h284v-60h-277c21 -105 80 -191 209 -191
c143 0 216 111 216 246h72c0 -178 -85 -321 -304 -321c-187 0 -295 108 -325 266h-64v60h56c-1 13 -1 25 -1 39c0 9 0 19 1 28h-56v60z" />
    <glyph glyph-name="F" unicode="F" horiz-adv-x="679" 
d="M115 626h-76v67h620v-257h-62c-5 81 -13 190 -117 190h-215v-229h94c37 0 60 28 60 59v67h58v-331h-59v39c0 47 -6 95 -63 95h-90v-223c0 -28 14 -36 39 -36h80v-67h-345v67h76c20 0 35 17 35 37v485c0 20 -15 37 -35 37z" />
    <glyph glyph-name="G" unicode="G" horiz-adv-x="767" 
d="M523 290h-82v67h321v-67h-49c-25 0 -40 -8 -40 -36v-254h-64l-22 59c-49 -47 -121 -76 -218 -76c-224 0 -334 155 -334 366c0 196 121 377 332 377c76 0 148 -31 206 -83l31 64h59v-264h-66c-28 158 -126 206 -220 206c-168 0 -209 -157 -209 -300
c0 -145 48 -290 217 -290c79 0 173 41 173 119v75c0 20 -15 37 -35 37z" />
    <glyph glyph-name="Gbreve" unicode="&#x11e;" horiz-adv-x="767" 
d="M523 290h-82v67h321v-67h-49c-25 -3 -40 -8 -40 -36v-254h-64l-22 59c-49 -47 -121 -76 -218 -76c-224 0 -334 155 -334 366c0 196 121 377 332 377c76 0 148 -31 204 -83h2l31 64h59v-264h-66c-28 158 -126 206 -220 206c-168 0 -209 -157 -209 -300
c0 -145 48 -290 217 -290c79 0 173 41 173 119v75c0 20 -15 37 -35 37zM362 758c-78 0 -142 26 -144 101h76c0 -27 20 -45 68 -45s65 20 66 45h74c-3 -75 -60 -101 -140 -101z" />
    <glyph glyph-name="Gcircumflex" unicode="&#x11c;" horiz-adv-x="767" 
d="M523 290h-82v67h321v-67h-49c-25 -3 -40 -8 -40 -36v-254h-64l-22 59c-49 -47 -121 -76 -218 -76c-224 0 -334 155 -334 366c0 196 121 377 332 377c76 0 148 -31 204 -83h2l31 64h59v-264h-66c-28 158 -126 206 -220 206c-168 0 -209 -157 -209 -300
c0 -145 48 -290 217 -290c79 0 173 41 173 119v75c0 20 -15 37 -35 37zM328 923h120l108 -148h-94l-83 84l-78 -84h-77z" />
    <glyph glyph-name="Gcommaaccent" unicode="&#x122;" horiz-adv-x="767" 
d="M523 290h-82v67h321v-67h-49c-25 -3 -40 -8 -40 -36v-254h-64l-22 59c-49 -47 -121 -76 -218 -76c-224 0 -334 155 -334 366c0 196 121 377 332 377c76 0 148 -31 204 -83h2l31 64h59v-264h-66c-28 158 -126 206 -220 206c-168 0 -209 -157 -209 -300
c0 -145 48 -290 217 -290c79 0 173 41 173 119v75c0 20 -15 37 -35 37zM387 -50c42 0 73 -33 73 -101c0 -82 -53 -161 -142 -161v46c40 0 78 39 78 85c-8 -3 -16 -4 -23 -4c-33 0 -57 31 -57 66c0 39 32 69 71 69z" />
    <glyph glyph-name="Gdotaccent" unicode="&#x120;" horiz-adv-x="767" 
d="M523 290h-82v67h321v-67h-49c-25 -3 -40 -8 -40 -36v-254h-64l-22 59c-49 -47 -121 -76 -218 -76c-224 0 -334 155 -334 366c0 196 121 377 332 377c76 0 148 -31 204 -83h2l31 64h59v-264h-66c-28 158 -126 206 -220 206c-168 0 -209 -157 -209 -300
c0 -145 48 -290 217 -290c79 0 173 41 173 119v75c0 20 -15 37 -35 37zM327 821c0 35 27 60 62 60c38 0 63 -26 63 -60c0 -37 -29 -65 -64 -65c-36 0 -61 30 -61 65z" />
    <glyph glyph-name="H" unicode="H" horiz-adv-x="871" 
d="M571 626h-75v67h335v-67h-70c-25 0 -40 -9 -40 -36v-487c0 -28 15 -36 40 -36h70v-67h-335v67h75c20 0 35 17 35 37v224h-341v-225c0 -28 14 -36 39 -36h71v-67h-336v67h76c20 0 35 17 35 37v485c0 20 -15 37 -35 37h-76v67h336v-67h-71c-25 0 -39 -9 -39 -36v-193h341
v192c0 20 -15 37 -35 37z" />
    <glyph glyph-name="Hbar" unicode="&#x126;" horiz-adv-x="871" 
d="M571 626h-75v67h335v-67h-70c-25 -3 -40 -9 -40 -36v-56h100v-59h-100v-372c0 -28 15 -33 40 -36h70v-67h-335v67h75c20 0 35 17 35 37v224h-341v-225c0 -28 14 -33 39 -36h71v-67h-336v67h76c20 0 35 17 35 37v371h-99v59h99v55c0 20 -15 37 -35 37h-76v67h336v-67h-71
c-25 -3 -39 -9 -39 -36v-56h341v55c0 20 -15 37 -35 37zM265 397h341v78h-341v-78z" />
    <glyph glyph-name="Hcircumflex" unicode="&#x124;" horiz-adv-x="871" 
d="M571 626h-75v67h335v-67h-70c-25 -3 -40 -9 -40 -36v-487c0 -28 15 -33 40 -36h70v-67h-335v67h75c20 0 35 17 35 37v224h-341v-225c0 -28 14 -33 39 -36h71v-67h-336v67h76c20 0 35 17 35 37v485c0 20 -15 37 -35 37h-76v67h336v-67h-71c-25 -3 -39 -9 -39 -36v-193h341
v192c0 20 -15 37 -35 37zM374 923h120l108 -148h-94l-83 84l-78 -84h-77z" />
    <glyph glyph-name="I" unicode="I" horiz-adv-x="415" 
d="M115 626h-76v67h336v-67h-71c-25 0 -39 -9 -39 -36v-487c0 -28 14 -36 39 -36h71v-67h-336v67h76c20 0 35 17 35 37v485c0 20 -15 37 -35 37z" />
    <glyph glyph-name="Iacute" unicode="&#xcd;" horiz-adv-x="415" 
d="M115 626h-76v67h336v-67h-71c-25 -3 -39 -9 -39 -36v-487c0 -28 14 -33 39 -36h71v-67h-336v67h76c20 0 35 17 35 37v485c0 20 -15 37 -35 37zM238 922h142l-154 -144h-73z" />
    <glyph glyph-name="Icircumflex" unicode="&#xce;" horiz-adv-x="415" 
d="M115 626h-76v67h336v-67h-71c-25 -3 -39 -9 -39 -36v-487c0 -28 14 -33 39 -36h71v-67h-336v67h76c20 0 35 17 35 37v485c0 20 -15 37 -35 37zM145 922h120l108 -148h-94l-83 83l-78 -83h-77z" />
    <glyph glyph-name="Idieresis" unicode="&#xcf;" horiz-adv-x="415" 
d="M115 626h-76v67h336v-67h-71c-25 -3 -39 -9 -39 -36v-487c0 -28 14 -33 39 -36h71v-67h-336v67h76c20 0 35 17 35 37v485c0 20 -15 37 -35 37zM253 862c0 35 28 60 62 60c33 0 63 -27 63 -60c0 -36 -28 -67 -63 -67c-37 0 -62 31 -62 67zM37 862c0 35 27 60 63 60
c38 0 63 -27 63 -60c0 -38 -30 -65 -65 -65c-36 0 -61 29 -61 65z" />
    <glyph glyph-name="Idotaccent" unicode="&#x130;" horiz-adv-x="415" 
d="M115 626h-76v67h336v-67h-71c-25 -3 -39 -9 -39 -36v-487c0 -28 14 -33 39 -36h71v-67h-336v67h76c20 0 35 17 35 37v485c0 20 -15 37 -35 37zM145 821c0 35 27 60 62 60c38 0 63 -26 63 -60c0 -37 -29 -65 -64 -65c-36 0 -61 30 -61 65z" />
    <glyph glyph-name="Igrave" unicode="&#xcc;" horiz-adv-x="415" 
d="M115 626h-76v67h336v-67h-71c-25 -3 -39 -9 -39 -36v-487c0 -28 14 -33 39 -36h71v-67h-336v67h76c20 0 35 17 35 37v485c0 20 -15 37 -35 37zM49 922h142l85 -144h-73z" />
    <glyph glyph-name="Imacron" unicode="&#xe000;" horiz-adv-x="415" 
d="M115 626h-76v67h336v-67h-71c-25 0 -39 -9 -39 -36v-487c0 -28 14 -36 39 -36h71v-67h-336v67h76c20 0 35 17 35 37v485c0 20 -15 37 -35 37zM83 848h250v-69h-250v69z" />
    <glyph glyph-name="Iogonek" unicode="&#x12e;" horiz-adv-x="415" 
d="M115 626h-76v67h336v-67h-71c-25 -3 -39 -9 -39 -36v-487c0 -28 14 -33 39 -36h71v-67h-116c-53 -40 -56 -56 -56 -82c0 -18 6 -46 59 -46c14 0 41 2 60 7c15 -54 15 -57 15 -57c-21 -7 -57 -10 -83 -10c-74 0 -146 29 -146 90c0 36 23 68 61 98h-130v67h76
c20 0 35 17 35 37v485c0 20 -15 37 -35 37z" />
    <glyph glyph-name="Itilde" unicode="&#x128;" horiz-adv-x="415" 
d="M115 626h-76v67h336v-67h-71c-25 -3 -39 -9 -39 -36v-487c0 -28 14 -33 39 -36h71v-67h-336v67h76c20 0 35 17 35 37v485c0 20 -15 37 -35 37zM12 792c0 60 25 123 96 123c65 0 154 -46 209 -46c16 0 21 35 21 54h65l-1 -21c-1 -56 -24 -119 -93 -119
c-55 0 -165 48 -193 48c-31 0 -36 -27 -36 -54h-66c-2 2 -2 10 -2 15z" />
    <glyph glyph-name="J" unicode="J" horiz-adv-x="496" 
d="M221 626h-75v67h335v-67h-70c-25 0 -40 -9 -40 -36v-419c0 -120 -79 -196 -200 -196c-83 0 -171 48 -171 142c0 46 33 87 81 87c41 0 69 -26 69 -66s-26 -63 -64 -64c16 -22 44 -28 69 -28c62 0 101 40 101 102v441c0 20 -15 37 -35 37z" />
    <glyph glyph-name="Jcircumflex" unicode="&#x134;" horiz-adv-x="496" 
d="M221 626h-75v67h335v-67h-70c-25 -3 -40 -9 -40 -36v-419c0 -120 -79 -196 -200 -196c-83 0 -171 48 -171 142c0 46 33 87 81 87c41 0 69 -26 69 -66s-26 -63 -64 -64c16 -22 44 -28 69 -28c62 0 101 40 101 102v441c0 20 -15 37 -35 37zM251 923h120l108 -148h-94
l-83 84l-78 -84h-77z" />
    <glyph glyph-name="K" unicode="K" 
d="M120 67c11 0 30 10 30 23v499c0 20 -15 37 -35 37h-76v67h337v-67h-71c-25 0 -39 -9 -39 -36v-236c170 162 263 234 263 255c0 9 -6 17 -18 17h-72v67h309v-67h-66c-30 0 -72 -50 -239 -200l246 -331c22 -30 67 -31 92 -31v-64h-321v67h71c8 0 18 8 18 17
c0 14 -12 31 -20 41l-171 226l-92 -84v-169c0 -17 14 -31 31 -31h79v-67h-335v67h79z" />
    <glyph glyph-name="Kcommaaccent" unicode="&#x136;" 
d="M120 67c11 0 30 10 30 23v499c0 20 -15 37 -35 37h-76v67h337v-67h-71c-25 -3 -39 -9 -39 -36v-236c170 162 263 234 263 255c0 9 -6 17 -18 17h-72v67h309v-67h-66c-30 0 -72 -50 -239 -200l246 -331c22 -30 67 -31 92 -31c-1 -22 0 -47 -2 -64h-319v67h71
c8 0 18 8 18 17c0 14 -12 31 -20 41l-171 226l-92 -84v-169c0 -17 14 -31 31 -31h79v-67h-335v67h79zM418 -30c42 0 73 -33 73 -101c0 -82 -53 -161 -142 -161v46c40 0 78 39 78 85c-8 -3 -16 -4 -23 -4c-33 0 -57 31 -57 66c0 39 32 69 71 69z" />
    <glyph glyph-name="L" unicode="L" horiz-adv-x="656" 
d="M39 67h76c20 0 35 17 35 37v485c0 20 -15 37 -35 37h-76v67h345v-67h-80c-25 0 -39 -9 -39 -36v-523h208c104 0 112 109 116 217h63v-284h-613v67z" />
    <glyph glyph-name="Lacute" unicode="&#x139;" horiz-adv-x="656" 
d="M39 67h76c20 0 35 17 35 37v485c0 20 -15 37 -35 37h-76v67h345v-67h-80c-25 -3 -39 -9 -39 -36v-521h208c104 0 112 109 116 215h63v-284h-613v67zM305 923h141l-153 -143h-73c3 4 17 28 85 143z" />
    <glyph glyph-name="Lcaron" unicode="&#x13d;" horiz-adv-x="656" 
d="M39 67h76c20 0 35 17 35 37v485c0 20 -15 37 -35 37h-76v67h345v-67h-80c-25 -3 -39 -9 -39 -36v-521h208c104 0 112 109 116 215h63v-284h-613v67zM566 680c42 0 73 -33 73 -100c0 -83 -53 -161 -142 -161v46c40 0 78 39 78 85c-8 -3 -16 -4 -23 -4c-33 0 -57 30 -57 65
c0 40 32 69 71 69z" />
    <glyph glyph-name="Lcommaaccent" unicode="&#x13b;" horiz-adv-x="656" 
d="M39 67h76c20 0 35 17 35 37v485c0 20 -15 37 -35 37h-76v67h345v-67h-80c-25 -3 -39 -9 -39 -36v-521h208c104 0 112 109 116 215h63v-284h-613v67zM372 -30c42 0 73 -33 73 -101c0 -82 -53 -161 -142 -161v46c40 0 78 39 78 85c-8 -3 -16 -4 -23 -4c-33 0 -57 31 -57 66
c0 39 32 69 71 69z" />
    <glyph glyph-name="Lslash" unicode="&#x141;" horiz-adv-x="656" 
d="M39 67h76c20 0 35 17 35 37v165l-82 -53v69l82 53v251c0 20 -15 37 -35 37h-76v67h345v-67h-80c-25 -3 -39 -9 -39 -36v-177l97 63v-69l-97 -63v-275h208c104 0 112 109 116 215h63v-284h-613v67z" />
    <glyph glyph-name="M" unicode="M" horiz-adv-x="1021" 
d="M721 67c20 0 35 17 35 37v513l-234 -617h-64l-232 614v-511c0 -28 15 -36 40 -36h70v-67h-297v67h75c20 0 35 17 35 37v485c0 20 -15 37 -35 37h-75v67h265c1 0 70 -177 208 -531l201 531h268v-67h-70c-25 0 -40 -9 -40 -36v-487c0 -28 15 -36 40 -36h70v-67h-335v67h75z
" />
    <glyph glyph-name="N" unicode="N" horiz-adv-x="802" 
d="M692 589v-589h-84l-357 520l-33 68l8 -56v-429c0 -28 15 -36 40 -36h70v-67h-297v67h76c20 0 35 17 35 37v485c0 20 -15 37 -35 37h-76v67h228l341 -503l13 -34l-5 61v373c0 27 -15 36 -39 36h-71v67h296v-67h-75c-21 0 -35 -17 -35 -37z" />
    <glyph glyph-name="Nacute" unicode="&#x143;" horiz-adv-x="802" 
d="M692 589v-589h-84l-357 520l-33 68c2 -12 6 -48 8 -56v-429c0 -28 15 -33 40 -36h70v-67h-297v67h76c20 0 35 17 35 37v485c0 20 -15 37 -35 37h-76v67h228l341 -503l13 -34l-5 61v373c0 27 -15 33 -39 36h-71v67h296v-67h-75c-21 0 -35 -17 -35 -37zM471 923h141
l-153 -143h-73c3 4 17 28 85 143z" />
    <glyph glyph-name="Ncaron" unicode="&#x147;" horiz-adv-x="802" 
d="M692 589v-589h-84l-357 520l-33 68c2 -12 6 -48 8 -56v-429c0 -28 15 -33 40 -36h70v-67h-297v67h76c20 0 35 17 35 37v485c0 20 -15 37 -35 37h-76v67h228l341 -503l13 -34l-5 61v373c0 27 -15 33 -39 36h-71v67h296v-67h-75c-21 0 -35 -17 -35 -37zM476 775h-119
l-109 148h94l84 -84l77 84h77z" />
    <glyph glyph-name="Ncommaaccent" unicode="&#x145;" horiz-adv-x="802" 
d="M692 589v-589h-84l-357 520l-33 68c2 -12 6 -48 8 -56v-429c0 -28 15 -33 40 -36h70v-67h-297v67h76c20 0 35 17 35 37v485c0 20 -15 37 -35 37h-76v67h228l341 -503l13 -34l-5 61v373c0 27 -15 33 -39 36h-71v67h296v-67h-75c-21 0 -35 -17 -35 -37zM438 -30
c42 0 73 -33 73 -101c0 -82 -53 -161 -142 -161v46c40 0 78 39 78 85c-8 -3 -16 -4 -23 -4c-33 0 -57 31 -57 66c0 39 32 69 71 69z" />
    <glyph glyph-name="Ntilde" unicode="&#xd1;" horiz-adv-x="802" 
d="M236 790c0 61 25 124 96 124c65 0 154 -46 209 -46c15 0 21 35 21 54h64l-1 -21c-1 -56 -24 -119 -93 -119c-54 0 -164 48 -192 48c-31 0 -37 -28 -37 -54h-65c-2 1 -2 10 -2 14zM692 589v-589h-84l-357 520l-33 68c2 -12 6 -48 8 -56v-429c0 -28 15 -33 40 -36h70v-67
h-297v67h76c20 0 35 17 35 37v485c0 20 -15 37 -35 37h-76v67h228l341 -503l13 -34l-5 61v373c0 27 -15 33 -39 36h-71v67h296v-67h-75c-21 0 -35 -17 -35 -37z" />
    <glyph glyph-name="O" unicode="O" 
d="M35 340c0 210 110 376 356 376c215 0 345 -151 345 -364c0 -217 -130 -375 -356 -375c-193 0 -345 138 -345 363zM166 344c0 -154 41 -296 217 -296c175 0 217 150 217 301c0 148 -40 298 -211 298c-177 0 -223 -153 -223 -303z" />
    <glyph glyph-name="OE" unicode="&#x152;" horiz-adv-x="1095" 
d="M858 625l-235 -1v-228h113c38 0 61 28 61 59v68h58v-331h-59v39c0 47 -6 95 -63 95h-110v-257h245c104 0 112 109 117 215h62v-284h-529c-41 -15 -87 -23 -138 -23c-193 0 -345 138 -345 363c0 210 110 376 356 376c50 0 95 -9 135 -23h511v-257h-62
c-5 79 -13 189 -117 189zM166 344c0 -154 41 -296 217 -296c52 0 92 13 123 36v528c-29 22 -68 35 -117 35c-177 0 -223 -153 -223 -303z" />
    <glyph glyph-name="Oacute" unicode="&#xd3;" 
d="M35 340c0 210 110 376 356 376c215 0 345 -151 345 -364c0 -217 -130 -375 -356 -375c-193 0 -345 138 -345 363zM166 344c0 -154 41 -296 217 -296c175 0 217 150 217 301c0 148 -40 298 -211 298c-177 0 -223 -153 -223 -303zM424 922h141l-153 -144h-73z" />
    <glyph glyph-name="Ocircumflex" unicode="&#xd4;" 
d="M35 340c0 210 110 376 356 376c215 0 345 -151 345 -364c0 -217 -130 -375 -356 -375c-193 0 -345 138 -345 363zM166 344c0 -154 41 -296 217 -296c175 0 217 150 217 301c0 148 -40 298 -211 298c-177 0 -223 -153 -223 -303zM322 922h120l109 -148h-94l-84 83l-77 -83
h-77z" />
    <glyph glyph-name="Odieresis" unicode="&#xd6;" 
d="M35 340c0 210 110 376 356 376c215 0 345 -151 345 -364c0 -217 -130 -375 -356 -375c-193 0 -345 138 -345 363zM166 344c0 -154 41 -296 217 -296c175 0 217 150 217 301c0 148 -40 298 -211 298c-177 0 -223 -153 -223 -303zM429 862c0 35 29 60 63 60
c33 0 62 -27 62 -60c0 -36 -27 -67 -62 -67c-38 0 -63 31 -63 67zM214 862c0 35 27 60 62 60c38 0 63 -27 63 -60c0 -38 -29 -65 -64 -65c-36 0 -61 29 -61 65z" />
    <glyph glyph-name="Ograve" unicode="&#xd2;" 
d="M35 340c0 210 110 376 356 376c215 0 345 -151 345 -364c0 -217 -130 -375 -356 -375c-193 0 -345 138 -345 363zM166 344c0 -154 41 -296 217 -296c175 0 217 150 217 301c0 148 -40 298 -211 298c-177 0 -223 -153 -223 -303zM212 922h142c68 -115 82 -139 84 -144h-72
z" />
    <glyph glyph-name="Ohorn" unicode="&#x1a0;" 
d="M767 844c42 0 73 -33 73 -100c0 -74 -37 -163 -169 -165c42 -61 65 -139 65 -227c0 -217 -130 -375 -356 -375c-193 0 -345 138 -345 363c0 210 110 376 356 376c101 0 182 -34 241 -91c14 -2 27 -3 39 -3c77 0 105 54 105 92c-8 -3 -16 -4 -23 -4c-33 0 -57 30 -57 65
c0 40 32 69 71 69zM166 344c0 -154 41 -296 217 -296c175 0 217 150 217 301c0 148 -40 298 -211 298c-177 0 -223 -153 -223 -303z" />
    <glyph glyph-name="Ohungarumlaut" unicode="&#x150;" 
d="M35 340c0 210 110 376 356 376c215 0 345 -151 345 -364c0 -217 -130 -375 -356 -375c-193 0 -345 138 -345 363zM166 344c0 -154 41 -296 217 -296c175 0 217 150 217 301c0 148 -40 298 -211 298c-177 0 -223 -153 -223 -303zM364 923h121l-153 -143h-53
c3 4 17 28 85 143zM514 923h121l-153 -143h-53c3 4 17 28 85 143z" />
    <glyph glyph-name="Omacron" unicode="&#x14c;" 
d="M35 340c0 210 110 376 356 376c215 0 345 -151 345 -364c0 -217 -130 -375 -356 -375c-193 0 -345 138 -345 363zM166 344c0 -154 41 -296 217 -296c175 0 217 150 217 301c0 148 -40 298 -211 298c-177 0 -223 -153 -223 -303zM259 848h250v-69h-250v69z" />
    <glyph glyph-name="Oslash" unicode="&#xd8;" 
d="M525 745h73l-32 -71c108 -59 170 -175 170 -322c0 -217 -130 -375 -356 -375c-44 0 -85 7 -124 21l-25 -55h-70l36 82c-98 59 -162 168 -162 315c0 210 110 376 356 376c41 0 79 -7 113 -17zM600 349c0 94 -16 187 -71 244l-241 -527c25 -12 57 -18 95 -18
c175 0 217 150 217 301zM166 344c0 -95 16 -184 67 -240l240 527c-24 10 -52 16 -84 16c-177 0 -223 -153 -223 -303z" />
    <glyph glyph-name="Otilde" unicode="&#xd5;" 
d="M35 340c0 210 110 376 356 376c215 0 345 -151 345 -364c0 -217 -130 -375 -356 -375c-193 0 -345 138 -345 363zM166 344c0 -154 41 -296 217 -296c175 0 217 150 217 301c0 148 -40 298 -211 298c-177 0 -223 -153 -223 -303zM189 790c0 61 25 124 96 124
c65 0 153 -46 209 -46c15 0 21 35 21 54h64l-1 -21c-1 -56 -24 -119 -93 -119c-54 0 -164 48 -192 48c-31 0 -37 -28 -37 -54h-65c-2 1 -2 10 -2 14z" />
    <glyph glyph-name="P" unicode="P" horiz-adv-x="689" 
d="M39 67h76c20 0 35 17 35 37v485c0 20 -15 37 -35 37h-76v67h401c126 0 224 -65 224 -196c0 -106 -73 -194 -184 -194h-214v-200c0 -28 14 -36 39 -36h70v-67h-336v67zM266 626v-257h151c74 0 126 58 126 129c0 69 -50 128 -121 128h-156z" />
    <glyph glyph-name="Q" unicode="Q" horiz-adv-x="805" 
d="M40 340c0 210 110 376 356 376c215 0 345 -151 345 -364c0 -125 -44 -230 -123 -297c31 -44 49 -58 91 -58c41 0 52 44 52 72v63h60v-138c0 -69 -55 -109 -126 -109c-79 0 -125 54 -164 118c-43 -17 -91 -26 -146 -26c-193 0 -345 138 -345 363zM171 344
c0 -77 10 -152 42 -207c22 76 77 120 158 120c88 0 136 -52 188 -121c35 57 46 134 46 213c0 148 -40 298 -211 298c-177 0 -223 -153 -223 -303zM356 183c-56 0 -97 -41 -98 -96c31 -24 74 -39 130 -39c41 0 75 8 102 23c-32 55 -64 112 -134 112z" />
    <glyph glyph-name="R" unicode="R" horiz-adv-x="776" 
d="M39 67h76c20 0 35 17 35 37v485c0 20 -15 37 -35 37h-76v67h437c115 0 205 -57 205 -180c0 -108 -67 -156 -169 -171c79 -13 103 -39 112 -118l15 -126c2 -21 8 -32 31 -32s34 13 34 36v115h67v-86c0 -65 -1 -146 -127 -146c-67 0 -120 32 -128 102l-17 153
c-4 42 -35 77 -79 77h-154v-214c0 -28 14 -36 39 -36h70v-67h-336v67zM266 626v-241h177c66 0 115 59 115 123c0 61 -46 118 -111 118h-181z" />
    <glyph glyph-name="Racute" unicode="&#x154;" horiz-adv-x="776" 
d="M39 67h76c20 0 35 17 35 37v485c0 20 -15 37 -35 37h-76v67h437c115 0 205 -57 205 -180c0 -108 -67 -156 -169 -171c79 -13 103 -39 112 -118l15 -126c2 -21 8 -32 31 -32s34 13 34 36v115h67v-86c0 -65 -1 -146 -127 -146c-67 0 -120 32 -128 102l-17 153
c-4 42 -35 77 -79 77h-154v-214c0 -28 14 -33 39 -36h70v-67h-336v67zM266 624v-239h177c66 0 115 58 115 122c0 61 -46 117 -111 117h-181zM429 923h141l-153 -143h-73c3 4 17 28 85 143z" />
    <glyph glyph-name="Rcaron" unicode="&#x158;" horiz-adv-x="776" 
d="M39 67h76c20 0 35 17 35 37v485c0 20 -15 37 -35 37h-76v67h437c115 0 205 -57 205 -180c0 -108 -67 -156 -169 -171c79 -13 103 -39 112 -118l15 -126c2 -21 8 -32 31 -32s34 13 34 36v115h67v-86c0 -65 -1 -146 -127 -146c-67 0 -120 32 -128 102l-17 153
c-4 42 -35 77 -79 77h-154v-214c0 -28 14 -33 39 -36h70v-67h-336v67zM266 624v-239h177c66 0 115 58 115 122c0 61 -46 117 -111 117h-181zM436 775h-119l-109 148h94l84 -84l77 84h77z" />
    <glyph glyph-name="Rcommaaccent" unicode="&#x156;" horiz-adv-x="776" 
d="M39 67h76c20 0 35 17 35 37v485c0 20 -15 37 -35 37h-76v67h437c115 0 205 -57 205 -180c0 -108 -67 -156 -169 -171c79 -13 103 -39 112 -118l15 -126c2 -21 8 -32 31 -32s34 13 34 36v115h67v-86c0 -65 -1 -146 -127 -146c-67 0 -120 32 -128 102l-17 153
c-4 42 -35 77 -79 77h-154v-214c0 -28 14 -33 39 -36h70v-67h-336v67zM266 624v-239h177c66 0 115 58 115 122c0 61 -46 117 -111 117h-181zM423 -30c42 0 73 -33 73 -101c0 -82 -53 -161 -142 -161v46c40 0 78 39 78 85c-8 -3 -16 -4 -23 -4c-33 0 -57 31 -57 66
c0 39 32 69 71 69z" />
    <glyph glyph-name="S" unicode="S" horiz-adv-x="613" 
d="M129 50l-32 -58h-56v265h62c31 -121 85 -205 219 -205c73 0 158 35 158 119c0 40 -23 72 -62 84l-251 74c-92 28 -131 112 -131 176c0 133 115 204 238 204c73 0 135 -22 190 -70l31 54h56v-262h-64c-15 120 -88 207 -211 207c-67 0 -133 -29 -133 -106
c0 -35 24 -71 64 -84l260 -81c66 -20 114 -80 114 -175c0 -148 -115 -215 -251 -215c-88 0 -139 17 -201 73z" />
    <glyph glyph-name="Sacute" unicode="&#x15a;" horiz-adv-x="613" 
d="M129 50l-32 -58h-56v265h62c31 -121 85 -205 219 -205c73 0 158 35 158 119c0 40 -23 72 -62 84l-251 74c-92 28 -131 112 -131 176c0 133 115 204 238 204c73 0 135 -22 190 -70l31 54h56v-262h-64c-15 120 -88 207 -211 207c-67 0 -133 -29 -133 -106
c0 -35 24 -71 64 -84l260 -81c66 -20 114 -80 114 -175c0 -148 -115 -215 -251 -215c-88 0 -139 17 -201 73zM326 923h141l-153 -143h-73c3 4 17 28 85 143z" />
    <glyph glyph-name="Scaron" unicode="&#x160;" horiz-adv-x="613" 
d="M129 50l-32 -58h-56v265h62c31 -121 85 -205 219 -205c73 0 158 35 158 119c0 40 -23 72 -62 84l-251 74c-92 28 -131 112 -131 176c0 133 115 204 238 204c73 0 135 -22 190 -70l31 54h56v-262h-64c-15 120 -88 207 -211 207c-67 0 -133 -29 -133 -106
c0 -35 24 -71 64 -84l260 -81c66 -20 114 -80 114 -175c0 -148 -115 -215 -251 -215c-88 0 -139 17 -201 73zM348 774h-120l-108 148h93l84 -84l77 84h78z" />
    <glyph glyph-name="Scedilla" unicode="&#x15e;" horiz-adv-x="613" 
d="M129 50l-32 -58h-56v265h62c31 -121 85 -205 219 -205c73 0 158 35 158 119c0 40 -23 72 -62 84l-251 74c-92 28 -131 112 -131 176c0 133 115 204 238 204c73 0 135 -22 190 -70l31 54h56v-262h-64c-15 120 -88 207 -211 207c-67 0 -133 -29 -133 -106
c0 -35 24 -71 64 -84l260 -81c66 -20 114 -80 114 -175c0 -139 -102 -206 -227 -214l-11 -36c57 -2 106 -10 106 -79c-1 -81 -82 -110 -156 -110c-26 0 -52 3 -73 10c0 0 0 3 15 57c19 -5 36 -7 50 -7c53 0 69 28 69 46c0 27 -24 35 -47 37h-49l26 83c-62 6 -105 25 -155 71
z" />
    <glyph glyph-name="Scircumflex" unicode="&#x15c;" horiz-adv-x="613" 
d="M129 50l-32 -58h-56v265h62c31 -121 85 -205 219 -205c73 0 158 35 158 119c0 40 -23 72 -62 84l-251 74c-92 28 -131 112 -131 176c0 133 115 204 238 204c73 0 135 -22 190 -70l31 54h56v-262h-64c-15 120 -88 207 -211 207c-67 0 -133 -29 -133 -106
c0 -35 24 -71 64 -84l260 -81c66 -20 114 -80 114 -175c0 -148 -115 -215 -251 -215c-88 0 -139 17 -201 73zM243 923h120l108 -148h-94l-83 84l-78 -84h-77z" />
    <glyph glyph-name="Scommaaccent" unicode="&#x218;" horiz-adv-x="613" 
d="M129 50l-32 -58h-56v265h62c31 -121 85 -205 219 -205c73 0 158 35 158 119c0 40 -23 72 -62 84l-251 74c-92 28 -131 112 -131 176c0 133 115 204 238 204c73 0 135 -22 190 -70l31 54h56v-262h-64c-15 120 -88 207 -211 207c-67 0 -133 -29 -133 -106
c0 -35 24 -71 64 -84l260 -81c66 -20 114 -80 114 -175c0 -148 -115 -215 -251 -215c-88 0 -139 17 -201 73zM325 -60c42 0 73 -33 73 -101c0 -82 -53 -161 -142 -161v46c40 0 78 39 78 85c-8 -3 -16 -4 -23 -4c-33 0 -57 31 -57 66c0 39 32 69 71 69z" />
    <glyph glyph-name="T" unicode="T" horiz-adv-x="661" 
d="M641 693v-257h-60c-11 109 -19 188 -125 188h-69v-521c0 -28 14 -36 39 -36h71v-67h-336v67h76c20 0 35 17 35 37v520h-66c-106 0 -114 -79 -125 -188h-61v257h621z" />
    <glyph glyph-name="Tbar" unicode="&#x166;" horiz-adv-x="661" 
d="M28 333h244v291h-66c-106 0 -114 -79 -125 -188h-61v257h621v-257h-60c-11 109 -19 188 -125 188h-69v-291h241v-59h-241v-171c0 -28 14 -33 39 -36h71v-67h-336v67h76c20 0 35 17 35 37v170h-244v59z" />
    <glyph glyph-name="Tcaron" unicode="&#x164;" horiz-adv-x="661" 
d="M641 693v-257h-60c-11 109 -19 188 -125 188h-69v-521c0 -28 14 -33 39 -36h71v-67h-336v67h76c20 0 35 17 35 37v520h-66c-106 0 -114 -79 -125 -188h-61v257h621zM392 775h-119l-109 148h94l84 -84l77 84h77z" />
    <glyph glyph-name="Tcommaaccent" unicode="&#x162;" horiz-adv-x="661" 
d="M641 693v-257h-60c-11 109 -19 188 -125 188h-69v-521c0 -28 14 -33 39 -36h71v-67h-336v67h76c20 0 35 17 35 37v520h-66c-106 0 -114 -79 -125 -188h-61v257h621zM329 -30c42 0 73 -33 73 -101c0 -82 -53 -161 -142 -161v46c40 0 78 39 78 85c-8 -3 -16 -4 -23 -4
c-33 0 -57 31 -57 66c0 39 32 69 71 69z" />
    <glyph glyph-name="Thorn" unicode="&#xde;" horiz-adv-x="672" 
d="M114 626h-75v67h336v-67h-71c-25 -3 -39 -9 -39 -36v-41h170c116 0 212 -73 212 -198c0 -119 -96 -194 -212 -194h-170v-54c0 -28 15 -33 40 -36h71v-67h-336v67h74c21 0 35 17 35 37v485c0 20 -14 37 -35 37zM265 478v-252h142c71 0 120 55 120 124
c0 62 -40 128 -109 128h-153z" />
    <glyph glyph-name="U" unicode="U" 
d="M235 169c0 -86 101 -108 176 -108c78 0 167 26 167 118v411c0 28 -15 36 -40 36h-69v67h298v-67h-75c-21 0 -35 -16 -35 -36v-419c0 -137 -136 -190 -255 -190c-127 0 -282 25 -282 178v431c0 20 -14 36 -35 36h-77v67h333v-67h-66c-25 0 -40 -8 -40 -36v-421z" />
    <glyph glyph-name="Uacute" unicode="&#xda;" 
d="M235 169c0 -86 101 -108 176 -108c78 0 167 26 167 118v413c0 28 -15 34 -40 36h-69v68h298v-68h-75c-21 0 -35 -16 -35 -36v-421c0 -137 -136 -190 -255 -190c-127 0 -282 25 -282 178v433c0 20 -14 36 -35 36h-77v68h333v-68h-66c-25 -2 -40 -8 -40 -36v-423zM442 922
h142l-154 -144h-72c3 5 16 29 84 144z" />
    <glyph glyph-name="Ubreve" unicode="&#x16c;" 
d="M235 169c0 -86 101 -108 176 -108c78 0 167 26 167 118v411c0 28 -15 34 -40 36h-69v67h298v-67h-75c-21 0 -35 -16 -35 -36v-419c0 -137 -136 -190 -255 -190c-127 0 -282 25 -282 178v431c0 20 -14 36 -35 36h-77v67h333v-67h-66c-25 -2 -40 -8 -40 -36v-421zM391 737
c-78 0 -142 26 -144 101h76c0 -27 20 -45 68 -45s65 20 66 45h74c-3 -75 -60 -101 -140 -101z" />
    <glyph glyph-name="Ucircumflex" unicode="&#xdb;" 
d="M235 169c0 -86 101 -108 176 -108c78 0 167 26 167 118v413c0 28 -15 34 -40 36h-69v68h298v-68h-75c-21 0 -35 -16 -35 -36v-421c0 -137 -136 -190 -255 -190c-127 0 -282 25 -282 178v433c0 20 -14 36 -35 36h-77v68h333v-68h-66c-25 -2 -40 -8 -40 -36v-423zM345 922
h119l109 -148h-94l-84 83l-77 -83h-77z" />
    <glyph glyph-name="Udieresis" unicode="&#xdc;" 
d="M235 169c0 -86 101 -108 176 -108c78 0 167 26 167 118v413c0 28 -15 34 -40 36h-69v68h298v-68h-75c-21 0 -35 -16 -35 -36v-421c0 -137 -136 -190 -255 -190c-127 0 -282 25 -282 178v433c0 20 -14 36 -35 36h-77v68h333v-68h-66c-25 -2 -40 -8 -40 -36v-423zM452 862
c0 35 28 60 62 60c33 0 63 -27 63 -60c0 -36 -28 -67 -63 -67c-38 0 -62 31 -62 67zM236 862c0 35 27 60 63 60c38 0 62 -27 62 -60c0 -38 -29 -65 -64 -65c-36 0 -61 29 -61 65z" />
    <glyph glyph-name="Ugrave" unicode="&#xd9;" 
d="M235 169c0 -86 101 -108 176 -108c78 0 167 26 167 118v413c0 28 -15 34 -40 36h-69v68h298v-68h-75c-21 0 -35 -16 -35 -36v-421c0 -137 -136 -190 -255 -190c-127 0 -282 25 -282 178v433c0 20 -14 36 -35 36h-77v68h333v-68h-66c-25 -2 -40 -8 -40 -36v-423zM217 922
h142c68 -115 82 -139 84 -144h-72z" />
    <glyph glyph-name="Uhorn" unicode="&#x1af;" 
d="M839 914c42 0 73 -33 73 -100c0 -70 -30 -185 -185 -185h-35c-21 0 -35 -16 -35 -36v-422c0 -137 -136 -190 -255 -190c-127 0 -282 25 -282 178v431c0 20 -14 36 -35 36h-77v67h333v-67h-66c-25 0 -40 -8 -40 -36v-421c0 -86 101 -108 176 -108c78 0 167 26 167 118v411
c0 28 -15 36 -40 36h-69v67h290c65 0 89 56 89 91c-8 -3 -16 -4 -23 -4c-33 0 -57 30 -57 65c0 40 32 69 71 69z" />
    <glyph glyph-name="Uhungarumlaut" unicode="&#x170;" 
d="M235 169c0 -86 101 -108 176 -108c78 0 167 26 167 118v411c0 28 -15 34 -40 36h-69v67h298v-67h-75c-21 0 -35 -16 -35 -36v-419c0 -137 -136 -190 -255 -190c-127 0 -282 25 -282 178v431c0 20 -14 36 -35 36h-77v67h333v-67h-66c-25 -2 -40 -8 -40 -36v-421zM384 923
h121l-153 -143h-53c3 4 17 28 85 143zM534 923h121l-153 -143h-53c3 4 17 28 85 143z" />
    <glyph glyph-name="Umacron" unicode="&#x16a;" 
d="M235 169c0 -86 101 -108 176 -108c78 0 167 26 167 118v411c0 28 -15 34 -40 36h-69v67h298v-67h-75c-21 0 -35 -16 -35 -36v-419c0 -137 -136 -190 -255 -190c-127 0 -282 25 -282 178v431c0 20 -14 36 -35 36h-77v67h333v-67h-66c-25 -2 -40 -8 -40 -36v-421zM264 848
h250v-69h-250v69z" />
    <glyph glyph-name="Uogonek" unicode="&#x172;" 
d="M235 169c0 -86 101 -108 176 -108c78 0 167 26 167 118v411c0 28 -15 34 -40 36h-69v67h298v-67h-75c-21 0 -35 -16 -35 -36v-419c0 -101 -73 -156 -159 -178c-54 -40 -56 -56 -56 -82c0 -18 6 -46 59 -46c14 0 41 2 60 7c15 -54 15 -57 15 -57c-21 -7 -57 -10 -83 -10
c-74 0 -146 29 -146 90c0 32 17 60 47 86c-126 1 -274 28 -274 178v431c0 20 -14 36 -35 36h-77v67h333v-67h-66c-25 -2 -40 -8 -40 -36v-421z" />
    <glyph glyph-name="Uring" unicode="&#x16e;" 
d="M235 169c0 -86 101 -108 176 -108c78 0 167 26 167 118v411c0 28 -15 34 -40 36h-69v67h298v-67h-75c-21 0 -35 -16 -35 -36v-419c0 -137 -136 -190 -255 -190c-127 0 -282 25 -282 178v431c0 20 -14 36 -35 36h-77v67h333v-67h-66c-25 -2 -40 -8 -40 -36v-421zM267 831
c0 65 68 92 125 92s119 -23 119 -90c0 -69 -58 -96 -120 -96c-59 0 -124 27 -124 94zM343 829c0 -27 20 -46 48 -46c29 0 46 22 46 48c0 28 -20 46 -46 46c-28 0 -48 -21 -48 -48z" />
    <glyph glyph-name="Utilde" unicode="&#x168;" 
d="M235 169c0 -86 101 -108 176 -108c78 0 167 26 167 118v411c0 28 -15 34 -40 36h-69v67h298v-67h-75c-21 0 -35 -16 -35 -36v-419c0 -137 -136 -190 -255 -190c-127 0 -282 25 -282 178v431c0 20 -14 36 -35 36h-77v67h333v-67h-66c-25 -2 -40 -8 -40 -36v-421zM193 792
c0 60 25 123 96 123c65 0 154 -46 209 -46c16 0 21 35 21 54h65l-1 -21c-1 -56 -24 -119 -93 -119c-55 0 -165 48 -193 48c-31 0 -36 -27 -36 -54h-66c-2 2 -2 10 -2 15z" />
    <glyph glyph-name="V" unicode="V" horiz-adv-x="684" 
d="M450 693h259v-67c-41 -1 -72 4 -87 -37c-97 -257 -204 -560 -217 -594h-112l-223 604c-12 25 -34 27 -59 27h-31v67h308v-67h-71c-19 0 -26 -17 -26 -32c0 -5 1 -10 166 -451l12 -51l16 52c10 34 161 445 161 453c0 27 -25 29 -62 29h-34v67z" />
    <glyph glyph-name="W" unicode="W" horiz-adv-x="974" 
d="M735 693h259v-67c-41 -2 -74 5 -88 -37c-86 -260 -171 -539 -187 -594h-104l-124 398l-139 -398h-95l-188 604c-11 25 -33 27 -59 27h-25v67h285v-67h-54c-18 0 -26 -17 -26 -32c0 -5 49 -159 130 -433l8 -40l11 44l117 336l-28 98c-11 25 -33 27 -59 27h-34v67h308v-67
h-72c-18 0 -25 -17 -25 -32c0 -5 40 -131 130 -429l8 -44l12 47c61 193 135 421 135 429c0 27 -25 29 -62 29h-34v67z" />
    <glyph glyph-name="Wacute" unicode="&#x1e82;" horiz-adv-x="974" 
d="M735 693h259v-64c-41 -2 -74 5 -88 -37c-91 -276 -187 -597 -187 -597h-104l-124 398c-74 -207 -139 -398 -139 -398h-95l-188 607c-11 25 -33 27 -59 27h-25v64h285v-64h-54c-18 0 -26 -17 -26 -32c0 -5 49 -162 130 -436l8 -40c2 0 7 31 11 44c61 177 99 278 115 348
l-26 89c-11 25 -33 27 -59 27h-34v64h308v-64h-72c-18 0 -25 -17 -25 -32c0 -5 40 -134 130 -432l8 -44c2 0 7 34 12 47c102 331 135 424 135 432c0 27 -25 29 -62 29h-34v64zM549 923h141l-153 -143h-73c3 4 17 28 85 143z" />
    <glyph glyph-name="Wcircumflex" unicode="&#x174;" horiz-adv-x="974" 
d="M735 693h259v-64c-41 -2 -74 5 -88 -37c-91 -276 -187 -597 -187 -597h-104l-124 398c-74 -207 -139 -398 -139 -398h-95l-188 607c-11 25 -33 27 -59 27h-25v64h285v-64h-54c-18 0 -26 -17 -26 -32c0 -5 49 -162 130 -436l8 -40c2 0 7 31 11 44c61 177 99 278 115 348
l-26 89c-11 25 -33 27 -59 27h-34v64h308v-64h-72c-18 0 -25 -17 -25 -32c0 -5 40 -134 130 -432l8 -44c2 0 7 34 12 47c102 331 135 424 135 432c0 27 -25 29 -62 29h-34v64zM428 923h120l108 -148h-94l-83 84l-78 -84h-77z" />
    <glyph glyph-name="Wdieresis" unicode="&#x1e84;" horiz-adv-x="974" 
d="M735 693h259v-64c-41 -2 -74 5 -88 -37c-91 -276 -187 -597 -187 -597h-104l-124 398c-74 -207 -139 -398 -139 -398h-95l-188 607c-11 25 -33 27 -59 27h-25v64h285v-64h-54c-18 0 -26 -17 -26 -32c0 -5 49 -162 130 -436l8 -40c2 0 7 31 11 44c61 177 99 278 115 348
l-26 89c-11 25 -33 27 -59 27h-34v64h308v-64h-72c-18 0 -25 -17 -25 -32c0 -5 40 -134 130 -432l8 -44c2 0 7 34 12 47c102 331 135 424 135 432c0 27 -25 29 -62 29h-34v64zM535 863c0 35 29 60 63 60c33 0 62 -26 62 -60c0 -35 -27 -67 -62 -67c-38 0 -63 32 -63 67z
M320 863c0 35 27 60 62 60c38 0 63 -26 63 -60c0 -37 -29 -65 -64 -65c-36 0 -61 30 -61 65z" />
    <glyph glyph-name="Wgrave" unicode="&#x1e80;" horiz-adv-x="974" 
d="M735 693h259v-64c-41 -2 -74 5 -88 -37c-91 -276 -187 -597 -187 -597h-104l-124 398c-74 -207 -139 -398 -139 -398h-95l-188 607c-11 25 -33 27 -59 27h-25v64h285v-64h-54c-18 0 -26 -17 -26 -32c0 -5 49 -162 130 -436l8 -40c2 0 7 31 11 44c61 177 99 278 115 348
l-26 89c-11 25 -33 27 -59 27h-34v64h308v-64h-72c-18 0 -25 -17 -25 -32c0 -5 40 -134 130 -432l8 -44c2 0 7 34 12 47c102 331 135 424 135 432c0 27 -25 29 -62 29h-34v64zM313 923h142c68 -115 81 -139 84 -143h-73z" />
    <glyph glyph-name="X" unicode="X" horiz-adv-x="706" 
d="M4 67h56c45 0 56 54 231 272l-193 264c-8 11 -28 22 -42 23h-57v67h318v-67h-63c-11 0 -16 -13 -16 -22c0 -16 2 -13 120 -176c115 148 125 163 125 176c0 14 -6 22 -16 22h-61v67h284v-67h-58c-48 0 -76 -55 -230 -257c183 -237 211 -302 242 -302h63v-67h-316v67h55
c13 0 23 8 23 18c0 9 -2 15 -7 22l-125 173l-131 -172c-6 -6 -11 -16 -11 -24c0 -12 13 -17 23 -17h68v-67h-282v67z" />
    <glyph glyph-name="Y" unicode="Y" horiz-adv-x="634" 
d="M397 693h265v-67c-41 0 -71 0 -94 -37c-8 -13 -13 -23 -192 -319v-167c0 -28 15 -36 40 -36h71v-67h-336v67h75c21 0 35 17 35 37v161l-204 334c-11 25 -33 27 -59 27h-23v67h308v-67h-66c-18 0 -26 -17 -26 -32c0 -4 63 -108 146 -248c117 199 148 241 148 251
c0 27 -14 29 -59 29h-29v67z" />
    <glyph glyph-name="Yacute" unicode="&#xdd;" horiz-adv-x="634" 
d="M397 694h265v-65c-41 -2 -71 0 -94 -37c-8 -13 -13 -26 -192 -322v-167c0 -28 15 -33 40 -36h71v-67h-336v67h75c21 0 35 17 35 37v161l-204 337c-11 25 -33 27 -59 27h-23v65h308v-65h-66c-18 0 -26 -17 -26 -32c0 -4 26 -45 146 -251c117 199 148 244 148 254
c0 27 -14 29 -59 29h-29v65zM381 922h142l-154 -144h-73z" />
    <glyph glyph-name="Ycircumflex" unicode="&#x176;" horiz-adv-x="634" 
d="M397 693h265v-64c-41 0 -71 0 -94 -37c-8 -13 -13 -26 -192 -322v-167c0 -28 15 -33 40 -36h71v-67h-336v67h75c21 0 35 17 35 37v161l-204 337c-11 25 -33 27 -59 27h-23v64h308v-64h-66c-18 0 -26 -17 -26 -32c0 -4 26 -45 146 -251c117 199 148 244 148 254
c0 27 -14 29 -59 29h-29v64zM256 923h120l108 -148h-94l-83 84l-78 -84h-77z" />
    <glyph glyph-name="Ydieresis" unicode="&#x178;" horiz-adv-x="634" 
d="M397 694h265v-65c-41 -2 -71 0 -94 -37c-8 -13 -13 -26 -192 -322v-167c0 -28 15 -33 40 -36h71v-67h-336v67h75c21 0 35 17 35 37v161l-204 337c-11 25 -33 27 -59 27h-23v65h308v-65h-66c-18 0 -26 -17 -26 -32c0 -4 26 -45 146 -251c117 199 148 244 148 254
c0 27 -14 29 -59 29h-29v65zM376 862c0 35 29 60 63 60c33 0 63 -27 63 -60c0 -36 -28 -67 -63 -67c-38 0 -63 31 -63 67zM161 862c0 35 27 60 63 60c37 0 62 -27 62 -60c0 -38 -29 -65 -64 -65c-36 0 -61 29 -61 65z" />
    <glyph glyph-name="Ygrave" unicode="&#x1ef2;" horiz-adv-x="634" 
d="M397 693h265v-64c-41 0 -71 0 -94 -37c-8 -13 -13 -26 -192 -322v-167c0 -28 15 -33 40 -36h71v-67h-336v67h75c21 0 35 17 35 37v161l-204 337c-11 25 -33 27 -59 27h-23v64h308v-64h-66c-18 0 -26 -17 -26 -32c0 -4 26 -45 146 -251c117 199 148 244 148 254
c0 27 -14 29 -59 29h-29v64zM144 923h142c68 -115 81 -139 84 -143h-73z" />
    <glyph glyph-name="Z" unicode="Z" horiz-adv-x="620" 
d="M18 67l438 559h-228c-106 0 -114 -79 -125 -188h-60v255h553v-69l-437 -557h236c130 0 136 101 143 212h62v-279h-582v67z" />
    <glyph glyph-name="Zacute" unicode="&#x179;" horiz-adv-x="529" 
d="M-25 71l438 553h-228c-106 0 -114 -79 -125 -188h-60v257h553v-71l-437 -551h236c130 0 136 100 143 211h62v-282h-582v71zM313 923h141l-153 -143h-73c3 4 17 28 85 143z" />
    <glyph glyph-name="Zcaron" unicode="&#x17d;" horiz-adv-x="638" 
d="M28 71l438 553h-228c-106 0 -114 -79 -125 -188h-60v259h553v-73l-437 -551h236c130 0 136 100 143 211h62v-282h-582v71zM385 774h-120l-108 148h93l84 -84l77 84h78z" />
    <glyph glyph-name="Zdotaccent" unicode="&#x17b;" horiz-adv-x="529" 
d="M-25 71l438 553h-228c-106 0 -114 -79 -125 -188h-60v257h553v-71l-437 -551h236c130 0 136 100 143 211h62v-282h-582v71zM207 821c0 35 27 60 62 60c38 0 63 -26 63 -60c0 -37 -29 -65 -64 -65c-36 0 -61 30 -61 65z" />
    <glyph glyph-name="a" unicode="a" horiz-adv-x="567" 
d="M546 64v-62c-32 -12 -58 -16 -86 -16c-65 0 -87 38 -91 94c-27 -67 -109 -96 -175 -96c-86 0 -153 46 -153 138c0 96 71 143 155 172c56 19 108 31 168 39v44c0 70 -55 94 -110 94c-34 0 -68 -9 -86 -23c21 -11 31 -27 31 -49c0 -38 -28 -61 -62 -61c-46 0 -69 30 -69 73
c0 99 126 123 200 123c88 0 201 -29 201 -135v-306c0 -29 5 -42 31 -42c15 0 31 6 46 13zM151 141c0 -42 27 -76 69 -76c80 0 144 57 144 138v69c-29 0 -213 -32 -213 -131z" />
    <glyph glyph-name="a.001" unicode="&#xe001;" horiz-adv-x="589" 
d="M218 0h-221v62c32 1 61 -3 73 29c80 212 169 466 169 466h104l176 -473c8 -21 26 -22 47 -22h27v-62h-261v62h54c15 0 21 13 21 25c0 2 1 3 -30 86h-202c-28 -78 -30 -85 -30 -88c0 -22 20 -23 49 -23h24v-62zM270 439c-32 -88 -55 -154 -72 -203h155
c-18 49 -41 115 -75 203l-3 30c-2 0 -3 -20 -5 -30z" />
    <glyph glyph-name="a.alt" unicode="&#xe4c0;" horiz-adv-x="590" 
d="M41 121c0 152 190 193 323 211v38c0 74 -34 99 -108 99c-37 0 -64 -2 -88 -19c21 -11 31 -27 31 -49c0 -38 -29 -61 -63 -61c-46 0 -69 30 -69 73c0 99 126 123 201 123c87 0 200 -29 200 -135v-321c0 -17 5 -29 26 -29c22 0 27 12 27 29v112h56v-123
c0 -63 -52 -86 -97 -86c-85 0 -105 30 -112 96c-26 -67 -108 -96 -175 -96c-85 0 -152 46 -152 138zM151 140c0 -42 27 -76 69 -76c80 0 144 57 144 138v69c-30 0 -213 -32 -213 -131z" />
    <glyph glyph-name="aacute" unicode="&#xe1;" horiz-adv-x="567" 
d="M546 63v-62c-32 -12 -58 -16 -86 -16c-65 0 -87 38 -91 94c-27 -67 -109 -96 -175 -96c-86 0 -153 46 -153 138c0 96 71 143 155 172c56 19 108 31 168 39v47c0 70 -55 94 -110 94c-34 0 -68 -9 -86 -23c21 -11 31 -27 31 -49c0 -38 -28 -61 -62 -61c-46 0 -69 30 -69 73
c0 99 126 123 200 123c88 0 201 -29 201 -135v-309c0 -29 5 -42 31 -42c15 0 31 7 46 13zM151 140c0 -42 27 -76 69 -76c80 0 144 57 144 138v69c-29 0 -213 -32 -213 -131zM308 745h142l-154 -143h-73c3 4 17 28 85 143z" />
    <glyph glyph-name="aacute.001" unicode="&#xe002;" horiz-adv-x="589" 
d="M218 0h-221v62c32 1 61 -3 73 29c80 212 169 466 169 466h104l176 -473c7 -21 26 -22 47 -22h27v-62h-261v62h54c15 0 21 13 21 25c0 2 1 3 -30 86h-202c-28 -78 -30 -85 -30 -88c0 -22 20 -23 49 -23h24v-62zM270 439c-32 -88 -55 -154 -72 -203h155l-75 203l-3 30
c-2 0 -3 -20 -5 -30zM310 745h141l-153 -143h-73c3 4 16 28 85 143z" />
    <glyph glyph-name="aacute.002" unicode="&#xe003;" horiz-adv-x="590" 
d="M41 121c0 152 190 193 323 211v38c0 74 -34 99 -108 99c-37 0 -64 -2 -88 -19c21 -11 31 -27 31 -49c0 -38 -29 -61 -63 -61c-46 0 -69 30 -69 73c0 99 126 123 201 123c87 0 200 -29 200 -135v-321c0 -17 5 -29 26 -29c22 0 27 12 27 29v112h56v-123
c0 -63 -52 -86 -97 -86c-85 0 -105 30 -112 96c-26 -67 -108 -96 -175 -96c-85 0 -152 46 -152 138zM151 140c0 -42 27 -76 69 -76c80 0 144 57 144 138v69c-30 0 -213 -32 -213 -131zM305 745h141l-153 -143h-73c3 4 17 28 85 143z" />
    <glyph glyph-name="abreve" unicode="&#x103;" horiz-adv-x="567" 
d="M546 63v-62c-32 -12 -58 -16 -86 -16c-65 0 -87 38 -91 94c-27 -67 -109 -96 -175 -96c-86 0 -153 46 -153 138c0 96 71 143 155 172c56 19 108 31 168 39v47c0 70 -55 94 -110 94c-34 0 -68 -9 -86 -23c21 -11 31 -27 31 -49c0 -38 -28 -61 -62 -61c-46 0 -69 30 -69 73
c0 99 126 123 200 123c88 0 201 -29 201 -135v-309c0 -29 5 -42 31 -42c15 0 31 7 46 13zM151 140c0 -42 27 -76 69 -76c80 0 144 57 144 138v69c-29 0 -213 -32 -213 -131zM282 579c-78 0 -142 26 -144 101h76c0 -27 20 -45 68 -45s65 20 66 45h74
c-3 -75 -60 -101 -140 -101z" />
    <glyph glyph-name="abreve.001" unicode="&#xe004;" horiz-adv-x="589" 
d="M218 0h-221v62c32 1 61 -3 73 29c80 212 169 466 169 466h104l176 -473c8 -21 26 -22 47 -22h27v-62h-261v62h54c15 0 21 13 21 25c0 2 1 3 -30 86h-202c-28 -78 -30 -85 -30 -88c0 -22 20 -23 49 -23h24v-62zM270 439c-32 -88 -55 -154 -72 -203h155
c-18 49 -41 115 -75 203l-3 30c-2 0 -3 -20 -5 -30zM296 600c-78 0 -142 26 -144 101h76c0 -27 20 -45 68 -45s65 20 66 45h74c-3 -75 -60 -101 -140 -101z" />
    <glyph glyph-name="abreve.002" unicode="&#xe005;" horiz-adv-x="590" 
d="M41 121c0 152 190 193 323 211v38c0 74 -34 99 -108 99c-37 0 -64 -2 -88 -19c21 -11 31 -27 31 -49c0 -38 -29 -61 -63 -61c-46 0 -69 30 -69 73c0 99 126 123 201 123c87 0 200 -29 200 -135v-321c0 -17 5 -29 26 -29c22 0 27 12 27 29v112h56v-123
c0 -63 -52 -86 -97 -86c-85 0 -105 30 -112 96c-26 -67 -108 -96 -175 -96c-85 0 -152 46 -152 138zM151 140c0 -42 27 -76 69 -76c80 0 144 57 144 138v69c-30 0 -213 -32 -213 -131zM267 589c-78 0 -142 26 -144 101h76c0 -27 20 -45 68 -45s65 20 66 45h74
c-3 -75 -60 -101 -140 -101z" />
    <glyph glyph-name="acircumflex" unicode="&#xe2;" horiz-adv-x="567" 
d="M546 63v-62c-32 -12 -58 -16 -86 -16c-65 0 -87 38 -91 94c-27 -67 -109 -96 -175 -96c-86 0 -153 46 -153 138c0 96 71 143 155 172c56 19 108 31 168 39v47c0 70 -55 94 -110 94c-34 0 -68 -9 -86 -23c21 -11 31 -27 31 -49c0 -38 -28 -61 -62 -61c-46 0 -69 30 -69 73
c0 99 126 123 200 123c88 0 201 -29 201 -135v-309c0 -29 5 -42 31 -42c15 0 31 7 46 13zM151 140c0 -42 27 -76 69 -76c80 0 144 57 144 138v69c-29 0 -213 -32 -213 -131zM215 745h120l108 -148h-94l-83 84l-78 -84h-77z" />
    <glyph glyph-name="acircumflex.001" unicode="&#xe006;" horiz-adv-x="589" 
d="M218 0h-221v62c32 1 61 -3 73 29c80 212 169 466 169 466h104l176 -473c7 -21 26 -22 47 -22h27v-62h-261v62h54c15 0 21 13 21 25c0 2 1 3 -30 86h-202c-28 -78 -30 -85 -30 -88c0 -22 20 -23 49 -23h24v-62zM233 745h119l109 -148h-94l-84 84l-77 -84h-77zM270 439
c-32 -88 -55 -154 -72 -203h155l-75 203l-3 30c-2 0 -3 -20 -5 -30z" />
    <glyph glyph-name="acircumflex.002" unicode="&#xe007;" horiz-adv-x="590" 
d="M41 121c0 152 190 193 323 211v38c0 74 -34 99 -108 99c-37 0 -64 -2 -88 -19c21 -11 31 -27 31 -49c0 -38 -29 -61 -63 -61c-46 0 -69 30 -69 73c0 99 126 123 201 123c87 0 200 -29 200 -135v-321c0 -17 5 -29 26 -29c22 0 27 12 27 29v112h56v-123
c0 -63 -52 -86 -97 -86c-85 0 -105 30 -112 96c-26 -67 -108 -96 -175 -96c-85 0 -152 46 -152 138zM151 140c0 -42 27 -76 69 -76c80 0 144 57 144 138v69c-30 0 -213 -32 -213 -131zM203 745h120l108 -148h-94l-83 84l-78 -84h-77z" />
    <glyph glyph-name="acute" unicode="&#xb4;" horiz-adv-x="296" 
d="M187 745h141l-153 -143h-73c3 4 17 28 85 143z" />
    <glyph glyph-name="acutecomb" unicode="&#x301;" horiz-adv-x="296" 
d="M187 745h141l-153 -143h-73c3 4 17 28 85 143z" />
    <glyph glyph-name="adieresis" unicode="&#xe4;" horiz-adv-x="567" 
d="M546 63v-62c-32 -12 -58 -16 -86 -16c-65 0 -87 38 -91 94c-27 -67 -109 -96 -175 -96c-86 0 -153 46 -153 138c0 96 71 143 155 172c56 19 108 31 168 39v47c0 70 -55 94 -110 94c-34 0 -68 -9 -86 -23c21 -11 31 -27 31 -49c0 -38 -28 -61 -62 -61c-46 0 -69 30 -69 73
c0 99 126 123 200 123c88 0 201 -29 201 -135v-309c0 -29 5 -42 31 -42c15 0 31 7 46 13zM151 140c0 -42 27 -76 69 -76c80 0 144 57 144 138v69c-29 0 -213 -32 -213 -131zM318 685c0 35 28 60 63 60c33 0 62 -26 62 -60c0 -35 -28 -67 -62 -67c-38 0 -63 32 -63 67z
M103 685c0 35 26 60 62 60c38 0 63 -26 63 -60c0 -37 -30 -65 -65 -65s-60 30 -60 65z" />
    <glyph glyph-name="adieresis.001" unicode="&#xe008;" horiz-adv-x="589" 
d="M218 0h-221v62c32 1 61 -3 73 29c80 212 169 466 169 466h104l176 -473c7 -21 26 -22 47 -22h27v-62h-261v62h54c15 0 21 13 21 25c0 2 1 3 -30 86h-202c-28 -78 -30 -85 -30 -88c0 -22 20 -23 49 -23h24v-62zM270 439c-32 -88 -55 -154 -72 -203h155l-75 203l-3 30
c-2 0 -3 -20 -5 -30zM340 685c0 35 28 60 62 60c33 0 63 -26 63 -60c0 -35 -28 -67 -63 -67c-38 0 -62 32 -62 67zM124 685c0 35 27 60 63 60c38 0 62 -26 62 -60c0 -37 -29 -65 -64 -65c-36 0 -61 30 -61 65z" />
    <glyph glyph-name="adieresis.002" unicode="&#xe009;" horiz-adv-x="590" 
d="M41 121c0 152 190 193 323 211v38c0 74 -34 99 -108 99c-37 0 -64 -2 -88 -19c21 -11 31 -27 31 -49c0 -38 -29 -61 -63 -61c-46 0 -69 30 -69 73c0 99 126 123 201 123c87 0 200 -29 200 -135v-321c0 -17 5 -29 26 -29c22 0 27 12 27 29v112h56v-123
c0 -63 -52 -86 -97 -86c-85 0 -105 30 -112 96c-26 -67 -108 -96 -175 -96c-85 0 -152 46 -152 138zM151 140c0 -42 27 -76 69 -76c80 0 144 57 144 138v69c-30 0 -213 -32 -213 -131zM310 685c0 35 29 60 63 60c33 0 62 -26 62 -60c0 -35 -27 -67 -62 -67
c-38 0 -63 32 -63 67zM95 685c0 35 27 60 62 60c38 0 63 -26 63 -60c0 -37 -29 -65 -64 -65c-36 0 -61 30 -61 65z" />
    <glyph glyph-name="ae" unicode="&#xe6;" horiz-adv-x="898" 
d="M268 520c65 0 143 -16 180 -67c44 42 104 66 177 66c173 0 245 -125 245 -288h-385c0 -145 72 -190 158 -190c128 0 153 115 153 115h68c0 -73 -85 -188 -235 -188c-99 0 -171 38 -215 100c-68 -99 -160 -101 -220 -101c-86 0 -153 46 -153 138c0 96 71 143 155 172
c56 19 108 31 168 39v47c0 70 -55 94 -110 94c-34 0 -68 -9 -86 -23c21 -11 31 -27 31 -49c0 -38 -28 -61 -62 -61c-46 0 -69 30 -69 73c0 99 126 123 200 123zM151 124c0 -42 27 -76 69 -76c80 0 144 57 144 138v69c-29 0 -213 -32 -213 -131zM622 452
c-86 0 -134 -72 -134 -154h254c0 79 -28 154 -120 154z" />
    <glyph glyph-name="ae.001" unicode="&#xe00a;" horiz-adv-x="915" 
d="M219 490v62h644v-204h-58c-4 63 -11 141 -94 141h-160v-170h61c30 0 49 22 49 47v51h57v-263h-58v27c0 38 -6 76 -51 76h-58v-194h168c83 0 90 79 93 163h58v-226h-508v62h51c17 0 29 13 29 29v94h-222c-61 -93 -68 -98 -68 -108c0 -16 25 -17 50 -17h33v-60h-238v60
c32 2 40 -3 61 29c91 140 195 282 259 375c3 5 7 12 7 17c0 6 -3 9 -11 9h-94zM433 497c-1 0 -78 -109 -177 -253h186v253h-9z" />
    <glyph glyph-name="agrave" unicode="&#xe0;" horiz-adv-x="567" 
d="M546 63v-62c-32 -12 -58 -16 -86 -16c-65 0 -87 38 -91 94c-27 -67 -109 -96 -175 -96c-86 0 -153 46 -153 138c0 96 71 143 155 172c56 19 108 31 168 39v47c0 70 -55 94 -110 94c-34 0 -68 -9 -86 -23c21 -11 31 -27 31 -49c0 -38 -28 -61 -62 -61c-46 0 -69 30 -69 73
c0 99 126 123 200 123c88 0 201 -29 201 -135v-309c0 -29 5 -42 31 -42c15 0 31 7 46 13zM151 140c0 -42 27 -76 69 -76c80 0 144 57 144 138v69c-29 0 -213 -32 -213 -131zM124 745h142c68 -115 81 -139 84 -143h-73z" />
    <glyph glyph-name="agrave.001" unicode="&#xe00b;" horiz-adv-x="589" 
d="M218 0h-221v62c32 1 61 -3 73 29c80 212 169 466 169 466h104l176 -473c7 -21 26 -22 47 -22h27v-62h-261v62h54c15 0 21 13 21 25c0 2 1 3 -30 86h-202c-28 -78 -30 -85 -30 -88c0 -22 20 -23 49 -23h24v-62zM270 439c-32 -88 -55 -154 -72 -203h155l-75 203l-3 30
c-2 0 -3 -20 -5 -30zM135 745h142c68 -115 82 -139 85 -143h-73z" />
    <glyph glyph-name="agrave.002" unicode="&#xe00c;" horiz-adv-x="590" 
d="M41 121c0 152 190 193 323 211v38c0 74 -34 99 -108 99c-37 0 -64 -2 -88 -19c21 -11 31 -27 31 -49c0 -38 -29 -61 -63 -61c-46 0 -69 30 -69 73c0 99 126 123 201 123c87 0 200 -29 200 -135v-321c0 -17 5 -29 26 -29c22 0 27 12 27 29v112h56v-123
c0 -63 -52 -86 -97 -86c-85 0 -105 30 -112 96c-26 -67 -108 -96 -175 -96c-85 0 -152 46 -152 138zM151 140c0 -42 27 -76 69 -76c80 0 144 57 144 138v69c-30 0 -213 -32 -213 -131zM138 745h142c68 -115 81 -139 84 -143h-73z" />
    <glyph glyph-name="amacron" unicode="&#x101;" horiz-adv-x="567" 
d="M546 63v-62c-32 -12 -58 -16 -86 -16c-65 0 -87 38 -91 94c-27 -67 -109 -96 -175 -96c-86 0 -153 46 -153 138c0 96 71 143 155 172c56 19 108 31 168 39v47c0 70 -55 94 -110 94c-34 0 -68 -9 -86 -23c21 -11 31 -27 31 -49c0 -38 -28 -61 -62 -61c-46 0 -69 30 -69 73
c0 99 126 123 200 123c88 0 201 -29 201 -135v-309c0 -29 5 -42 31 -42c15 0 31 7 46 13zM151 140c0 -42 27 -76 69 -76c80 0 144 57 144 138v69c-29 0 -213 -32 -213 -131zM155 670h250v-69h-250v69z" />
    <glyph glyph-name="amacron.001" unicode="&#xe00d;" horiz-adv-x="589" 
d="M218 0h-221v62c32 1 61 -3 73 29c80 212 169 466 169 466h104l176 -473c8 -21 26 -22 47 -22h27v-62h-261v62h54c15 0 21 13 21 25c0 2 1 3 -30 86h-202c-28 -78 -30 -85 -30 -88c0 -22 20 -23 49 -23h24v-62zM270 439c-32 -88 -55 -154 -72 -203h155
c-18 49 -41 115 -75 203l-3 30c-2 0 -3 -20 -5 -30zM169 690h250v-69h-250v69z" />
    <glyph glyph-name="amacron.002" unicode="&#xe00e;" horiz-adv-x="590" 
d="M41 121c0 152 190 193 323 211v38c0 74 -34 99 -108 99c-37 0 -64 -2 -88 -19c21 -11 31 -27 31 -49c0 -38 -29 -61 -63 -61c-46 0 -69 30 -69 73c0 99 126 123 201 123c87 0 200 -29 200 -135v-321c0 -17 5 -29 26 -29c22 0 27 12 27 29v112h56v-123
c0 -63 -52 -86 -97 -86c-85 0 -105 30 -112 96c-26 -67 -108 -96 -175 -96c-85 0 -152 46 -152 138zM151 140c0 -42 27 -76 69 -76c80 0 144 57 144 138v69c-30 0 -213 -32 -213 -131zM142 670h250v-69h-250v69z" />
    <glyph glyph-name="ampersand" unicode="&#x26;" horiz-adv-x="801" 
d="M696 236h63l1 -41c0 -121 -32 -195 -125 -208c-10 -1 -20 -2 -31 -2c-31 0 -77 32 -128 83c-68 -58 -142 -83 -209 -83c-119 0 -221 76 -221 201c0 123 88 184 178 234c-28 56 -45 107 -45 145c0 90 69 144 157 144c79 0 140 -46 140 -129c0 -81 -62 -125 -130 -163
c41 -74 97 -158 153 -221c45 66 72 147 72 211c0 31 -14 33 -66 33v57h242v-57h-27c-30 0 -62 -3 -67 -25c-23 -114 -61 -202 -107 -269c35 -33 67 -54 92 -54c45 0 58 36 58 144zM305 69c44 0 86 19 123 49c-63 71 -127 161 -175 245c-53 -34 -95 -76 -95 -144
c0 -84 63 -150 147 -150zM278 578c0 -20 15 -60 38 -107c48 29 84 62 84 109c0 35 -22 67 -60 67c-42 0 -62 -32 -62 -69z" />
    <glyph glyph-name="aogonek" unicode="&#x105;" horiz-adv-x="579" 
d="M546 63v-62c-32 -12 -57 -16 -85 -16c-35 -30 -37 -45 -37 -67c0 -18 6 -46 59 -46c14 0 41 2 60 7l15 -57c-21 -7 -57 -10 -83 -10c-74 0 -146 29 -146 90c0 39 26 72 68 103c-18 16 -26 42 -28 74c-27 -67 -109 -96 -175 -96c-86 0 -153 46 -153 138
c0 96 71 143 155 172c56 19 108 31 168 39v47c0 70 -55 94 -110 94c-34 0 -68 -9 -86 -23c21 -11 31 -27 31 -49c0 -38 -28 -61 -62 -61c-46 0 -69 30 -69 73c0 99 126 123 200 123c88 0 201 -29 201 -135v-309c0 -29 5 -42 31 -42c15 0 31 7 46 13zM151 140
c0 -42 27 -76 69 -76c80 0 144 57 144 138v69c-29 0 -213 -32 -213 -131z" />
    <glyph glyph-name="aogonek.001" unicode="&#xe00f;" horiz-adv-x="589" 
d="M218 0h-221v62c32 1 61 -3 73 29c80 212 169 466 169 466h104l176 -473c8 -21 26 -22 47 -22h27v-62h-78c-53 -40 -56 -56 -56 -82c0 -18 6 -46 59 -46c14 0 41 2 60 7c15 -54 15 -57 15 -57c-21 -7 -57 -10 -83 -10c-74 0 -146 29 -146 90c0 36 23 68 61 98h-93v62h54
c15 0 21 13 21 25c0 2 1 3 -30 86h-202c-28 -78 -30 -85 -30 -88c0 -22 20 -23 49 -23h24v-62zM270 439c-32 -88 -55 -154 -72 -203h155c-18 49 -41 115 -75 203l-3 30c-2 0 -3 -20 -5 -30z" />
    <glyph glyph-name="aogonek.002" unicode="&#xe010;" horiz-adv-x="590" 
d="M41 121c0 152 190 193 323 211v38c0 74 -34 99 -108 99c-37 0 -64 -2 -88 -19c21 -11 31 -27 31 -49c0 -38 -29 -61 -63 -61c-46 0 -69 30 -69 73c0 99 126 123 201 123c87 0 200 -29 200 -135v-321c0 -17 5 -29 26 -29c22 0 27 12 27 29v112h56v-123
c0 -35 -17 -56 -38 -70c-50 -32 -54 -56 -54 -81c0 -18 6 -46 59 -46c14 0 41 2 60 7c15 -54 15 -57 15 -57c-21 -7 -57 -10 -83 -10c-74 0 -146 29 -146 90c0 31 16 59 45 85c-48 10 -62 39 -67 92c-26 -67 -108 -96 -175 -96c-85 0 -152 46 -152 138zM151 140
c0 -42 27 -76 69 -76c80 0 144 57 144 138v69c-30 0 -213 -32 -213 -131z" />
    <glyph glyph-name="apple" unicode="&#xf8ff;" horiz-adv-x="875" 
d="M731 121l-71 14l71 93l-104 -40l-12 77l-110 -103l63 196l-63 -30l-59 107l-66 -107l-50 30l37 -196l-103 103l-10 -77l-103 40l66 -93l-77 -14l173 -127l-49 -58l165 32v-168h-409l-1 698h835v-698h-395v168l156 -32l-45 58zM438 662v-99c-3 -24 -15 -33 -31 -33h-40
v170h40c16 0 28 -12 31 -38zM271 530h-30l-27 109l-5 13l3 -14v-108h-23v170h28l28 -117l5 -14l-2 15v116h23v-170zM178 530h-20l-7 35h-24l-3 -35h-23l23 170h34zM357 530h-21l-5 35h-24l-4 -35h-23l23 170h33zM523 530h-23l-5 35h-24l-3 -35h-22l22 170h32zM781 662v-27
c0 -24 -14 -34 -31 -34h-18v-71h-20v170h38c17 0 31 -12 31 -38zM96 585v-23c0 -26 -15 -33 -36 -33c-20 0 -33 7 -36 33v103c3 26 16 36 36 36c21 0 36 -10 36 -36v-27h-24v24c-2 13 -5 17 -12 17c-6 0 -11 -4 -13 -17v-99c2 -9 7 -16 13 -16c7 0 10 7 12 16v22h24z
M703 700l-27 -113v-57h-27v57l-25 113h24l14 -75l16 75h25zM847 530h-54v170h54v-25h-32v-49h30v-24h-30v-51h32v-21zM623 675h-22v-145h-23v145h-19v25h64v-25zM414 567v94c0 12 -4 14 -12 14h-12v-126h12c8 0 12 8 12 18zM757 637v25c0 12 -3 16 -12 16h-13v-58h13
c9 0 12 6 12 17zM150 589l-8 75c0 5 0 9 -2 11v-11l-10 -75h20zM330 589l-10 75c0 5 0 9 -2 11v-11l-7 -75h19zM493 589l-9 75c0 5 0 9 -1 11v-11l-10 -75h20z" />
    <glyph glyph-name="aring" unicode="&#xe5;" horiz-adv-x="567" 
d="M546 63v-62c-32 -12 -58 -16 -86 -16c-65 0 -87 38 -91 94c-27 -67 -109 -96 -175 -96c-86 0 -153 46 -153 138c0 96 71 143 155 172c56 19 108 31 168 39v47c0 70 -55 94 -110 94c-34 0 -68 -9 -86 -23c21 -11 31 -27 31 -49c0 -38 -28 -61 -62 -61c-46 0 -69 30 -69 73
c0 99 126 123 200 123c88 0 201 -29 201 -135v-309c0 -29 5 -42 31 -42c15 0 31 7 46 13zM151 140c0 -42 27 -76 69 -76c80 0 144 57 144 138v69c-29 0 -213 -32 -213 -131zM147 653c0 65 67 92 125 92c56 0 119 -23 119 -90c0 -69 -58 -96 -121 -96c-59 0 -123 27 -123 94z
M222 651c0 -27 21 -46 48 -46c30 0 46 22 46 48c0 28 -19 46 -46 46s-48 -21 -48 -48z" />
    <glyph glyph-name="aring.001" unicode="&#xe011;" horiz-adv-x="589" 
d="M218 0h-221v62c32 1 61 -3 73 29c80 212 169 466 169 466h104l176 -473c7 -21 26 -22 47 -22h27v-62h-261v62h54c15 0 21 13 21 25c0 2 1 3 -30 86h-202c-28 -78 -30 -85 -30 -88c0 -22 20 -23 49 -23h24v-62zM173 681c0 64 67 92 125 92c56 0 119 -23 119 -90
c0 -69 -58 -96 -121 -96c-59 0 -123 27 -123 94zM270 439c-32 -88 -55 -154 -72 -203h155l-75 203l-3 30c-2 0 -3 -20 -5 -30zM248 679c0 -28 21 -46 48 -46c30 0 46 21 46 48s-19 46 -46 46s-48 -21 -48 -48z" />
    <glyph glyph-name="aring.002" unicode="&#xe012;" horiz-adv-x="590" 
d="M41 121c0 152 190 193 323 211v38c0 74 -34 99 -108 99c-37 0 -64 -2 -88 -19c21 -11 31 -27 31 -49c0 -38 -29 -61 -63 -61c-46 0 -69 30 -69 73c0 99 126 123 201 123c87 0 200 -29 200 -135v-321c0 -17 5 -29 26 -29c22 0 27 12 27 29v112h56v-123
c0 -63 -52 -86 -97 -86c-85 0 -105 30 -112 96c-26 -67 -108 -96 -175 -96c-85 0 -152 46 -152 138zM151 140c0 -42 27 -76 69 -76c80 0 144 57 144 138v69c-30 0 -213 -32 -213 -131zM153 665c0 65 68 92 125 92s119 -23 119 -90c0 -69 -58 -96 -120 -96
c-59 0 -124 27 -124 94zM229 663c0 -27 20 -46 48 -46c29 0 46 22 46 48c0 28 -20 46 -46 46c-28 0 -48 -21 -48 -48z" />
    <glyph glyph-name="asciicircum" unicode="^" horiz-adv-x="415" 
d="M156 693h120l132 -241h-92l-104 176l-107 -174h-99z" />
    <glyph glyph-name="asciitilde" unicode="~" horiz-adv-x="497" 
d="M60 467c0 61 25 124 95 124c66 0 154 -46 209 -46c16 0 21 35 21 54h65l-1 -21c-1 -56 -24 -119 -93 -119c-54 0 -165 48 -192 48c-32 0 -37 -28 -37 -54h-65c-2 1 -2 10 -2 14z" />
    <glyph glyph-name="asterisk" unicode="*" horiz-adv-x="471" 
d="M102 415c0 46 89 76 89 102c0 21 -141 -12 -141 61c0 25 18 48 46 48c47 0 77 -57 110 -57c4 0 5 4 5 10c0 23 -23 82 -23 105c0 25 25 44 49 44c28 0 46 -21 46 -48c0 -21 -19 -65 -19 -98c0 -8 1 -16 7 -16c8 0 77 61 106 61c25 0 44 -24 44 -49c0 -36 -29 -46 -58 -46
c-66 0 -86 -5 -86 -16c0 -19 92 -51 92 -101c0 -25 -23 -48 -48 -48c-61 0 -61 119 -87 119c-18 0 -19 -119 -82 -119c-30 0 -50 18 -50 48z" />
    <glyph glyph-name="at" unicode="@" horiz-adv-x="1109" 
d="M551 501c81 0 186 -27 186 -126v-289c0 -29 12 -35 27 -35c133 0 180 111 180 264c0 185 -146 295 -367 295c-226 0 -423 -150 -423 -397c0 -220 165 -359 395 -359c164 0 263 41 368 130l33 -48c-123 -96 -234 -139 -401 -139c-270 0 -461 158 -461 418
c0 270 212 453 489 453c240 0 431 -127 431 -352c0 -199 -95 -329 -279 -329c-60 0 -80 36 -86 88c-24 -64 -101 -90 -163 -90c-80 0 -141 44 -141 130c0 87 66 132 143 159c53 19 101 28 157 37v44c0 65 -51 87 -102 87c-31 0 -63 -10 -80 -22c20 -10 29 -25 29 -45
c0 -36 -27 -57 -59 -57c-43 0 -63 27 -63 68c0 91 116 115 187 115zM441 132c0 -40 25 -72 65 -72c75 0 133 54 133 130v63c-27 0 -198 -29 -198 -121z" />
    <glyph glyph-name="atilde" unicode="&#xe3;" horiz-adv-x="567" 
d="M546 63v-62c-32 -12 -58 -16 -86 -16c-65 0 -87 38 -91 94c-27 -67 -109 -96 -175 -96c-86 0 -153 46 -153 138c0 96 71 143 155 172c56 19 108 31 168 39v47c0 70 -55 94 -110 94c-34 0 -68 -9 -86 -23c21 -11 31 -27 31 -49c0 -38 -28 -61 -62 -61c-46 0 -69 30 -69 73
c0 99 126 123 200 123c88 0 201 -29 201 -135v-309c0 -29 5 -42 31 -42c15 0 31 7 46 13zM151 140c0 -42 27 -76 69 -76c80 0 144 57 144 138v69c-29 0 -213 -32 -213 -131zM72 614c0 60 25 123 96 123c65 0 154 -46 209 -46c15 0 21 35 21 54h64l-1 -21
c0 -56 -23 -119 -92 -119c-55 0 -165 48 -193 48c-31 0 -37 -27 -37 -54h-65c-2 2 -2 10 -2 15z" />
    <glyph glyph-name="atilde.001" unicode="&#xe013;" horiz-adv-x="589" 
d="M218 0h-221v62c32 1 61 -3 73 29c80 212 169 466 169 466h104l176 -473c7 -21 26 -22 47 -22h27v-62h-261v62h54c15 0 21 13 21 25c0 2 1 3 -30 86h-202c-28 -78 -30 -85 -30 -88c0 -22 20 -23 49 -23h24v-62zM99 614c0 60 25 123 96 123c65 0 154 -46 209 -46
c16 0 21 35 21 54h64v-21c-1 -56 -24 -119 -93 -119c-55 0 -165 48 -193 48c-31 0 -36 -27 -36 -54h-66c-2 2 -2 10 -2 15zM270 439c-32 -88 -55 -154 -72 -203h155l-75 203l-3 30c-2 0 -3 -20 -5 -30z" />
    <glyph glyph-name="atilde.002" unicode="&#xe014;" horiz-adv-x="590" 
d="M41 121c0 152 190 193 323 211v38c0 74 -34 99 -108 99c-37 0 -64 -2 -88 -19c21 -11 31 -27 31 -49c0 -38 -29 -61 -63 -61c-46 0 -69 30 -69 73c0 99 126 123 201 123c87 0 200 -29 200 -135v-321c0 -17 5 -29 26 -29c22 0 27 12 27 29v112h56v-123
c0 -63 -52 -86 -97 -86c-85 0 -105 30 -112 96c-26 -67 -108 -96 -175 -96c-85 0 -152 46 -152 138zM151 140c0 -42 27 -76 69 -76c80 0 144 57 144 138v69c-30 0 -213 -32 -213 -131zM69 614c0 60 25 123 96 123c65 0 154 -46 209 -46c16 0 21 35 21 54h65l-1 -21
c-1 -56 -24 -119 -93 -119c-55 0 -165 48 -193 48c-31 0 -36 -27 -36 -54h-66c-2 2 -2 10 -2 15z" />
    <glyph glyph-name="b" unicode="b" horiz-adv-x="612" 
d="M176 69l-35 -69h-57v638c0 13 -3 48 -43 48h-50v56l196 20v-320c31 62 98 92 167 92c150 0 223 -125 223 -264c0 -148 -78 -284 -240 -284c-65 0 -126 26 -161 83zM325 464c-119 0 -142 -115 -142 -212c0 -93 27 -197 137 -197c117 0 138 115 138 213
c0 92 -25 196 -133 196z" />
    <glyph glyph-name="b.001" unicode="&#xe015;" horiz-adv-x="610" 
d="M99 490h-60v62h353c91 0 153 -47 153 -135c0 -81 -56 -112 -129 -128c83 -7 154 -49 154 -135c0 -84 -65 -154 -149 -154h-382v62h60c17 0 29 13 29 29v370c0 16 -12 29 -29 29zM234 257v-196h63c85 0 163 2 163 95c0 48 -36 101 -91 101h-135zM234 489v-171h114
c54 0 89 45 89 91c0 40 -28 80 -74 80h-129z" />
    <glyph glyph-name="backslash" unicode="\" horiz-adv-x="304" 
d="M22 713h74l192 -736h-71z" />
    <glyph glyph-name="bar" unicode="|" horiz-adv-x="284" 
d="M194 745v-1007h-104v1007h104z" />
    <glyph glyph-name="braceleft" unicode="{" horiz-adv-x="345" 
d="M300 -242h-23c-82 0 -161 21 -161 121v298c0 63 -4 83 -53 83h-20v67h20c48 0 53 18 53 74v237c0 100 79 121 161 121h23v-66h-21c-51 0 -63 -12 -63 -74v-165c0 -89 -13 -147 -81 -161c67 -17 81 -59 81 -175v-216c0 -61 12 -74 63 -74h21v-70z" />
    <glyph glyph-name="braceright" unicode="}" horiz-adv-x="345" 
d="M68 -242h-23v70h21c51 0 63 13 63 74v216c0 116 14 158 81 175c-68 14 -81 72 -81 161v165c0 62 -12 74 -63 74h-21v66h23c82 0 161 -21 161 -121v-237c0 -56 5 -74 53 -74h20v-67h-20c-49 0 -53 -20 -53 -83v-298c0 -100 -79 -121 -161 -121z" />
    <glyph glyph-name="bracketleft" unicode="[" horiz-adv-x="297" 
d="M65 759h202v-66h-98v-864h98v-71h-202v1001z" />
    <glyph glyph-name="bracketright" unicode="]" horiz-adv-x="298" 
d="M30 759h203v-1001h-203v71h99v864h-99v66z" />
    <glyph glyph-name="breve" unicode="&#x2d8;" horiz-adv-x="344" 
d="M177 559c-78 0 -142 26 -144 101h76c0 -27 20 -45 68 -45s65 20 66 45h74c-3 -75 -60 -101 -140 -101z" />
    <glyph glyph-name="brokenbar" unicode="&#xa6;" horiz-adv-x="304" 
d="M204 -262h-104v388h104v-388zM204 745v-386h-104v386h104z" />
    <glyph glyph-name="bullet" unicode="&#x2022;" horiz-adv-x="402" 
d="M65 387c0 74 62 136 136 136c73 0 136 -61 136 -136c0 -72 -59 -134 -136 -134c-76 0 -136 60 -136 134z" />
    <glyph glyph-name="c" unicode="c" horiz-adv-x="525" 
d="M29 255c0 162 107 278 274 278c81 0 185 -42 185 -138c0 -44 -33 -77 -77 -77c-38 0 -69 25 -69 64c0 27 13 49 38 63c-17 21 -59 21 -84 21c-112 0 -143 -107 -143 -203s33 -197 146 -197c81 0 135 47 135 122h71c0 -124 -91 -201 -225 -201c-159 0 -251 115 -251 268z
" />
    <glyph glyph-name="c.001" unicode="&#xe016;" horiz-adv-x="584" 
d="M35 266c0 155 96 299 263 299c60 0 123 -26 169 -66l25 51h53v-210h-65c-28 123 -100 155 -175 155c-120 0 -152 -116 -152 -229c0 -114 38 -217 159 -217c113 0 171 75 171 182h70c0 -141 -69 -254 -254 -254c-177 0 -264 122 -264 289z" />
    <glyph glyph-name="cacute" unicode="&#x107;" horiz-adv-x="525" 
d="M29 255c0 162 107 281 274 281c81 0 185 -42 185 -138c0 -44 -33 -77 -77 -77c-38 0 -69 25 -69 64c0 27 13 49 38 63c-17 21 -59 21 -84 21c-112 0 -143 -110 -143 -206s33 -199 146 -199c81 0 135 47 135 122h71c0 -124 -91 -201 -225 -201c-159 0 -251 117 -251 270z
M313 745h141l-153 -143h-73c3 4 17 28 85 143z" />
    <glyph glyph-name="cacute.001" unicode="&#xe017;" horiz-adv-x="584" 
d="M35 266c0 155 96 299 263 299c60 0 123 -26 169 -66l25 51h53v-210h-65c-28 123 -100 155 -175 155c-120 0 -152 -116 -152 -229c0 -114 38 -217 159 -217c113 0 171 75 171 182h70c0 -141 -69 -254 -254 -254c-177 0 -264 122 -264 289zM339 745h141l-153 -143h-73
c3 4 17 28 85 143z" />
    <glyph glyph-name="caron" unicode="&#x2c7;" horiz-adv-x="415" 
d="M273 597h-119l-109 148h94l84 -84l77 84h77z" />
    <glyph glyph-name="ccaron" unicode="&#x10d;" horiz-adv-x="525" 
d="M29 255c0 162 107 281 274 281c81 0 185 -42 185 -138c0 -44 -33 -77 -77 -77c-38 0 -69 25 -69 64c0 27 13 49 38 63c-17 21 -59 21 -84 21c-112 0 -143 -110 -143 -206s33 -199 146 -199c81 0 135 47 135 122h71c0 -124 -91 -201 -225 -201c-159 0 -251 117 -251 270z
M325 597h-119l-109 148h94l84 -84l77 84h77z" />
    <glyph glyph-name="ccaron.001" unicode="&#xe018;" horiz-adv-x="584" 
d="M35 266c0 155 96 299 263 299c60 0 123 -26 169 -66l25 51h53v-210h-65c-28 123 -100 155 -175 155c-120 0 -152 -116 -152 -229c0 -114 38 -217 159 -217c113 0 171 75 171 182h70c0 -141 -69 -254 -254 -254c-177 0 -264 122 -264 289zM354 607h-119l-109 148h94
l84 -84l77 84h77z" />
    <glyph glyph-name="ccedilla" unicode="&#xe7;" horiz-adv-x="525" 
d="M29 255c0 162 107 281 274 281c81 0 185 -42 185 -138c0 -44 -33 -77 -77 -77c-38 0 -69 25 -69 64c0 27 13 49 38 63c-17 21 -59 21 -84 21c-112 0 -143 -110 -143 -206s33 -199 146 -199c81 0 135 47 135 122h71c0 -114 -77 -188 -194 -199l-12 -39
c56 -1 106 -10 106 -79c-1 -81 -82 -110 -157 -110c-25 0 -51 4 -72 10c0 0 0 3 14 57c20 -4 36 -6 50 -6c53 0 69 27 69 46c0 26 -24 35 -47 36h-49l27 86c-134 18 -211 127 -211 267z" />
    <glyph glyph-name="ccedilla.001" unicode="&#xe019;" horiz-adv-x="584" 
d="M35 266c0 155 96 299 263 299c60 0 123 -26 167 -66h2l25 51h53v-210h-65c-28 123 -100 155 -175 155c-120 0 -152 -116 -152 -229c0 -114 38 -217 159 -217c113 0 171 75 171 182h70c0 -138 -66 -249 -243 -254l-10 -35c49 -2 92 -9 92 -70c0 -72 -71 -97 -138 -97
c-23 0 -45 2 -64 9c0 0 0 2 14 49c16 -3 31 -5 43 -5c48 0 62 25 62 40c0 24 -21 32 -43 34h-42l24 79c-143 21 -213 135 -213 285z" />
    <glyph glyph-name="ccircumflex" unicode="&#x109;" horiz-adv-x="525" 
d="M29 255c0 162 107 281 274 281c81 0 185 -42 185 -138c0 -44 -33 -77 -77 -77c-38 0 -69 25 -69 64c0 27 13 49 38 63c-17 21 -59 21 -84 21c-112 0 -143 -110 -143 -206s33 -199 146 -199c81 0 135 47 135 122h71c0 -124 -91 -201 -225 -201c-159 0 -251 117 -251 270z
M211 745h120l108 -148h-94l-83 84l-78 -84h-77z" />
    <glyph glyph-name="ccircumflex.001" unicode="&#xe01a;" horiz-adv-x="584" 
d="M35 266c0 155 96 299 263 299c60 0 123 -26 169 -66l25 51h53v-210h-65c-28 123 -100 155 -175 155c-120 0 -152 -116 -152 -229c0 -114 38 -217 159 -217c113 0 171 75 171 182h70c0 -141 -69 -254 -254 -254c-177 0 -264 122 -264 289zM235 758h120l108 -148h-94
l-83 84l-78 -84h-77z" />
    <glyph glyph-name="cdotaccent" unicode="&#x10b;" horiz-adv-x="525" 
d="M29 255c0 162 107 281 274 281c81 0 185 -42 185 -138c0 -44 -33 -77 -77 -77c-38 0 -69 25 -69 64c0 27 13 49 38 63c-17 21 -59 21 -84 21c-112 0 -143 -110 -143 -206s33 -199 146 -199c81 0 135 47 135 122h71c0 -124 -91 -201 -225 -201c-159 0 -251 117 -251 270z
M210 643c0 35 27 60 62 60c38 0 63 -26 63 -60c0 -37 -29 -65 -64 -65c-36 0 -61 30 -61 65z" />
    <glyph glyph-name="cdotaccent.001" unicode="&#xe01b;" horiz-adv-x="584" 
d="M35 266c0 155 96 299 263 299c60 0 123 -26 169 -66l25 51h53v-210h-65c-28 123 -100 155 -175 155c-120 0 -152 -116 -152 -229c0 -114 38 -217 159 -217c113 0 171 75 171 182h70c0 -141 -69 -254 -254 -254c-177 0 -264 122 -264 289zM229 674c0 35 27 60 62 60
c38 0 63 -26 63 -60c0 -37 -29 -65 -64 -65c-36 0 -61 30 -61 65z" />
    <glyph glyph-name="cedilla" unicode="&#xb8;" horiz-adv-x="315" 
d="M188 17l-21 -65c57 -2 106 -10 106 -79c-1 -81 -82 -110 -156 -110c-26 0 -52 3 -73 10c0 0 0 3 15 57c19 -5 36 -7 50 -7c53 0 69 28 69 46c0 27 -24 35 -47 37h-49l35 111h71z" />
    <glyph glyph-name="cent" unicode="&#xa2;" horiz-adv-x="552" 
d="M343 0h-79v73c-141 13 -222 125 -222 268c0 145 85 255 222 277v75h79v-72c76 -8 158 -52 158 -136c0 -44 -33 -77 -77 -77c-38 0 -69 24 -69 64c0 27 13 49 38 63c-17 21 -59 21 -84 21c-112 0 -143 -111 -143 -206c0 -97 33 -199 146 -199c81 0 135 47 135 121h71
c0 -108 -69 -179 -175 -197v-75z" />
    <glyph glyph-name="circumflex" unicode="&#x2c6;" horiz-adv-x="415" 
d="M148 745h120l108 -148h-94l-83 84l-78 -84h-77z" />
    <glyph glyph-name="colon" unicode=":" horiz-adv-x="281" 
d="M70 430c0 38 33 70 71 70s70 -32 70 -70s-32 -70 -70 -70s-71 32 -71 70zM70 58c0 39 33 71 71 71s70 -32 70 -71c0 -38 -32 -70 -70 -70s-71 32 -71 70z" />
    <glyph glyph-name="comma" unicode="," horiz-adv-x="253" 
d="M127 130c42 0 73 -33 73 -101c0 -82 -53 -161 -142 -161v46c40 0 78 39 78 85c-8 -3 -16 -4 -23 -4c-33 0 -57 31 -57 66c0 39 32 69 71 69z" />
    <glyph glyph-name="commaaccent" unicode="&#xf6c3;" horiz-adv-x="249" 
d="M123 -30c42 0 73 -33 73 -101c0 -82 -53 -161 -142 -161v46c40 0 78 39 78 85c-8 -3 -16 -4 -23 -4c-33 0 -57 31 -57 66c0 39 32 69 71 69z" />
    <glyph glyph-name="copyright" unicode="&#xa9;" horiz-adv-x="957" 
d="M889 348c0 -227 -185 -411 -410 -411c-228 0 -412 184 -412 411c0 225 184 410 412 410c225 0 410 -185 410 -410zM829 347c0 193 -157 350 -350 350c-195 0 -352 -157 -352 -350c0 -194 157 -352 352 -352c193 0 350 158 350 352zM227 336c0 141 88 270 239 270
c54 0 105 -22 146 -59h1l23 46h42v-190h-48c-20 114 -90 148 -157 148c-121 0 -150 -112 -150 -215s34 -207 156 -207c102 0 154 79 154 176h52c0 -128 -61 -230 -218 -230c-161 0 -240 110 -240 261z" />
    <glyph glyph-name="ct" unicode="&#xe01c;" horiz-adv-x="886" 
d="M29 255c0 162 107 281 274 281c19 0 39 -2 59 -7c-25 37 -30 73 -30 109c0 111 83 200 192 200c134 0 213 -73 213 -201v-122h114v-57h-114v-355c0 -37 11 -46 50 -46c23 0 44 3 77 10v-61c-52 -13 -76 -16 -126 -16c-49 0 -77 9 -91 32c-10 16 -14 36 -14 86v350h-88v56
c81 1 123 41 123 136c0 93 -46 139 -135 139c-87 0 -138 -58 -138 -148c0 -141 93 -121 93 -243c0 -44 -33 -77 -77 -77c-38 0 -69 25 -69 64c0 27 13 49 38 63c-17 21 -59 21 -84 21c-112 0 -143 -110 -143 -206s33 -199 146 -199c81 0 135 47 135 122h71
c0 -124 -91 -201 -225 -201c-159 0 -251 117 -251 270z" />
    <glyph glyph-name="currency" unicode="&#xa4;" horiz-adv-x="753" 
d="M29 430h61c34 195 182 289 323 289c168 0 282 -81 282 -211c0 -45 -40 -71 -76 -71c-38 0 -67 27 -67 64c0 32 17 48 48 63c-46 80 -127 81 -182 81c-98 0 -172 -80 -194 -215h278v-60h-285v-28c0 -14 0 -26 1 -39h284v-60h-277c21 -105 80 -191 209 -191
c143 0 216 111 216 246h72c0 -178 -85 -321 -304 -321c-187 0 -295 108 -325 266h-64v60h56c-1 13 -1 25 -1 39c0 9 0 19 1 28h-56v60z" />
    <glyph glyph-name="d" unicode="d" horiz-adv-x="618" 
d="M525 762v-663c0 -28 11 -38 31 -38h51v-61h-178v55l11 54c-39 -68 -95 -121 -172 -121c-160 0 -236 115 -236 261c0 149 73 284 227 284c73 0 128 -15 161 -80v209c0 21 -13 26 -24 26h-66v57zM151 249c0 -94 23 -193 138 -193c68 0 135 88 135 168v89
c0 83 -44 151 -148 151c-109 0 -125 -127 -125 -215z" />
    <glyph glyph-name="d.001" unicode="&#xe01d;" horiz-adv-x="670" 
d="M99 490h-60v62h355c139 0 241 -127 241 -261c0 -164 -96 -291 -254 -291h-342v62h60c17 0 29 13 29 29v370c0 16 -12 29 -29 29zM234 490v-428h103c151 0 180 105 180 235c0 101 -59 193 -158 193h-125z" />
    <glyph glyph-name="dagger" unicode="&#x2020;" horiz-adv-x="634" 
d="M451 354h-77v-513c0 -28 15 -33 39 -36h71v-67h-336v67h76c20 0 35 17 35 37v512h-76c-58 0 -64 -48 -64 -95v-38h-59v331h58c0 -17 1 -40 1 -67c0 -31 22 -60 60 -60h80v164c0 20 -15 37 -35 37h-76v67h336v-67h-71c-24 -3 -39 -9 -39 -36v-165h81c38 0 60 29 60 60
c0 27 1 50 1 67h58v-331h-59v38c0 47 -7 95 -64 95z" />
    <glyph glyph-name="daggerdbl" unicode="&#x2021;" horiz-adv-x="634" 
d="M374 425h81c38 0 60 29 60 60c0 27 1 50 1 67h58v-552h-59v39c0 47 -7 94 -64 94h-77v-292c0 -28 15 -33 39 -36h71v-67h-336v67h76c20 0 35 17 35 37v291h-76c-58 0 -64 -47 -64 -94v-39h-59v552h58c0 -17 1 -40 1 -67c0 -31 22 -60 60 -60h80v164c0 20 -15 37 -35 37
h-76v67h336v-67h-71c-24 -3 -39 -9 -39 -36v-165zM451 354h-77v-150h81c38 0 60 18 60 77c0 45 -9 73 -64 73zM119 276c1 -57 24 -72 60 -72h80v150h-76c-58 0 -64 -31 -64 -78z" />
    <glyph glyph-name="dcaron" unicode="&#x10f;" horiz-adv-x="618" 
d="M525 762v-663c0 -28 11 -38 31 -38h51v-61h-178v55l11 54c-39 -68 -95 -121 -172 -121c-160 0 -236 115 -236 261c0 149 73 287 227 287c73 0 128 -15 161 -80v206c0 21 -13 26 -24 26h-66v57zM151 249c0 -94 23 -193 138 -193c68 0 135 88 135 168v92
c0 83 -44 151 -148 151c-109 0 -125 -130 -125 -218zM660 745c42 0 73 -33 73 -100c0 -83 -53 -161 -142 -161v46c40 0 78 39 78 85c-8 -3 -16 -4 -23 -4c-33 0 -57 30 -57 65c0 40 32 69 71 69z" />
    <glyph glyph-name="dcaron.001" unicode="&#xe01e;" horiz-adv-x="670" 
d="M99 490h-60v62h355c139 0 241 -127 241 -261c0 -164 -96 -291 -254 -291h-342v62h60c17 0 29 13 29 29v370c0 16 -12 29 -29 29zM234 490v-428h103c151 0 180 105 180 235c0 101 -59 193 -158 193h-125zM364 605h-119l-109 148h94l84 -84l77 84h77z" />
    <glyph glyph-name="dcroat" unicode="&#x111;" horiz-adv-x="618" 
d="M525 762v-113h59v-67h-59v-483c0 -28 11 -38 31 -38h51v-61h-178v55l11 54c-39 -68 -95 -121 -172 -121c-160 0 -236 115 -236 261c0 149 73 287 227 287c73 0 128 -15 161 -80v126h-166v67h166v13c0 21 -13 26 -24 26h-66v57zM151 249c0 -94 23 -193 138 -193
c68 0 135 88 135 168v92c0 83 -44 151 -148 151c-109 0 -125 -130 -125 -218z" />
    <glyph glyph-name="dcroat.001" unicode="&#xe01f;" horiz-adv-x="670" 
d="M58 329h70v132c0 16 -12 29 -29 29h-60v62h355c139 0 241 -127 241 -261c0 -164 -96 -291 -254 -291h-342v62h60c17 0 29 13 29 29v151h-70v87zM234 490v-161h120v-87h-120v-180h103c151 0 180 105 180 235c0 101 -59 193 -158 193h-125z" />
    <glyph glyph-name="degree" unicode="&#xb0;" horiz-adv-x="368" 
d="M50 576c0 93 73 132 138 132c61 0 130 -33 130 -129c0 -101 -63 -139 -132 -139c-65 0 -136 38 -136 136zM127 576c0 -45 27 -75 61 -75c36 0 57 34 57 79c0 44 -24 74 -57 74c-34 0 -61 -34 -61 -78z" />
    <glyph glyph-name="dieresis" unicode="&#xa8;" horiz-adv-x="451" 
d="M274 685c0 35 29 60 63 60c33 0 62 -26 62 -60c0 -35 -27 -67 -62 -67c-38 0 -63 32 -63 67zM59 685c0 35 27 60 62 60c38 0 63 -26 63 -60c0 -37 -29 -65 -64 -65c-36 0 -61 30 -61 65z" />
    <glyph glyph-name="divide" unicode="&#xf7;" horiz-adv-x="546" 
d="M61 350h425v-88h-425v88zM201 491c0 39 33 71 71 71s70 -32 70 -71c0 -37 -32 -70 -70 -70s-71 33 -71 70zM201 120c0 38 33 70 71 70s70 -32 70 -70s-32 -70 -70 -70s-71 32 -71 70z" />
    <glyph glyph-name="dollar" unicode="$" horiz-adv-x="585" 
d="M267 -75v72c-107 4 -231 55 -231 174c0 48 27 88 79 88c38 0 65 -30 65 -75c0 -28 -21 -59 -54 -62c16 -31 68 -58 141 -59v247c-107 27 -218 66 -218 202c0 126 103 196 218 206v72h70v-72c105 -10 208 -57 208 -163c0 -44 -33 -78 -75 -78c-37 0 -67 27 -67 65
c0 31 17 48 48 62c-27 34 -71 46 -114 49v-243c106 -22 216 -55 216 -199c0 -143 -96 -200 -216 -212v-74h-70zM456 188c0 67 -52 85 -119 106v-228c67 9 119 42 119 122zM151 535c0 -70 50 -93 116 -110v227c-79 -11 -116 -65 -116 -117z" />
    <glyph glyph-name="dong" unicode="&#x20ab;" horiz-adv-x="618" 
d="M525 762v-113h59v-67h-59v-483c0 -28 11 -38 31 -38h51v-61h-178v55l11 54c-39 -68 -95 -121 -172 -121c-160 0 -236 115 -236 261c0 149 73 287 227 287c73 0 128 -15 161 -80v126h-166v67h166v13c0 21 -13 26 -24 26h-66v57zM151 249c0 -94 23 -193 138 -193
c68 0 135 88 135 168v92c0 83 -44 151 -148 151c-109 0 -125 -130 -125 -218zM91 -80h479v-82h-479v82z" />
    <glyph glyph-name="dotaccent" unicode="&#x2d9;" horiz-adv-x="451" 
d="M169 643c0 35 27 60 62 60c38 0 63 -26 63 -60c0 -37 -29 -65 -64 -65c-36 0 -61 30 -61 65z" />
    <glyph glyph-name="dotbelowcomb" unicode="&#x323;" horiz-adv-x="451" 
d="M169 -140c0 35 27 60 62 60c38 0 63 -26 63 -60c0 -37 -29 -65 -64 -65c-36 0 -61 30 -61 65z" />
    <glyph glyph-name="dotlessi" unicode="&#x131;" horiz-adv-x="326" 
d="M308 0h-277v61h54c10 0 30 6 30 38v335c0 20 -14 26 -24 26h-61v57l192 17v-435c0 -28 11 -38 31 -38h55v-61z" />
    <glyph glyph-name="dotlessi.001" unicode="&#xe020;" horiz-adv-x="366" 
d="M326 490h-52c-25 -2 -40 -8 -40 -36v-356c0 -28 15 -34 40 -36h52v-62h-287v62h53c20 0 35 16 35 36v356c0 20 -15 36 -35 36h-53v62h287v-62z" />
    <glyph glyph-name="dotlessj" unicode="&#x237;" horiz-adv-x="294" 
d="M15 460v57l199 17v-661c0 -90 -75 -143 -163 -143c-67 0 -138 35 -138 110c0 39 25 74 69 74c33 0 56 -23 56 -58c0 -30 -15 -45 -40 -54c9 -10 25 -12 38 -12c46 0 69 35 69 79v565c0 20 -14 26 -24 26h-66z" />
    <glyph glyph-name="dotlessj.001" unicode="&#xe021;" horiz-adv-x="419" 
d="M184 490h-60v62h280v-62h-52c-21 0 -32 -6 -32 -28v-330c0 -96 -64 -157 -161 -157c-89 0 -159 39 -159 114c0 37 33 70 72 70c32 0 55 -17 55 -40c0 -32 -21 -46 -51 -48c13 -17 35 -22 55 -22c51 0 81 22 81 65v347c0 16 -11 29 -28 29z" />
    <glyph glyph-name="e" unicode="e" horiz-adv-x="567" 
d="M34 258c0 156 99 276 261 276c173 0 244 -124 244 -287h-384c0 -145 72 -189 157 -189c128 0 154 115 154 115h67c0 -73 -85 -188 -235 -188c-174 0 -264 116 -264 273zM291 467c-86 0 -133 -71 -133 -153h254c0 79 -29 153 -121 153z" />
    <glyph glyph-name="e.001" unicode="&#xe022;" horiz-adv-x="602" 
d="M397 489h-161v-171h62c30 0 49 22 49 47v52h57v-263h-58v27c0 38 -6 76 -51 76h-59v-194h169c83 0 90 79 93 163h59v-226h-518v62h60c17 0 29 13 29 29v369c0 22 -12 30 -29 30h-60v62h510v-204h-58c-4 62 -11 141 -94 141z" />
    <glyph glyph-name="eacute" unicode="&#xe9;" horiz-adv-x="567" 
d="M34 258c0 156 99 277 261 277c173 0 244 -125 244 -288h-384c0 -145 72 -190 157 -190c128 0 154 115 154 115h67c0 -73 -85 -188 -235 -188c-174 0 -264 117 -264 274zM291 468c-86 0 -133 -72 -133 -154h254c0 79 -29 154 -121 154zM321 745h142l-154 -143h-72z" />
    <glyph glyph-name="eacute.001" unicode="&#xe023;" horiz-adv-x="602" 
d="M397 489h-161v-171h62c30 0 49 22 49 47v52h57v-263h-58v27c0 38 -6 76 -51 76h-59v-194h169c83 0 90 79 93 163h59v-226h-518v62h60c17 0 29 13 29 29v369c0 22 -12 30 -29 30h-60v62h510v-204h-58c-4 62 -11 141 -94 141zM368 745h141l-153 -143h-73c3 4 17 28 85 143z
" />
    <glyph glyph-name="ecaron" unicode="&#x11b;" horiz-adv-x="567" 
d="M34 258c0 156 99 277 261 277c173 0 244 -125 244 -288h-384c0 -145 72 -190 157 -190c128 0 154 115 154 115h67c0 -73 -85 -188 -235 -188c-174 0 -264 117 -264 274zM291 468c-86 0 -133 -72 -133 -154h254c0 79 -29 154 -121 154zM346 597h-119l-109 148h94l84 -84
l77 84h77z" />
    <glyph glyph-name="ecaron.001" unicode="&#xe024;" horiz-adv-x="602" 
d="M397 489h-161v-171h62c30 0 49 22 49 47v52h57v-263h-58v27c0 38 -6 76 -51 76h-59v-194h169c83 0 90 79 93 163h59v-226h-518v62h60c17 0 29 13 29 29v369c0 22 -12 30 -29 30h-60v62h510v-204h-58c-4 62 -11 141 -94 141zM363 603h-119l-109 148h94l84 -84l77 84h77z
" />
    <glyph glyph-name="ecircumflex" unicode="&#xea;" horiz-adv-x="567" 
d="M34 258c0 156 99 277 261 277c173 0 244 -125 244 -288h-384c0 -145 72 -190 157 -190c128 0 154 115 154 115h67c0 -73 -85 -188 -235 -188c-174 0 -264 117 -264 274zM291 468c-86 0 -133 -72 -133 -154h254c0 79 -29 154 -121 154zM232 745h120l108 -148h-94l-83 84
l-78 -84h-77z" />
    <glyph glyph-name="ecircumflex.001" unicode="&#xe025;" horiz-adv-x="602" 
d="M397 489h-161v-171h62c30 0 49 22 49 47v52h57v-263h-58v27c0 38 -6 76 -51 76h-59v-194h169c83 0 90 79 93 163h59v-226h-518v62h60c17 0 29 13 29 29v369c0 22 -12 30 -29 30h-60v62h510v-204h-58c-4 62 -11 141 -94 141zM260 745h120l108 -148h-94l-83 84l-78 -84h-77
z" />
    <glyph glyph-name="edieresis" unicode="&#xeb;" horiz-adv-x="567" 
d="M34 258c0 156 99 277 261 277c173 0 244 -125 244 -288h-384c0 -145 72 -190 157 -190c128 0 154 115 154 115h67c0 -73 -85 -188 -235 -188c-174 0 -264 117 -264 274zM291 468c-86 0 -133 -72 -133 -154h254c0 79 -29 154 -121 154zM330 685c0 35 28 60 62 60
c33 0 63 -26 63 -60c0 -35 -28 -67 -63 -67c-38 0 -62 32 -62 67zM114 685c0 35 27 60 63 60c38 0 62 -26 62 -60c0 -37 -29 -65 -64 -65c-36 0 -61 30 -61 65z" />
    <glyph glyph-name="edieresis.001" unicode="&#xe026;" horiz-adv-x="602" 
d="M397 489h-161v-171h62c30 0 49 22 49 47v52h57v-263h-58v27c0 38 -6 76 -51 76h-59v-194h169c83 0 90 79 93 163h59v-226h-518v62h60c17 0 29 13 29 29v369c0 22 -12 30 -29 30h-60v62h510v-204h-58c-4 62 -11 141 -94 141zM368 685c0 35 28 60 62 60c33 0 63 -26 63 -60
c0 -35 -28 -67 -63 -67c-37 0 -62 32 -62 67zM152 685c0 35 27 60 63 60c38 0 63 -26 63 -60c0 -37 -30 -65 -65 -65c-36 0 -61 30 -61 65z" />
    <glyph glyph-name="edotaccent" unicode="&#x117;" horiz-adv-x="567" 
d="M34 258c0 156 99 277 261 277c173 0 244 -125 244 -288h-384c0 -145 72 -190 157 -190c128 0 154 115 154 115h67c0 -73 -85 -188 -235 -188c-174 0 -264 117 -264 274zM291 468c-86 0 -133 -72 -133 -154h254c0 79 -29 154 -121 154zM222 643c0 35 27 60 62 60
c38 0 63 -26 63 -60c0 -37 -29 -65 -64 -65c-36 0 -61 30 -61 65z" />
    <glyph glyph-name="edotaccent.001" unicode="&#xe027;" horiz-adv-x="602" 
d="M397 489h-161v-171h62c30 0 49 22 49 47v52h57v-263h-58v27c0 38 -6 76 -51 76h-59v-194h169c83 0 90 79 93 163h59v-226h-518v62h60c17 0 29 13 29 29v369c0 22 -12 30 -29 30h-60v62h510v-204h-58c-4 62 -11 141 -94 141zM258 693c0 35 27 60 62 60c38 0 63 -26 63 -60
c0 -37 -29 -65 -64 -65c-36 0 -61 30 -61 65z" />
    <glyph glyph-name="egrave" unicode="&#xe8;" horiz-adv-x="567" 
d="M34 258c0 156 99 277 261 277c173 0 244 -125 244 -288h-384c0 -145 72 -190 157 -190c128 0 154 115 154 115h67c0 -73 -85 -188 -235 -188c-174 0 -264 117 -264 274zM291 468c-86 0 -133 -72 -133 -154h254c0 79 -29 154 -121 154zM114 745h142
c68 -115 82 -139 85 -143h-73z" />
    <glyph glyph-name="egrave.001" unicode="&#xe028;" horiz-adv-x="602" 
d="M397 489h-161v-171h62c30 0 49 22 49 47v52h57v-263h-58v27c0 38 -6 76 -51 76h-59v-194h169c83 0 90 79 93 163h59v-226h-518v62h60c17 0 29 13 29 29v369c0 22 -12 30 -29 30h-60v62h510v-204h-58c-4 62 -11 141 -94 141zM164 745h141c68 -115 82 -139 85 -143h-73z
" />
    <glyph glyph-name="eight" unicode="8" horiz-adv-x="611" 
d="M55 178c0 77 44 133 110 168c-62 36 -92 94 -92 163c0 133 115 198 237 198c108 0 229 -50 229 -175c0 -78 -48 -129 -112 -167c83 -31 129 -88 129 -177c0 -145 -126 -203 -253 -203c-121 0 -248 55 -248 193zM147 188c0 -92 73 -134 156 -134c78 0 147 33 147 119
c0 44 -26 77 -69 92l-155 54c-48 -27 -79 -75 -79 -131zM178 530c0 -48 27 -82 71 -99c91 -33 109 -39 111 -39c52 25 87 75 87 133c0 84 -63 115 -137 115c-71 0 -132 -31 -132 -110z" />
    <glyph glyph-name="eight.osf" unicode="&#xe029;" horiz-adv-x="611" 
d="M55 178c0 77 44 133 110 168c-62 36 -92 94 -92 163c0 133 115 198 237 198c108 0 229 -50 229 -175c0 -78 -48 -129 -112 -167c83 -31 129 -88 129 -177c0 -145 -126 -203 -253 -203c-121 0 -248 55 -248 193zM147 188c0 -92 73 -134 156 -134c78 0 147 33 147 119
c0 44 -26 77 -69 92l-155 54c-48 -27 -79 -75 -79 -131zM178 530c0 -48 27 -82 71 -99c91 -33 109 -39 111 -39c52 25 87 75 87 133c0 84 -63 115 -137 115c-71 0 -132 -31 -132 -110z" />
    <glyph glyph-name="eight.tf" unicode="&#xe02a;" horiz-adv-x="600" 
d="M49 178c0 77 44 133 110 168c-62 36 -92 94 -92 163c0 133 115 198 237 198c108 0 229 -50 229 -175c0 -78 -48 -129 -112 -167c83 -31 129 -88 129 -177c0 -145 -126 -203 -253 -203c-121 0 -248 55 -248 193zM141 188c0 -92 73 -134 156 -134c78 0 147 33 147 119
c0 44 -26 77 -69 92l-155 54c-48 -27 -79 -75 -79 -131zM172 530c0 -48 27 -82 71 -99c91 -33 109 -39 111 -39c52 25 87 75 87 133c0 84 -63 115 -137 115c-71 0 -132 -31 -132 -110z" />
    <glyph glyph-name="eightinferior" unicode="&#x2088;" horiz-adv-x="400" 
d="M50 -72c0 44 33 80 70 100c-35 21 -58 46 -58 95c0 86 72 115 141 115c62 0 133 -25 133 -97c0 -44 -24 -71 -65 -92c47 -18 79 -56 79 -106c0 -83 -74 -127 -154 -127c-69 0 -146 33 -146 112zM113 -65c0 -49 38 -72 85 -72c32 0 76 13 76 62c0 25 -19 43 -43 53l-69 29
c-27 -15 -49 -30 -49 -72zM137 137c0 -27 20 -41 45 -51c33 -13 43 -18 44 -18c29 15 47 35 47 61c0 40 -24 62 -67 62c-40 0 -69 -19 -69 -54z" />
    <glyph glyph-name="eightsuperior" unicode="&#x2078;" horiz-adv-x="400" 
d="M50 453c0 44 33 80 70 100c-35 21 -58 46 -58 95c0 86 72 115 141 115c62 0 133 -25 133 -97c0 -44 -24 -71 -65 -92c47 -18 79 -56 79 -106c0 -83 -74 -127 -154 -127c-69 0 -146 33 -146 112zM113 460c0 -49 38 -72 85 -72c32 0 76 13 76 62c0 25 -19 43 -43 53l-69 29
c-27 -15 -49 -30 -49 -72zM137 662c0 -27 20 -41 45 -51c33 -13 43 -18 44 -18c29 15 47 35 47 61c0 40 -24 62 -67 62c-40 0 -69 -19 -69 -54z" />
    <glyph glyph-name="ellipsis" unicode="&#x2026;" horiz-adv-x="848" 
d="M70 58c0 39 33 71 71 71s70 -32 70 -68c0 -41 -32 -73 -70 -73s-71 32 -71 70zM354 58c0 39 32 71 70 71s70 -32 70 -71c0 -38 -32 -70 -70 -70s-70 32 -70 70zM637 58c0 39 32 71 71 71c37 0 70 -32 70 -71c0 -38 -33 -70 -70 -70c-39 0 -71 32 -71 70z" />
    <glyph glyph-name="emacron" unicode="&#x113;" horiz-adv-x="567" 
d="M34 258c0 156 99 277 261 277c173 0 244 -125 244 -288h-384c0 -145 72 -190 157 -190c128 0 154 115 154 115h67c0 -73 -85 -188 -235 -188c-174 0 -264 117 -264 274zM291 468c-86 0 -133 -72 -133 -154h254c0 79 -29 154 -121 154zM159 670h250v-69h-250v69z" />
    <glyph glyph-name="emacron.001" unicode="&#xe02b;" horiz-adv-x="602" 
d="M397 489h-161v-171h62c30 0 49 22 49 47v52h57v-263h-58v27c0 38 -6 76 -51 76h-59v-194h169c83 0 90 79 93 163h59v-226h-518v62h60c17 0 29 13 29 29v369c0 22 -12 30 -29 30h-60v62h510v-204h-58c-4 62 -11 141 -94 141zM176 690h250v-69h-250v69z" />
    <glyph glyph-name="emdash" unicode="&#x2014;" horiz-adv-x="895" 
d="M61 329h773v-87h-773v87z" />
    <glyph glyph-name="endash" unicode="&#x2013;" horiz-adv-x="545" 
d="M50 329h445v-87h-445v87z" />
    <glyph glyph-name="eng" unicode="&#x14b;" horiz-adv-x="610" 
d="M454 374c0 54 -46 80 -94 80c-67 0 -137 -58 -137 -129v-226c0 -28 11 -38 30 -38h55v-61h-277v58l55 3c10 0 29 6 29 38v332c0 21 -14 26 -24 26h-66v57l198 17v-60l-11 -52c41 75 102 115 183 115c80 0 165 -48 165 -136v-525c0 -90 -72 -143 -160 -143
c-67 0 -138 35 -138 110c0 39 25 74 69 74c33 0 56 -23 56 -58c0 -30 -15 -45 -40 -54c9 -10 25 -12 38 -12c46 0 69 35 69 79v505z" />
    <glyph glyph-name="eng.001" unicode="&#xe02c;" horiz-adv-x="676" 
d="M419 -181c51 0 81 22 81 65v117l-278 407l-22 47l7 -44v-321c0 -22 12 -26 31 -28h56v-62h-255v62h60c17 0 29 13 29 29v370c0 16 -12 29 -29 29h-60v62h201l261 -388l11 -27l-3 49v276c0 22 -12 26 -33 28h-56v62h256v-62h-61c-15 0 -27 -13 -27 -29v-549
c0 -106 -54 -167 -151 -167c-89 0 -149 39 -149 114c0 37 33 70 72 70c32 0 55 -17 55 -40c0 -32 -21 -46 -51 -48c13 -17 35 -22 55 -22z" />
    <glyph glyph-name="eogonek" unicode="&#x119;" horiz-adv-x="567" 
d="M34 258c0 156 99 277 261 277c173 0 244 -125 244 -288h-384c0 -145 72 -190 157 -190c128 0 154 115 154 115h67c0 -51 -42 -119 -115 -164c-61 -38 -63 -55 -63 -82c0 -18 6 -46 59 -46c14 0 41 2 60 7c15 -54 15 -57 15 -57c-21 -7 -57 -10 -83 -10
c-74 0 -146 29 -146 90c0 27 13 51 35 74c-172 2 -261 118 -261 274zM291 468c-86 0 -133 -72 -133 -154h254c0 79 -29 154 -121 154z" />
    <glyph glyph-name="eogonek.001" unicode="&#xe02d;" horiz-adv-x="602" 
d="M397 489h-161v-171h62c30 0 49 22 49 47v52h57v-263h-58v27c0 38 -6 76 -51 76h-59v-194h169c83 0 90 79 93 163h59v-226h-78c-53 -40 -56 -56 -56 -82c0 -18 6 -46 59 -46c14 0 41 2 60 7c15 -54 15 -57 15 -57c-21 -7 -57 -10 -83 -10c-74 0 -146 29 -146 90
c0 36 23 68 61 98h-350v62h60c17 0 29 13 29 29v369c0 22 -12 30 -29 30h-60v62h510v-204h-58c-4 62 -11 141 -94 141z" />
    <glyph glyph-name="equal" unicode="=" horiz-adv-x="547" 
d="M61 259h425v-87h-425v87zM61 453h425v-88h-425v88z" />
    <glyph glyph-name="eth" unicode="&#xf0;" horiz-adv-x="597" 
d="M445 773l41 -32l-39 -40c108 -96 112 -282 112 -377c0 -235 -108 -338 -271 -338c-167 0 -255 119 -255 278c0 156 107 269 265 269c51 0 122 -13 165 -103c-13 91 -38 162 -76 208l-41 -41l-39 32l41 43c-22 13 -49 21 -78 21c-36 0 -60 -4 -87 -27c7 -6 41 -16 41 -61
c0 -40 -29 -70 -69 -70c-48 0 -78 35 -78 79c0 102 113 146 198 146c53 0 95 -11 130 -30zM152 259c0 -95 21 -210 138 -210c119 0 144 118 144 217c0 92 -29 202 -140 202c-117 0 -142 -115 -142 -209z" />
    <glyph glyph-name="eth.001" unicode="&#xe02e;" horiz-adv-x="670" 
d="M58 329h70v132c0 16 -12 29 -29 29h-60v62h355c139 0 241 -127 241 -261c0 -164 -96 -291 -254 -291h-342v62h60c17 0 29 13 29 29v151h-70v87zM234 490v-161h120v-87h-120v-180h103c151 0 180 105 180 235c0 101 -59 193 -158 193h-125z" />
    <glyph glyph-name="exclam" unicode="!" horiz-adv-x="367" 
d="M153 181l-37 461c0 38 31 69 68 69c34 0 65 -29 65 -64l-34 -466h-62zM111 58c0 39 33 71 71 71s70 -32 70 -71c0 -38 -32 -70 -70 -70s-71 32 -71 70z" />
    <glyph glyph-name="exclamdown" unicode="&#xa1;" horiz-adv-x="367" 
d="M215 359l37 -461c0 -38 -32 -69 -69 -69c-34 0 -65 29 -65 64l34 466h63zM256 482c0 -39 -32 -71 -71 -71c-37 0 -70 32 -70 71c0 38 33 70 70 70c39 0 71 -32 71 -70z" />
    <glyph glyph-name="f" unicode="f" horiz-adv-x="371" 
d="M335 0h-308v61h56c10 0 30 6 30 38v358h-80v58h81v133c0 90 91 127 172 127c62 0 140 -21 140 -94c0 -43 -28 -69 -67 -69c-34 0 -58 25 -58 58c0 20 6 29 18 43c0 0 -14 6 -31 6c-38 0 -67 -29 -67 -65v-139h140v-58h-140v-358c0 -28 11 -38 31 -38h83v-61z" />
    <glyph glyph-name="f.001" unicode="&#xe02f;" horiz-adv-x="552" 
d="M99 490h-60v62h493v-204h-57c-3 62 -10 141 -93 141h-146v-171h46c31 0 49 23 49 48v51h57v-263h-58v27c0 38 -5 76 -51 76h-43v-168c0 -22 12 -26 31 -28h65v-61h-293v61h60c17 0 29 14 29 29v371c0 16 -12 29 -29 29z" />
    <glyph glyph-name="fb" unicode="&#xe030;" horiz-adv-x="971" 
d="M455 726l91 37v-321c31 62 98 92 167 92c150 0 223 -125 223 -264c0 -148 -78 -284 -240 -284c-65 0 -126 26 -161 83l-30 -69h-62v655c-30 48 -80 63 -113 63c-65 0 -109 -37 -109 -101v-102h140v-58h-140v-358c0 -28 11 -38 31 -38h56v-61h-281v58l56 3
c10 0 30 6 30 38v358h-80v58h81v78c0 109 40 181 201 181c49 0 112 -16 140 -48zM684 464c-119 0 -142 -115 -142 -212c0 -93 27 -197 137 -197c117 0 138 115 138 213c0 92 -25 196 -133 196z" />
    <glyph glyph-name="fh" unicode="&#xe031;" horiz-adv-x="989" 
d="M455 726l96 37v-292l-11 -52c41 75 102 115 183 115c80 0 161 -48 166 -136v-308c0 -13 12 -29 26 -29h58v-61h-267v61h48c15 0 28 12 28 26v287c0 54 -46 80 -94 80c-67 0 -137 -49 -137 -120v-235c0 -28 11 -38 30 -38h56v-61h-277v61h54c10 0 29 6 29 38v556
c-30 48 -80 63 -113 63c-65 0 -109 -37 -109 -101v-102h140v-58h-140v-358c0 -28 11 -38 31 -38h56v-61h-281v58l56 3c10 0 30 6 30 38v358h-80v58h81v78c0 109 40 181 201 181c49 0 112 -16 140 -48z" />
    <glyph glyph-name="fi.001" unicode="&#xe032;" horiz-adv-x="918" 
d="M99 490h-60v62h493v-204h-57c-3 62 -10 141 -93 141h-146v-171h46c31 0 49 23 49 48v51h57v-263h-58v27c0 38 -5 76 -51 76h-43v-168c0 -22 12 -26 31 -28h65v-61h-293v61h60c17 0 29 14 29 29v371c0 16 -12 29 -29 29zM878 490h-52c-25 -2 -40 -8 -40 -36v-356
c0 -28 15 -34 40 -36h52v-62h-287v62h53c20 0 35 16 35 36v356c0 20 -15 36 -35 36h-53v62h287v-62z" />
    <glyph glyph-name="five" unicode="5" horiz-adv-x="608" 
d="M64 146c0 48 27 94 79 94c40 0 69 -31 69 -71s-26 -64 -64 -65c23 -41 76 -46 119 -46c110 0 156 75 156 179c0 97 -38 171 -143 171c-57 0 -86 -18 -117 -70h-74l12 359c23 -3 101 -13 186 -13c87 0 150 4 235 23c0 -65 -114 -119 -249 -119c-33 0 -67 1 -100 4l-8 -169
c42 44 93 61 156 61c159 0 224 -115 224 -238c0 -162 -109 -261 -268 -261c-96 0 -213 48 -213 161z" />
    <glyph glyph-name="five.osf" unicode="&#xe033;" horiz-adv-x="608" 
d="M64 13c0 48 27 94 79 94c40 0 69 -32 69 -71c0 -41 -26 -65 -64 -65c23 -41 76 -46 119 -46c110 0 156 75 156 179c0 97 -38 171 -143 171c-56 0 -86 -18 -117 -71h-74l12 360c23 -4 101 -13 186 -13c87 0 150 4 235 23c0 -65 -114 -120 -249 -120c-33 0 -67 1 -100 5
l-7 -169c41 44 92 61 155 61c159 0 224 -115 224 -239c0 -162 -109 -260 -268 -260c-96 0 -213 48 -213 161z" />
    <glyph glyph-name="five.tf" unicode="&#xe034;" horiz-adv-x="600" 
d="M59 146c0 48 27 94 79 94c40 0 69 -31 69 -71s-26 -64 -64 -65c23 -41 76 -46 119 -46c110 0 156 75 156 179c0 97 -38 171 -143 171c-57 0 -86 -18 -117 -70h-74l12 359c23 -3 101 -13 186 -13c87 0 150 4 235 23c0 -65 -114 -119 -249 -119c-33 0 -67 1 -100 4l-8 -169
c42 44 93 61 156 61c159 0 224 -115 224 -238c0 -162 -109 -261 -268 -261c-96 0 -213 48 -213 161z" />
    <glyph glyph-name="fiveeighths" unicode="&#x215d;" horiz-adv-x="834" 
d="M603 707h69l-430 -722h-71zM484 102c0 44 33 80 70 100c-35 21 -58 46 -58 95c0 86 72 115 141 115c62 0 133 -25 133 -97c0 -44 -24 -71 -65 -92c47 -18 79 -56 79 -106c0 -83 -74 -127 -154 -127c-69 0 -146 33 -146 112zM547 109c0 -49 38 -72 85 -72
c32 0 76 13 76 62c0 25 -19 43 -43 53l-69 29c-27 -15 -49 -30 -49 -72zM571 311c0 -27 20 -41 45 -51c33 -13 43 -18 44 -18c29 15 47 35 47 61c0 40 -24 62 -67 62c-40 0 -69 -19 -69 -54zM50 378c0 28 16 56 47 56c23 0 45 -17 45 -40c0 -20 -10 -37 -33 -38
c16 -18 41 -26 67 -26c65 0 90 40 90 102c0 57 -17 99 -79 99c-33 0 -53 -17 -72 -48h-50l7 214c13 -2 59 -7 110 -7s97 0 147 11c0 -38 -56 -74 -156 -74c-19 0 -35 1 -55 2l-4 -101c22 38 53 50 91 50c103 0 140 -68 140 -141c0 -95 -75 -154 -169 -154
c-57 0 -126 28 -126 95z" />
    <glyph glyph-name="fiveinferior" unicode="&#x2085;" horiz-adv-x="395" 
d="M50 -88c0 28 16 56 47 56c23 0 45 -17 45 -40c0 -20 -10 -37 -33 -38c16 -18 41 -26 67 -26c65 0 90 40 90 102c0 57 -17 99 -79 99c-33 0 -53 -17 -72 -48h-50l7 214c13 -2 59 -7 110 -7s97 0 147 11c0 -38 -56 -74 -156 -74c-19 0 -35 1 -55 2l-4 -101
c22 38 53 50 91 50c103 0 140 -68 140 -141c0 -95 -75 -154 -169 -154c-57 0 -126 28 -126 95z" />
    <glyph glyph-name="fivesevenths" unicode="&#xe035;" horiz-adv-x="891" 
d="M603 707h69l-430 -722h-71zM50 378c0 28 16 56 47 56c23 0 45 -17 45 -40c0 -20 -10 -37 -33 -38c16 -18 41 -26 67 -26c65 0 90 40 90 102c0 57 -17 99 -79 99c-33 0 -53 -17 -72 -48h-50l7 214c13 -2 59 -7 110 -7s97 0 147 11c0 -38 -56 -74 -156 -74
c-19 0 -35 1 -55 2l-4 -101c22 38 53 50 91 50c103 0 140 -68 140 -141c0 -95 -75 -154 -169 -154c-57 0 -126 28 -126 95zM624 35c0 147 155 226 164 318c-19 -21 -47 -29 -76 -29c-27 0 -52 12 -88 12c-28 0 -46 -20 -46 -40c0 -3 -2 12 -2 -53h-51v158h51v-41
c14 35 32 48 66 48c36 0 102 -31 128 -31c20 0 25 8 26 26h45c0 -46 -13 -97 -39 -136c-79 -117 -91 -180 -91 -225c0 -27 -8 -64 -44 -64c-33 0 -43 29 -43 57z" />
    <glyph glyph-name="fivesixths" unicode="&#xe036;" horiz-adv-x="831" 
d="M603 707h69l-430 -722h-71zM780 322c0 -26 -17 -46 -45 -46c-25 0 -42 12 -42 37c0 22 15 29 19 33c-16 10 -27 14 -49 14c-82 0 -97 -68 -97 -144c19 32 54 43 90 43c82 0 125 -60 125 -129c0 -85 -63 -140 -147 -140c-122 0 -150 95 -150 199c0 120 44 218 175 218
c52 0 121 -23 121 -85zM704 127c0 48 -19 82 -64 82c-53 0 -73 -44 -73 -83c0 -48 19 -88 68 -88c54 0 69 42 69 89zM50 378c0 28 16 56 47 56c23 0 45 -17 45 -40c0 -20 -10 -37 -33 -38c16 -18 41 -26 67 -26c65 0 90 40 90 102c0 57 -17 99 -79 99c-33 0 -53 -17 -72 -48
h-50l7 214c13 -2 59 -7 110 -7s97 0 147 11c0 -38 -56 -74 -156 -74c-19 0 -35 1 -55 2l-4 -101c22 38 53 50 91 50c103 0 140 -68 140 -141c0 -95 -75 -154 -169 -154c-57 0 -126 28 -126 95z" />
    <glyph glyph-name="fivesuperior" unicode="&#x2075;" horiz-adv-x="395" 
d="M50 437c0 28 16 56 47 56c23 0 45 -17 45 -40c0 -20 -10 -37 -33 -38c16 -18 41 -26 67 -26c65 0 90 40 90 102c0 57 -17 99 -79 99c-33 0 -53 -17 -72 -48h-50l7 214c13 -2 59 -7 110 -7s97 0 147 11c0 -38 -56 -74 -156 -74c-19 0 -35 1 -55 2l-4 -101
c22 38 53 50 91 50c103 0 140 -68 140 -141c0 -95 -75 -154 -169 -154c-57 0 -126 28 -126 95z" />
    <glyph glyph-name="fj" unicode="&#xe037;" horiz-adv-x="631" 
d="M374 -210c46 0 69 35 69 79v562c0 21 -14 26 -24 26h-198v-358c0 -28 11 -38 31 -38h51v-61h-276v58l56 3c10 0 30 6 30 38v358h-80v58h81v133c0 90 81 127 192 127c58 0 156 -21 156 -94c0 -39 -28 -69 -67 -69c-34 0 -58 25 -58 58c0 20 8 31 18 45c0 0 -33 4 -51 4
c-38 0 -83 -29 -83 -65v-139h192l138 17v-659c0 -90 -74 -143 -162 -143c-67 0 -138 35 -138 110c0 39 25 74 69 74c33 0 56 -23 56 -58c0 -30 -15 -45 -40 -54c9 -10 25 -12 38 -12z" />
    <glyph glyph-name="fk" unicode="&#xe038;" horiz-adv-x="961" 
d="M627 0h-267v61h54c10 0 29 6 29 38v556c-30 48 -80 63 -113 63c-65 0 -109 -37 -109 -101v-102h140v-58h-140v-358c0 -28 11 -38 31 -38h56v-61h-281v58l56 3c10 0 30 6 30 38v358h-80v58h81v78c0 109 40 181 201 181c49 0 112 -16 140 -48l96 37v-490
c153 144 172 156 172 171c0 4 -5 12 -19 12h-45v59h266v-59h-48c-27 0 -39 -10 -44 -15l-125 -112l183 -242c22 -29 44 -29 79 -29v-58h-277v61h54c8 0 18 6 18 14c0 18 -43 75 -134 186l-80 -73v-89c0 -28 11 -38 30 -38h46v-61z" />
    <glyph glyph-name="fl.001" unicode="&#xe039;" horiz-adv-x="1082" 
d="M99 490h-60v62h493v-204h-57c-3 62 -10 141 -93 141h-146v-171h46c31 0 49 23 49 48v51h57v-263h-58v27c0 38 -5 76 -51 76h-43v-168c0 -22 12 -26 31 -28h65v-61h-293v61h60c17 0 29 14 29 29v371c0 16 -12 29 -29 29zM591 61h58c17 0 29 14 29 29v372
c0 15 -12 29 -29 29h-58v61h289v-61h-62c-20 -2 -32 -6 -32 -28v-400h143c83 0 90 79 93 163h56v-226h-487v61z" />
    <glyph glyph-name="florin" unicode="&#x192;" horiz-adv-x="508" 
d="M262 -171c-13 -23 -43 -32 -92 -32s-74 2 -126 16v61c33 -7 50 -10 73 -10c39 0 51 9 51 46v429h-126v58h127v231c0 90 91 127 172 127c58 0 136 -21 136 -94c0 -39 -28 -69 -67 -69c-34 0 -58 25 -58 58c0 20 8 31 18 45c0 0 -23 4 -31 4c-38 0 -63 -29 -63 -65v-237
h140v-58h-140v-425c0 -49 -4 -69 -14 -85z" />
    <glyph glyph-name="four" unicode="4" horiz-adv-x="645" 
d="M312 67c20 0 35 17 35 37v94h-310v72l322 429h93v-429h137v-72h-137v-95c0 -28 15 -33 40 -36h71v-67h-327v67h76zM347 571l-224 -301h224v301z" />
    <glyph glyph-name="four.osf" unicode="&#xe03a;" horiz-adv-x="655" 
d="M463 0v-156h-107v156h-319v72l326 455h100v-455h136v-72h-136zM356 399l-224 -327h224v327z" />
    <glyph glyph-name="four.tf" unicode="&#xe03b;" horiz-adv-x="600" 
d="M299 67c20 0 35 17 35 37v94h-310v72l322 429h93v-429h137v-72h-137v-95c0 -28 15 -33 40 -36h71v-67h-327v67h76zM334 571l-224 -301h224v301z" />
    <glyph glyph-name="fourfifths" unicode="&#xe03c;" horiz-adv-x="895" 
d="M651 707h69l-430 -722h-71zM550 86c0 28 16 56 47 56c23 0 45 -17 45 -40c0 -20 -10 -37 -33 -38c16 -18 41 -26 67 -26c65 0 90 40 90 102c0 57 -17 99 -79 99c-33 0 -53 -17 -72 -48h-50l7 214c13 -2 59 -7 110 -7s97 0 147 11c0 -38 -56 -74 -156 -74
c-19 0 -35 1 -55 2l-4 -101c22 38 53 50 91 50c103 0 140 -68 140 -141c0 -95 -75 -154 -169 -154c-57 0 -126 28 -126 95zM213 336c12 0 22 10 22 23v46h-185v54l187 238h65v-242h76v-50h-76v-47c0 -17 10 -20 25 -22h39v-42h-198v42h45zM235 623l-131 -168h131v168z" />
    <glyph glyph-name="fourinferior" unicode="&#x2084;" horiz-adv-x="428" 
d="M213 -133c12 0 22 10 22 23v46h-185v54l187 238h65v-242h76v-50h-76v-47c0 -17 10 -20 25 -22h39v-42h-198v42h45zM235 154l-131 -168h131v168z" />
    <glyph glyph-name="foursevenths" unicode="&#xe03d;" horiz-adv-x="947" 
d="M651 707h69l-430 -722h-71zM213 336c12 0 22 10 22 23v46h-185v54l187 238h65v-242h76v-50h-76v-47c0 -17 10 -20 25 -22h39v-42h-198v42h45zM235 623l-131 -168h131v168zM680 35c0 147 155 226 164 318c-19 -21 -47 -29 -76 -29c-27 0 -52 12 -88 12
c-28 0 -46 -20 -46 -40c0 -3 -2 12 -2 -53h-51v158h51v-41c14 35 32 48 66 48c36 0 102 -31 128 -31c20 0 25 8 26 26h45c0 -46 -13 -97 -39 -136c-79 -117 -91 -180 -91 -225c0 -27 -8 -64 -44 -64c-33 0 -43 29 -43 57z" />
    <glyph glyph-name="foursuperior" unicode="&#x2074;" horiz-adv-x="428" 
d="M213 392c12 0 22 10 22 23v46h-185v54l187 238h65v-242h76v-50h-76v-47c0 -17 10 -20 25 -22h39v-42h-198v42h45zM235 679l-131 -168h131v168z" />
    <glyph glyph-name="fraction" unicode="&#x2044;" horiz-adv-x="481" 
d="M423 707h69l-430 -722h-71z" />
    <glyph glyph-name="ft" unicode="&#xe03e;" horiz-adv-x="703" 
d="M335 0h-308v61h56c10 0 30 6 30 38v358h-80v58h81v133c0 90 91 127 172 127c62 0 140 -21 140 -94c0 -43 -28 -69 -67 -69c-34 0 -58 25 -58 58c0 20 6 29 18 43c0 0 -14 6 -31 6c-38 0 -67 -29 -67 -65v-139h134c103 0 122 66 122 204h74v-204h117v-58h-117v-354
c0 -37 14 -46 53 -46c23 0 44 3 77 10v-61c-52 -13 -79 -19 -129 -19c-49 0 -81 12 -95 35c-10 16 -14 36 -14 86v349h-222v-358c0 -28 11 -38 31 -38h83v-61z" />
    <glyph glyph-name="g" unicode="g" horiz-adv-x="611" 
d="M34 -120c0 54 33 86 86 107c-50 14 -84 47 -84 102c0 65 44 96 99 125c-40 36 -59 79 -59 134c0 127 113 186 228 186c48 0 105 -13 147 -40l43 28h104v-68h-111c34 -37 41 -73 41 -113c0 -127 -113 -177 -224 -177c-42 0 -82 6 -117 19c-28 0 -52 -32 -52 -58
c0 -30 16 -52 47 -52c27 0 97 14 141 14c99 0 132 -8 159 -15c64 -17 109 -53 109 -131c0 -159 -185 -202 -310 -202c-86 0 -247 23 -247 141zM136 -105c0 -79 101 -89 161 -89s196 14 196 104c0 41 -27 58 -60 65c-23 5 -87 12 -116 12c-27 0 -93 -7 -109 -11
c-32 -8 -72 -18 -72 -81zM195 350c0 -73 33 -123 109 -123s106 48 106 121c0 75 -30 123 -109 123c-73 0 -106 -54 -106 -121z" />
    <glyph glyph-name="g.001" unicode="&#xe03f;" horiz-adv-x="620" 
d="M409 214h-56v64h262v-64h-39c-19 -2 -31 -6 -31 -28v-192h-61l-17 42c-38 -37 -95 -59 -171 -59c-175 0 -261 121 -261 294c0 153 95 296 260 296c60 0 127 -27 173 -67l23 52h54v-207h-65c-31 126 -104 150 -178 150c-117 0 -149 -111 -149 -224
c0 -121 38 -222 156 -222c52 0 128 28 128 88v48c0 16 -12 29 -28 29z" />
    <glyph glyph-name="g.alt" unicode="&#xe4c6;" horiz-adv-x="678" 
d="M76 348c0 127 113 186 228 186c66 0 121 -19 160 -52c30 30 72 52 108 52c72 0 116 -40 116 -104c0 -44 -30 -74 -69 -74s-68 26 -68 62c0 29 18 49 50 57c-11 10 -23 15 -35 15c-24 0 -48 -17 -69 -46c20 -30 31 -64 31 -103c0 -127 -113 -177 -224 -177
c-42 0 -82 6 -117 19c-28 0 -52 -36 -52 -62c0 -30 18 -49 49 -49c34 0 93 13 165 13c38 0 78 -4 112 -10c82 -14 130 -57 130 -138c0 -159 -185 -198 -310 -198c-86 0 -247 23 -247 141c0 54 33 82 86 103c-50 14 -84 47 -84 102c0 65 44 100 99 129c-40 36 -59 79 -59 134
zM136 -105c0 -79 101 -89 161 -89s196 14 196 104c0 41 -29 56 -69 65c-29 6 -67 9 -104 9c-43 0 -84 -4 -104 -9c-28 -8 -80 -12 -80 -80zM195 350c0 -73 33 -123 109 -123s106 48 106 121c0 75 -30 123 -109 123c-73 0 -106 -54 -106 -121z" />
    <glyph glyph-name="gbreve" unicode="&#x11f;" horiz-adv-x="611" 
d="M34 -120c0 54 33 86 86 107c-50 14 -84 47 -84 102c0 65 44 96 99 125c-40 36 -59 79 -59 134c0 127 113 186 228 186c48 0 105 -13 147 -40l43 28h104v-68h-111c34 -37 41 -73 41 -113c0 -127 -113 -177 -224 -177c-42 0 -82 6 -117 19c-28 0 -52 -32 -52 -58
c0 -30 16 -52 47 -52c27 0 97 14 141 14c99 0 132 -8 159 -15c64 -17 109 -53 109 -131c0 -159 -185 -202 -310 -202c-86 0 -247 23 -247 141zM136 -105c0 -79 101 -89 161 -89s196 14 196 104c0 41 -27 58 -60 65c-23 5 -87 12 -116 12c-27 0 -93 -7 -109 -11
c-32 -8 -72 -18 -72 -81zM195 350c0 -73 33 -123 109 -123s106 48 106 121c0 75 -30 123 -109 123c-73 0 -106 -54 -106 -121zM307 575c-78 0 -142 26 -144 101h76c0 -27 20 -45 68 -45s65 20 66 45h74c-3 -75 -60 -101 -140 -101z" />
    <glyph glyph-name="gbreve.001" unicode="&#xe040;" horiz-adv-x="620" 
d="M409 214h-56v64h262v-64h-39c-19 -2 -31 -6 -31 -28v-192h-61l-17 42c-38 -37 -95 -59 -171 -59c-175 0 -261 121 -261 294c0 153 95 296 260 296c60 0 127 -27 173 -67l23 52h54v-207h-65c-31 126 -104 150 -178 150c-117 0 -149 -111 -149 -224
c0 -121 38 -222 156 -222c52 0 128 28 128 88v48c0 16 -12 29 -28 29zM312 613c-78 0 -142 26 -144 101h76c0 -27 20 -45 68 -45s65 20 66 45h74c-3 -75 -60 -101 -140 -101z" />
    <glyph glyph-name="gbreve.002" unicode="&#xe041;" horiz-adv-x="678" 
d="M76 348c0 127 113 186 228 186c66 0 121 -19 160 -52c30 30 72 52 108 52c72 0 116 -40 116 -104c0 -44 -30 -74 -69 -74s-68 26 -68 62c0 29 18 49 50 57c-11 10 -23 15 -35 15c-24 0 -48 -17 -69 -46c20 -30 31 -64 31 -103c0 -127 -113 -177 -224 -177
c-42 0 -82 6 -117 19c-28 0 -52 -36 -52 -62c0 -30 18 -49 49 -49c34 0 93 13 165 13c38 0 78 -4 112 -10c82 -14 130 -57 130 -138c0 -159 -185 -198 -310 -198c-86 0 -247 23 -247 141c0 54 33 82 86 103c-50 14 -84 47 -84 102c0 65 44 100 99 129c-40 36 -59 79 -59 134
zM136 -105c0 -79 101 -89 161 -89s196 14 196 104c0 41 -29 56 -69 65c-29 6 -67 9 -104 9c-43 0 -84 -4 -104 -9c-28 -8 -80 -12 -80 -80zM195 350c0 -73 33 -123 109 -123s106 48 106 121c0 75 -30 123 -109 123c-73 0 -106 -54 -106 -121zM301 589
c-78 0 -142 26 -144 101h76c0 -27 20 -45 68 -45s65 20 66 45h74c-3 -75 -60 -101 -140 -101z" />
    <glyph glyph-name="gcircumflex" unicode="&#x11d;" horiz-adv-x="611" 
d="M34 -120c0 54 33 86 86 107c-50 14 -84 47 -84 102c0 65 44 96 99 125c-40 36 -59 79 -59 134c0 127 113 186 228 186c48 0 105 -13 147 -40l43 28h104v-68h-111c34 -37 41 -73 41 -113c0 -127 -113 -177 -224 -177c-42 0 -82 6 -117 19c-28 0 -52 -32 -52 -58
c0 -30 16 -52 47 -52c27 0 97 14 141 14c99 0 132 -8 159 -15c64 -17 109 -53 109 -131c0 -159 -185 -202 -310 -202c-86 0 -247 23 -247 141zM136 -105c0 -79 101 -89 161 -89s196 14 196 104c0 41 -27 58 -60 65c-23 5 -87 12 -116 12c-27 0 -93 -7 -109 -11
c-32 -8 -72 -18 -72 -81zM195 350c0 -73 33 -123 109 -123s106 48 106 121c0 75 -30 123 -109 123c-73 0 -106 -54 -106 -121zM243 735h120l108 -148h-94l-83 84l-78 -84h-77z" />
    <glyph glyph-name="gcircumflex.001" unicode="&#xe042;" horiz-adv-x="620" 
d="M409 214h-56v64h262v-64h-39c-19 -2 -31 -6 -31 -28v-192h-61l-17 42c-38 -37 -95 -59 -171 -59c-175 0 -261 121 -261 294c0 153 95 296 260 296c60 0 127 -27 173 -67l23 52h54v-207h-65c-31 126 -104 150 -178 150c-117 0 -149 -111 -149 -224
c0 -121 38 -222 156 -222c52 0 128 28 128 88v48c0 16 -12 29 -28 29zM238 755h120l108 -148h-94l-83 84l-78 -84h-77z" />
    <glyph glyph-name="gcircumflex.002" unicode="&#xe043;" horiz-adv-x="678" 
d="M237 745h120l108 -148h-94l-83 84l-78 -84h-77zM76 348c0 127 113 186 228 186c66 0 121 -19 160 -52c30 30 72 52 108 52c72 0 116 -40 116 -104c0 -44 -30 -74 -69 -74s-68 26 -68 62c0 29 18 49 50 57c-11 10 -23 15 -35 15c-24 0 -48 -17 -69 -46
c20 -30 31 -64 31 -103c0 -127 -113 -177 -224 -177c-42 0 -82 6 -117 19c-28 0 -52 -36 -52 -62c0 -30 18 -49 49 -49c34 0 93 13 165 13c38 0 78 -4 112 -10c82 -14 130 -57 130 -138c0 -159 -185 -198 -310 -198c-86 0 -247 23 -247 141c0 54 33 82 86 103
c-50 14 -84 47 -84 102c0 65 44 100 99 129c-40 36 -59 79 -59 134zM136 -105c0 -79 101 -89 161 -89s196 14 196 104c0 41 -29 56 -69 65c-29 6 -67 9 -104 9c-43 0 -84 -4 -104 -9c-28 -8 -80 -12 -80 -80zM195 350c0 -73 33 -123 109 -123s106 48 106 121
c0 75 -30 123 -109 123c-73 0 -106 -54 -106 -121z" />
    <glyph glyph-name="gcommaaccent" unicode="&#x123;" horiz-adv-x="611" 
d="M34 -120c0 54 33 86 86 107c-50 14 -84 47 -84 102c0 65 44 96 99 125c-40 36 -59 79 -59 134c0 127 113 186 228 186c48 0 105 -13 147 -40l43 28h104v-68h-111c34 -37 41 -73 41 -113c0 -127 -113 -177 -224 -177c-42 0 -82 6 -117 19c-28 0 -52 -32 -52 -58
c0 -30 16 -52 47 -52c27 0 97 14 141 14c99 0 132 -8 159 -15c64 -17 109 -53 109 -131c0 -159 -185 -202 -310 -202c-86 0 -247 23 -247 141zM136 -105c0 -79 101 -89 161 -89s196 14 196 104c0 41 -27 58 -60 65c-23 5 -87 12 -116 12c-27 0 -93 -7 -109 -11
c-32 -8 -72 -18 -72 -81zM195 350c0 -73 33 -123 109 -123s106 48 106 121c0 75 -30 123 -109 123c-73 0 -106 -54 -106 -121zM306 584c-41 0 -73 33 -73 100c0 83 54 161 142 161v-46c-39 0 -77 -39 -77 -85c7 3 15 4 22 4c33 0 57 -30 57 -65c0 -40 -31 -69 -71 -69z" />
    <glyph glyph-name="gcommaaccent.001" unicode="&#xe044;" horiz-adv-x="620" 
d="M409 214h-56v64h262v-64h-39c-19 -2 -31 -6 -31 -28v-192h-61l-17 42c-38 -37 -95 -59 -171 -59c-175 0 -261 121 -261 294c0 153 95 296 260 296c60 0 127 -27 173 -67l23 52h54v-207h-65c-31 126 -104 150 -178 150c-117 0 -149 -111 -149 -224
c0 -121 38 -222 156 -222c52 0 128 28 128 88v48c0 16 -12 29 -28 29zM307 -89c42 0 73 -33 73 -100c0 -83 -53 -161 -142 -161v46c40 0 78 39 78 85c-8 -3 -16 -4 -23 -4c-33 0 -57 30 -57 65c0 40 32 69 71 69z" />
    <glyph glyph-name="gcommaaccent.002" unicode="&#xe045;" horiz-adv-x="678" 
d="M76 348c0 127 113 186 228 186c66 0 121 -19 160 -52c30 30 72 52 108 52c72 0 116 -40 116 -104c0 -44 -30 -74 -69 -74s-68 26 -68 62c0 29 18 49 50 57c-11 10 -23 15 -35 15c-24 0 -48 -17 -69 -46c20 -30 31 -64 31 -103c0 -127 -113 -177 -224 -177
c-42 0 -82 6 -117 19c-28 0 -52 -36 -52 -62c0 -30 18 -49 49 -49c34 0 93 13 165 13c38 0 78 -4 112 -10c82 -14 130 -57 130 -138c0 -159 -185 -198 -310 -198c-86 0 -247 23 -247 141c0 54 33 82 86 103c-50 14 -84 47 -84 102c0 65 44 100 99 129c-40 36 -59 79 -59 134
zM136 -105c0 -79 101 -89 161 -89s196 14 196 104c0 41 -29 56 -69 65c-29 6 -67 9 -104 9c-43 0 -84 -4 -104 -9c-28 -8 -80 -12 -80 -80zM195 350c0 -73 33 -123 109 -123s106 48 106 121c0 75 -30 123 -109 123c-73 0 -106 -54 -106 -121zM298 594c-42 0 -73 33 -73 101
c0 82 53 161 142 161v-46c-40 0 -78 -39 -78 -85c8 3 16 4 23 4c33 0 57 -31 57 -66c0 -39 -32 -69 -71 -69z" />
    <glyph glyph-name="gdotaccent" unicode="&#x121;" horiz-adv-x="611" 
d="M34 -120c0 54 33 86 86 107c-50 14 -84 47 -84 102c0 65 44 96 99 125c-40 36 -59 79 -59 134c0 127 113 186 228 186c48 0 105 -13 147 -40l43 28h104v-68h-111c34 -37 41 -73 41 -113c0 -127 -113 -177 -224 -177c-42 0 -82 6 -117 19c-28 0 -52 -32 -52 -58
c0 -30 16 -52 47 -52c27 0 97 14 141 14c99 0 132 -8 159 -15c64 -17 109 -53 109 -131c0 -159 -185 -202 -310 -202c-86 0 -247 23 -247 141zM136 -105c0 -79 101 -89 161 -89s196 14 196 104c0 41 -27 58 -60 65c-23 5 -87 12 -116 12c-27 0 -93 -7 -109 -11
c-32 -8 -72 -18 -72 -81zM195 350c0 -73 33 -123 109 -123s106 48 106 121c0 75 -30 123 -109 123c-73 0 -106 -54 -106 -121zM243 643c0 35 27 60 62 60c38 0 63 -26 63 -60c0 -37 -29 -65 -64 -65c-36 0 -61 30 -61 65z" />
    <glyph glyph-name="gdotaccent.001" unicode="&#xe046;" horiz-adv-x="620" 
d="M409 214h-56v64h262v-64h-39c-19 -2 -31 -6 -31 -28v-192h-61l-17 42c-38 -37 -95 -59 -171 -59c-175 0 -261 121 -261 294c0 153 95 296 260 296c60 0 127 -27 173 -67l23 52h54v-207h-65c-31 126 -104 150 -178 150c-117 0 -149 -111 -149 -224
c0 -121 38 -222 156 -222c52 0 128 28 128 88v48c0 16 -12 29 -28 29zM237 683c0 35 27 60 62 60c38 0 63 -26 63 -60c0 -37 -29 -65 -64 -65c-36 0 -61 30 -61 65z" />
    <glyph glyph-name="gdotaccent.002" unicode="&#xe047;" horiz-adv-x="678" 
d="M76 348c0 127 113 186 228 186c66 0 121 -19 160 -52c30 30 72 52 108 52c72 0 116 -40 116 -104c0 -44 -30 -74 -69 -74s-68 26 -68 62c0 29 18 49 50 57c-11 10 -23 15 -35 15c-24 0 -48 -17 -69 -46c20 -30 31 -64 31 -103c0 -127 -113 -177 -224 -177
c-42 0 -82 6 -117 19c-28 0 -52 -36 -52 -62c0 -30 18 -49 49 -49c34 0 93 13 165 13c38 0 78 -4 112 -10c82 -14 130 -57 130 -138c0 -159 -185 -198 -310 -198c-86 0 -247 23 -247 141c0 54 33 82 86 103c-50 14 -84 47 -84 102c0 65 44 100 99 129c-40 36 -59 79 -59 134
zM136 -105c0 -79 101 -89 161 -89s196 14 196 104c0 41 -29 56 -69 65c-29 6 -67 9 -104 9c-43 0 -84 -4 -104 -9c-28 -8 -80 -12 -80 -80zM195 350c0 -73 33 -123 109 -123s106 48 106 121c0 75 -30 123 -109 123c-73 0 -106 -54 -106 -121zM238 659c0 35 27 60 62 60
c38 0 63 -26 63 -60c0 -37 -29 -65 -64 -65c-36 0 -61 30 -61 65z" />
    <glyph glyph-name="germandbls" unicode="&#xdf;" horiz-adv-x="618" 
d="M191 0h-192v61h45c34 0 43 7 43 39v432c0 152 76 229 225 229c131 0 215 -64 215 -165c0 -77 -45 -125 -129 -154c129 -17 185 -88 185 -225c0 -135 -74 -228 -185 -228c-69 0 -124 36 -144 95c-11 30 -12 45 -12 104h62c0 -24 2 -52 6 -70c7 -32 35 -52 67 -52
c60 0 89 53 89 164c0 124 -54 176 -195 176v58c45 2 58 2 78 10c37 15 61 57 61 107c0 66 -43 113 -104 113c-72 0 -115 -52 -115 -141v-553z" />
    <glyph glyph-name="germandbls.001" unicode="&#xe048;" horiz-adv-x="513" 
d="M120 35l-26 -46h-54v212h59c25 -105 58 -154 166 -154c59 0 127 18 127 76c0 32 -18 57 -50 67l-200 60c-75 22 -106 89 -106 141c0 107 92 173 191 173c58 0 108 -18 152 -56l25 43h54v-210h-61c-11 96 -51 157 -169 157c-53 0 -92 -30 -92 -77c0 -28 20 -57 52 -67
l194 -64c52 -17 99 -65 99 -140c0 -119 -101 -173 -210 -173c-69 0 -102 13 -151 58zM633 35l-26 -46h-54v212h59c25 -105 58 -154 166 -154c59 0 127 18 127 76c0 32 -18 57 -50 67l-200 60c-75 22 -106 89 -106 141c0 107 92 173 191 173c58 0 108 -18 152 -56l25 43h54
v-210h-61c-11 96 -51 157 -169 157c-53 0 -92 -30 -92 -77c0 -28 20 -57 52 -67l194 -64c52 -17 99 -65 99 -140c0 -119 -101 -173 -210 -173c-69 0 -102 13 -151 58z" />
    <glyph glyph-name="grave" unicode="`" horiz-adv-x="269" 
d="M25 745h142c68 -115 81 -139 84 -143h-73z" />
    <glyph glyph-name="gravecomb" unicode="&#x300;" horiz-adv-x="269" 
d="M25 745h142c68 -115 81 -139 84 -143h-73z" />
    <glyph glyph-name="greater" unicode="&#x3e;" horiz-adv-x="419" 
d="M151 604l222 -300l-222 -304h-102l221 304l-219 300h100z" />
    <glyph glyph-name="guillemotleft" unicode="&#xab;" horiz-adv-x="439" 
d="M36 255l117 193h81l-95 -193l95 -190h-83zM201 255l117 193h81l-95 -193l95 -190h-83z" />
    <glyph glyph-name="guillemotright" unicode="&#xbb;" horiz-adv-x="439" 
d="M286 448l117 -193l-115 -190h-83l95 190l-95 193h81zM120 448l117 -193l-115 -190h-83l95 190l-95 193h81z" />
    <glyph glyph-name="guilsinglleft" unicode="&#x2039;" horiz-adv-x="274" 
d="M36 255l117 193h81l-95 -193l95 -190h-83z" />
    <glyph glyph-name="guilsinglright" unicode="&#x203a;" horiz-adv-x="273" 
d="M120 448l117 -193l-115 -190h-83l95 190l-95 193h81z" />
    <glyph glyph-name="h" unicode="h" horiz-adv-x="655" 
d="M303 0h-277v61h54c10 0 29 6 29 38v563c0 21 -13 26 -24 26h-66v57l198 17v-291l-11 -52c41 75 102 115 183 115c80 0 161 -48 166 -136v-308c0 -13 12 -29 26 -29h58v-61h-267v61h48c15 0 28 12 28 26v287c0 54 -46 80 -94 80c-67 0 -137 -49 -137 -120v-235
c0 -28 11 -38 30 -38h56v-61z" />
    <glyph glyph-name="h.001" unicode="&#xe049;" horiz-adv-x="744" 
d="M704 490h-52c-25 -2 -40 -8 -40 -36v-356c0 -28 15 -34 40 -36h52v-62h-287v62h53c20 0 35 16 35 36v157h-271v-157c0 -28 15 -34 40 -36h52v-62h-287v62h53c20 0 35 16 35 36v356c0 20 -15 36 -35 36h-53v62h287v-62h-52c-25 -2 -40 -8 -40 -36v-136h271v136
c0 20 -15 36 -35 36h-53v62h287v-62z" />
    <glyph glyph-name="hbar" unicode="&#x127;" horiz-adv-x="655" 
d="M303 0h-277v58l54 3c10 0 29 6 29 38v477h-84v59h84v27c0 21 -13 26 -24 26h-66v57l198 17v-127h318v-59h-318v-105l-11 -52c41 75 102 115 183 115c80 0 161 -48 166 -136v-308c0 -13 12 -29 26 -29h58v-61h-267v61h48c15 2 28 12 28 26v287c0 54 -46 80 -94 80
c-67 0 -137 -49 -137 -120v-235c0 -28 11 -38 30 -38h56v-61z" />
    <glyph glyph-name="hbar.001" unicode="&#xe04a;" horiz-adv-x="744" 
d="M704 490h-52c-25 -2 -40 -8 -40 -36v-32h80v-49h-80v-275c0 -28 15 -34 40 -36h52v-62h-287v62h53c20 0 35 16 35 36v157h-271v-157c0 -28 15 -34 40 -36h52v-62h-287v62h53c20 0 35 16 35 36v275h-77v49h77v32c0 20 -15 36 -35 36h-53v62h287v-62h-52
c-25 -2 -40 -8 -40 -36v-32h271v32c0 20 -15 36 -35 36h-53v62h287v-62zM234 318h271v55h-271v-55z" />
    <glyph glyph-name="hcircumflex" unicode="&#x125;" horiz-adv-x="655" 
d="M303 0h-277v58l54 3c10 0 29 6 29 38v563c0 21 -13 26 -24 26h-66v57l198 17v-291l-11 -52c41 75 102 115 183 115c80 0 161 -48 166 -136v-308c0 -13 12 -29 26 -29h58v-61h-267v61h48c15 2 28 12 28 26v287c0 54 -46 80 -94 80c-67 0 -137 -49 -137 -120v-235
c0 -28 11 -38 30 -38h56v-61zM78 947h120l108 -148h-94l-83 84l-78 -84h-77z" />
    <glyph glyph-name="hcircumflex.001" unicode="&#xe04b;" horiz-adv-x="744" 
d="M704 490h-52c-25 -2 -40 -8 -40 -36v-356c0 -28 15 -34 40 -36h52v-62h-287v62h53c20 0 35 16 35 36v157h-271v-157c0 -28 15 -34 40 -36h52v-62h-287v62h53c20 0 35 16 35 36v356c0 20 -15 36 -35 36h-53v62h287v-62h-52c-25 -2 -40 -8 -40 -36v-136h271v136
c0 20 -15 36 -35 36h-53v62h287v-62zM310 756h120l108 -148h-94l-83 84l-78 -84h-77z" />
    <glyph glyph-name="hookabovecomb" unicode="&#x309;" horiz-adv-x="240" 
d="M332 845c42 0 73 -33 73 -100c0 -75 -38 -165 -173 -165c-15 0 -31 2 -49 6v44c20 -5 37 -7 53 -7c77 0 105 54 105 92c-8 -3 -16 -4 -23 -4c-33 0 -57 30 -57 65c0 40 32 69 71 69z" />
    <glyph glyph-name="hungarumlaut" unicode="&#x2dd;" horiz-adv-x="476" 
d="M247 745h121l-153 -143h-53c3 4 17 28 85 143zM397 745h121l-153 -143h-53c3 4 17 28 85 143z" />
    <glyph glyph-name="hyphen" unicode="-" horiz-adv-x="339" 
d="M37 329h265v-87h-265v87z" />
    <glyph glyph-name="i" unicode="i" horiz-adv-x="326" 
d="M92 667c0 38 29 72 69 72c36 0 68 -32 68 -69c0 -40 -33 -69 -71 -69c-37 0 -66 29 -66 66zM308 0h-277v61h54c10 0 30 6 30 38v335c0 20 -14 26 -24 26h-61v57l192 17v-435c0 -28 11 -38 31 -38h55v-61z" />
    <glyph glyph-name="i.001" unicode="&#xe04c;" horiz-adv-x="366" 
d="M326 490h-52c-25 -2 -40 -8 -40 -36v-356c0 -28 15 -34 40 -36h52v-62h-287v62h53c20 0 35 16 35 36v356c0 20 -15 36 -35 36h-53v62h287v-62z" />
    <glyph glyph-name="iacute" unicode="&#xed;" horiz-adv-x="326" 
d="M308 0h-277v58l54 3c10 0 30 6 30 38v335c0 20 -14 26 -24 26h-61v57l192 17v-435c0 -28 11 -38 31 -38h55v-61zM173 745h142l-154 -143h-73c3 4 17 28 85 143z" />
    <glyph glyph-name="iacute.001" unicode="&#xe04d;" horiz-adv-x="406" 
d="M326 490h-52c-25 -2 -40 -8 -40 -36v-356c0 -28 15 -34 40 -36h52v-62h-287v62h53c20 0 35 16 35 36v356c0 20 -15 36 -35 36h-53v62h287v-62zM224 745h142l-154 -143h-72z" />
    <glyph glyph-name="icircumflex" unicode="&#xee;" horiz-adv-x="326" 
d="M308 0h-277v58l54 3c10 0 30 6 30 38v335c0 20 -14 26 -24 26h-61v57l192 17v-435c0 -28 11 -38 31 -38h55v-61zM103 745h119l109 -148h-94l-84 84l-77 -84h-77z" />
    <glyph glyph-name="icircumflex.001" unicode="&#xe04e;" horiz-adv-x="412" 
d="M350 490h-52c-25 -2 -40 -8 -40 -36v-356c0 -28 15 -34 40 -36h52v-62h-287v62h53c20 0 35 16 35 36v356c0 20 -15 36 -35 36h-53v62h287v-62zM143 745h120l109 -148h-94l-84 84l-77 -84h-78z" />
    <glyph glyph-name="idieresis" unicode="&#xef;" horiz-adv-x="326" 
d="M308 0h-277v58l54 3c10 0 30 6 30 38v335c0 20 -14 26 -24 26h-61v57l192 17v-435c0 -28 11 -38 31 -38h55v-61zM209 685c0 35 29 60 63 60c33 0 63 -26 63 -60c0 -35 -28 -67 -63 -67c-38 0 -63 32 -63 67zM-6 685c0 35 27 60 63 60c37 0 62 -26 62 -60
c0 -37 -29 -65 -64 -65c-36 0 -61 30 -61 65z" />
    <glyph glyph-name="idieresis.001" unicode="&#xe04f;" horiz-adv-x="419" 
d="M354 490h-52c-25 -2 -40 -8 -40 -36v-356c0 -28 15 -34 40 -36h52v-62h-287v62h53c20 0 35 16 35 36v356c0 20 -15 36 -35 36h-53v62h287v-62zM254 685c0 35 29 60 63 60c33 0 62 -26 62 -60c0 -35 -27 -67 -62 -67c-38 0 -63 32 -63 67zM39 685c0 35 26 60 62 60
c38 0 63 -26 63 -60c0 -37 -30 -65 -64 -65c-36 0 -61 30 -61 65z" />
    <glyph glyph-name="igrave" unicode="&#xec;" horiz-adv-x="326" 
d="M308 0h-277v58l54 3c10 0 30 6 30 38v335c0 20 -14 26 -24 26h-61v57l192 17v-435c0 -28 11 -38 31 -38h55v-61zM-11 745h141c68 -115 82 -139 85 -143h-73z" />
    <glyph glyph-name="igrave.001" unicode="&#xe050;" horiz-adv-x="391" 
d="M351 490h-52c-25 -2 -40 -8 -40 -36v-356c0 -28 15 -34 40 -36h52v-62h-287v62h53c20 0 35 16 35 36v356c0 20 -15 36 -35 36h-53v62h287v-62zM39 745h142c68 -115 82 -139 85 -143h-73z" />
    <glyph glyph-name="imacron" unicode="&#x12b;" horiz-adv-x="326" 
d="M308 0h-277v58l54 3c10 0 30 6 30 38v335c0 20 -14 26 -24 26h-61v57l192 17v-435c0 -28 11 -38 31 -38h55v-61zM36 670h250v-69h-250v69z" />
    <glyph glyph-name="imacron.001" unicode="&#xe051;" horiz-adv-x="366" 
d="M326 490h-52c-25 -2 -40 -8 -40 -36v-356c0 -28 15 -34 40 -36h52v-62h-287v62h53c20 0 35 16 35 36v356c0 20 -15 36 -35 36h-53v62h287v-62zM55 690h250v-69h-250v69z" />
    <glyph glyph-name="iogonek" unicode="&#x12f;" horiz-adv-x="326" 
d="M308 0h-97c-53 -40 -56 -56 -56 -82c0 -18 6 -46 59 -46c14 0 41 2 60 7c15 -54 15 -57 15 -57c-21 -7 -57 -10 -83 -10c-74 0 -146 29 -146 90c0 36 23 68 61 98h-90v58l54 3c10 0 30 6 30 38v335c0 20 -14 26 -24 26h-61v57l192 17v-435c0 -28 11 -38 31 -38h55v-61z
M92 667c0 38 29 72 69 72c36 0 68 -32 68 -69c0 -40 -33 -69 -71 -69c-37 0 -66 29 -66 66z" />
    <glyph glyph-name="iogonek.001" unicode="&#xe052;" horiz-adv-x="366" 
d="M326 490h-52c-25 -2 -40 -8 -40 -36v-356c0 -28 15 -34 40 -36h52v-62h-72c-53 -40 -56 -56 -56 -82c0 -18 6 -46 59 -46c14 0 41 2 60 7c15 -54 15 -57 15 -57c-21 -7 -57 -10 -83 -10c-74 0 -146 29 -146 90c0 36 23 68 61 98h-125v62h53c20 0 35 16 35 36v356
c0 20 -15 36 -35 36h-53v62h287v-62z" />
    <glyph glyph-name="itilde" unicode="&#x129;" horiz-adv-x="326" 
d="M308 0h-277v58l54 3c10 0 30 6 30 38v335c0 20 -14 26 -24 26h-61v57l192 17v-435c0 -28 11 -38 31 -38h55v-61zM-31 614c0 60 25 123 96 123c65 0 154 -46 209 -46c16 0 21 35 21 54h65l-1 -21c-1 -56 -24 -119 -93 -119c-55 0 -165 48 -193 48c-31 0 -36 -27 -36 -54
h-66c-2 2 -2 10 -2 15z" />
    <glyph glyph-name="itilde.001" unicode="&#xe053;" horiz-adv-x="366" 
d="M326 490h-52c-25 -2 -40 -8 -40 -36v-356c0 -28 15 -34 40 -36h52v-62h-287v62h53c20 0 35 16 35 36v356c0 20 -15 36 -35 36h-53v62h287v-62zM-12 624c0 60 25 123 96 123c65 0 154 -46 209 -46c16 0 21 35 21 54h65l-1 -21c-1 -56 -24 -119 -93 -119
c-55 0 -165 48 -193 48c-31 0 -36 -27 -36 -54h-66c-2 2 -2 10 -2 15z" />
    <glyph glyph-name="j" unicode="j" horiz-adv-x="294" 
d="M15 460v57l199 17v-661c0 -90 -75 -143 -163 -143c-67 0 -138 35 -138 110c0 39 25 74 69 74c33 0 56 -23 56 -58c0 -30 -15 -45 -40 -54c9 -10 25 -12 38 -12c46 0 69 35 69 79v565c0 20 -14 26 -24 26h-66zM82 665c0 38 30 72 69 72c37 0 68 -31 68 -69
c0 -40 -33 -69 -71 -69c-36 0 -66 29 -66 66z" />
    <glyph glyph-name="j.001" unicode="&#xe054;" horiz-adv-x="419" 
d="M184 490h-60v62h280v-62h-52c-21 0 -32 -6 -32 -28v-330c0 -96 -64 -157 -161 -157c-89 0 -159 39 -159 114c0 37 33 70 72 70c32 0 55 -17 55 -40c0 -32 -21 -46 -51 -48c13 -17 35 -22 55 -22c51 0 81 22 81 65v347c0 16 -11 29 -28 29z" />
    <glyph glyph-name="jcircumflex" unicode="&#x135;" horiz-adv-x="294" 
d="M15 460v57l199 17v-661c0 -90 -75 -143 -163 -143c-67 0 -138 35 -138 110c0 39 25 74 69 74c33 0 56 -23 56 -58c0 -30 -15 -45 -40 -54c9 -10 25 -12 38 -12c46 0 69 35 69 79v565c0 20 -14 26 -24 26h-66zM71 745h120l108 -148h-94l-83 84l-78 -84h-77z" />
    <glyph glyph-name="jcircumflex.001" unicode="&#xe055;" horiz-adv-x="419" 
d="M184 490h-60v62h280v-62h-52c-21 0 -32 -6 -32 -28v-330c0 -96 -64 -157 -161 -157c-89 0 -159 39 -159 114c0 37 33 70 72 70c32 0 55 -17 55 -40c0 -32 -21 -46 -51 -48c13 -17 35 -22 55 -22c51 0 81 22 81 65v347c0 16 -11 29 -28 29zM205 755h120l108 -148h-94
l-83 84l-78 -84h-77z" />
    <glyph glyph-name="k" unicode="k" horiz-adv-x="610" 
d="M276 0h-267v61h54c10 0 29 6 29 38v563c0 21 -13 26 -23 26h-67v57l198 17v-489c153 144 172 156 172 171c0 4 -5 12 -19 12h-45v59h266v-59h-48c-27 0 -39 -10 -44 -15l-125 -112l183 -242c22 -29 44 -29 79 -29v-58h-277v61h54c8 0 18 6 18 14c0 18 -43 75 -134 186
l-80 -73v-89c0 -28 11 -38 30 -38h46v-61z" />
    <glyph glyph-name="k.001" unicode="&#xe056;" horiz-adv-x="634" 
d="M104 62c9 0 24 8 24 18v381c0 16 -12 29 -29 29h-60v62h284v-62h-57c-20 -2 -32 -6 -32 -28v-172c136 129 194 170 194 187c0 7 -4 13 -13 13h-43v62h247v-62h-55c-24 0 -48 -31 -181 -151l189 -255c17 -23 53 -24 72 -24v-60h-255v62h44c7 0 15 6 15 13
c0 11 -9 25 -16 33l-124 164l-74 -67v-119c0 -13 12 -24 25 -24h64v-62h-282v62h63z" />
    <glyph glyph-name="kcommaaccent" unicode="&#x137;" horiz-adv-x="610" 
d="M276 0h-267v58l54 3c10 0 29 6 29 38v563c0 21 -13 26 -23 26h-67v57l198 17v-489c153 144 173 158 173 173c0 4 -5 12 -19 12h-45v59h266v-59h-48c-27 0 -39 -10 -44 -15l-126 -114l183 -242c23 -29 44 -29 79 -29v-58h-277v61h54c8 0 18 6 18 14c0 18 -29 53 -134 186
l-80 -73v-89c0 -28 11 -38 30 -38h46v-61zM306 -30c42 0 73 -33 73 -101c0 -82 -53 -161 -142 -161v46c40 0 78 39 78 85c-8 -3 -16 -4 -23 -4c-33 0 -57 31 -57 66c0 39 32 69 71 69z" />
    <glyph glyph-name="kcommaaccent.001" unicode="&#xe057;" horiz-adv-x="634" 
d="M104 62c9 0 24 8 24 18v381c0 16 -12 29 -29 29h-60v62h284v-62h-57c-20 -2 -32 -6 -32 -28v-172c136 129 194 170 194 187c0 7 -4 13 -13 13h-43v62h247v-62h-55c-24 0 -48 -31 -181 -151l189 -255c17 -23 53 -24 72 -24v-60h-255v62h44c7 0 15 6 15 13
c0 11 -9 25 -16 33l-124 164l-74 -67v-119c0 -13 12 -24 25 -24h64v-62h-282v62h63zM356 -60c42 0 73 -33 73 -101c0 -82 -53 -161 -142 -161v46c40 0 78 39 78 85c-8 -3 -16 -4 -23 -4c-33 0 -57 31 -57 66c0 39 32 69 71 69z" />
    <glyph glyph-name="kgreenlandic" unicode="&#x138;" horiz-adv-x="610" 
d="M276 0h-267v61h54c10 0 29 6 29 38v334c0 21 -13 26 -23 26h-59v57l190 17v-260c153 144 172 156 172 171c0 4 -5 12 -19 12h-45v59h266v-59h-48c-27 0 -39 -10 -44 -15l-125 -112l183 -242c22 -29 44 -29 79 -29v-58h-277v61h54c8 0 18 6 18 14c0 18 -43 75 -134 186
l-80 -73v-89c0 -28 11 -38 30 -38h46v-61z" />
    <glyph glyph-name="l" unicode="l" horiz-adv-x="328" 
d="M304 0h-277v61h54c10 0 29 6 29 38v563c0 21 -13 26 -24 26h-66v57l198 17v-663c0 -28 11 -38 30 -38h56v-61z" />
    <glyph glyph-name="l.001" unicode="&#xe058;" horiz-adv-x="530" 
d="M39 61h58c17 0 29 14 29 29v372c0 15 -12 29 -29 29h-58v61h289v-61h-62c-20 -2 -32 -6 -32 -28v-400h143c83 0 90 79 93 163h56v-226h-487v61z" />
    <glyph glyph-name="lacute" unicode="&#x13a;" horiz-adv-x="328" 
d="M304 0h-277v58l54 3c10 0 29 6 29 38v563c0 21 -13 26 -24 26h-66v57l198 17v-663c0 -28 11 -38 30 -38h56v-61zM183 932h141l-153 -143h-73c3 4 17 28 85 143z" />
    <glyph glyph-name="lacute.001" unicode="&#xe059;" horiz-adv-x="530" 
d="M39 61h58c17 0 29 14 29 29v372c0 15 -12 29 -29 29h-58v61h289v-61h-62c-20 -2 -32 -6 -32 -28v-400h143c83 0 90 79 93 163h56v-226h-487v61zM227 745h141l-153 -143h-73c3 4 17 28 85 143z" />
    <glyph glyph-name="lcaron" unicode="&#x13e;" horiz-adv-x="328" 
d="M304 0h-277v58l54 3c10 0 29 6 29 38v563c0 21 -13 26 -24 26h-66v57l198 17v-663c0 -28 11 -38 30 -38h56v-61zM361 753c42 0 73 -33 73 -100c0 -83 -53 -161 -142 -161v46c40 0 78 39 78 85c-8 -3 -16 -4 -23 -4c-33 0 -57 30 -57 65c0 40 32 69 71 69z" />
    <glyph glyph-name="lcaron.001" unicode="&#xe05a;" horiz-adv-x="530" 
d="M39 61h58c17 0 29 14 29 29v372c0 15 -12 29 -29 29h-58v61h289v-61h-62c-20 -2 -32 -6 -32 -28v-400h143c83 0 90 79 93 163h56v-226h-487v61zM479 664c42 0 73 -33 73 -100c0 -83 -53 -161 -142 -161v46c40 0 78 39 78 85c-8 -3 -16 -4 -23 -4c-33 0 -57 30 -57 65
c0 40 32 69 71 69z" />
    <glyph glyph-name="lcommaaccent" unicode="&#x13c;" horiz-adv-x="328" 
d="M304 0h-277v58l54 3c10 0 29 6 29 38v563c0 21 -13 26 -24 26h-66v57l198 17v-663c0 -28 11 -38 30 -38h56v-61zM162 -30c42 0 73 -33 73 -101c0 -82 -53 -161 -142 -161v46c40 0 78 39 78 85c-8 -3 -16 -4 -23 -4c-33 0 -57 31 -57 66c0 39 32 69 71 69z" />
    <glyph glyph-name="lcommaaccent.001" unicode="&#xe05b;" horiz-adv-x="530" 
d="M39 61h58c17 0 29 14 29 29v372c0 15 -12 29 -29 29h-58v61h289v-61h-62c-20 -2 -32 -6 -32 -28v-400h143c83 0 90 79 93 163h56v-226h-487v61zM284 -60c42 0 73 -33 73 -101c0 -82 -53 -161 -142 -161v46c40 0 78 39 78 85c-8 -3 -16 -4 -23 -4c-33 0 -57 31 -57 66
c0 39 32 69 71 69z" />
    <glyph glyph-name="less" unicode="&#x3c;" horiz-adv-x="419" 
d="M46 304l222 300h100l-219 -300l221 -304h-102z" />
    <glyph glyph-name="lslash" unicode="&#x142;" horiz-adv-x="328" 
d="M304 0h-277v58l54 3c10 0 29 6 29 38v191l-84 -54v69l84 54v303c0 21 -13 26 -24 26h-66v57l198 17v-332l102 66v-69l-102 -66v-262c0 -28 11 -38 30 -38h56v-61z" />
    <glyph glyph-name="lslash.001" unicode="&#xe05c;" horiz-adv-x="530" 
d="M39 61h58c17 0 29 14 29 29v100l-76 -49v69l76 49v203c0 15 -12 29 -29 29h-58v61h289v-61h-62c-20 -2 -32 -6 -32 -28v-134l88 58v-69l-88 -58v-197h143c83 0 90 79 93 163h56v-226h-487v61z" />
    <glyph glyph-name="m" unicode="m" horiz-adv-x="985" 
d="M308 0h-277v61h55c10 0 29 6 29 38v332c0 21 -14 26 -24 26h-66v57l198 17v-60l-11 -52c41 75 95 115 176 115c70 0 142 -38 161 -108c33 60 82 108 166 108c80 0 161 -48 166 -136v-308c0 -13 12 -29 26 -29h58v-61h-267v61h48c15 0 28 12 28 26v287c0 54 -46 80 -94 80
c-72 0 -127 -68 -127 -145v-219c0 -13 12 -29 27 -29h58v-61h-267v61h48c15 0 27 12 27 26v287c0 54 -46 80 -93 80c-68 0 -130 -58 -130 -129v-226c0 -28 11 -38 30 -38h55v-61z" />
    <glyph glyph-name="m.001" unicode="&#xe05d;" horiz-adv-x="874" 
d="M834 552v-62h-56c-20 -2 -32 -6 -32 -28v-372c0 -22 12 -26 32 -28h56v-62h-284v62h60c16 0 28 13 28 29v393l-177 -484h-79l-175 480v-390c0 -22 12 -26 31 -28h56v-62h-255v62h60c16 0 28 13 28 29v370c0 16 -12 29 -28 29h-60v62h243l158 -423l149 423h245z" />
    <glyph glyph-name="macron" unicode="&#xaf;" horiz-adv-x="472" 
d="M116 670h250v-69h-250v69z" />
    <glyph glyph-name="minus" unicode="&#x2212;" horiz-adv-x="547" 
d="M61 350h425v-88h-425v88z" />
    <glyph glyph-name="multiply" unicode="&#xd7;" horiz-adv-x="545" 
d="M154 487l120 -120l118 118l61 -63l-117 -117l119 -119l-61 -62l-120 119l-120 -121l-63 62l121 121l-119 120z" />
    <glyph glyph-name="n" unicode="n" horiz-adv-x="664" 
d="M308 0h-277v61h55c10 0 29 6 29 38v332c0 21 -14 26 -24 26h-66v57l198 17v-60l-11 -52c41 75 102 115 183 115c80 0 165 -48 165 -136v-308c0 -13 12 -29 27 -29h58v-61h-267v61h48c15 0 28 12 28 26v287c0 54 -46 80 -94 80c-67 0 -137 -58 -137 -129v-226
c0 -28 11 -38 30 -38h55v-61z" />
    <glyph glyph-name="n.001" unicode="&#xe05e;" horiz-adv-x="676" 
d="M588 461v-461h-87l-279 408l-22 47c1 -9 5 -37 7 -44v-321c0 -22 12 -26 31 -28h56v-62h-255v62h60c17 0 29 13 29 29v370c0 16 -12 29 -29 29h-60v62h201l261 -388l11 -27l-3 49v276c0 22 -12 26 -33 28h-56v62h256v-62h-61c-15 0 -27 -13 -27 -29z" />
    <glyph glyph-name="nacute" unicode="&#x144;" horiz-adv-x="664" 
d="M308 0h-277v58l55 3c10 0 29 6 29 38v332c0 21 -14 26 -24 26h-66v57l198 17v-60l-11 -52c41 75 102 115 183 115c80 0 165 -48 165 -136v-308c0 -13 12 -29 27 -29h58v-61h-267v61h48c15 2 28 12 28 26v287c0 54 -46 80 -94 80c-67 0 -137 -58 -137 -129v-226
c0 -28 11 -38 30 -38h55v-61zM396 745h141l-153 -143h-73c3 4 17 28 85 143z" />
    <glyph glyph-name="nacute.001" unicode="&#xe05f;" horiz-adv-x="676" 
d="M588 461v-461h-87l-279 408l-22 47c1 -9 5 -37 7 -44v-321c0 -22 12 -26 31 -28h56v-62h-255v62h60c17 0 29 13 29 29v370c0 16 -12 29 -29 29h-60v62h201l261 -388l11 -27l-3 49v276c0 22 -12 26 -33 28h-56v62h256v-62h-61c-15 0 -27 -13 -27 -29zM391 745h141
l-153 -143h-73c3 4 17 28 85 143z" />
    <glyph glyph-name="ncaron" unicode="&#x148;" horiz-adv-x="664" 
d="M308 0h-277v58l55 3c10 0 29 6 29 38v332c0 21 -14 26 -24 26h-66v57l198 17v-60l-11 -52c41 75 102 115 183 115c80 0 165 -48 165 -136v-308c0 -13 12 -29 27 -29h58v-61h-267v61h48c15 2 28 12 28 26v287c0 54 -46 80 -94 80c-67 0 -137 -58 -137 -129v-226
c0 -28 11 -38 30 -38h55v-61zM390 597h-119l-109 148h94l84 -84l77 84h77z" />
    <glyph glyph-name="ncaron.001" unicode="&#xe060;" horiz-adv-x="676" 
d="M588 461v-461h-87l-279 408l-22 47c1 -9 5 -37 7 -44v-321c0 -22 12 -26 31 -28h56v-62h-255v62h60c17 0 29 13 29 29v370c0 16 -12 29 -29 29h-60v62h201l261 -388l11 -27l-3 49v276c0 22 -12 26 -33 28h-56v62h256v-62h-61c-15 0 -27 -13 -27 -29zM400 606h-119
l-109 148h94l84 -84l77 84h77z" />
    <glyph glyph-name="ncommaaccent" unicode="&#x146;" horiz-adv-x="664" 
d="M308 0h-277v58l55 3c10 0 29 6 29 38v332c0 21 -14 26 -24 26h-66v57l198 17v-60l-11 -52c41 75 102 115 183 115c80 0 165 -48 165 -136v-308c0 -13 12 -29 27 -29h58v-61h-267v61h48c15 2 28 12 28 26v287c0 54 -46 80 -94 80c-67 0 -137 -58 -137 -129v-226
c0 -28 11 -38 30 -38h55v-61zM343 -30c42 0 73 -33 73 -101c0 -82 -53 -161 -142 -161v46c40 0 78 39 78 85c-8 -3 -16 -4 -23 -4c-33 0 -57 31 -57 66c0 39 32 69 71 69z" />
    <glyph glyph-name="ncommaaccent.001" unicode="&#xe061;" horiz-adv-x="676" 
d="M588 461v-461h-87l-279 408l-22 47c1 -9 5 -37 7 -44v-321c0 -22 12 -26 31 -28h56v-62h-255v62h60c17 0 29 13 29 29v370c0 16 -12 29 -29 29h-60v62h201l261 -388l11 -27l-3 49v276c0 22 -12 26 -33 28h-56v62h256v-62h-61c-15 0 -27 -13 -27 -29zM377 -50
c42 0 73 -33 73 -101c0 -82 -53 -161 -142 -161v46c40 0 78 39 78 85c-8 -3 -16 -4 -23 -4c-33 0 -57 31 -57 66c0 39 32 69 71 69z" />
    <glyph glyph-name="nine" unicode="9" horiz-adv-x="595" 
d="M50 132c0 43 29 79 77 79c41 0 69 -31 69 -71c0 -44 -34 -54 -40 -61c26 -23 50 -27 86 -27c135 0 173 115 173 234c0 12 0 19 -2 33c-31 -52 -92 -69 -151 -69c-135 0 -210 94 -210 224c0 140 100 233 238 233c200 0 242 -179 242 -350c0 -197 -59 -372 -284 -372
c-86 0 -198 44 -198 147zM168 479c0 -79 30 -153 120 -153c87 0 121 62 121 143c0 79 -23 171 -119 171c-92 0 -122 -83 -122 -161z" />
    <glyph glyph-name="nine.osf" unicode="&#xe062;" horiz-adv-x="595" 
d="M50 -25c0 43 30 79 78 79c40 0 69 -30 69 -71c0 -44 -34 -54 -41 -60c27 -23 51 -27 87 -27c135 0 173 114 173 234c0 12 0 18 -2 33c-31 -53 -92 -69 -151 -69c-135 0 -211 94 -211 223c0 140 101 234 239 234c199 0 241 -179 241 -350c0 -197 -58 -372 -284 -372
c-85 0 -198 44 -198 146zM169 323c0 -79 30 -154 120 -154c87 0 120 63 120 144c0 79 -23 171 -118 171c-92 0 -122 -84 -122 -161z" />
    <glyph glyph-name="nine.tf" unicode="&#xe063;" horiz-adv-x="600" 
d="M59 132c0 43 29 79 77 79c41 0 69 -31 69 -71c0 -44 -34 -54 -40 -61c26 -23 50 -27 86 -27c135 0 173 115 173 234c0 12 0 19 -2 33c-31 -52 -92 -69 -151 -69c-135 0 -210 94 -210 224c0 140 100 233 238 233c200 0 242 -179 242 -350c0 -197 -59 -372 -284 -372
c-86 0 -198 44 -198 147zM177 479c0 -79 30 -153 120 -153c87 0 121 62 121 143c0 79 -23 171 -119 171c-92 0 -122 -83 -122 -161z" />
    <glyph glyph-name="nineinferior" unicode="&#x2089;" horiz-adv-x="397" 
d="M51 -99c0 26 17 46 45 46c25 0 42 -12 42 -37c0 -22 -15 -29 -19 -33c16 -10 27 -14 49 -14c82 0 97 68 97 144c-19 -32 -54 -43 -90 -43c-82 0 -125 60 -125 129c0 85 63 140 147 140c122 0 150 -95 150 -199c0 -120 -44 -218 -175 -218c-52 0 -121 23 -121 85zM127 96
c0 -48 19 -82 64 -82c53 0 73 44 73 83c0 48 -19 88 -68 88c-54 0 -69 -42 -69 -89z" />
    <glyph glyph-name="ninesuperior" unicode="&#x2079;" horiz-adv-x="397" 
d="M51 426c0 26 17 46 45 46c25 0 42 -12 42 -37c0 -22 -15 -29 -19 -33c16 -10 27 -14 49 -14c82 0 97 68 97 144c-19 -32 -54 -43 -90 -43c-82 0 -125 60 -125 129c0 85 63 140 147 140c122 0 150 -95 150 -199c0 -120 -44 -218 -175 -218c-52 0 -121 23 -121 85zM127 621
c0 -48 19 -82 64 -82c53 0 73 44 73 83c0 48 -19 88 -68 88c-54 0 -69 -42 -69 -89z" />
    <glyph glyph-name="ntilde" unicode="&#xf1;" horiz-adv-x="664" 
d="M308 0h-277v58l55 3c10 0 29 6 29 38v332c0 21 -14 26 -24 26h-66v57l198 17v-60l-11 -52c41 75 102 115 183 115c80 0 161 -48 165 -136v-308c0 -13 12 -29 27 -29h58v-61h-267v61h48c15 2 28 12 28 26v287c0 54 -46 80 -94 80c-67 0 -137 -58 -137 -129v-226
c0 -28 11 -38 30 -38h55v-61zM136 614c0 60 25 123 96 123c65 0 154 -46 209 -46c16 0 21 35 21 54h64v-21c-1 -56 -24 -119 -93 -119c-55 0 -165 48 -193 48c-31 0 -36 -27 -36 -54h-66c-2 2 -2 10 -2 15z" />
    <glyph glyph-name="ntilde.001" unicode="&#xe064;" horiz-adv-x="676" 
d="M588 461v-461h-87l-279 408l-22 47c1 -9 5 -37 7 -44v-321c0 -22 12 -26 31 -28h56v-62h-255v62h60c17 0 29 13 29 29v370c0 16 -12 29 -29 29h-60v62h201l261 -388l11 -27l-3 49v276c0 22 -12 26 -33 28h-56v62h256v-62h-61c-15 0 -27 -13 -27 -29zM156 614
c0 60 25 123 96 123c65 0 153 -46 209 -46c15 0 21 35 21 54h64l-1 -21c-1 -56 -24 -119 -93 -119c-54 0 -164 48 -192 48c-31 0 -37 -27 -37 -54h-65c-2 2 -2 10 -2 15z" />
    <glyph glyph-name="numbersign" unicode="#" horiz-adv-x="1185" 
d="M707 589v-589h-84l-357 520c-12 18 -21 42 -33 68c2 -12 6 -48 8 -56v-429c0 -28 15 -33 40 -36h70v-67h-297v67h76c20 0 35 17 35 37v485c0 20 -15 37 -35 37h-76v67h228c331 -484 339 -499 341 -503l13 -34l-5 61v373c0 27 -15 33 -39 36h-71v67h296v-67h-75
c-21 0 -35 -17 -35 -37zM797 418c0 112 60 214 183 214c119 0 169 -105 169 -212c0 -113 -53 -219 -177 -219c-128 0 -175 104 -175 217zM897 413c0 -51 0 -153 72 -153c75 0 80 92 80 152c0 57 0 159 -75 159c-77 0 -77 -103 -77 -158zM846 128h251v-88h-251v88z" />
    <glyph glyph-name="o" unicode="o" horiz-adv-x="586" 
d="M33 264c0 156 107 269 265 269c157 0 255 -119 255 -274c0 -161 -102 -273 -265 -273c-167 0 -255 119 -255 278zM152 259c0 -95 21 -210 138 -210c119 0 144 118 144 217c0 92 -29 202 -140 202c-117 0 -142 -115 -142 -209z" />
    <glyph glyph-name="o.001" unicode="&#xe065;" horiz-adv-x="636" 
d="M35 268c0 168 103 301 288 301c160 0 278 -121 278 -291c0 -174 -118 -301 -287 -301c-142 0 -279 110 -279 291zM152 270c0 -106 33 -219 164 -219c132 0 165 119 165 224c0 101 -32 222 -160 222c-132 0 -169 -123 -169 -227z" />
    <glyph glyph-name="oacute" unicode="&#xf3;" horiz-adv-x="586" 
d="M33 264c0 156 107 269 265 269c157 0 255 -119 255 -274c0 -161 -102 -273 -265 -273c-167 0 -255 119 -255 278zM152 259c0 -95 21 -210 138 -210c119 0 144 118 144 217c0 92 -29 202 -140 202c-117 0 -142 -115 -142 -209zM321 745h142l-154 -143h-72z" />
    <glyph glyph-name="oacute.001" unicode="&#xe066;" horiz-adv-x="636" 
d="M35 268c0 168 103 301 288 301c160 0 278 -121 278 -291c0 -174 -118 -301 -287 -301c-142 0 -279 110 -279 291zM152 270c0 -106 33 -219 164 -219c132 0 165 119 165 224c0 101 -32 222 -160 222c-132 0 -169 -123 -169 -227zM362 745h142l-154 -143h-73
c3 4 17 28 85 143z" />
    <glyph glyph-name="ocircumflex" unicode="&#xf4;" horiz-adv-x="586" 
d="M33 264c0 156 107 269 265 269c157 0 255 -119 255 -274c0 -161 -102 -273 -265 -273c-167 0 -255 119 -255 278zM152 259c0 -95 21 -210 138 -210c119 0 144 118 144 217c0 92 -29 202 -140 202c-117 0 -142 -115 -142 -209zM231 745h120l108 -148h-94l-83 84l-78 -84
h-77z" />
    <glyph glyph-name="ocircumflex.001" unicode="&#xe067;" horiz-adv-x="636" 
d="M35 268c0 168 103 301 288 301c160 0 278 -121 278 -291c0 -174 -118 -301 -287 -301c-142 0 -279 110 -279 291zM152 270c0 -106 33 -219 164 -219c132 0 165 119 165 224c0 101 -32 222 -160 222c-132 0 -169 -123 -169 -227zM255 745h120l108 -148h-93l-84 84l-77 -84
h-78z" />
    <glyph glyph-name="odieresis" unicode="&#xf6;" horiz-adv-x="586" 
d="M33 264c0 156 107 269 265 269c157 0 255 -119 255 -274c0 -161 -102 -273 -265 -273c-167 0 -255 119 -255 278zM152 259c0 -95 21 -210 138 -210c119 0 144 118 144 217c0 92 -29 202 -140 202c-117 0 -142 -115 -142 -209zM331 685c0 35 29 60 63 60
c33 0 63 -26 63 -60c0 -35 -28 -67 -63 -67c-38 0 -63 32 -63 67zM116 685c0 35 27 60 63 60c37 0 62 -26 62 -60c0 -37 -29 -65 -64 -65c-36 0 -61 30 -61 65z" />
    <glyph glyph-name="odieresis.001" unicode="&#xe068;" horiz-adv-x="636" 
d="M35 268c0 168 103 301 288 301c160 0 278 -121 278 -291c0 -174 -118 -301 -287 -301c-142 0 -279 110 -279 291zM152 270c0 -106 33 -219 164 -219c132 0 165 119 165 224c0 101 -32 222 -160 222c-132 0 -169 -123 -169 -227zM362 685c0 35 29 60 63 60
c33 0 62 -26 62 -60c0 -35 -27 -67 -62 -67c-38 0 -63 32 -63 67zM147 685c0 35 26 60 62 60c38 0 63 -26 63 -60c0 -37 -30 -65 -65 -65s-60 30 -60 65z" />
    <glyph glyph-name="oe" unicode="&#x153;" horiz-adv-x="966" 
d="M33 264c0 156 107 269 265 269c83 0 150 -34 194 -89c45 56 114 91 201 91c173 0 245 -125 245 -288h-385c0 -145 72 -190 157 -190c128 0 154 115 154 115h67c0 -73 -84 -188 -234 -188c-93 0 -162 33 -206 89c-46 -55 -116 -87 -203 -87c-167 0 -255 119 -255 278z
M433 258c0 93 -25 210 -139 210c-117 0 -142 -115 -142 -209c0 -95 21 -210 138 -210c109 0 143 98 143 209zM689 468c-85 0 -133 -72 -133 -154h254c0 79 -29 154 -121 154z" />
    <glyph glyph-name="oe.001" unicode="&#xe069;" horiz-adv-x="889" 
d="M683 494l-161 -1v-169h62c29 0 48 23 48 48v47h58v-265h-58v31c0 37 -6 75 -52 75h-58v-192h169c83 0 90 74 93 159h60v-227h-423c-33 -12 -70 -22 -110 -22c-155 0 -276 110 -276 291c0 167 88 300 285 300c39 0 75 -3 107 -15h409v-205h-59c-4 63 -11 145 -94 145z
M151 271c0 -123 49 -220 162 -220c41 0 74 13 99 32v392c-24 17 -55 24 -95 24c-113 0 -166 -108 -166 -228z" />
    <glyph glyph-name="ogonek" unicode="&#x2db;" horiz-adv-x="341" 
d="M173 7h90c-63 -46 -66 -62 -66 -89c0 -18 6 -46 59 -46c14 0 41 2 60 7c15 -54 15 -57 15 -57c-21 -7 -57 -10 -83 -10c-74 0 -146 29 -146 90c0 39 27 73 71 105z" />
    <glyph glyph-name="ograve" unicode="&#xf2;" horiz-adv-x="586" 
d="M33 264c0 156 107 269 265 269c157 0 255 -119 255 -274c0 -161 -102 -273 -265 -273c-167 0 -255 119 -255 278zM152 259c0 -95 21 -210 138 -210c119 0 144 118 144 217c0 92 -29 202 -140 202c-117 0 -142 -115 -142 -209zM125 745h142c68 -115 82 -139 85 -143h-73z
" />
    <glyph glyph-name="ograve.001" unicode="&#xe06a;" horiz-adv-x="636" 
d="M35 268c0 168 103 301 288 301c160 0 278 -121 278 -291c0 -174 -118 -301 -287 -301c-142 0 -279 110 -279 291zM152 270c0 -106 33 -219 164 -219c132 0 165 119 165 224c0 101 -32 222 -160 222c-132 0 -169 -123 -169 -227zM139 745h142c68 -115 82 -139 85 -143h-73
z" />
    <glyph glyph-name="ohorn" unicode="&#x1a1;" horiz-adv-x="586" 
d="M582 710c42 0 73 -33 73 -100c0 -73 -36 -161 -163 -165c39 -49 61 -113 61 -186c0 -161 -102 -273 -265 -273c-167 0 -255 119 -255 278c0 156 107 269 265 269c54 0 102 -15 140 -40c18 -4 33 -5 48 -5c77 0 105 54 105 92c-8 -3 -16 -4 -23 -4c-33 0 -57 30 -57 65
c0 40 32 69 71 69zM152 259c0 -95 21 -210 138 -210c119 0 144 118 144 217c0 92 -29 202 -140 202c-117 0 -142 -115 -142 -209z" />
    <glyph glyph-name="ohorn.001" unicode="&#xe06b;" horiz-adv-x="636" 
d="M628 732c42 0 73 -33 73 -100c0 -73 -36 -160 -162 -165c39 -50 62 -115 62 -189c0 -174 -118 -301 -287 -301c-142 0 -279 110 -279 291c0 168 103 301 288 301c65 0 123 -20 169 -55c14 -3 27 -4 40 -4c77 0 105 54 105 92c-8 -3 -16 -4 -23 -4c-33 0 -57 30 -57 65
c0 40 32 69 71 69zM152 270c0 -106 33 -219 164 -219c132 0 165 119 165 224c0 101 -32 222 -160 222c-132 0 -169 -123 -169 -227z" />
    <glyph glyph-name="ohungarumlaut" unicode="&#x151;" horiz-adv-x="586" 
d="M33 264c0 156 107 269 265 269c157 0 255 -119 255 -274c0 -161 -102 -273 -265 -273c-167 0 -255 119 -255 278zM152 259c0 -95 21 -210 138 -210c119 0 144 118 144 217c0 92 -29 202 -140 202c-117 0 -142 -115 -142 -209zM261 745h121l-153 -143h-53
c3 4 17 28 85 143zM411 745h121l-153 -143h-53c3 4 17 28 85 143z" />
    <glyph glyph-name="ohungarumlaut.002" unicode="&#xe06c;" horiz-adv-x="636" 
d="M35 268c0 168 103 301 288 301c160 0 278 -121 278 -291c0 -174 -118 -301 -287 -301c-142 0 -279 110 -279 291zM152 270c0 -106 33 -219 164 -219c132 0 165 119 165 224c0 101 -32 222 -160 222c-132 0 -169 -123 -169 -227zM291 755h121l-153 -143h-53
c3 4 17 28 85 143zM441 755h121l-153 -143h-53c3 4 17 28 85 143z" />
    <glyph glyph-name="omacron" unicode="&#x14d;" horiz-adv-x="586" 
d="M33 264c0 156 107 269 265 269c157 0 255 -119 255 -274c0 -161 -102 -273 -265 -273c-167 0 -255 119 -255 278zM152 259c0 -95 21 -210 138 -210c119 0 144 118 144 217c0 92 -29 202 -140 202c-117 0 -142 -115 -142 -209zM168 670h250v-69h-250v69z" />
    <glyph glyph-name="omacron.002" unicode="&#xe06d;" horiz-adv-x="636" 
d="M35 268c0 168 103 301 288 301c160 0 278 -121 278 -291c0 -174 -118 -301 -287 -301c-142 0 -279 110 -279 291zM152 270c0 -106 33 -219 164 -219c132 0 165 119 165 224c0 101 -32 222 -160 222c-132 0 -169 -123 -169 -227zM193 690h250v-69h-250v69z" />
    <glyph glyph-name="one" unicode="1" horiz-adv-x="461" 
d="M161 67c20 0 35 17 35 37v442c-50 -12 -101 -17 -153 -17v61c78 0 157 35 181 115h79v-602c0 -28 15 -33 40 -36h88v-67h-367v67h97z" />
    <glyph glyph-name="one.osf" unicode="&#xe06e;" horiz-adv-x="484" 
d="M173 67c21 0 35 17 35 37v304c-49 -11 -113 -16 -165 -16v61c78 0 170 35 194 115h79v-465c0 -28 15 -33 39 -36h99v-67h-404v67h123z" />
    <glyph glyph-name="one.tf" unicode="&#xe06f;" horiz-adv-x="600" 
d="M219 67c20 0 35 17 35 37v442c-50 -12 -101 -21 -203 -21v61c138 0 207 39 231 119h79v-602c0 -28 15 -33 40 -36h148v-67h-491v67h161z" />
    <glyph glyph-name="oneeighth" unicode="&#x215b;" horiz-adv-x="853" 
d="M602 707h69l-430 -722h-71zM122 333c20 0 28 17 28 37v228c-29 -11 -41 -15 -93 -15v41c28 0 102 7 117 69h52v-324c0 -28 15 -33 40 -36h56v-43h-272v43h72zM503 102c0 44 33 80 70 100c-35 21 -58 46 -58 95c0 86 72 115 141 115c62 0 133 -25 133 -97
c0 -44 -24 -71 -65 -92c47 -18 79 -56 79 -106c0 -83 -74 -127 -154 -127c-69 0 -146 33 -146 112zM566 109c0 -49 38 -72 85 -72c32 0 76 13 76 62c0 25 -19 43 -43 53l-69 29c-27 -15 -49 -30 -49 -72zM590 311c0 -27 20 -41 45 -51c33 -13 43 -18 44 -18
c29 15 47 35 47 61c0 40 -24 62 -67 62c-40 0 -69 -19 -69 -54z" />
    <glyph glyph-name="onefifth" unicode="&#xe070;" horiz-adv-x="842" 
d="M602 707h69l-430 -722h-71zM122 333c20 0 28 17 28 37v228c-29 -11 -41 -15 -93 -15v41c28 0 102 7 117 69h52v-324c0 -28 15 -33 40 -36h56v-43h-272v43h72zM497 86c0 28 16 56 47 56c23 0 45 -17 45 -40c0 -20 -10 -37 -33 -38c16 -18 41 -26 67 -26c65 0 90 40 90 102
c0 57 -17 99 -79 99c-33 0 -53 -17 -72 -48h-50l7 214c13 -2 59 -7 110 -7s97 0 147 11c0 -38 -56 -74 -156 -74c-19 0 -35 1 -55 2l-4 -101c22 38 53 50 91 50c103 0 140 -68 140 -141c0 -95 -75 -154 -169 -154c-57 0 -126 28 -126 95z" />
    <glyph glyph-name="onehalf" unicode="&#xbd;" horiz-adv-x="851" 
d="M602 707h69l-430 -722h-71zM122 333c20 0 28 17 28 37v228c-29 -11 -41 -15 -93 -15v41c28 0 102 7 117 69h52v-324c0 -28 15 -33 40 -36h56v-43h-272v43h72zM755 142h46v-65c0 -48 -29 -83 -78 -83c-42 0 -122 49 -157 49c-27 0 -30 -20 -30 -43h-47c0 79 15 126 67 159
l104 66c27 18 45 48 45 72c0 37 -29 64 -73 64c-27 0 -51 -1 -73 -29c20 -6 30 -11 30 -31c0 -22 -18 -38 -41 -38c-29 0 -45 19 -45 47c0 75 85 96 146 96c74 0 144 -31 144 -107c0 -57 -42 -86 -87 -116c-47 -31 -164 -55 -165 -128c11 16 26 39 62 39
c39 0 89 -20 124 -20c17 0 28 17 28 33v35z" />
    <glyph glyph-name="oneinferior" unicode="&#x2081;" horiz-adv-x="372" 
d="M122 -132c20 0 28 17 28 37v228c-29 -11 -41 -15 -93 -15v41c28 0 102 7 117 69h52v-324c0 -28 15 -33 40 -36h56v-43h-272v43h72z" />
    <glyph glyph-name="onequarter" unicode="&#xbc;" horiz-adv-x="800" 
d="M602 707h69l-430 -722h-71zM122 333c20 0 28 17 28 37v228c-29 -11 -41 -15 -93 -15v41c28 0 102 7 117 69h52v-324c0 -28 15 -33 40 -36h56v-43h-272v43h72zM585 42c12 0 22 10 22 23v46h-185v54l187 238h65v-242h76v-50h-76v-47c0 -17 10 -20 25 -22h39v-42h-198v42h45
zM607 329l-131 -168h131v168z" />
    <glyph glyph-name="oneseventh" unicode="&#xe071;" horiz-adv-x="896" 
d="M602 707h69l-430 -722h-71zM122 333c20 0 28 17 28 37v228c-29 -11 -41 -15 -93 -15v41c28 0 102 7 117 69h52v-324c0 -28 15 -33 40 -36h56v-43h-272v43h72zM629 35c0 147 155 226 164 318c-19 -21 -47 -29 -76 -29c-27 0 -52 12 -88 12c-28 0 -46 -20 -46 -40
c0 -3 -2 12 -2 -53h-51v158h51v-41c14 35 32 48 66 48c36 0 102 -31 128 -31c20 0 25 8 26 26h45c0 -46 -13 -97 -39 -136c-79 -117 -91 -180 -91 -225c0 -27 -8 -64 -44 -64c-33 0 -43 29 -43 57z" />
    <glyph glyph-name="onesixth" unicode="&#xe072;" horiz-adv-x="830" 
d="M602 707h69l-430 -722h-71zM122 333c20 0 28 17 28 37v228c-29 -11 -41 -15 -93 -15v41c28 0 102 7 117 69h52v-324c0 -28 15 -33 40 -36h56v-43h-272v43h72zM779 322c0 -26 -17 -46 -45 -46c-25 0 -42 12 -42 37c0 22 15 29 19 33c-16 10 -27 14 -49 14
c-82 0 -97 -68 -97 -144c19 32 54 43 90 43c82 0 125 -60 125 -129c0 -85 -63 -140 -147 -140c-122 0 -150 95 -150 199c0 120 44 218 175 218c52 0 121 -23 121 -85zM703 127c0 48 -19 82 -64 82c-53 0 -73 -44 -73 -83c0 -48 19 -88 68 -88c54 0 69 42 69 89z" />
    <glyph glyph-name="onesuperior" unicode="&#xb9;" horiz-adv-x="382" 
d="M132 393c20 0 28 17 28 37v228c-29 -11 -41 -15 -93 -15v41c28 0 102 7 117 69h52v-324c0 -28 15 -33 40 -36h56v-43h-272v43h72z" />
    <glyph glyph-name="onethird" unicode="&#x2153;" horiz-adv-x="847" 
d="M602 707h69l-430 -722h-71zM122 333c20 0 28 17 28 37v228c-29 -11 -41 -15 -93 -15v41c28 0 102 7 117 69h52v-324c0 -28 15 -33 40 -36h56v-43h-272v43h72zM497 90c0 27 17 51 46 51c23 0 44 -10 44 -42c0 -20 -13 -31 -33 -36c23 -23 53 -25 75 -25c50 0 83 23 83 77
c0 75 -58 79 -121 79v44c55 0 113 1 113 66c0 47 -33 59 -75 59c-21 0 -39 -4 -56 -19c15 -5 22 -11 22 -31c0 -26 -19 -40 -41 -40c-23 0 -45 13 -45 48c0 60 75 85 130 85c72 0 149 -20 149 -95c0 -68 -57 -88 -102 -94c69 -5 111 -40 111 -106c0 -83 -78 -119 -160 -119
c-59 0 -140 30 -140 98z" />
    <glyph glyph-name="ordfeminine" unicode="&#xaa;" horiz-adv-x="1814" 
d="M780 -85c18 14 32 32 32 56c0 18 -4 45 -37 53c3 -16 6 -35 6 -67c0 -70 -73 -99 -132 -99c-40 0 -85 25 -85 68c0 45 42 54 59 54c6 0 11 0 16 -1c10 20 29 39 57 51v3c-3 10 -3 22 -3 30c-14 -29 -37 -52 -70 -52s-57 40 -57 90s45 121 45 159c0 22 -4 29 -11 29
c-21 0 -40 -31 -42 -38c0 -33 -19 -55 -44 -67c0 -122 -51 -180 -146 -180c-51 0 -102 21 -102 82c0 34 22 70 55 70c23 0 32 -20 32 -37c0 -33 -19 -68 -52 -68c-7 0 -14 4 -21 6c5 -20 26 -36 43 -36c57 0 80 88 97 163c-19 8 -35 21 -45 40c-7 -3 -13 -5 -18 -5
c-49 0 -71 26 -71 75c0 73 60 147 138 147c80 0 95 -32 127 -32c6 0 13 1 20 2v-5c-45 -11 -90 -43 -117 -80c-4 32 -29 53 -63 53c-50 0 -95 -50 -95 -100c0 -35 20 -53 58 -53c5 0 12 1 18 4c-5 10 -7 22 -7 35c0 37 25 61 41 61c15 0 22 -12 22 -25
c0 -28 -23 -58 -46 -73c8 -17 23 -28 40 -35c11 45 25 92 59 133c12 14 54 56 88 60v-7c-48 -23 -59 -87 -59 -138c0 -14 1 -30 3 -47c23 11 40 31 40 58c0 18 -6 38 -15 47v2c10 -6 17 -24 19 -38c8 16 29 41 62 41c41 0 60 -46 60 -95c0 -33 -45 -108 -45 -157
c0 -13 4 -21 12 -21c52 0 73 186 94 270c10 -5 21 -10 33 -10c19 0 30 12 43 20c-14 -68 -48 -192 -44 -256l1 -17c27 -6 46 -29 46 -63c0 -26 -14 -47 -30 -60h-9zM1599 18h4c-8 -41 -53 -64 -91 -64c-24 0 -46 4 -67 12c-45 -45 -98 -75 -143 -75c-43 0 -74 33 -74 121
c-2 -1 -4 -1 -7 -1c-49 0 -97 44 -97 138c0 53 80 155 161 155c26 0 50 -19 50 -67c0 -62 -73 -105 -128 -111c-8 -45 -12 -82 -12 -83c0 -15 11 -22 26 -22c2 0 4 0 7 1v1c0 45 35 122 85 122c12 0 17 -13 17 -25c0 -43 -49 -102 -94 -107c0 -78 31 -110 72 -110
c37 0 84 27 125 68c-47 22 -80 64 -80 122c0 39 24 85 67 94v-4c-41 -12 -60 -54 -60 -94c0 -49 35 -89 81 -109c32 35 61 80 76 129l-114 35l50 20l-67 136l54 -16l-12 80l52 -59l31 45l31 -98l42 135l21 -35l79 46v-89h49l-104 -103l103 29l-17 -53l78 -8l-75 -36l40 -32
l-143 -27l9 -51l-88 71c-20 -46 -48 -90 -82 -124c17 -6 35 -9 53 -9c50 0 76 19 92 52zM739 461c-10 5 -20 11 -33 11c-18 0 -27 -4 -39 -12c8 48 42 228 42 264c0 9 -2 17 -9 17c-16 0 -27 -27 -37 -53h-10c10 31 23 66 64 66c37 0 54 -26 59 -57c17 22 34 58 69 58
c42 0 63 -60 63 -115c0 -97 -50 -160 -50 -236c0 -108 91 -55 105 -149c24 41 39 49 59 49c50 0 75 -87 75 -127c0 -22 -5 -50 -16 -77c11 -16 19 -36 19 -58c0 -53 -34 -117 -94 -117c-22 0 -40 13 -40 35c0 15 14 28 28 28c3 0 6 0 9 -1v-4c-12 0 -29 -8 -29 -23
c0 -17 14 -27 29 -27c52 0 89 68 89 113c0 17 -6 32 -14 45c-19 -41 -48 -80 -88 -80c-30 0 -39 27 -39 53c0 51 37 74 56 78c7 49 15 116 15 139c0 3 -4 10 -12 10c-12 0 -43 -23 -43 -79c0 -41 -59 -325 -64 -340c-10 5 -20 10 -33 10c-18 0 -30 -12 -42 -20
c8 47 73 376 73 412c0 90 -100 38 -100 224c0 71 46 150 46 223c0 13 -2 22 -9 22c-14 0 -43 -30 -61 -77c-4 -38 -34 -191 -38 -205zM203 318l3 5c13 0 43 13 43 36c0 2 0 4 -1 6c-16 -6 -33 -8 -49 -8c-25 0 -86 9 -86 43c0 23 35 30 52 30c28 0 74 -21 89 -48
c25 11 46 30 46 58c0 15 -4 27 -11 36c-21 -13 -45 -21 -71 -21c-77 0 -137 59 -137 156c0 14 5 33 13 54c-23 16 -33 43 -33 73c0 60 43 130 102 130c5 0 11 -1 16 -2v-6c-4 1 -8 1 -12 1c-55 0 -98 -65 -98 -121c0 -26 9 -50 30 -64c42 96 148 230 209 230
c35 0 40 -40 40 -68c0 -75 -77 -149 -149 -176c0 -1 -1 -2 -1 -4c-12 -46 -28 -108 -28 -147c0 -43 42 -47 46 -47c23 0 44 8 63 22c-13 9 -29 12 -44 12c-12 0 -32 -4 -35 -7v4c7 6 25 11 33 11c19 0 38 -5 52 -14c32 27 53 72 53 114c0 25 -5 57 -35 57
c-48 0 -78 -52 -78 -95c0 -12 5 -37 23 -37c27 0 40 42 40 65c0 4 -2 10 -3 16h8c2 -6 2 -14 2 -16c0 -29 -20 -73 -47 -73c-25 0 -30 28 -30 48c0 42 32 100 82 100c36 0 58 -37 58 -80c0 -42 -24 -84 -61 -110c10 -10 16 -25 16 -43c0 -35 -25 -57 -55 -70c1 -2 1 -3 1 -5
c0 -26 -28 -45 -51 -45h-5zM1410 869c10 -5 21 -10 33 -10c19 0 30 12 43 20c-8 -47 -69 -349 -69 -385c0 -9 2 -17 9 -17c25 0 50 65 58 95h11c-4 -18 -27 -108 -77 -108c-26 0 -55 18 -64 61c-28 -54 -44 -63 -65 -63c-51 0 -72 83 -72 128c0 58 83 165 134 165
c14 0 23 -8 30 -24c13 68 27 131 29 138zM1194 530h10c-8 -31 -22 -67 -58 -67c-27 0 -52 18 -60 61c-28 -53 -44 -62 -65 -62c-51 0 -72 83 -72 128c0 58 83 165 134 165c15 0 25 -9 32 -29l7 26c10 -5 20 -10 33 -10c18 0 30 12 42 20c-8 -47 -48 -233 -48 -268
c0 -10 2 -17 8 -17c16 0 27 27 37 53zM1758 530h10c-8 -31 -22 -67 -58 -67c-27 0 -52 18 -60 61c-28 -53 -44 -62 -65 -62c-51 0 -72 83 -72 128c0 58 83 165 134 165c15 0 25 -9 32 -29l7 26c10 -5 20 -10 33 -10c18 0 30 12 42 20c-8 -47 -48 -233 -48 -268
c0 -10 2 -17 8 -17c16 0 27 27 37 53zM625 530h9c-7 -31 -22 -67 -58 -67c-26 0 -52 18 -60 61c-27 -53 -43 -62 -65 -62c-50 0 -71 83 -71 128c0 58 83 165 134 165c14 0 24 -9 31 -29l7 26c10 -5 21 -10 33 -10c19 0 30 12 43 20c-8 -47 -49 -233 -49 -268
c0 -10 2 -17 9 -17c16 0 27 27 37 53zM157 223v-9c-13 -19 -40 -40 -66 -40c-33 0 -64 19 -64 49c0 51 56 61 95 61c74 0 116 -42 116 -105c0 -55 -70 -110 -90 -124l18 -4c65 -14 110 -35 157 -97h-2v-2c-8 2 -15 4 -21 4c-24 0 -32 -14 -32 -28c0 -40 60 -55 90 -55
c23 0 47 11 59 26h-4c-22 0 -72 13 -72 47c0 20 15 28 33 28c30 0 62 -24 62 -52c0 -3 -1 -7 -2 -10c36 8 77 34 77 84c0 15 -1 22 -6 38h4c3 -5 7 -23 7 -38c0 -50 -40 -87 -86 -95c-13 -24 -47 -35 -72 -35c-38 0 -97 18 -97 62c0 18 12 36 33 36c4 0 9 0 15 -2
c-57 51 -106 72 -182 72c-30 0 -62 -4 -108 -10c41 14 68 21 93 30c60 22 115 82 115 130c0 59 -45 90 -100 90c-35 0 -90 -5 -90 -51c0 -22 29 -35 54 -35s46 18 66 35zM723 -72c0 28 -18 66 -25 91c-22 -7 -41 -21 -51 -43c26 -9 37 -33 37 -45c0 -9 -7 -25 -25 -25
c-16 0 -28 21 -28 38c0 6 0 12 2 18c-6 1 -11 1 -16 1c-25 0 -42 -15 -42 -40c0 -37 37 -57 72 -57c31 0 76 23 76 62zM1055 680c-5 -28 -31 -161 -31 -194c0 -4 0 -11 8 -11c18 0 37 26 52 90c2 30 13 82 22 124c0 44 -8 56 -18 56c-25 0 -29 -47 -33 -65zM1619 680
c-5 -28 -31 -161 -31 -194c0 -4 0 -11 8 -11c18 0 37 26 52 90c2 30 13 82 22 124c0 44 -8 56 -18 56c-25 0 -29 -47 -33 -65zM486 680c-6 -28 -31 -161 -31 -194c0 -4 0 -11 8 -11c17 0 36 26 51 90c3 30 13 82 23 124c0 44 -9 56 -18 56c-18 0 -31 -48 -33 -65zM1323 680
c-5 -28 -31 -161 -31 -194c0 -4 0 -11 8 -11c34 0 45 52 74 224c-1 36 -10 46 -18 46c-25 0 -29 -47 -33 -65zM260 833c-1 -4 -42 -108 -58 -159c67 30 123 113 123 194c0 13 -2 25 -17 25s-25 -12 -48 -60zM1491 485h2c-9 -58 -55 -85 -96 -91c-1 -35 -41 -68 -89 -68
c-34 0 -80 14 -80 62c0 25 25 55 53 56v-4c-21 -4 -43 -22 -43 -45c0 -43 36 -51 72 -51c34 0 77 9 80 50c-3 -1 -5 -1 -7 -1c-30 0 -55 13 -55 34c0 11 14 20 23 20c21 0 40 -20 45 -41c41 5 84 38 95 79zM1280 294c-33 0 -57 -86 -71 -158c52 8 81 96 81 136
c0 14 -3 22 -10 22zM913 394c23 -27 53 -50 95 -50c16 0 32 4 43 13c-41 7 -128 34 -128 104c0 10 1 25 10 34l4 -4c-3 -9 -5 -18 -5 -27c0 -63 80 -89 130 -93c2 5 3 11 3 17c0 31 -29 55 -62 55c-13 0 -28 -3 -40 -10l-4 1c11 11 27 15 42 15c34 0 71 -24 71 -60
c0 -7 -1 -13 -3 -18h4c43 0 95 21 105 73l10 -5c-9 -45 -62 -84 -118 -84h-11c-11 -11 -29 -16 -48 -16c-39 0 -80 17 -99 54zM1235 25v-2c32 0 84 59 84 100c0 7 -1 14 -9 14c-40 0 -75 -70 -75 -112zM193 369c16 0 34 3 51 9c-14 26 -53 45 -79 45c-12 0 -40 -3 -40 -23
c0 -26 43 -31 68 -31zM709 419l2 -7c-6 -3 -14 -6 -22 -6c-13 0 -25 7 -25 19c0 16 23 25 38 25c23 0 43 -13 43 -35s-23 -30 -38 -30l-59 7c-14 0 -38 -7 -38 -27c0 -13 16 -18 26 -18c32 0 70 33 95 33c35 0 60 -27 60 -64l-6 1v3c-6 38 -33 49 -47 49
c-24 0 -47 -29 -100 -29c-24 0 -34 13 -34 25c0 24 28 32 44 32l58 -6c14 0 32 5 32 23c0 20 -19 30 -37 30c-13 0 -29 -6 -29 -18c0 -9 7 -13 16 -13c7 0 15 2 21 6zM957 58c0 -12 5 -34 24 -34c17 0 21 74 25 107c-29 -3 -49 -40 -49 -73zM408 -92c13 0 19 2 19 16
c0 24 -28 42 -49 42c-15 0 -27 -8 -27 -25c0 -25 37 -33 57 -33zM374 264c0 -11 1 -21 5 -29c21 14 42 41 42 64c0 10 -3 20 -15 20c-26 0 -32 -37 -32 -55zM1385 406h4c-4 18 -16 33 -35 33c-8 0 -15 -2 -15 -13c0 -16 23 -20 46 -20zM672 -72c0 15 -14 25 -29 31
c-1 -4 -1 -9 -1 -13c0 -13 5 -30 15 -30c12 0 15 7 15 12z" />
    <glyph glyph-name="ordmasculine" unicode="&#xba;" horiz-adv-x="445" 
d="M38 465c0 112 60 214 183 214c118 0 169 -105 169 -212c0 -113 -53 -219 -177 -219c-128 0 -175 104 -175 217zM138 460c0 -51 0 -153 72 -153c75 0 80 92 80 152c0 57 0 159 -75 159c-77 0 -77 -103 -77 -158zM87 175h251v-88h-251v88z" />
    <glyph glyph-name="oslash" unicode="&#xf8;" horiz-adv-x="586" 
d="M182 -45h-71l33 70c-73 48 -111 134 -111 239c0 156 107 269 265 269c30 0 58 -5 83 -13l18 38h74l-32 -67c71 -48 112 -132 112 -232c0 -161 -102 -273 -265 -273c-31 0 -60 5 -85 12zM434 266c0 49 -9 103 -33 142l-168 -348c16 -8 35 -11 57 -11
c119 0 144 118 144 217zM152 259c0 -52 6 -111 31 -152l168 348c-17 9 -35 13 -57 13c-117 0 -142 -115 -142 -209z" />
    <glyph glyph-name="oslash.001" unicode="&#xe073;" horiz-adv-x="636" 
d="M35 268c0 168 103 301 288 301c34 0 65 -6 94 -16l21 45h73l-35 -74c76 -49 125 -138 125 -246c0 -174 -118 -301 -287 -301c-32 0 -64 6 -95 17l-23 -48h-70l36 75c-75 49 -127 134 -127 247zM152 270c0 -62 11 -127 47 -171l185 385c-18 8 -39 13 -63 13
c-132 0 -169 -123 -169 -227zM481 275c0 58 -11 123 -44 168l-184 -381c18 -8 38 -11 63 -11c132 0 165 119 165 224z" />
    <glyph glyph-name="otilde" unicode="&#xf5;" horiz-adv-x="586" 
d="M33 264c0 156 107 269 265 269c157 0 255 -119 255 -274c0 -161 -102 -273 -265 -273c-167 0 -255 119 -255 278zM152 259c0 -95 21 -210 138 -210c119 0 144 118 144 217c0 92 -29 202 -140 202c-117 0 -142 -115 -142 -209zM91 614c0 60 25 123 96 123
c65 0 154 -46 209 -46c15 0 21 35 21 54h64l-1 -21c0 -56 -23 -119 -92 -119c-55 0 -165 48 -193 48c-31 0 -37 -27 -37 -54h-65c-2 2 -2 10 -2 15z" />
    <glyph glyph-name="otilde.001" unicode="&#xe074;" horiz-adv-x="636" 
d="M35 268c0 168 103 301 288 301c160 0 278 -121 278 -291c0 -174 -118 -301 -287 -301c-142 0 -279 110 -279 291zM152 270c0 -106 33 -219 164 -219c132 0 165 119 165 224c0 101 -32 222 -160 222c-132 0 -169 -123 -169 -227zM122 614c0 60 25 123 96 123
c65 0 153 -46 208 -46c16 0 22 35 22 54h64l-1 -21c-1 -56 -24 -119 -93 -119c-54 0 -165 48 -192 48c-31 0 -37 -27 -37 -54h-65c-2 2 -2 10 -2 15z" />
    <glyph glyph-name="p" unicode="p" horiz-adv-x="633" 
d="M303 -255h-282v61h54c10 0 29 6 29 38v590c0 20 -13 26 -24 26h-65v57l186 17v-67l-11 -50c39 67 95 117 172 117c160 0 236 -129 236 -275c0 -140 -65 -270 -219 -270c-73 0 -137 16 -170 80v-225c0 -28 11 -38 31 -38h63v-61zM479 259c0 93 -23 209 -138 209
c-68 0 -135 -86 -135 -166v-92c0 -84 62 -152 148 -152c108 0 125 113 125 201z" />
    <glyph glyph-name="p.001" unicode="&#xe075;" horiz-adv-x="577" 
d="M39 62h60c17 0 29 13 29 29v370c0 16 -12 29 -29 29h-60v62h334c101 0 179 -53 179 -158c0 -84 -58 -157 -147 -157h-171v-147c0 -22 12 -26 32 -28h60v-62h-287v62zM234 489v-191h106c59 0 100 40 100 96c0 55 -39 95 -96 95h-110z" />
    <glyph glyph-name="paragraph" unicode="&#xb6;" horiz-adv-x="645" 
d="M411 -154l-1 776h-58v-775h-82v454h-18c-111 0 -184 88 -184 194c0 132 99 196 224 196h321v-67h-86c-20 0 -34 -17 -34 -37v-741h-82z" />
    <glyph glyph-name="parenleft" unicode="(" horiz-adv-x="429" 
d="M379 -172l-20 -33c-213 86 -319 267 -319 481c0 212 128 383 321 466l18 -36c-139 -81 -234 -205 -234 -445c0 -241 79 -333 234 -433z" />
    <glyph glyph-name="parenright" unicode=")" horiz-adv-x="429" 
d="M70 -204l-20 33c155 100 235 192 235 433c0 240 -96 364 -235 445l18 36c194 -83 321 -254 321 -466c0 -214 -106 -395 -319 -481z" />
    <glyph glyph-name="percent" unicode="%" horiz-adv-x="788" 
d="M433 167c0 92 50 180 152 180c103 0 143 -90 143 -180c0 -98 -45 -182 -151 -182c-102 0 -144 90 -144 182zM583 296c-46 0 -64 -45 -64 -135c0 -97 18 -125 58 -125c65 0 67 70 67 127c0 68 -1 133 -61 133zM60 528c0 94 49 179 152 179c100 0 142 -87 142 -177
c0 -94 -44 -183 -148 -183c-107 0 -146 87 -146 181zM143 524c0 -42 0 -127 60 -127c64 0 67 77 67 126c0 48 0 134 -62 134c-65 0 -65 -87 -65 -133zM577 707h69l-430 -722h-71z" />
    <glyph glyph-name="period" unicode="." horiz-adv-x="253" 
d="M57 58c0 39 33 71 71 71s70 -32 70 -71c0 -38 -32 -70 -70 -70s-71 32 -71 70z" />
    <glyph glyph-name="periodcentered" unicode="&#xb7;" horiz-adv-x="249" 
d="M54 307c0 38 33 71 71 71s70 -33 70 -71s-32 -70 -70 -70s-71 32 -71 70z" />
    <glyph glyph-name="perthousand" unicode="&#x2030;" horiz-adv-x="1133" 
d="M433 167c0 92 50 180 152 180c103 0 143 -90 143 -180c0 -98 -45 -182 -151 -182c-102 0 -144 90 -144 182zM583 296c-46 0 -64 -45 -64 -135c0 -97 18 -125 58 -125c65 0 67 70 67 127c0 68 -1 133 -61 133zM60 528c0 94 49 179 152 179c100 0 142 -87 142 -177
c0 -94 -44 -183 -148 -183c-107 0 -146 87 -146 181zM143 524c0 -42 0 -127 60 -127c64 0 67 77 67 126c0 48 0 134 -62 134c-65 0 -65 -87 -65 -133zM577 707h69l-430 -722h-71zM778 167c0 92 50 180 152 180c103 0 143 -90 143 -180c0 -98 -45 -182 -151 -182
c-102 0 -144 90 -144 182zM928 296c-46 0 -64 -45 -64 -135c0 -97 18 -125 58 -125c65 0 67 70 67 127c0 68 -1 133 -61 133z" />
    <glyph glyph-name="plus" unicode="+" horiz-adv-x="547" 
d="M61 350h169v166h87v-166h169v-88h-169v-171h-87v171h-169v88z" />
    <glyph glyph-name="plusminus" unicode="&#xb1;" horiz-adv-x="546" 
d="M61 393h169v166h87v-166h169v-88h-169v-171h-87v171h-169v88zM61 87h425v-87h-425v87z" />
    <glyph glyph-name="q" unicode="q" horiz-adv-x="603" 
d="M390 -194c19 0 30 10 30 38v233c-31 -61 -96 -92 -165 -92c-150 0 -223 125 -223 265c0 148 77 283 240 283c64 0 125 -26 158 -83l38 74h56v-680c0 -32 19 -38 30 -38h54v-61h-280v61h62zM284 56c119 0 142 114 142 211c0 92 -28 197 -137 197
c-117 0 -138 -115 -138 -212c0 -92 24 -196 133 -196z" />
    <glyph glyph-name="q.001" unicode="&#xe076;" horiz-adv-x="694" 
d="M689 101c0 -42 -1 -110 -1 -114c-1 -56 -44 -89 -103 -89c-66 0 -106 47 -139 100c-34 -14 -71 -21 -112 -21c-142 0 -279 110 -279 291c0 168 103 301 288 301c160 0 278 -121 278 -291c0 -101 -40 -186 -106 -240c23 -32 47 -56 82 -56c26 0 35 35 35 58v61h57z
M172 270c0 -48 7 -98 27 -138c22 47 63 79 120 79c69 0 111 -44 145 -94c28 44 37 103 37 158c0 101 -32 222 -160 222c-132 0 -169 -123 -169 -227zM336 51c28 0 51 4 70 13c-28 45 -56 80 -99 80c-38 0 -67 -23 -78 -55c25 -24 59 -38 107 -38z" />
    <glyph glyph-name="q.alt" unicode="&#xe4d0;" horiz-adv-x="628" 
d="M613 517v-57h-65c-10 0 -23 -5 -24 -22v-594c0 -32 19 -38 30 -38l54 -3v-58h-280v61h62c19 0 30 10 30 38v233c-31 -61 -96 -92 -165 -92c-150 0 -223 128 -223 268c0 148 77 283 240 283c64 0 116 -21 178 -113l-19 61v50zM284 56c119 0 142 117 142 214
c0 92 -28 197 -137 197c-117 0 -138 -115 -138 -212c0 -92 24 -199 133 -199z" />
    <glyph glyph-name="question" unicode="?" horiz-adv-x="497" 
d="M186 183v79c0 111 132 174 132 284c0 54 -35 96 -89 96c-34 0 -67 -15 -78 -52c35 -5 57 -23 57 -58c0 -43 -30 -69 -71 -69c-51 0 -78 43 -78 89c0 97 92 163 182 163c113 0 198 -66 198 -181c0 -186 -192 -149 -192 -351h-61zM149 58c0 39 32 71 70 71s70 -32 70 -71
c0 -38 -32 -70 -70 -70s-70 32 -70 70z" />
    <glyph glyph-name="questiondown" unicode="&#xbf;" horiz-adv-x="497" 
d="M311 356v-79c0 -110 -131 -174 -131 -283c0 -55 35 -97 89 -97c34 0 66 16 77 52c-35 5 -56 23 -56 58c0 43 30 69 71 69c51 0 77 -43 77 -89c0 -96 -92 -163 -181 -163c-113 0 -199 67 -199 182c0 185 193 149 193 350h60zM349 481c0 -38 -32 -71 -71 -71
c-38 0 -70 33 -70 71s32 70 70 70c39 0 71 -32 71 -70z" />
    <glyph glyph-name="quotedbl" unicode="&#x22;" horiz-adv-x="406" 
d="M91 459l-30 238c0 33 26 48 57 48c30 0 57 -15 57 -46l-31 -240h-53zM261 459l-30 238c0 33 27 48 57 48s57 -15 57 -46l-30 -240h-54z" />
    <glyph glyph-name="quotedblbase" unicode="&#x201e;" horiz-adv-x="433" 
d="M122 130c42 0 73 -33 73 -101c0 -82 -53 -161 -142 -161v46c40 0 78 39 78 85c-8 -3 -16 -4 -23 -4c-33 0 -57 31 -57 66c0 39 32 69 71 69zM315 130c42 0 73 -33 73 -101c0 -82 -53 -161 -142 -161v46c40 0 78 39 78 85c-8 -3 -16 -4 -22 -4c-33 0 -57 31 -57 66
c0 39 31 69 70 69z" />
    <glyph glyph-name="quotedblleft" unicode="&#x201c;" horiz-adv-x="433" 
d="M306 486c-41 0 -72 33 -72 100c0 83 53 161 141 161v-46c-39 0 -77 -39 -77 -85c7 3 16 4 22 4c33 0 57 -30 57 -65c0 -40 -31 -69 -71 -69zM113 486c-41 0 -73 33 -73 100c0 83 54 161 142 161v-46c-39 0 -77 -39 -77 -85c7 3 15 4 22 4c33 0 57 -30 57 -65
c0 -40 -31 -69 -71 -69z" />
    <glyph glyph-name="quotedblright" unicode="&#x201d;" horiz-adv-x="433" 
d="M122 745c42 0 73 -33 73 -100c0 -83 -53 -161 -142 -161v46c40 0 78 39 78 85c-8 -3 -16 -4 -23 -4c-33 0 -57 30 -57 65c0 40 32 69 71 69zM315 745c42 0 73 -33 73 -100c0 -83 -53 -161 -142 -161v46c40 0 78 39 78 85c-8 -3 -16 -4 -22 -4c-33 0 -57 30 -57 65
c0 40 31 69 70 69z" />
    <glyph glyph-name="quoteleft" unicode="&#x2018;" horiz-adv-x="240" 
d="M120 486c-41 0 -73 33 -73 100c0 83 54 161 142 161v-46c-39 0 -77 -39 -77 -85c7 3 15 4 22 4c33 0 57 -30 57 -65c0 -40 -31 -69 -71 -69z" />
    <glyph glyph-name="quoteright" unicode="&#x2019;" horiz-adv-x="240" 
d="M122 745c42 0 73 -33 73 -100c0 -83 -53 -161 -142 -161v46c40 0 78 39 78 85c-8 -3 -16 -4 -23 -4c-33 0 -57 30 -57 65c0 40 32 69 71 69z" />
    <glyph glyph-name="quotesinglbase" unicode="&#x201a;" horiz-adv-x="240" 
d="M122 130c42 0 73 -33 73 -101c0 -82 -53 -161 -142 -161v46c40 0 78 39 78 85c-8 -3 -16 -4 -23 -4c-33 0 -57 31 -57 66c0 39 32 69 71 69z" />
    <glyph glyph-name="quotesingle" unicode="'" horiz-adv-x="236" 
d="M91 459l-30 238c0 33 26 48 57 48c30 0 57 -15 57 -46l-31 -240h-53z" />
    <glyph glyph-name="r" unicode="r" horiz-adv-x="507" 
d="M29 457v57l198 18v-82l-11 -57c38 67 77 139 173 139c63 0 105 -34 105 -96c0 -46 -24 -76 -72 -76c-34 0 -57 22 -57 56c0 21 12 41 25 55c-85 5 -163 -104 -163 -185v-187c0 -28 11 -38 30 -38h92v-61h-314v61h55c10 0 29 6 29 38v332c0 21 -14 26 -24 26h-66z" />
    <glyph glyph-name="r.001" unicode="&#xe077;" horiz-adv-x="645" 
d="M39 62h61c16 0 28 13 28 29v369c0 17 -12 30 -28 30h-61v62h350c93 0 164 -46 164 -144c0 -87 -53 -125 -135 -137c64 -10 82 -32 90 -95l12 -101c1 -16 6 -25 25 -25s26 11 26 29v92h69v-69c0 -67 -16 -117 -117 -117c-68 0 -112 25 -118 82l-12 123
c-3 33 -29 47 -64 47h-95v-146c0 -22 12 -27 33 -29h59v-62h-287v62zM234 489v-184h114c52 0 92 46 92 98c0 49 -37 86 -90 86h-116z" />
    <glyph glyph-name="racute" unicode="&#x155;" horiz-adv-x="507" 
d="M29 457v57l198 18v-82l-11 -57c38 67 77 139 173 139c63 0 105 -34 105 -96c0 -46 -24 -76 -72 -76c-34 0 -57 22 -57 56c0 21 12 41 25 55c-85 5 -163 -104 -163 -185v-187c0 -28 11 -38 30 -38h92v-61h-314v61h55c10 0 29 6 29 38v332c0 21 -14 26 -24 26h-66zM309 745
h141l-153 -143h-73c3 4 17 28 85 143z" />
    <glyph glyph-name="racute.001" unicode="&#xe078;" horiz-adv-x="645" 
d="M39 62h61c16 0 28 13 28 29v369c0 17 -12 30 -28 30h-61v62h350c93 0 164 -46 164 -144c0 -87 -53 -125 -135 -137c64 -10 82 -32 90 -95l12 -101c1 -16 6 -25 25 -25s26 11 26 29v92h69v-69c0 -67 -16 -117 -117 -117c-68 0 -112 25 -118 82l-12 123
c-3 33 -29 47 -64 47h-95v-146c0 -22 12 -27 33 -29h59v-62h-287v62zM234 489v-184h114c52 0 92 46 92 98c0 49 -37 86 -90 86h-116zM353 745h141l-153 -143h-73c3 4 17 28 85 143z" />
    <glyph glyph-name="rcaron" unicode="&#x159;" horiz-adv-x="507" 
d="M29 457v57l198 18v-82l-11 -57c38 67 77 139 173 139c63 0 105 -34 105 -96c0 -46 -24 -76 -72 -76c-34 0 -57 22 -57 56c0 21 12 41 25 55c-85 5 -163 -104 -163 -185v-187c0 -28 11 -38 30 -38h92v-61h-314v61h55c10 0 29 6 29 38v332c0 21 -14 26 -24 26h-66zM355 597
h-119l-109 148h94l84 -84l77 84h77z" />
    <glyph glyph-name="rcaron.001" unicode="&#xe079;" horiz-adv-x="645" 
d="M39 62h61c16 0 28 13 28 29v369c0 17 -12 30 -28 30h-61v62h350c93 0 164 -46 164 -144c0 -87 -53 -125 -135 -137c64 -10 82 -32 90 -95l12 -101c1 -16 6 -25 25 -25s26 11 26 29v92h69v-69c0 -67 -16 -117 -117 -117c-68 0 -112 25 -118 82l-12 123
c-3 33 -29 47 -64 47h-95v-146c0 -22 12 -27 33 -29h59v-62h-287v62zM234 489v-184h114c52 0 92 46 92 98c0 49 -37 86 -90 86h-116zM354 607h-119l-109 148h94l84 -84l77 84h77z" />
    <glyph glyph-name="rcommaaccent" unicode="&#x157;" horiz-adv-x="507" 
d="M29 457v57l198 18v-82l-11 -57c38 67 77 139 173 139c63 0 105 -34 105 -96c0 -46 -24 -76 -72 -76c-34 0 -57 22 -57 56c0 21 12 41 25 55c-85 5 -163 -104 -163 -185v-187c0 -28 11 -38 30 -38h92v-61h-314v61h55c10 0 29 6 29 38v332c0 21 -14 26 -24 26h-66zM177 -60
c42 0 73 -33 73 -101c0 -82 -53 -161 -142 -161v46c40 0 78 39 78 85c-8 -3 -16 -4 -23 -4c-33 0 -57 31 -57 66c0 39 32 69 71 69z" />
    <glyph glyph-name="rcommaaccent.001" unicode="&#xe07a;" horiz-adv-x="645" 
d="M39 62h61c16 0 28 13 28 29v369c0 17 -12 30 -28 30h-61v62h350c93 0 164 -46 164 -144c0 -87 -53 -125 -135 -137c64 -10 82 -32 90 -95l12 -101c1 -16 6 -25 25 -25s26 11 26 29v92h69v-69c0 -67 -16 -117 -117 -117c-68 0 -112 25 -118 82l-12 123
c-3 33 -29 47 -64 47h-95v-146c0 -22 12 -27 33 -29h59v-62h-287v62zM234 489v-184h114c52 0 92 46 92 98c0 49 -37 86 -90 86h-116zM351 -60c42 0 73 -33 73 -101c0 -82 -53 -161 -142 -161v46c40 0 78 39 78 85c-8 -3 -16 -4 -23 -4c-33 0 -57 31 -57 66c0 39 32 69 71 69
z" />
    <glyph glyph-name="registered" unicode="&#xae;" horiz-adv-x="957" 
d="M889 348c0 -227 -185 -411 -410 -411c-228 0 -412 184 -412 411c0 225 184 410 412 410c225 0 410 -185 410 -410zM829 347c0 193 -157 350 -350 350c-195 0 -352 -157 -352 -350c0 -194 157 -352 352 -352c193 0 350 158 350 352zM264 150h27c15 0 25 12 25 27v347
c0 15 -10 27 -25 27h-27v49h240c83 0 147 -42 147 -129c0 -78 -47 -112 -121 -123c57 -9 75 -29 81 -86l10 -90c2 -15 7 -22 23 -22c17 0 24 9 24 26v82h48v-62c0 -46 -1 -104 -91 -104c-49 0 -87 22 -92 73l-12 109c-3 31 -25 56 -57 56h-65v-154c0 -20 11 -23 29 -26h22
v-48h-186v48zM399 550v-171h81c48 0 83 41 83 87c0 44 -33 84 -80 84h-84z" />
    <glyph glyph-name="ring" unicode="&#x2da;" horiz-adv-x="344" 
d="M53 653c0 65 68 92 125 92s119 -23 119 -90c0 -69 -58 -96 -120 -96c-59 0 -124 27 -124 94zM129 651c0 -27 20 -46 48 -46c29 0 46 22 46 48c0 28 -20 46 -46 46c-28 0 -48 -21 -48 -48z" />
    <glyph glyph-name="s" unicode="s" horiz-adv-x="514" 
d="M106 44l-13 -44h-54v196h56c12 -86 77 -142 174 -142c49 0 115 19 115 81c0 38 -32 55 -66 63l-156 39c-74 19 -127 61 -127 140c0 111 102 157 198 157c57 0 106 -13 151 -48l20 48h50v-186h-56c-19 85 -75 118 -161 118c-44 0 -100 -16 -100 -70c0 -34 25 -54 56 -61
l178 -43c70 -17 115 -67 115 -137c0 -115 -102 -170 -205 -170c-69 0 -121 18 -175 59z" />
    <glyph glyph-name="s.001" unicode="&#xe07b;" horiz-adv-x="513" 
d="M120 35l-26 -46h-54v212h59c25 -105 58 -154 166 -154c59 0 127 18 127 76c0 32 -18 57 -50 67l-200 60c-75 22 -106 89 -106 141c0 107 92 173 191 173c58 0 108 -18 152 -56l25 43h54v-210h-61c-11 96 -51 157 -169 157c-53 0 -92 -30 -92 -77c0 -28 20 -57 52 -67
l194 -64c52 -17 99 -65 99 -140c0 -119 -101 -173 -210 -173c-69 0 -102 13 -151 58z" />
    <glyph glyph-name="sacute" unicode="&#x15b;" horiz-adv-x="514" 
d="M106 44l-13 -44h-54v196h56c12 -86 77 -142 174 -142c49 0 115 19 115 81c0 38 -32 55 -66 63l-156 39c-74 19 -127 61 -127 140c0 111 102 157 198 157c57 0 106 -13 151 -48l20 48h50v-186h-56c-19 85 -75 118 -161 118c-44 0 -100 -16 -100 -70c0 -34 25 -54 56 -61
l178 -43c70 -18 115 -67 115 -137c0 -115 -102 -170 -205 -170c-69 0 -121 18 -175 59zM279 745h141l-153 -143h-73c3 4 17 28 85 143z" />
    <glyph glyph-name="sacute.001" unicode="&#xe07c;" horiz-adv-x="513" 
d="M120 35l-26 -46h-54v212h59c25 -105 58 -154 166 -154c59 0 127 18 127 76c0 32 -18 57 -50 67l-200 60c-75 22 -106 89 -106 141c0 107 92 173 191 173c58 0 108 -18 152 -56l25 43h54v-210h-61c-11 96 -51 157 -169 157c-53 0 -92 -30 -92 -77c0 -28 20 -57 52 -67
l194 -64c52 -17 99 -65 99 -140c0 -119 -101 -173 -210 -173c-69 0 -102 13 -151 58zM278 745h141l-153 -143h-73c3 4 17 28 85 143z" />
    <glyph glyph-name="scaron" unicode="&#x161;" horiz-adv-x="514" 
d="M106 44l-13 -44h-54v196h56c12 -86 77 -142 174 -142c49 0 115 19 115 81c0 38 -32 55 -66 63l-156 39c-74 19 -127 61 -127 140c0 111 102 157 198 157c57 0 106 -13 151 -48l20 48h50v-186h-56c-19 85 -75 118 -161 118c-44 0 -100 -16 -100 -70c0 -34 25 -54 56 -61
l178 -43c70 -18 115 -67 115 -137c0 -115 -102 -170 -205 -170c-69 0 -121 18 -175 59zM300 597h-120l-108 148h94l83 -84l78 84h77z" />
    <glyph glyph-name="scaron.001" unicode="&#xe07d;" horiz-adv-x="513" 
d="M120 35l-26 -46h-54v212h59c25 -105 58 -154 166 -154c59 0 127 18 127 76c0 32 -18 58 -50 67l-200 60c-75 22 -106 89 -106 141c0 107 92 173 191 173c58 0 108 -18 152 -56l25 43h54v-210h-61c-11 96 -51 157 -169 157c-53 0 -92 -30 -92 -77c0 -27 20 -57 52 -67
l194 -64c52 -18 99 -65 99 -140c0 -119 -101 -173 -210 -173c-69 0 -102 13 -151 58zM317 597h-119l-109 148h94l84 -84l77 84h77z" />
    <glyph glyph-name="scedilla" unicode="&#x15f;" horiz-adv-x="514" 
d="M106 44l-13 -44h-54v196h56c12 -86 77 -142 174 -142c49 0 115 19 115 81c0 38 -32 55 -66 63l-156 39c-74 19 -127 61 -127 140c0 111 102 157 198 157c57 0 106 -13 151 -48l20 48h50v-186h-56c-19 85 -75 118 -161 118c-44 0 -100 -16 -100 -70c0 -34 25 -54 56 -61
l178 -43c70 -18 115 -67 115 -137c0 -105 -85 -159 -178 -168l-14 -45c57 -2 106 -10 106 -79c-1 -81 -82 -110 -156 -110c-26 0 -52 3 -73 10c0 0 0 3 15 57c19 -5 36 -7 50 -7c53 0 69 28 69 46c0 27 -24 35 -47 37h-49l29 92c-49 6 -90 24 -132 56z" />
    <glyph glyph-name="scedilla.001" unicode="&#xe07e;" horiz-adv-x="513" 
d="M120 35l-26 -46h-54v212h59c25 -105 58 -154 166 -154c59 0 127 18 127 76c0 32 -18 57 -50 67l-200 60c-75 22 -106 89 -106 141c0 107 92 173 191 173c58 0 108 -18 152 -56l25 43h54v-210h-61c-11 96 -51 157 -169 157c-53 0 -92 -30 -92 -77c0 -28 20 -57 52 -67
l194 -64c52 -17 99 -65 99 -140c0 -108 -83 -162 -180 -171l-17 -53c57 -2 106 -10 106 -79c-1 -81 -82 -110 -156 -110c-26 0 -52 3 -73 10c0 0 0 3 15 57c19 -5 36 -7 50 -7c53 0 69 28 69 46c0 27 -24 35 -47 37h-49l31 99c-44 5 -72 21 -110 56z" />
    <glyph glyph-name="scircumflex" unicode="&#x15d;" horiz-adv-x="514" 
d="M106 44l-13 -44h-54v196h56c12 -86 77 -142 174 -142c49 0 115 19 115 81c0 38 -32 55 -66 63l-156 39c-74 19 -127 61 -127 140c0 111 102 157 198 157c57 0 106 -13 151 -48l20 48h50v-186h-56c-19 85 -75 118 -161 118c-44 0 -100 -16 -100 -70c0 -34 25 -54 56 -61
l178 -43c70 -18 115 -67 115 -137c0 -115 -102 -170 -205 -170c-69 0 -121 18 -175 59zM194 745h120l108 -148h-94l-83 84l-78 -84h-77z" />
    <glyph glyph-name="scircumflex.001" unicode="&#xe07f;" horiz-adv-x="513" 
d="M120 35l-26 -46h-54v212h59c25 -105 58 -154 166 -154c59 0 127 18 127 76c0 32 -18 57 -50 67l-200 60c-75 22 -106 89 -106 141c0 107 92 173 191 173c58 0 108 -18 152 -56l25 43h54v-210h-61c-11 96 -51 157 -169 157c-53 0 -92 -30 -92 -77c0 -28 20 -57 52 -67
l194 -64c52 -17 99 -65 99 -140c0 -119 -101 -173 -210 -173c-69 0 -102 13 -151 58zM188 755h120l108 -148h-94l-83 84l-78 -84h-77z" />
    <glyph glyph-name="scommaaccent" unicode="&#x219;" horiz-adv-x="514" 
d="M106 44l-13 -44h-54v196h56c12 -86 77 -142 174 -142c49 0 115 19 115 81c0 38 -32 55 -66 63l-156 39c-74 19 -127 61 -127 140c0 111 102 157 198 157c57 0 106 -13 151 -48l20 48h50v-186h-56c-19 85 -75 118 -161 118c-44 0 -100 -16 -100 -70c0 -34 25 -54 56 -61
l178 -43c70 -18 115 -67 115 -137c0 -115 -102 -170 -205 -170c-69 0 -121 18 -175 59zM276 -50c42 0 73 -33 73 -101c0 -82 -53 -161 -142 -161v46c40 0 78 39 78 85c-8 -3 -16 -4 -23 -4c-33 0 -57 31 -57 66c0 39 32 69 71 69z" />
    <glyph glyph-name="scommaaccent.001" unicode="&#xe080;" horiz-adv-x="513" 
d="M120 35l-26 -46h-54v212h59c25 -105 58 -154 166 -154c59 0 127 18 127 76c0 32 -18 57 -50 67l-200 60c-75 22 -106 89 -106 141c0 107 92 173 191 173c58 0 108 -18 152 -56l25 43h54v-210h-61c-11 96 -51 157 -169 157c-53 0 -92 -30 -92 -77c0 -28 20 -57 52 -67
l194 -64c52 -17 99 -65 99 -140c0 -119 -101 -173 -210 -173c-69 0 -102 13 -151 58zM265 -77c42 0 73 -33 73 -101c0 -82 -53 -161 -142 -161v46c40 0 78 39 78 85c-8 -3 -16 -4 -23 -4c-33 0 -57 31 -57 66c0 39 32 69 71 69z" />
    <glyph glyph-name="section" unicode="&#xa7;" horiz-adv-x="575" 
d="M102 -44c0 44 20 75 68 75c41 0 63 -25 63 -65c0 -29 -20 -47 -43 -54c23 -19 43 -25 72 -25c59 0 105 27 105 90c0 48 -26 73 -69 89l-136 53c-64 25 -104 79 -104 148c0 77 44 123 117 146c-44 41 -65 71 -65 132c0 112 90 166 195 166c72 0 171 -36 171 -125
c0 -40 -28 -77 -72 -77c-37 0 -63 25 -63 62c0 27 13 46 40 58c-14 21 -50 23 -73 23c-54 0 -102 -31 -102 -89c0 -46 30 -74 73 -90l131 -50c66 -25 107 -81 107 -150c0 -77 -48 -123 -119 -146c44 -41 65 -73 65 -133c0 -111 -88 -163 -190 -163c-77 0 -171 33 -171 125z
M148 296c0 -45 21 -64 65 -82c24 -10 106 -47 141 -47c44 0 71 41 71 83c0 40 -23 61 -61 75c-127 49 -135 50 -148 50c-43 0 -68 -42 -68 -79z" />
    <glyph glyph-name="semicolon" unicode=";" horiz-adv-x="281" 
d="M138 130c42 0 73 -33 73 -101c0 -82 -53 -161 -142 -161v46c40 0 78 39 78 85c-8 -3 -16 -4 -23 -4c-33 0 -57 31 -57 66c0 39 32 69 71 69zM69 430c0 38 32 70 71 70c38 0 70 -32 70 -70s-32 -70 -70 -70c-39 0 -71 32 -71 70z" />
    <glyph glyph-name="seven" unicode="7" horiz-adv-x="578" 
d="M203 80c0 311 246 337 268 524c-33 -35 -62 -45 -110 -45c-62 0 -118 32 -178 32c-28 0 -68 -11 -68 -43v-111h-75v258h75v-65c22 51 49 77 106 77c60 0 161 -61 222 -61c33 0 39 19 41 50h62c0 -77 -14 -164 -55 -231c-130 -210 -158 -232 -158 -374
c0 -45 -2 -106 -61 -106c-56 0 -69 49 -69 95z" />
    <glyph glyph-name="seven.osf" unicode="&#xe081;" horiz-adv-x="578" 
d="M190 -118c0 311 260 382 282 569c-33 -35 -63 -44 -110 -44c-62 0 -118 31 -178 31c-29 0 -68 -11 -68 -42v-126h-76v272h76v-65c22 51 49 78 106 78c60 0 161 -62 221 -62c34 0 40 19 42 51h61c0 -78 -13 -165 -55 -232c-139 -224 -170 -277 -170 -419
c0 -45 -2 -106 -62 -106c-55 0 -69 49 -69 95z" />
    <glyph glyph-name="seven.tf" unicode="&#xe082;" horiz-adv-x="600" 
d="M210 80c0 311 247 337 267 524c-31 -35 -61 -45 -109 -45c-62 0 -118 32 -178 32c-28 0 -68 -11 -68 -43v-111h-75v258h75v-65c22 51 49 77 106 77c60 0 161 -61 222 -61c33 0 39 19 41 50h62c0 -77 -14 -164 -55 -231c-130 -210 -158 -232 -158 -374
c0 -45 -2 -106 -61 -106c-56 0 -69 49 -69 95z" />
    <glyph glyph-name="seveneighths" unicode="&#x215e;" horiz-adv-x="784" 
d="M553 707h69l-430 -722h-71zM434 102c0 44 33 80 70 100c-35 21 -58 46 -58 95c0 86 72 115 141 115c62 0 133 -25 133 -97c0 -44 -24 -71 -65 -92c47 -18 79 -56 79 -106c0 -83 -74 -127 -154 -127c-69 0 -146 33 -146 112zM497 109c0 -49 38 -72 85 -72
c32 0 76 13 76 62c0 25 -19 43 -43 53l-69 29c-27 -15 -49 -30 -49 -72zM521 311c0 -27 20 -41 45 -51c33 -13 43 -18 44 -18c29 15 47 35 47 61c0 40 -24 62 -67 62c-40 0 -69 -19 -69 -54zM149 326c0 147 155 226 164 318c-19 -21 -47 -29 -76 -29c-27 0 -52 12 -88 12
c-28 0 -46 -20 -46 -40c0 -3 -2 12 -2 -53h-51v158h51v-41c14 35 32 48 66 48c36 0 102 -31 128 -31c20 0 25 8 26 26h45c0 -46 -13 -97 -39 -136c-79 -117 -91 -180 -91 -225c0 -27 -8 -64 -44 -64c-33 0 -43 29 -43 57z" />
    <glyph glyph-name="seveninferior" unicode="&#x2087;" horiz-adv-x="416" 
d="M149 -140c0 147 155 226 164 318c-19 -21 -47 -29 -76 -29c-27 0 -52 12 -88 12c-28 0 -46 -20 -46 -40c0 -3 -2 12 -2 -53h-51v158h51v-41c14 35 32 48 66 48c36 0 102 -31 128 -31c20 0 25 8 26 26h45c0 -46 -13 -97 -39 -136c-79 -117 -91 -180 -91 -225
c0 -27 -8 -64 -44 -64c-33 0 -43 29 -43 57z" />
    <glyph glyph-name="sevensuperior" unicode="&#x2077;" horiz-adv-x="416" 
d="M149 385c0 147 155 226 164 318c-19 -21 -47 -29 -76 -29c-27 0 -52 12 -88 12c-28 0 -46 -20 -46 -40c0 -3 -2 12 -2 -53h-51v158h51v-41c14 35 32 48 66 48c36 0 102 -31 128 -31c20 0 25 8 26 26h45c0 -46 -13 -97 -39 -136c-79 -117 -91 -180 -91 -225
c0 -27 -8 -64 -44 -64c-33 0 -43 29 -43 57z" />
    <glyph glyph-name="six" unicode="6" horiz-adv-x="596" 
d="M530 561c0 -43 -30 -79 -77 -79c-41 0 -69 30 -69 71c0 44 34 54 40 61c-27 23 -50 26 -86 26c-126 0 -164 -114 -164 -233c0 -12 0 -19 2 -33c31 52 92 69 151 69c135 0 210 -94 210 -224c0 -140 -100 -234 -238 -234c-200 0 -242 180 -242 351c0 197 59 371 275 371
c86 0 198 -44 198 -146zM420 213c0 80 -29 154 -119 154c-88 0 -121 -62 -121 -143c0 -80 23 -172 119 -172c92 0 121 84 121 161z" />
    <glyph glyph-name="six.osf" unicode="&#xe083;" horiz-adv-x="596" 
d="M530 561c0 -43 -30 -79 -77 -79c-41 0 -69 30 -69 71c0 44 34 54 40 61c-27 23 -50 26 -86 26c-126 0 -164 -114 -164 -233c0 -12 0 -19 2 -33c31 52 92 69 151 69c135 0 210 -94 210 -224c0 -140 -100 -234 -238 -234c-200 0 -242 180 -242 351c0 197 59 371 275 371
c86 0 198 -44 198 -146zM420 213c0 80 -29 154 -119 154c-88 0 -121 -62 -121 -143c0 -80 23 -172 119 -172c92 0 121 84 121 161z" />
    <glyph glyph-name="six.tf" unicode="&#xe084;" horiz-adv-x="600" 
d="M533 561c0 -43 -30 -79 -77 -79c-41 0 -69 30 -69 71c0 44 34 54 40 61c-27 23 -50 26 -86 26c-126 0 -164 -114 -164 -233c0 -12 0 -19 2 -33c31 52 92 69 151 69c135 0 210 -94 210 -224c0 -140 -100 -234 -238 -234c-200 0 -242 180 -242 351c0 197 59 371 275 371
c86 0 198 -44 198 -146zM423 213c0 80 -29 154 -119 154c-88 0 -121 -62 -121 -143c0 -80 23 -172 119 -172c92 0 121 84 121 161z" />
    <glyph glyph-name="sixinferior" unicode="&#x2086;" horiz-adv-x="397" 
d="M346 148c0 -26 -17 -46 -45 -46c-25 0 -42 12 -42 37c0 22 15 29 19 33c-16 10 -27 14 -49 14c-82 0 -97 -68 -97 -144c19 32 54 43 90 43c82 0 125 -60 125 -129c0 -85 -63 -140 -147 -140c-122 0 -150 95 -150 199c0 120 44 218 175 218c52 0 121 -23 121 -85zM270 -47
c0 48 -19 82 -64 82c-53 0 -73 -44 -73 -83c0 -48 19 -88 68 -88c54 0 69 42 69 89z" />
    <glyph glyph-name="sixsevenths" unicode="&#xe085;" horiz-adv-x="892" 
d="M604 707h69l-430 -722h-71zM625 35c0 147 155 226 164 318c-19 -21 -47 -29 -76 -29c-27 0 -52 12 -88 12c-28 0 -46 -20 -46 -40c0 -3 -2 12 -2 -53h-51v158h51v-41c14 35 32 48 66 48c36 0 102 -31 128 -31c20 0 25 8 26 26h45c0 -46 -13 -97 -39 -136
c-79 -117 -91 -180 -91 -225c0 -27 -8 -64 -44 -64c-33 0 -43 29 -43 57zM346 615c0 -26 -17 -46 -45 -46c-25 0 -42 12 -42 37c0 22 15 29 19 33c-16 10 -27 14 -49 14c-82 0 -97 -68 -97 -144c19 32 54 43 90 43c82 0 125 -60 125 -129c0 -85 -63 -140 -147 -140
c-122 0 -150 95 -150 199c0 120 44 218 175 218c52 0 121 -23 121 -85zM270 420c0 48 -19 82 -64 82c-53 0 -73 -44 -73 -83c0 -48 19 -88 68 -88c54 0 69 42 69 89z" />
    <glyph glyph-name="sixsuperior" unicode="&#x2076;" horiz-adv-x="397" 
d="M346 673c0 -26 -17 -46 -45 -46c-25 0 -42 12 -42 37c0 22 15 29 19 33c-16 10 -27 14 -49 14c-82 0 -97 -68 -97 -144c19 32 54 43 90 43c82 0 125 -60 125 -129c0 -85 -63 -140 -147 -140c-122 0 -150 95 -150 199c0 120 44 218 175 218c52 0 121 -23 121 -85zM270 478
c0 48 -19 82 -64 82c-53 0 -73 -44 -73 -83c0 -48 19 -88 68 -88c54 0 69 42 69 89z" />
    <glyph glyph-name="slash" unicode="/" horiz-adv-x="471" 
d="M374 713h73l-355 -736h-71z" />
    <glyph glyph-name="sp" unicode="&#xe086;" horiz-adv-x="1157" 
d="M827 -255h-282v58l54 3c10 0 29 6 29 38v590c0 13 -7 24 -25 24h-69v56c77 0 123 39 123 136c0 93 -46 139 -135 139c-87 0 -138 -58 -138 -148c0 -71 42 -119 70 -128v-165h-56c-19 85 -75 118 -161 118c-44 0 -100 -16 -100 -70c0 -34 25 -54 56 -61l178 -43
c70 -17 115 -67 115 -137c0 -115 -102 -170 -205 -170c-69 0 -121 18 -175 59l-13 -44h-54v196h56c12 -86 77 -142 174 -142c49 0 115 19 115 81c0 38 -32 55 -66 63l-156 39c-74 19 -127 61 -127 140c0 111 102 157 198 157c50 0 109 -15 157 -52c-56 53 -73 106 -73 156
c0 111 87 200 196 200c134 0 213 -73 213 -201v-201c38 57 90 99 160 99c160 0 236 -130 236 -276c0 -140 -65 -270 -219 -270c-73 0 -137 16 -170 80v-225c0 -28 11 -38 31 -38h63v-61zM1003 259c0 93 -23 210 -138 210c-68 0 -135 -87 -135 -167v-92
c0 -84 62 -152 148 -152c108 0 125 113 125 201z" />
    <glyph glyph-name="space" unicode=" " horiz-adv-x="229" 
 />
    <glyph glyph-name="st" unicode="&#xfb06;" horiz-adv-x="875" 
d="M454 513v-165h-56c-19 85 -75 118 -161 118c-44 0 -100 -16 -100 -70c0 -34 25 -54 56 -61l178 -43c70 -17 115 -67 115 -137c0 -115 -102 -170 -205 -170c-69 0 -121 18 -175 59l-13 -44h-54v196h56c12 -86 77 -142 174 -142c49 0 115 19 115 81c0 38 -32 54 -66 63
l-156 39c-74 18 -127 61 -127 140c0 111 102 157 198 157c50 0 109 -15 157 -52c-56 53 -73 106 -73 156c0 111 87 200 196 200c134 0 213 -73 213 -201v-122h114v-57h-114v-355c0 -37 11 -46 50 -46c23 0 44 3 77 10v-61c-52 -13 -76 -16 -126 -16c-80 0 -105 12 -105 118
v350h-88v56c81 1 123 41 123 136c0 93 -46 139 -135 139c-87 0 -138 -58 -138 -148c0 -71 42 -119 70 -128z" />
    <glyph glyph-name="sterling" unicode="&#xa3;" horiz-adv-x="691" 
d="M575 224h63c0 -99 -29 -247 -154 -247c-97 0 -140 102 -224 102c-26 -44 -60 -92 -118 -92c-38 0 -63 23 -63 61c0 75 75 90 134 96c1 4 2 10 2 15c0 54 -21 98 -42 154h-132v62h109c-13 38 -21 73 -21 114c0 143 125 220 258 220c97 0 216 -48 216 -158
c0 -46 -19 -84 -71 -84c-40 0 -69 30 -69 69c0 33 18 52 46 65c-21 36 -71 44 -109 44c-92 0 -150 -59 -150 -148c0 -31 15 -105 20 -122h183v-60h-170c8 -25 10 -52 10 -77c0 -41 -7 -78 -11 -96c60 -2 174 -40 206 -40c79 0 81 54 87 122z" />
    <glyph glyph-name="t" unicode="t" horiz-adv-x="360" 
d="M208 515h117v-57h-117v-355c0 -37 14 -46 53 -46c23 0 44 3 77 10v-61c-52 -13 -79 -19 -129 -19c-49 0 -81 12 -95 35c-10 16 -14 36 -14 86v350h-88v57c103 1 122 66 122 204h74v-204z" />
    <glyph glyph-name="t.001" unicode="&#xe087;" horiz-adv-x="532" 
d="M512 552v-206h-54c-9 86 -14 144 -100 144h-39v-401c0 -22 11 -26 31 -28h61v-61h-288v61h60c17 0 28 13 28 29v400h-37c-85 0 -91 -58 -99 -144h-55v206h492z" />
    <glyph glyph-name="t.alt" unicode="&#xe4d3;" horiz-adv-x="350" 
d="M328 192v-123c0 -63 -60 -86 -106 -86c-84 0 -123 30 -123 96v379h-87v54c98 4 125 70 125 207h69v-204h112v-57h-112v-378c0 -17 11 -29 32 -29c22 0 34 12 34 29v112h56z" />
    <glyph glyph-name="tbar" unicode="&#x167;" horiz-adv-x="353" 
d="M14 374h86v84h-88v56c103 1 127 67 127 205h65v-205h114v-56h-114v-84h114v-59h-114v-212c0 -37 11 -46 50 -46c23 0 44 3 77 10v-61c-52 -13 -76 -16 -126 -16c-49 0 -77 9 -91 32c-10 16 -14 36 -14 86v207h-86v59z" />
    <glyph glyph-name="tbar.001" unicode="&#xe088;" horiz-adv-x="532" 
d="M91 300h120v190h-37c-85 0 -91 -58 -99 -144h-55v206h492v-206h-54c-9 86 -14 144 -100 144h-39v-190h122v-69h-122v-142c0 -22 11 -26 31 -28h61v-61h-288v61h60c17 0 28 13 28 29v141h-120v69z" />
    <glyph glyph-name="tbar.002" unicode="&#xe089;" horiz-adv-x="350" 
d="M328 192v-123c0 -63 -60 -86 -106 -86c-84 0 -123 30 -123 96v236h-84v59h84v84h-87v54c98 4 125 70 125 207h69v-204h112v-57h-112v-84h112v-59h-112v-235c0 -17 11 -29 32 -29c22 0 34 12 34 29v112h56z" />
    <glyph glyph-name="tcaron" unicode="&#x165;" horiz-adv-x="518" 
d="M204 514h114v-56h-114v-355c0 -37 11 -46 50 -46c23 0 44 3 77 10v-61c-52 -13 -76 -16 -126 -16c-49 0 -77 9 -91 32c-10 16 -14 36 -14 86v350h-88v56c103 1 127 67 127 205h65v-205zM423 783c42 0 73 -33 73 -100c0 -83 -53 -161 -142 -161v46c40 0 78 39 78 85
c-8 -3 -16 -4 -23 -4c-33 0 -57 30 -57 65c0 40 32 69 71 69z" />
    <glyph glyph-name="tcaron.001" unicode="&#xe08a;" horiz-adv-x="532" 
d="M512 552v-206h-54c-9 86 -14 144 -100 144h-39v-401c0 -22 11 -26 31 -28h61v-61h-288v61h60c17 0 28 13 28 29v400h-37c-85 0 -91 -58 -99 -144h-55v206h492zM330 597h-119l-109 148h94l84 -84l77 84h77z" />
    <glyph glyph-name="tcaron.002" unicode="&#xe08b;" horiz-adv-x="350" 
d="M328 192v-123c0 -63 -60 -86 -106 -86c-84 0 -123 30 -123 96v379h-87v54c98 4 125 70 125 207h69v-204h112v-57h-112v-378c0 -17 11 -29 32 -29c22 0 34 12 34 29v112h56zM383 815c42 0 73 -33 73 -101c0 -82 -53 -161 -142 -161v46c40 0 78 39 78 85
c-8 -3 -16 -4 -23 -4c-33 0 -57 31 -57 66c0 39 32 69 71 69z" />
    <glyph glyph-name="tcommaaccent" unicode="&#x163;" horiz-adv-x="353" 
d="M204 514h114v-56h-114v-355c0 -37 11 -46 50 -46c23 0 44 3 77 10v-61c-52 -13 -76 -16 -126 -16c-49 0 -77 9 -91 32c-10 16 -14 36 -14 86v350h-88v56c103 1 127 67 127 205h65v-205zM203 -40c42 0 73 -33 73 -101c0 -82 -53 -161 -142 -161v46c40 0 78 39 78 85
c-8 -3 -16 -4 -23 -4c-33 0 -57 31 -57 66c0 39 32 69 71 69z" />
    <glyph glyph-name="tcommaaccent.001" unicode="&#xe08c;" horiz-adv-x="532" 
d="M512 552v-206h-54c-9 86 -14 144 -100 144h-39v-401c0 -22 11 -26 31 -28h61v-61h-288v61h60c17 0 28 13 28 29v400h-37c-85 0 -91 -58 -99 -144h-55v206h492zM265 -30c42 0 73 -33 73 -101c0 -82 -53 -161 -142 -161v46c40 0 78 39 78 85c-8 -3 -16 -4 -23 -4
c-33 0 -57 31 -57 66c0 39 32 69 71 69z" />
    <glyph glyph-name="tcommaaccent.002" unicode="&#xe08d;" horiz-adv-x="350" 
d="M328 192v-123c0 -63 -60 -86 -106 -86c-84 0 -123 30 -123 96v379h-87v54c98 4 125 70 125 207h69v-204h112v-57h-112v-378c0 -17 11 -29 32 -29c22 0 34 12 34 29v112h56zM214 -70c42 0 73 -33 73 -101c0 -82 -53 -161 -142 -161v46c40 0 78 39 78 85
c-8 -3 -16 -4 -23 -4c-33 0 -57 31 -57 66c0 39 32 69 71 69z" />
    <glyph glyph-name="thorn" unicode="&#xfe;" horiz-adv-x="609" 
d="M279 -263h-282v58l54 3c10 0 30 6 30 38v825c0 21 -14 26 -24 26h-66v57l186 17v-326c39 67 93 100 161 100c160 0 236 -130 236 -276c0 -140 -65 -270 -219 -270c-73 0 -136 16 -170 80v-233c0 -28 11 -38 31 -38h63v-61zM455 259c0 93 -23 210 -138 210
c-68 0 -135 -87 -135 -167v-92c0 -84 62 -152 148 -152c108 0 125 113 125 201z" />
    <glyph glyph-name="thorn.001" unicode="&#xe08e;" horiz-adv-x="565" 
d="M326 490h-52c-25 -2 -40 -8 -40 -36v-16h127c101 0 179 -53 179 -158c0 -84 -58 -157 -146 -157h-159v-37c4 -18 18 -23 39 -24h52v-62h-287v62h53c20 0 35 16 35 36v356c0 20 -15 36 -35 36h-53v62h287v-62zM235 374v-190h93c59 0 100 40 100 96c0 55 -39 94 -96 94h-97
z" />
    <glyph glyph-name="three" unicode="3" horiz-adv-x="573" 
d="M32 145c0 46 27 91 77 91c40 0 71 -30 71 -69c0 -34 -23 -57 -56 -65c18 -38 85 -44 123 -44c88 0 154 51 154 144c0 129 -112 139 -215 139v66c94 0 203 0 203 120c0 82 -63 115 -136 115c-37 0 -83 -2 -111 -36c27 -8 48 -24 48 -58c0 -46 -27 -72 -71 -72
c-39 0 -74 22 -74 82c0 114 130 153 225 153c111 0 233 -50 233 -179c0 -82 -66 -147 -145 -157c88 -21 158 -62 158 -177c0 -142 -121 -211 -250 -211c-101 0 -234 40 -234 158z" />
    <glyph glyph-name="three.osf" unicode="&#xe08f;" horiz-adv-x="584" 
d="M50 -14c0 46 27 90 78 90c39 0 71 -29 71 -69c0 -33 -23 -56 -57 -64c19 -38 86 -44 124 -44c87 0 153 50 153 144c0 129 -112 139 -214 139v65c94 0 202 0 202 121c0 82 -62 115 -136 115c-37 0 -83 -2 -110 -36c27 -8 48 -24 48 -58c0 -46 -27 -73 -71 -73
c-40 0 -75 23 -75 82c0 114 131 154 226 154c110 0 232 -51 232 -179c0 -82 -66 -147 -145 -157c88 -21 158 -62 158 -177c0 -142 -120 -211 -250 -211c-100 0 -234 40 -234 158z" />
    <glyph glyph-name="three.tf" unicode="&#xe090;" horiz-adv-x="600" 
d="M58 145c0 46 27 91 77 91c40 0 71 -30 71 -69c0 -34 -23 -57 -56 -65c18 -38 85 -44 123 -44c88 0 154 51 154 144c0 129 -112 139 -215 139v66c94 0 203 0 203 120c0 82 -63 115 -136 115c-37 0 -83 -2 -111 -36c27 -8 48 -24 48 -58c0 -46 -27 -72 -71 -72
c-39 0 -74 22 -74 82c0 114 130 153 225 153c111 0 233 -50 233 -179c0 -82 -66 -147 -145 -157c88 -21 158 -62 158 -177c0 -142 -121 -211 -250 -211c-101 0 -234 40 -234 158z" />
    <glyph glyph-name="threeeighths" unicode="&#x215c;" horiz-adv-x="850" 
d="M611 707h69l-430 -722h-71zM500 102c0 44 33 80 70 100c-35 21 -58 46 -58 95c0 86 72 115 141 115c62 0 133 -25 133 -97c0 -44 -24 -71 -65 -92c47 -18 79 -56 79 -106c0 -83 -74 -127 -154 -127c-69 0 -146 33 -146 112zM563 109c0 -49 38 -72 85 -72
c32 0 76 13 76 62c0 25 -19 43 -43 53l-69 29c-27 -15 -49 -30 -49 -72zM587 311c0 -27 20 -41 45 -51c33 -13 43 -18 44 -18c29 15 47 35 47 61c0 40 -24 62 -67 62c-40 0 -69 -19 -69 -54zM50 385c0 27 17 51 46 51c23 0 44 -10 44 -42c0 -20 -13 -31 -33 -36
c23 -23 53 -25 75 -25c50 0 83 23 83 77c0 75 -58 79 -121 79v44c55 0 113 1 113 66c0 47 -33 59 -75 59c-21 0 -39 -4 -56 -19c15 -5 22 -11 22 -31c0 -26 -19 -40 -41 -40c-23 0 -45 13 -45 48c0 60 75 85 130 85c72 0 149 -20 149 -95c0 -68 -57 -88 -102 -94
c69 -5 111 -40 111 -106c0 -83 -78 -119 -160 -119c-59 0 -140 30 -140 98z" />
    <glyph glyph-name="threefifths" unicode="&#xe091;" horiz-adv-x="855" 
d="M611 707h69l-430 -722h-71zM510 86c0 28 16 56 47 56c23 0 45 -17 45 -40c0 -20 -10 -37 -33 -38c16 -18 41 -26 67 -26c65 0 90 40 90 102c0 57 -17 99 -79 99c-33 0 -53 -17 -72 -48h-50l7 214c13 -2 59 -7 110 -7s97 0 147 11c0 -38 -56 -74 -156 -74
c-19 0 -35 1 -55 2l-4 -101c22 38 53 50 91 50c103 0 140 -68 140 -141c0 -95 -75 -154 -169 -154c-57 0 -126 28 -126 95zM50 385c0 27 17 51 46 51c23 0 44 -10 44 -42c0 -20 -13 -31 -33 -36c23 -23 53 -25 75 -25c50 0 83 23 83 77c0 75 -58 79 -121 79v44
c55 0 113 1 113 66c0 47 -33 59 -75 59c-21 0 -39 -4 -56 -19c15 -5 22 -11 22 -31c0 -26 -19 -40 -41 -40c-23 0 -45 13 -45 48c0 60 75 85 130 85c72 0 149 -20 149 -95c0 -68 -57 -88 -102 -94c69 -5 111 -40 111 -106c0 -83 -78 -119 -160 -119c-59 0 -140 30 -140 98z
" />
    <glyph glyph-name="threeinferior" unicode="&#x2083;" horiz-adv-x="400" 
d="M50 -84c0 27 17 51 46 51c23 0 44 -10 44 -42c0 -20 -13 -31 -33 -36c23 -23 53 -25 75 -25c50 0 83 23 83 77c0 75 -58 79 -121 79v44c55 0 113 1 113 66c0 47 -33 59 -75 59c-21 0 -39 -4 -56 -19c15 -5 22 -11 22 -31c0 -26 -19 -40 -41 -40c-23 0 -45 13 -45 48
c0 60 75 85 130 85c72 0 149 -20 149 -95c0 -68 -57 -88 -102 -94c69 -5 111 -40 111 -106c0 -83 -78 -119 -160 -119c-59 0 -140 30 -140 98z" />
    <glyph glyph-name="threequarters" unicode="&#xbe;" horiz-adv-x="828" 
d="M630 707h69l-430 -722h-71zM50 381c0 27 17 51 46 51c23 0 44 -10 44 -42c0 -20 -13 -31 -33 -36c23 -23 53 -25 75 -25c50 0 83 23 83 77c0 75 -58 79 -121 79v44c55 0 113 1 113 66c0 47 -33 59 -75 59c-21 0 -39 -4 -56 -19c15 -5 22 -11 22 -31
c0 -26 -19 -40 -41 -40c-23 0 -45 13 -45 48c0 60 75 85 130 85c72 0 149 -20 149 -95c0 -68 -57 -88 -102 -94c69 -5 111 -40 111 -106c0 -83 -78 -119 -160 -119c-59 0 -140 30 -140 98zM613 42c12 0 22 10 22 23v46h-185v54l187 238h65v-242h76v-50h-76v-47
c0 -17 10 -20 25 -22h39v-42h-198v42h45zM635 329l-131 -168h131v168z" />
    <glyph glyph-name="threesevenths" unicode="&#xe092;" horiz-adv-x="907" 
d="M611 707h69l-430 -722h-71zM50 385c0 27 17 51 46 51c23 0 44 -10 44 -42c0 -20 -13 -31 -33 -36c23 -23 53 -25 75 -25c50 0 83 23 83 77c0 75 -58 79 -121 79v44c55 0 113 1 113 66c0 47 -33 59 -75 59c-21 0 -39 -4 -56 -19c15 -5 22 -11 22 -31
c0 -26 -19 -40 -41 -40c-23 0 -45 13 -45 48c0 60 75 85 130 85c72 0 149 -20 149 -95c0 -68 -57 -88 -102 -94c69 -5 111 -40 111 -106c0 -83 -78 -119 -160 -119c-59 0 -140 30 -140 98zM640 35c0 147 155 226 164 318c-19 -21 -47 -29 -76 -29c-27 0 -52 12 -88 12
c-28 0 -46 -20 -46 -40c0 -3 -2 12 -2 -53h-51v158h51v-41c14 35 32 48 66 48c36 0 102 -31 128 -31c20 0 25 8 26 26h45c0 -46 -13 -97 -39 -136c-79 -117 -91 -180 -91 -225c0 -27 -8 -64 -44 -64c-33 0 -43 29 -43 57z" />
    <glyph glyph-name="threesuperior" unicode="&#xb3;" horiz-adv-x="390" 
d="M46 441c0 27 17 51 46 51c23 0 44 -10 44 -42c0 -20 -13 -31 -33 -36c23 -23 53 -25 75 -25c50 0 83 23 83 77c0 75 -58 79 -121 79v44c55 0 113 1 113 66c0 47 -33 59 -75 59c-21 0 -39 -4 -56 -19c15 -5 22 -11 22 -31c0 -26 -19 -40 -41 -40c-23 0 -45 13 -45 48
c0 60 75 85 130 85c72 0 149 -20 149 -95c0 -68 -57 -88 -102 -94c69 -5 111 -40 111 -106c0 -83 -78 -119 -160 -119c-59 0 -140 30 -140 98z" />
    <glyph glyph-name="tilde" unicode="&#x2dc;" horiz-adv-x="497" 
d="M52 614c0 60 25 123 96 123c65 0 154 -46 209 -46c16 0 21 35 21 54h65l-1 -21c-1 -56 -24 -119 -93 -119c-55 0 -165 48 -193 48c-31 0 -36 -27 -36 -54h-66c-2 2 -2 10 -2 15z" />
    <glyph glyph-name="tildecomb" unicode="&#x303;" horiz-adv-x="497" 
d="M52 614c0 60 25 123 96 123c65 0 154 -46 209 -46c16 0 21 35 21 54h65l-1 -21c-1 -56 -24 -119 -93 -119c-55 0 -165 48 -193 48c-31 0 -36 -27 -36 -54h-66c-2 2 -2 10 -2 15z" />
    <glyph glyph-name="trademark" unicode="&#x2122;" horiz-adv-x="1126" 
d="M436 693v-190h-45c-8 80 -14 138 -92 138h-17v-291c0 -21 11 -23 29 -26h51v-49h-245v49h55c15 0 26 13 26 27v290h-14c-79 0 -85 -58 -92 -138h-45v190h389zM898 324c16 0 26 13 26 27v287l-137 -363h-47l-136 360v-285c0 -21 10 -23 29 -26h51v-49h-217v49h54
c15 0 25 13 25 27v265c0 15 -10 27 -25 27h-54v50h193c2 0 49 -123 119 -299l113 299h198v-50h-53c-18 -2 -29 -5 -29 -26v-267c0 -21 11 -23 29 -26h53v-49h-246v49h54z" />
    <glyph glyph-name="two" unicode="2" horiz-adv-x="609" 
d="M481 240h65v-111c0 -81 -42 -144 -125 -144c-87 0 -200 88 -259 88c-46 0 -49 -35 -49 -75h-60c0 100 10 201 97 259l179 118c46 31 83 81 83 138c0 81 -58 123 -133 123c-46 0 -111 -14 -132 -63c34 -10 59 -22 59 -62c0 -37 -31 -65 -69 -65c-49 0 -77 42 -77 90
c0 126 131 169 234 169c125 0 242 -55 242 -196c0 -96 -55 -147 -132 -198c-79 -52 -274 -116 -275 -194c27 18 55 26 84 26c66 0 136 -36 211 -36c30 0 57 22 57 49v84z" />
    <glyph glyph-name="two.osf" unicode="&#xe093;" horiz-adv-x="609" 
d="M168 45c-35 0 -44 -27 -51 -60h-64v19c0 111 32 194 135 233l153 60c42 17 75 44 75 93c0 76 -67 93 -128 93c-47 0 -91 -6 -125 -41c-1 -5 -6 -10 -6 -16c33 -6 57 -25 57 -63c0 -39 -30 -66 -68 -66c-55 0 -80 44 -80 93c0 124 131 167 235 167c108 0 239 -41 239 -171
c0 -102 -69 -139 -155 -163c-22 -5 -126 -30 -148 -33c-56 -14 -106 -51 -112 -115c30 33 56 44 89 44c34 0 133 -30 211 -30c47 0 55 55 55 97h66v-30c0 -95 -6 -184 -126 -184c-85 0 -194 73 -252 73z" />
    <glyph glyph-name="two.tf" unicode="&#xe094;" horiz-adv-x="600" 
d="M481 240h65v-111c0 -81 -42 -144 -125 -144c-87 0 -200 88 -259 88c-46 0 -49 -35 -49 -75h-60c0 100 10 201 97 259l179 118c46 31 83 81 83 138c0 81 -58 123 -133 123c-46 0 -111 -14 -132 -63c34 -10 59 -22 59 -62c0 -37 -31 -65 -69 -65c-49 0 -77 42 -77 90
c0 126 131 169 234 169c125 0 242 -55 242 -196c0 -96 -55 -147 -132 -198c-79 -52 -274 -116 -275 -194c27 18 55 26 84 26c66 0 136 -36 211 -36c30 0 57 22 57 49v84z" />
    </font>
</defs>
</svg>
