<?xml version="1.0" encoding="UTF-8"?>
<svg width="26px" height="48px" viewBox="0 0 26 48" version="1.1" xmlns="http://www.w3.org/2000/svg" xmlns:xlink="http://www.w3.org/1999/xlink">
    <!-- Generator: Sketch 46.2 (44496) - http://www.bohemiancoding.com/sketch -->
    <title>left</title>
    <desc>Created with Sketch.</desc>
    <defs></defs>
    <g stroke="none" stroke-width="1" fill="none" fill-rule="evenodd">
        <g transform="translate(-124.000000, -356.000000)" fill="#DEDAC8">
            <g >
                <g transform="translate(137.500000, 379.437500) rotate(90.000000) translate(-137.500000, -379.437500) translate(114.062500, 366.937500)">
                    <path d="M23.5689333,25.5767813 C23.0112,25.5736563 22.4942,25.3549063 22.1088,24.9642812 L0.611,3.52365625 C0.228733333,3.15490625 0,2.62053125 0,2.06740625 C0,1.52990625 0.222466667,0.99865625 0.611,0.60803125 C0.999533333,0.22053125 1.51966667,0.00178125 2.07426667,-0.00134375 C2.62886667,-0.00134375 3.15213333,0.21740625 3.5438,0.61115625 L23.5720667,20.5861563 L43.6034667,0.60803125 C43.9951333,0.21740625 44.5152667,0.00178125 45.0698667,0.00178125 C45.6244667,0.00178125 46.1446,0.21740625 46.5362667,0.61115625 C46.9248,0.99865625 47.141,1.51740625 47.141,2.07365625 C47.141,2.62365625 46.9248,3.14553125 46.5331333,3.53303125 L25.0353333,24.9799062 C24.6436667,25.3642813 24.1266667,25.5767813 23.5783333,25.5767813 L23.5689333,25.5767813 Z"></path>
                </g>
            </g>
        </g>
    </g>
</svg>