<svg baseProfile="tiny" xmlns="http://www.w3.org/2000/svg" width="13" height="17" viewBox="0 0 13 17"><g><path d="M11.9 6c-.1-.3-.4-.4-.7-.2-.2.1-.3.4-.2.6.3.7.5 1.4.5 2.1 0 2.8-2.2 5-5 5-.5 0-1-.1-1.5-.2l1.2-1.6c.2-.2.1-.5-.1-.7-.2-.2-.5-.1-.7.1l-1.6 2.1V13.5c0 .1 0 .2.1.3l1.8 2.7c.1.1.2.2.4.2.3 0 .5-.2.5-.5 0-.1 0-.2-.1-.3l-1-1.5c.4.1.7.1 1.1.1 3.3 0 6-2.7 6-6-.1-.9-.3-1.7-.7-2.5zM6.5 3.5c.5 0 1 .1 1.5.2L6.8 5.3c-.2.3-.1.6.1.7.1.1.2.1.3.1.1 0 .3-.1.4-.2l1.6-2v-.1l.1-.1v-.2c0-.1 0-.1-.1-.2v-.1L7.4.6C7.3.4 7.2.3 7 .3c-.3 0-.5.2-.5.5 0 .1 0 .2.1.3l1 1.5c-.4 0-.7-.1-1.1-.1-3.3 0-6 2.7-6 6 0 .9.2 1.7.6 2.5.1.2.3.3.5.3h.2c.2-.1.3-.4.2-.7-.3-.7-.5-1.4-.5-2.1 0-2.7 2.2-5 5-5z"/></g></svg>