<svg baseProfile="tiny" xmlns="http://www.w3.org/2000/svg" width="19" height="19" viewBox="0 0 19 19"><path d="M17 0h-4c-1.1 0-2 .9-2 2v4c0 1.1.9 2 2 2h4c1.1 0 2-.9 2-2V2c0-1.1-.9-2-2-2zm1 6c0 .6-.4 1-1 1h-4c-.6 0-1-.4-1-1V2c0-.6.4-1 1-1h4c.6 0 1 .4 1 1v4zM6 0H2C.9 0 0 .9 0 2v4c0 1.1.9 2 2 2h4c1.1 0 2-.9 2-2V2c0-1.1-.9-2-2-2zm1 6c0 .6-.4 1-1 1H2c-.6 0-1-.4-1-1V2c0-.6.4-1 1-1h4c.6 0 1 .4 1 1v4zM17 11h-4c-1.1 0-2 .9-2 2v4c0 1.1.9 2 2 2h4c1.1 0 2-.9 2-2v-4c0-1.1-.9-2-2-2zm1 6c0 .6-.4 1-1 1h-4c-.6 0-1-.4-1-1v-4c0-.6.4-1 1-1h4c.6 0 1 .4 1 1v4zM6 11H2c-1.1 0-2 .9-2 2v4c0 1.1.9 2 2 2h4c1.1 0 2-.9 2-2v-4c0-1.1-.9-2-2-2zm1 6c0 .6-.4 1-1 1H2c-.6 0-1-.4-1-1v-4c0-.6.4-1 1-1h4c.6 0 1 .4 1 1v4z"/></svg>