<svg baseProfile="tiny" xmlns="http://www.w3.org/2000/svg" width="20" height="20" viewBox="0 0 20 20"><path d="M10 .5C4.7.5.5 4.8.5 10c0 3.9 2.4 7.3 5.7 8.7 0-.7 0-1.5.2-2.2.2-.8 1.2-5.2 1.2-5.2s-.3-.6-.3-1.5c0-1.4.8-2.5 1.8-2.5.9 0 1.3.7 1.3 1.4 0 .9-.6 2.2-.8 3.4-.2 1 .5 1.8 1.5 1.8 1.8 0 3-2.3 3-5.1 0-2.1-1.4-3.7-4-3.7-2.9 0-4.7 2.2-4.7 4.6 0 .8.2 1.4.6 1.9.2.2.2.3.1.5 0 .3-.1.8-.1.9-.1.2-.3.3-.5.2-1.3-.5-2-2-2-3.6 0-2.7 2.3-6 6.8-6 3.6 0 6 2.6 6 5.5 0 3.7-2.1 6.5-5.2 6.5-1 0-2-.6-2.3-1.2 0 0-.6 2.2-.7 2.6-.2.7-.6 1.5-1 2 .9.3 1.8.4 2.7.4 5.3 0 9.5-4.3 9.5-9.5S15.3.5 10 .5z"/></svg>