<svg baseProfile="tiny" xmlns="http://www.w3.org/2000/svg" width="20" height="18" viewBox="0 0 20 18"><path d="M20 2.3c-.7.4-1.5.6-2.4.7.9-.5 1.5-1.4 1.8-2.5-.8.5-1.7.9-2.6 1.1-.7-.9-1.8-1.4-3-1.4-2.3 0-4.1 2-4.1 4.4 0 .3 0 .7.1 1C6.4 5.5 3.4 3.7 1.4 1 1 1.7.8 2.4.8 3.3c0 1.5.7 2.9 1.8 3.7-.6-.1-1.3-.3-1.8-.6v.1c0 2.1 1.4 3.9 3.3 4.3-.3.1-.7.1-1.1.1-.3 0-.5 0-.8-.1.5 1.8 2 3.1 3.8 3.1-1.4 1.2-3.2 1.9-5.1 1.9-.3 0-.7 0-1-.1 1.8 1.3 4 2 6.3 2C13.9 17.8 18 11 18 5.2v-.6c.8-.6 1.5-1.4 2-2.3z"/></svg>