<svg baseProfile="tiny" xmlns="http://www.w3.org/2000/svg" width="44" height="42" viewBox="0 0 44 42"><g fill="#FFAFA9"><path d="M43.7 38.4L23.9 1.6C23.5.9 22.8.5 22 .5s-1.5.4-1.9 1.1L.3 38.4c-.4.7-.3 1.4 0 2.1.4.6 1.1 1 1.8 1h39.8c.8 0 1.4-.4 1.8-1 .4-.7.4-1.4 0-2.1zm-.9 1.6c-.2.3-.6.5-1 .5H2.1c-.4 0-.8-.2-1-.5-.2-.3-.2-.7 0-1.1L21 2.1c.4-.7 1.6-.7 2 0l19.9 36.8c.2.3.1.7-.1 1.1z"/><path d="M20.7 28c0 .3.2.4.5.4h1.7c.3 0 .5-.2.5-.4l1.4-13.1c.1-.7-.1-1.4-.6-1.9-.6-.6-1.4-1-2.2-1s-1.6.3-2.2.9c-.5.5-.7 1.2-.6 1.9L20.7 28zm-.1-14.4c.7-.8 2.1-.8 2.8 0 .3.3.4.7.4 1.1l-1.4 12.6h-.8l-1.4-12.6c0-.3.1-.7.4-1.1zM22 30.5c-1.5 0-2.8 1.3-2.8 2.8s1.3 2.8 2.8 2.8c1.5 0 2.8-1.3 2.8-2.8s-1.3-2.8-2.8-2.8zm0 4.6c-1 0-1.8-.8-1.8-1.8s.8-1.8 1.8-1.8 1.8.8 1.8 1.8-.8 1.8-1.8 1.8z"/></g></svg>