<?xml version="1.0" encoding="utf-8"?>
<!-- Generator: Adobe Illustrator 20.1.0, SVG Export Plug-In . SVG Version: 6.00 Build 0)  -->
<svg version="1.1" baseProfile="tiny" id="Layer_1" xmlns="http://www.w3.org/2000/svg" xmlns:xlink="http://www.w3.org/1999/xlink"
	 x="0px" y="0px" width="15px" height="15px" viewBox="0 0 15 15" xml:space="preserve">
<title>Group 3</title>
<desc>Created with Sketch.</desc>
<path fill="#453F43" d="M14.5,13.5l-4.2-4.2c0.7-0.9,1.2-2.1,1.2-3.4c0-3.1-2.5-5.6-5.6-5.6S0.2,2.8,0.2,5.9s2.5,5.6,5.6,5.6
	c1.3,0,2.5-0.4,3.4-1.2l4.2,4.2c0.1,0.1,0.3,0.2,0.5,0.2s0.4-0.1,0.5-0.2C14.8,14.2,14.8,13.8,14.5,13.5z M1.8,5.9
	c0-2.3,1.9-4.1,4.1-4.1S10,3.6,10,5.9S8.1,10,5.9,10S1.8,8.1,1.8,5.9z"/>
</svg>
