<svg baseProfile="tiny" xmlns="http://www.w3.org/2000/svg" width="19" height="20" viewBox="0 0 19 20"><g><path d="M10.1 11.5c-.5-.4-1.6-1.3-1.6-1.9 0-.7.2-1 1.2-1.7 1-.8 1.7-1.9 1.7-3.2 0-1.5-.7-3-2-3.5h1.9l1.4-1H6.6C3.9.2 1.3 2.3 1.3 4.7s1.9 4.4 4.6 4.4h.6c-.2.3-.3.7-.3 1.1 0 .7.4 1.2.8 1.7H5.9c-3.4 0-6 2.1-6 4.4 0 2.2 2.8 3.6 6.2 3.6 3.8 0 6-2.2 6-4.4.1-1.8-.4-2.9-2-4zM6.9 8.4c-1.6 0-3.1-1.8-3.3-3.8-.3-2 .7-3.6 2.3-3.6C7.5 1 9 2.7 9.2 4.8c.3 2.1-.8 3.7-2.3 3.6zm-.6 10.4c-2.3 0-4-1.5-4-3.2 0-1.7 2.1-3.2 4.4-3.2.5 0 1.1.1 1.5.2 1.3.9 2.2 1.4 2.4 2.4 0 .2.1.4.1.6 0 1.9-1.2 3.2-4.4 3.2z"/><path d="M16.6 8.6V6.3h-1.9v2.3h-2.4v1.9h2.4v2.4h1.9v-2.4H19V8.6"/></g></svg>