<svg baseProfile="tiny" xmlns="http://www.w3.org/2000/svg" width="50" height="50" viewBox="0 0 50 50"><circle cx="25" cy="25" r="20"/><path fill="#FFF" d="M35 27.1c0-.6-.5-1.2-1.2-1.2s-1.2.5-1.2 1.2c0 .4.3.8.6 1-.4 3.8-3.7 6.8-7.7 7v-16h3.4c.3 0 .5-.2.5-.5s-.2-.5-.5-.5h-3.4v-1.5c.8-.2 1.4-.9 1.4-1.7 0-1-.8-1.8-1.9-1.8s-1.9.8-1.9 1.8c0 .8.6 1.5 1.4 1.7v1.5h-3.4c-.3 0-.5.2-.5.5s.2.5.5.5h3.4v16c-2-.1-3.9-.9-5.4-2.3-1.4-1.3-2.2-3-2.4-4.8.4-.2.6-.6.6-1 0-.6-.5-1.2-1.2-1.2s-1.2.5-1.2 1.2c0 .5.3.9.8 1.1.2 2 1.1 3.9 2.7 5.4 1.6 1.6 3.8 2.4 6.1 2.6v.3c0 .3.2.5.5.5s.5-.2.5-.5v-.3c4.6-.2 8.3-3.6 8.7-8 .5-.1.8-.5.8-1zM24.1 14.9c0-.5.4-.8.9-.8s.9.4.9.8c0 .5-.4.8-.9.8s-.9-.4-.9-.8z"/></svg>