<?xml version="1.0" encoding="utf-8"?>
<!-- Generator: Adobe Illustrator 20.1.0, SVG Export Plug-In . SVG Version: 6.00 Build 0)  -->
<svg version="1.1" baseProfile="tiny" id="Layer_1" xmlns="http://www.w3.org/2000/svg" xmlns:xlink="http://www.w3.org/1999/xlink"
	 x="0px" y="0px" width="13px" height="12px" viewBox="0 0 13 12" xml:space="preserve">
<title>Group 2</title>
<desc>Created with Sketch.</desc>
<g id="Symbols">
	<g id="main-Navigation" transform="translate(-1397.000000, -21.000000)">
		<g id="Group-13">
			<g id="Group-2" transform="translate(1398.000000, 21.000000)">
				<g id="Stroke-1">
					<path fill="#453F43" d="M1.8,11.6c-0.7,0-1.2-0.5-1.2-1.2s0.5-1.2,1.2-1.2S3,9.7,3,10.4S2.5,11.6,1.8,11.6z M1.8,10.2
						c-0.1,0-0.2,0.1-0.2,0.2c0,0.2,0.4,0.2,0.4,0C2,10.3,1.9,10.2,1.8,10.2z"/>
				</g>
				<g id="Stroke-3">
					<path fill="#453F43" d="M5.8,11.6c-0.7,0-1.2-0.5-1.2-1.2s0.5-1.2,1.2-1.2S7,9.7,7,10.4S6.5,11.6,5.8,11.6z M5.8,10.2
						c-0.1,0-0.2,0.1-0.2,0.2c0,0.2,0.4,0.2,0.4,0C6,10.3,5.9,10.2,5.8,10.2z"/>
				</g>
				<g id="Stroke-5">
					<path fill="#453F43" d="M7.1,8.3H0.7c-0.2,0-0.4-0.2-0.5-0.4L-1,3.1C-1,3-1,2.8-0.9,2.7c0.1-0.1,0.2-0.2,0.4-0.2h8.7l0.4-1.3
						C8.7,1,8.9,0.9,9.1,0.9h2.4c0.3,0,0.5,0.2,0.5,0.5s-0.2,0.5-0.5,0.5h-2L7.6,7.9C7.5,8.2,7.3,8.3,7.1,8.3z M1.1,7.3h5.6l1.2-3.8
						H0.1L1.1,7.3z"/>
				</g>
				<g id="Oval-2">
					<circle fill="#6ED12F" cx="4" cy="2.9" r="2.5"/>
				</g>
			</g>
		</g>
	</g>
</g>
</svg>
