<svg baseProfile="tiny" xmlns="http://www.w3.org/2000/svg" width="19" height="19" viewBox="0 0 19 19"><path d="M15.2.1H3.8C1.8.1.2 1.7.2 3.7v11.5c0 2 1.6 3.6 3.6 3.6h11.5c2 0 3.6-1.6 3.6-3.6V3.8c0-2-1.7-3.7-3.7-3.7zm1.1 2.2h.4V5.5h-3.2V2.3h2.8zM6.8 7.6c.6-.8 1.6-1.4 2.7-1.4s2.1.5 2.7 1.4c.4.5.6 1.2.6 1.9 0 1.8-1.5 3.3-3.3 3.3-1.8 0-3.3-1.5-3.3-3.3 0-.7.2-1.4.6-1.9zM17 15.2c0 1-.8 1.8-1.8 1.8H3.8c-1 0-1.8-.8-1.8-1.8V7.6h2.8c-.3.6-.4 1.2-.4 1.9 0 2.8 2.3 5.1 5.1 5.1s5.1-2.3 5.1-5.1c0-.7-.1-1.3-.4-1.9H17v7.6z"/></svg>