<?xml version="1.0" encoding="utf-8"?>
<!-- Generator: Adobe Illustrator 20.1.0, SVG Export Plug-In . SVG Version: 6.00 Build 0)  -->
<svg version="1.1" baseProfile="tiny" id="Layer_1" xmlns="http://www.w3.org/2000/svg" xmlns:xlink="http://www.w3.org/1999/xlink"
	 x="0px" y="0px" width="14px" height="14px" viewBox="0 0 14 14" xml:space="preserve">
<title>Group</title>
<desc>Created with Sketch.</desc>
<path fill="#453F43" d="M7,0.5C3.4,0.5,0.5,3.4,0.5,7s2.9,6.5,6.5,6.5s6.5-2.9,6.5-6.5S10.6,0.5,7,0.5z M4.2,11.7l2-1.1
	c0.2-0.1,0.3-0.3,0.3-0.4V8.7c0-0.2-0.1-0.3-0.2-0.4c-0.7-0.5-1.1-1.1-1.1-2C5.1,5,5.9,4.1,7,4.1C8.1,4.1,9,5,9,6.3
	c0,0.9-0.3,1.5-1.1,2C7.7,8.4,7.6,8.5,7.6,8.7v1.5c0,0.2,0.1,0.4,0.3,0.4l2,1.1C9,12.2,8.1,12.5,7,12.5C6,12.5,5,12.2,4.2,11.7z
	 M10.8,11L8.6,9.9V9C9.5,8.3,10,7.4,10,6.3C10,4.5,8.7,3.1,7,3.1c-1.7,0-2.9,1.4-2.9,3.2c0,1.1,0.4,2,1.3,2.7v0.9L3.3,11
	c-1.1-1-1.8-2.4-1.8-4C1.5,4,4,1.5,7,1.5c3,0,5.5,2.5,5.5,5.5C12.5,8.6,11.8,10,10.8,11z"/>
</svg>
