<?xml version="1.0" encoding="utf-8"?>
<!-- Generator: Adobe Illustrator 21.0.1, SVG Export Plug-In . SVG Version: 6.00 Build 0)  -->
<svg version="1.1" baseProfile="tiny" id="Layer_1" xmlns="http://www.w3.org/2000/svg" xmlns:xlink="http://www.w3.org/1999/xlink"
	 x="0px" y="0px" width="125px" height="27px" viewBox="0 0 125 27" xml:space="preserve">
<title>Group</title>
<desc>Created with Sketch.</desc>
<g>
	<path fill="#453F43" d="M103.5,21h-1.1v-4.6c0-2.9-1.6-4-4.2-4c-2.7,0-3.8,1.2-3.9,1.3c-0.1,0.1-0.1,0.2,0,0.3l0.6,0.7
		c0.1,0.1,0.2,0.1,0.3,0.1c0.1,0,0.9-1,3-1c1.5,0,2.6,0.6,2.6,2.5v0.3H99c-3.1,0-5.3,0.9-5.3,3.2c0,1.7,1.4,2.8,3.3,2.8
		c2.4,0,3.5-1.5,3.9-2h0v1c0,0.6,0.3,0.8,0.9,0.8h1.7c0.2,0,0.2-0.1,0.2-0.2v-0.9C103.7,21.1,103.6,21,103.5,21z M100.7,19.3
		c-0.5,0.6-1.6,1.8-3.3,1.8c-1.2,0-2-0.7-2-1.6c0-1.3,1.7-1.6,3.7-1.6h1.6V19.3z"/>
	<path fill="#453F43" d="M54.5,21h-1.1v-4.6c0-2.9-1.6-4-4.2-4c-2.7,0-3.8,1.2-3.9,1.3c-0.1,0.1-0.1,0.2,0,0.3l0.6,0.7
		c0.1,0.1,0.2,0.1,0.3,0.1c0.1,0,0.9-1,3-1c1.5,0,2.6,0.6,2.6,2.5v0.3h-1.7c-3.1,0-5.3,0.9-5.3,3.2c0,1.7,1.4,2.8,3.3,2.8
		c2.4,0,3.5-1.5,3.9-2h0v1c0,0.6,0.3,0.8,0.9,0.8h1.7c0.2,0,0.2-0.1,0.2-0.2v-0.9C54.7,21.1,54.7,21,54.5,21z M51.7,19.3
		c-0.5,0.6-1.6,1.8-3.3,1.8c-1.2,0-2-0.7-2-1.6c0-1.3,1.7-1.6,3.7-1.6h1.6V19.3z"/>
	<path fill="#453F43" d="M124.8,12.5h-3.7c-0.2,0-0.2,0.1-0.2,0.2v0.9c0,0.2,0.1,0.2,0.2,0.2h0.9l-2.4,6.8h0l-2.6-6.8h0.8
		c0.2,0,0.3-0.1,0.3-0.2v-0.9c0-0.2-0.1-0.2-0.3-0.2h-3.6c-0.2,0-0.2,0.1-0.2,0.2v0.9c0,0.2,0.1,0.2,0.2,0.2h1.1l3,7.8
		c0.1,0.4,0.3,0.5,0.5,0.5h0.3l-0.5,1.5c-0.5,1.4-1,2-2,2c-0.6,0-1-0.3-1.1-0.4c-0.1-0.1-0.2-0.1-0.4,0l-0.5,0.6
		c-0.1,0.1-0.1,0.2,0.1,0.4c0.2,0.2,0.8,0.8,2,0.8c1.9,0,2.6-1.3,3.3-3.4l3.6-9.8h1.1c0.2,0,0.2-0.1,0.2-0.2v-0.9
		C125,12.6,124.9,12.5,124.8,12.5z"/>
	<path fill="#453F43" d="M42.5,19.5c-0.1-0.1-0.3-0.1-0.3,0.1c-0.3,0.5-1.4,1.5-3.2,1.5c-1.6,0-3.2-1-3.3-3.3h7.2
		c0.2,0,0.3-0.1,0.3-0.3c0-3.3-1.5-5.2-4.4-5.2c-2.4,0-4.7,1.8-4.7,5c0,3.2,2.2,5.1,4.9,5.1c2.6,0,4-1.7,4.2-2.1
		c0.1-0.1,0.1-0.2-0.1-0.4L42.5,19.5z M38.7,13.8c1.7,0,2.7,1.2,2.8,2.7h-5.8C36,14.7,37.3,13.8,38.7,13.8z"/>
	<path fill="#453F43" d="M63,12.5C63,12.5,63,12.5,63,12.5c-3.6,0-4.3,2.8-4.3,2.8h-0.1v-2.5c0-0.2-0.1-0.2-0.2-0.2h-2.3
		c-0.2,0-0.2,0.1-0.2,0.2v0.9c0,0.2,0.1,0.2,0.2,0.2h1.1V21h-1.1c-0.2,0-0.2,0.1-0.2,0.2v0.9c0,0.2,0.1,0.2,0.2,0.2h3.8
		c0.2,0,0.2-0.1,0.2-0.2v-0.9c0-0.2-0.1-0.2-0.2-0.2h-1.1v-3.4c0-1.7,1.3-3.6,3.7-3.6H63c0.2,0,0.3-0.1,0.3-0.3v-1.1
		C63.2,12.6,63.1,12.5,63,12.5z"/>
	<path fill="#453F43" d="M70.1,20.7c-0.1-0.1-0.2-0.1-0.4,0c-0.1,0.1-0.5,0.4-1.1,0.4c-1.1,0-1.7-0.7-1.7-2v-5.2h2.5
		c0.2,0,0.3-0.1,0.3-0.3v-0.8c0-0.2-0.1-0.3-0.3-0.3H67v-2c0-0.2-0.1-0.3-0.3-0.3h-1.1c-0.2,0-0.3,0.1-0.3,0.3v2h-0.8
		c-0.2,0-0.3,0.1-0.3,0.3v0.8c0,0.2,0.1,0.3,0.3,0.3h0.8v5.2c0,2.3,1.2,3.4,3.2,3.4c1.2,0,1.8-0.6,2-0.8c0.1-0.1,0.2-0.3,0-0.4
		L70.1,20.7z"/>
	<path fill="#453F43" d="M91.5,19.5c-0.1-0.1-0.3-0.1-0.3,0.1c-0.3,0.5-1.4,1.5-3.2,1.5c-1.6,0-3.2-1-3.3-3.3h7.2
		c0.2,0,0.3-0.1,0.3-0.3c0-3.3-1.5-5.2-4.4-5.2c-2.4,0-4.7,1.8-4.7,5c0,3.2,2.2,5.1,4.9,5.1c2.6,0,4-1.7,4.2-2.1
		c0.1-0.1,0.1-0.2-0.1-0.4L91.5,19.5z M87.7,13.8c1.7,0,2.7,1.2,2.8,2.7h-5.8C84.9,14.7,86.2,13.8,87.7,13.8z"/>
	<path fill="#453F43" d="M106.9,15.2c0-1,0.9-1.4,1.9-1.4c1.8,0,2.5,1,2.5,1.5v0.3c0,0.2,0.1,0.3,0.3,0.3h0.9c0.2,0,0.3-0.1,0.3-0.3
		v-2.8c0-0.2-0.1-0.3-0.3-0.3h-0.7c-0.2,0-0.3,0.1-0.3,0.3c0,0,0.1,0.7,0.1,0.7h0c-0.5-0.6-1.4-1.2-2.8-1.2c-1.9,0-3.3,1.1-3.3,2.8
		c0,3.5,6,2.4,6,4.4c0,0.9-0.7,1.4-2.1,1.4c-2.2,0-2.8-1.6-2.8-1.6v-0.4c0-0.2-0.1-0.3-0.3-0.3h-0.9c-0.2,0-0.3,0.1-0.3,0.3l0,3
		c0,0.2,0.1,0.3,0.3,0.3h0.8c0.2,0,0.3-0.1,0.3-0.3c0-0.1,0-1,0-1h0c0.2,0.3,1.1,1.4,3.1,1.4c2.6,0,3.7-1.4,3.7-2.8
		C113,16.2,106.9,17.4,106.9,15.2z"/>
	<path fill="#453F43" d="M81.7,21h-1.1v-5.1c0-2.1-1.3-3.5-3.4-3.5c-1.8,0-2.7,1-3.1,1.5h0c0-0.1,0.1-0.9,0.1-1.2V8.2
		c0-0.2-0.1-0.2-0.2-0.2h-2.5c-0.2,0-0.2,0.1-0.2,0.2v0.9c0,0.2,0.1,0.2,0.2,0.2h1.1V21h-1.1c-0.2,0-0.2,0.1-0.2,0.2v0.9
		c0,0.2,0.1,0.2,0.2,0.2h3.8c0.2,0,0.2-0.1,0.2-0.2v-0.9c0-0.2-0.1-0.2-0.2-0.2h-1.1v-5.5c0,0,0.6-1.7,2.6-1.7
		c1.5,0,2.2,0.9,2.2,2.4v5.2c0,0.6,0.3,0.8,0.9,0.8h1.9c0.2,0,0.3-0.1,0.3-0.2v-0.9C82,21.1,81.9,21,81.7,21z"/>
</g>
<g id="Clip-4">
</g>
<g id="Clip-21">
</g>
<g id="Clip-38">
</g>
<g id="Clip-41">
</g>
<g>
	<path fill="#453F43" d="M6.3,10.3c0,0,0-0.1,0-0.1V8.7c0,0,0,0-0.1,0c-0.3-0.1-0.7-0.1-1-0.1c-0.1,0-0.3,0-0.4,0
		c-0.6,0-1.3,0.1-1.9,0.2C2.6,8.8,2.3,8.9,2.1,8.9l4.2,5.6V10.3z"/>
	<path fill="#453F43" d="M6.4,16L0,14.1c0,0.1,0,0.2,0,0.3c0,0.8,0.2,1.6,0.4,2.4c0,0.1,0.1,0.3,0.2,0.4l8.7,2.5L6.4,16z"/>
	<path fill="#453F43" d="M1.5,9.4c0,0.1-0.1,0.1-0.1,0.2c-0.5,0.9-0.9,1.8-1.1,2.7c0,0.2-0.1,0.4-0.1,0.6c0,0.2,0,0.3-0.1,0.5
		L5.7,15L1.5,9.4z"/>
	<path fill="#453F43" d="M9.7,2.4l3.8,5V0c-1.1,0.4-2.2,1-3,1.7C10.2,1.9,10,2.1,9.7,2.4z"/>
	<path fill="#453F43" d="M7.7,5.8l5.8,7.7V8.6L9.2,3C8.6,3.8,8.1,4.7,7.7,5.8z"/>
	<polygon fill="#453F43" points="10.6,20.3 13.5,24.1 13.5,14.7 10.6,10.9 	"/>
	<path fill="#453F43" d="M9.9,9.9L7.4,6.7c-0.2,1-0.4,2-0.4,3.1v5.8l2.9,3.8V9.9z"/>
	<path fill="#453F43" d="M1,18.1c0.1,0.2,0.2,0.3,0.2,0.5c0.3,0.6,0.8,1.3,1.2,1.9l0.8,1.1c0.1,0.1,0.1,0.2,0.2,0.2l9.4,2.7L10,20.7
		L1,18.1z"/>
	<path fill="#453F43" d="M21.5,14.5l4.2-5.6c-0.3-0.1-0.5-0.2-0.8-0.2c-0.6-0.1-1.3-0.2-1.9-0.2c-0.1,0-0.3,0-0.4,0
		c-0.3,0-0.7,0.1-1,0.1c0,0,0,0-0.1,0v1.5c0,0,0,0.1,0,0.1V14.5z"/>
	<path fill="#453F43" d="M21.3,16l-2.9,3.8l8.7-2.5c0.1-0.1,0.1-0.3,0.2-0.4c0.3-0.8,0.4-1.6,0.4-2.4c0-0.1,0-0.2,0-0.3L21.3,16z"/>
	<path fill="#453F43" d="M27.7,13.3c0-0.2,0-0.3-0.1-0.5c0-0.2-0.1-0.4-0.1-0.6c-0.2-0.9-0.6-1.8-1.1-2.7c0-0.1-0.1-0.1-0.1-0.2
		L22.1,15L27.7,13.3z"/>
	<path fill="#453F43" d="M17.3,1.7c-0.9-0.7-1.9-1.3-3-1.7v7.4l3.8-5C17.8,2.1,17.5,1.9,17.3,1.7z"/>
	<path fill="#453F43" d="M18.5,3l-4.3,5.7v4.8L20,5.8C19.7,4.7,19.2,3.8,18.5,3z"/>
	<polygon fill="#453F43" points="17.1,10.9 14.2,14.7 14.2,24.1 17.1,20.3 	"/>
	<path fill="#453F43" d="M17.9,19.3l2.9-3.8V9.8c0-1.1-0.2-2.1-0.4-3.1l-2.4,3.2V19.3z"/>
	<path fill="#453F43" d="M14.9,24.5l9.4-2.7c0.1-0.1,0.1-0.2,0.2-0.2l0.8-1.1c0.5-0.6,0.9-1.3,1.2-1.9c0.1-0.2,0.2-0.3,0.2-0.5
		l-9,2.6L14.9,24.5z"/>
	<path fill="#453F43" d="M12.6,25.2l-8.3-2.4c0.2,0.2,0.4,0.4,0.6,0.6c1.3,1.2,2.7,2,4.2,2.3c0.5,0.1,1,0.2,1.5,0.2
		c0.1,0,0.3,0,0.4,0c0.5,0,1.1-0.1,1.6-0.2c0,0,0.1,0,0.1-0.1c0.1-0.1,0.2-0.2,0.2-0.3C12.8,25.4,12.8,25.3,12.6,25.2
		C12.7,25.3,12.7,25.2,12.6,25.2z"/>
	<path fill="#453F43" d="M15,25.8C15,25.8,15,25.8,15,25.8C15,25.8,15,25.8,15,25.8C15,25.8,15,25.8,15,25.8z"/>
	<path fill="#453F43" d="M15,25.3C14.9,25.3,14.9,25.3,15,25.3c-0.1,0.1-0.2,0.2-0.2,0.3c0,0.1,0,0.1,0,0.2c0,0.1,0.1,0.1,0.2,0.1
		c0,0,0,0,0,0c0.1,0,0.1,0,0.2,0c0,0,0,0,0,0c0.5,0.1,1,0.1,1.6,0.1c0.1,0,0.3,0,0.4,0c0.5,0,1-0.1,1.5-0.2c1.5-0.3,2.9-1.1,4.2-2.3
		c0.2-0.2,0.4-0.4,0.6-0.6l-8.3,2.4C15,25.2,15,25.3,15,25.3z"/>
</g>
</svg>
