<svg xmlns="http://www.w3.org/2000/svg" xmlns:xlink="http://www.w3.org/1999/xlink" width="0" height="0" style="position:absolute">
    <defs>
        <svg baseProfile="tiny" width="14" height="14" viewBox="0 0 14 14" id="icon-account"><path fill="#453F43" d="M7 .5C3.4.5.5 3.4.5 7s2.9 6.5 6.5 6.5 6.5-2.9 6.5-6.5S10.6.5 7 .5zM4.2 11.7l2-1.1c.2-.1.3-.3.3-.4V8.7c0-.2-.1-.3-.2-.4-.7-.5-1.1-1.1-1.1-2C5.1 5 5.9 4.1 7 4.1S9 5 9 6.3c0 .9-.3 1.5-1.1 2-.2.1-.3.2-.3.4v1.5c0 .2.1.4.3.4l2 1.1c-.9.5-1.8.8-2.9.8-1 0-2-.3-2.8-.8zm6.6-.7L8.6 9.9V9c.9-.7 1.4-1.6 1.4-2.7 0-1.8-1.3-3.2-3-3.2S4.1 4.5 4.1 6.3c0 1.1.4 2 1.3 2.7v.9L3.3 11c-1.1-1-1.8-2.4-1.8-4C1.5 4 4 1.5 7 1.5S12.5 4 12.5 7c0 1.6-.7 3-1.7 4z"/></svg>
        <svg baseProfile="tiny" width="50" height="50" viewBox="0 0 50 50" id="icon-anchor"><circle cx="25" cy="25" r="20"/><path fill="#FFF" d="M35 27.1c0-.6-.5-1.2-1.2-1.2s-1.2.5-1.2 1.2c0 .4.3.8.6 1-.4 3.8-3.7 6.8-7.7 7v-16h3.4c.3 0 .5-.2.5-.5s-.2-.5-.5-.5h-3.4v-1.5c.8-.2 1.4-.9 1.4-1.7 0-1-.8-1.8-1.9-1.8s-1.9.8-1.9 1.8c0 .8.6 1.5 1.4 1.7v1.5h-3.4c-.3 0-.5.2-.5.5s.2.5.5.5h3.4v16c-2-.1-3.9-.9-5.4-2.3-1.4-1.3-2.2-3-2.4-4.8.4-.2.6-.6.6-1 0-.6-.5-1.2-1.2-1.2s-1.2.5-1.2 1.2c0 .5.3.9.8 1.1.2 2 1.1 3.9 2.7 5.4 1.6 1.6 3.8 2.4 6.1 2.6v.3c0 .3.2.5.5.5s.5-.2.5-.5v-.3c4.6-.2 8.3-3.6 8.7-8 .5-.1.8-.5.8-1zM24.1 14.9c0-.5.4-.8.9-.8s.9.4.9.8c0 .5-.4.8-.9.8s-.9-.4-.9-.8z"/></svg>
        <svg baseProfile="tiny" width="9" height="4" viewBox="0 0 9 4" id="icon-arrow-down"><path d="M8.9.2c-.2-.2-.5-.3-.7-.1L4.5 2.9.8.1C.6-.1.3 0 .1.2S0 .7.2.9l4 3c.1.1.2.1.3.1.1 0 .2 0 .3-.1l4-3c.2-.2.3-.5.1-.7z"/></svg>
        <svg baseProfile="tiny" width="6" height="12" viewBox="0 0 6 12" id="icon-arrow-left"><path d="M1.5 6L5.6.8c.2-.2.1-.5-.1-.7-.3-.2-.6-.1-.8.1L.5 5.7v.6l4.3 5.5c0 .1.2.2.3.2.1 0 .2 0 .3-.1.2-.2.3-.5.1-.7L1.5 6z"/></svg>
        <svg baseProfile="tiny" width="6" height="12" viewBox="0 0 6 12" id="icon-arrow-right"><path d="M4.5 6L.5.8C.3.6.3.3.6.1c.2-.2.5-.1.7.1l4.3 5.5v.6l-4.3 5.5c-.1.1-.3.2-.4.2-.1 0-.2 0-.3-.1-.2-.2-.3-.5-.1-.7l4-5.2z"/></svg>
        <svg baseProfile="tiny" width="6" height="10" viewBox="0 0 6 10" id="icon-bookmark"><path d="M5 1v7L3.6 7 3 6.5l-.6.5L1 8V1h4m1-1H0v10l3-2.2L6 10V0z"/></svg>
        <svg baseProfile="tiny" width="6" height="10" viewBox="0 0 6 10" id="icon-bookmark-fill"><path d="M6 0H0v10l3-2.2L6 10V0z"/></svg>
        <svg baseProfile="tiny" width="17" height="27" viewBox="0 0 17 27" id="icon-bookmark-section"><path fill="#FCFCFC" stroke="#EBEBEB" stroke-width="1" stroke-linecap="square" d="M1 1v24l7.5-5.3L16 25V1z"/></svg>
        <svg baseProfile="tiny" width="13" height="12" viewBox="0 0 13 12" id="icon-cart"><g transform="translate(1)"><path fill="#453F43" d="M1.8 11.6c-.7 0-1.2-.5-1.2-1.2s.5-1.2 1.2-1.2S3 9.7 3 10.4s-.5 1.2-1.2 1.2zm0-1.4c-.1 0-.2.1-.2.2 0 .2.4.2.4 0 0-.1-.1-.2-.2-.2zM5.8 11.6c-.7 0-1.2-.5-1.2-1.2s.5-1.2 1.2-1.2S7 9.7 7 10.4s-.5 1.2-1.2 1.2zm0-1.4c-.1 0-.2.1-.2.2 0 .2.4.2.4 0 0-.1-.1-.2-.2-.2zM7.1 8.3H.7c-.2 0-.4-.2-.5-.4L-1 3.1c0-.1 0-.3.1-.4.1-.1.2-.2.4-.2h8.7l.4-1.3c.1-.2.3-.3.5-.3h2.4c.3 0 .5.2.5.5s-.2.5-.5.5h-2l-1.9 6c-.1.3-.3.4-.5.4zm-6-1h5.6l1.2-3.8H.1l1 3.8z"/><circle fill="#6ED12F" cx="4" cy="2.9" r="2.5"/></g></svg>
        <svg baseProfile="tiny" width="27" height="24" viewBox="0 0 27 27" id="icon-close-circle"><path d="M16.5 9.9l-3 2.9-2.9-2.9-.7.7 2.9 2.9-2.9 3 .7.7 2.9-3 3 3 .7-.7-3-3 3-2.9"/><path d="M13.5.5C6.3.5.5 6.3.5 13.5s5.8 13 13 13 13-5.8 13-13-5.8-13-13-13zm0 23.9c-6 0-10.9-4.9-10.9-10.9S7.5 2.6 13.5 2.6s10.9 4.9 10.9 10.9-4.9 10.9-10.9 10.9z"/></svg>
        <svg baseProfile="tiny" width="44" height="42" viewBox="0 0 44 42" id="icon-danger"><g fill="#FFAFA9"><path d="M43.7 38.4L23.9 1.6C23.5.9 22.8.5 22 .5s-1.5.4-1.9 1.1L.3 38.4c-.4.7-.3 1.4 0 2.1.4.6 1.1 1 1.8 1h39.8c.8 0 1.4-.4 1.8-1 .4-.7.4-1.4 0-2.1zm-.9 1.6c-.2.3-.6.5-1 .5H2.1c-.4 0-.8-.2-1-.5-.2-.3-.2-.7 0-1.1L21 2.1c.4-.7 1.6-.7 2 0l19.9 36.8c.2.3.1.7-.1 1.1z"/><path d="M20.7 28c0 .3.2.4.5.4h1.7c.3 0 .5-.2.5-.4l1.4-13.1c.1-.7-.1-1.4-.6-1.9-.6-.6-1.4-1-2.2-1s-1.6.3-2.2.9c-.5.5-.7 1.2-.6 1.9L20.7 28zm-.1-14.4c.7-.8 2.1-.8 2.8 0 .3.3.4.7.4 1.1l-1.4 12.6h-.8l-1.4-12.6c0-.3.1-.7.4-1.1zM22 30.5c-1.5 0-2.8 1.3-2.8 2.8s1.3 2.8 2.8 2.8c1.5 0 2.8-1.3 2.8-2.8s-1.3-2.8-2.8-2.8zm0 4.6c-1 0-1.8-.8-1.8-1.8s.8-1.8 1.8-1.8 1.8.8 1.8 1.8-.8 1.8-1.8 1.8z"/></g></svg>
        <svg baseProfile="tiny" width="10" height="20" viewBox="0 0 10 20" id="icon-facebook"><path d="M6.1 4.3c0-.8.7-1.1 1.5-1.1s1.7.2 1.7.2l.5-3S8.7 0 6.1 0C4.5 0 3.6.6 2.9 1.5c-.6.9-.6 2.3-.6 3.1v2H.2v3h2.1v10.3h3.9V9.6h3l.2-3H6.1V4.3z"/></svg>
        <svg baseProfile="tiny" width="19" height="20" viewBox="0 0 19 20" id="icon-google-plus"><path d="M10.1 11.5c-.5-.4-1.6-1.3-1.6-1.9 0-.7.2-1 1.2-1.7 1-.8 1.7-1.9 1.7-3.2 0-1.5-.7-3-2-3.5h1.9l1.4-1H6.6C3.9.2 1.3 2.3 1.3 4.7s1.9 4.4 4.6 4.4h.6c-.2.3-.3.7-.3 1.1 0 .7.4 1.2.8 1.7H5.9c-3.4 0-6 2.1-6 4.4 0 2.2 2.8 3.6 6.2 3.6 3.8 0 6-2.2 6-4.4.1-1.8-.4-2.9-2-4zM6.9 8.4c-1.6 0-3.1-1.8-3.3-3.8-.3-2 .7-3.6 2.3-3.6C7.5 1 9 2.7 9.2 4.8c.3 2.1-.8 3.7-2.3 3.6zm-.6 10.4c-2.3 0-4-1.5-4-3.2 0-1.7 2.1-3.2 4.4-3.2.5 0 1.1.1 1.5.2 1.3.9 2.2 1.4 2.4 2.4 0 .2.1.4.1.6 0 1.9-1.2 3.2-4.4 3.2z"/><path d="M16.6 8.6V6.3h-1.9v2.3h-2.4v1.9h2.4v2.4h1.9v-2.4H19V8.6"/></svg>
        <svg baseProfile="tiny" width="19" height="19" viewBox="0 0 19 19" id="icon-grid"><path d="M17 0h-4c-1.1 0-2 .9-2 2v4c0 1.1.9 2 2 2h4c1.1 0 2-.9 2-2V2c0-1.1-.9-2-2-2zm1 6c0 .6-.4 1-1 1h-4c-.6 0-1-.4-1-1V2c0-.6.4-1 1-1h4c.6 0 1 .4 1 1v4zM6 0H2C.9 0 0 .9 0 2v4c0 1.1.9 2 2 2h4c1.1 0 2-.9 2-2V2c0-1.1-.9-2-2-2zm1 6c0 .6-.4 1-1 1H2c-.6 0-1-.4-1-1V2c0-.6.4-1 1-1h4c.6 0 1 .4 1 1v4zm10 5h-4c-1.1 0-2 .9-2 2v4c0 1.1.9 2 2 2h4c1.1 0 2-.9 2-2v-4c0-1.1-.9-2-2-2zm1 6c0 .6-.4 1-1 1h-4c-.6 0-1-.4-1-1v-4c0-.6.4-1 1-1h4c.6 0 1 .4 1 1v4zM6 11H2c-1.1 0-2 .9-2 2v4c0 1.1.9 2 2 2h4c1.1 0 2-.9 2-2v-4c0-1.1-.9-2-2-2zm1 6c0 .6-.4 1-1 1H2c-.6 0-1-.4-1-1v-4c0-.6.4-1 1-1h4c.6 0 1 .4 1 1v4z"/></svg>
        <svg baseProfile="tiny" width="9" height="10" viewBox="0 0 9 10" overflow="auto" id="icon-hash-10"><path d="M9 2.8H7.4L8.1 0h-1l-.8 2.8H4L4.8 0H3.7l-.8 2.8H1.3l-.2.6-.1.4h1.6l-.7 2.4H.3l-.1.4-.2.6h1.6L.9 10H2l.8-2.7H5L4.2 10h1.1l.8-2.7h1.6v-.1l.3-1H6.4l.7-2.5h1.6l.3-.9zM5.7 5l-.4 1.2H3L3.6 4l.1-.2H6L5.7 5z"/></svg>
        <svg baseProfile="tiny" width="12" height="13" viewBox="0 0 12 13" id="icon-hash-13"><path fill="#FFF" d="M9.4 0l-1 3.6H5.3l1-3.6H4.9l-1 3.6H1.7l-.4 1.3h2.2l-.9 3.2H.4L0 9.4h2.2l-1 3.6h1.4l1-3.6h3.1l-1 3.6h1.4l1-3.6h2.2l.4-1.3H8.5l.9-3.2h2.2l.4-1.3H9.8l1-3.6H9.4zM4.9 4.9H8l-.9 3.2H4l.9-3.2z"/></svg>
        <svg baseProfile="tiny" width="19" height="19" viewBox="0 0 19 19" id="icon-instagram"><path d="M15.2.1H3.8C1.8.1.2 1.7.2 3.7v11.5c0 2 1.6 3.6 3.6 3.6h11.5c2 0 3.6-1.6 3.6-3.6V3.8c0-2-1.7-3.7-3.7-3.7zm1.1 2.2h.4v3.2h-3.2V2.3h2.8zM6.8 7.6c.6-.8 1.6-1.4 2.7-1.4s2.1.5 2.7 1.4c.4.5.6 1.2.6 1.9 0 1.8-1.5 3.3-3.3 3.3-1.8 0-3.3-1.5-3.3-3.3 0-.7.2-1.4.6-1.9zM17 15.2c0 1-.8 1.8-1.8 1.8H3.8c-1 0-1.8-.8-1.8-1.8V7.6h2.8c-.3.6-.4 1.2-.4 1.9 0 2.8 2.3 5.1 5.1 5.1s5.1-2.3 5.1-5.1c0-.7-.1-1.3-.4-1.9H17v7.6z"/></svg>
        <svg baseProfile="tiny" width="2" height="10" viewBox="0 0 2 10" id="icon-more"><circle cx="1" cy="5" r="1"/><circle cx="1" cy="1" r="1"/><circle cx="1" cy="9" r="1"/></svg>
        <svg baseProfile="tiny" width="20" height="20" viewBox="0 0 20 20" id="icon-pinterest"><path d="M10 .5C4.7.5.5 4.8.5 10c0 3.9 2.4 7.3 5.7 8.7 0-.7 0-1.5.2-2.2.2-.8 1.2-5.2 1.2-5.2s-.3-.6-.3-1.5c0-1.4.8-2.5 1.8-2.5.9 0 1.3.7 1.3 1.4 0 .9-.6 2.2-.8 3.4-.2 1 .5 1.8 1.5 1.8 1.8 0 3-2.3 3-5.1 0-2.1-1.4-3.7-4-3.7-2.9 0-4.7 2.2-4.7 4.6 0 .8.2 1.4.6 1.9.2.2.2.3.1.5 0 .3-.1.8-.1.9-.1.2-.3.3-.5.2-1.3-.5-2-2-2-3.6 0-2.7 2.3-6 6.8-6 3.6 0 6 2.6 6 5.5 0 3.7-2.1 6.5-5.2 6.5-1 0-2-.6-2.3-1.2 0 0-.6 2.2-.7 2.6-.2.7-.6 1.5-1 2 .9.3 1.8.4 2.7.4 5.3 0 9.5-4.3 9.5-9.5S15.3.5 10 .5z"/></svg>
        <svg baseProfile="tiny" width="15" height="15" viewBox="0 0 15 15" id="icon-search"><path fill="#453F43" d="M14.5 13.5l-4.2-4.2c.7-.9 1.2-2.1 1.2-3.4C11.5 2.8 9 .3 5.9.3S.2 2.8.2 5.9s2.5 5.6 5.6 5.6c1.3 0 2.5-.4 3.4-1.2l4.2 4.2c.1.1.3.2.5.2s.4-.1.5-.2c.4-.3.4-.7.1-1zM1.8 5.9c0-2.3 1.9-4.1 4.1-4.1S10 3.6 10 5.9 8.1 10 5.9 10 1.8 8.1 1.8 5.9z"/></svg>
        <svg baseProfile="tiny" width="13" height="20" viewBox="0 0 13 20" id="icon-tumblr"><path d="M9.6 16.7c-.6 0-1.1-.1-1.5-.4-.3-.2-.6-.5-.7-.8-.1-.3-.2-1.1-.2-2.2V8.2H12V5.1H7.3V0H4.4c-.1 1-.4 1.9-.7 2.5-.3.7-.8 1.3-1.3 1.8-.6.5-1.2.8-2 1.1v2.8h2.2v7c0 .9.1 1.6.3 2.1.2.5.5.9 1 1.4.5.4 1.1.8 1.8 1 .7.2 1.5.3 2.4.3.8 0 1.6-.1 2.2-.2.7-.2 1.5-.4 2.3-.8v-3.2c-.9.6-1.9.9-3 .9z"/></svg>
        <svg baseProfile="tiny" width="20" height="18" viewBox="0 0 20 18" id="icon-twitter"><path d="M20 2.3c-.7.4-1.5.6-2.4.7.9-.5 1.5-1.4 1.8-2.5-.8.5-1.7.9-2.6 1.1-.7-.9-1.8-1.4-3-1.4-2.3 0-4.1 2-4.1 4.4 0 .3 0 .7.1 1C6.4 5.5 3.4 3.7 1.4 1 1 1.7.8 2.4.8 3.3c0 1.5.7 2.9 1.8 3.7-.6-.1-1.3-.3-1.8-.6v.1c0 2.1 1.4 3.9 3.3 4.3-.3.1-.7.1-1.1.1-.3 0-.5 0-.8-.1.5 1.8 2 3.1 3.8 3.1-1.4 1.2-3.2 1.9-5.1 1.9-.3 0-.7 0-1-.1 1.8 1.3 4 2 6.3 2C13.9 17.8 18 11 18 5.2v-.6c.8-.6 1.5-1.4 2-2.3z"/></svg>
        <svg baseProfile="tiny" width="13" height="17" viewBox="0 0 13 17" id="icon-updated"><path d="M11.9 6c-.1-.3-.4-.4-.7-.2-.2.1-.3.4-.2.6.3.7.5 1.4.5 2.1 0 2.8-2.2 5-5 5-.5 0-1-.1-1.5-.2l1.2-1.6c.2-.2.1-.5-.1-.7-.2-.2-.5-.1-.7.1l-1.6 2.1v.3c0 .1 0 .2.1.3l1.8 2.7c.1.1.2.2.4.2.3 0 .5-.2.5-.5 0-.1 0-.2-.1-.3l-1-1.5c.4.1.7.1 1.1.1 3.3 0 6-2.7 6-6-.1-.9-.3-1.7-.7-2.5zM6.5 3.5c.5 0 1 .1 1.5.2L6.8 5.3c-.2.3-.1.6.1.7.1.1.2.1.3.1.1 0 .3-.1.4-.2l1.6-2v-.1l.1-.1v-.2c0-.1 0-.1-.1-.2v-.1L7.4.6C7.3.4 7.2.3 7 .3c-.3 0-.5.2-.5.5 0 .1 0 .2.1.3l1 1.5c-.4 0-.7-.1-1.1-.1-3.3 0-6 2.7-6 6 0 .9.2 1.7.6 2.5.1.2.3.3.5.3h.2c.2-.1.3-.4.2-.7-.3-.7-.5-1.4-.5-2.1 0-2.7 2.2-5 5-5z"/></svg>
        <svg baseProfile="tiny" width="19" height="13" viewBox="0 0 19 13" id="icon-youtube"><path d="M18.5 2.1V1.8c-.2-.7-.9-1.2-1.7-1.2h.1S13.7.1 9.5.1 2.1.6 2.1.6h.1C1.4.6.7 1.1.5 1.8v.3C.4 2.9.2 4.5.2 6.5c0 2 .2 3.6.3 4.4v.3c.2.7.9 1.2 1.7 1.2h-.1s3.2.5 7.4.5 7.4-.5 7.4-.5h-.1c.8 0 1.5-.5 1.7-1.2V10.9c.1-.8.3-2.5.3-4.4 0-2-.2-3.6-.3-4.4zm-6.2 4.8L8.5 9.6c-.1.1-.2.1-.3.1H8c-.1-.1-.2-.3-.2-.4V3.8c0-.2.1-.3.2-.4.2-.1.3-.1.5 0l3.8 2.7c.1.1.2.2.2.4s-.1.3-.2.4z"/></svg>
        <svg baseProfile="tiny" width="125" height="27" viewBox="0 0 125 27" id="logo"><g fill="#453F43"><path d="M103.5 21h-1.1v-4.6c0-2.9-1.6-4-4.2-4-2.7 0-3.8 1.2-3.9 1.3-.1.1-.1.2 0 .3l.6.7c.1.1.2.1.3.1.1 0 .9-1 3-1 1.5 0 2.6.6 2.6 2.5v.3H99c-3.1 0-5.3.9-5.3 3.2 0 1.7 1.4 2.8 3.3 2.8 2.4 0 3.5-1.5 3.9-2v1c0 .6.3.8.9.8h1.7c.2 0 .2-.1.2-.2v-.9c0-.2-.1-.3-.2-.3zm-2.8-1.7c-.5.6-1.6 1.8-3.3 1.8-1.2 0-2-.7-2-1.6 0-1.3 1.7-1.6 3.7-1.6h1.6v1.4zM54.5 21h-1.1v-4.6c0-2.9-1.6-4-4.2-4-2.7 0-3.8 1.2-3.9 1.3-.1.1-.1.2 0 .3l.6.7c.1.1.2.1.3.1.1 0 .9-1 3-1 1.5 0 2.6.6 2.6 2.5v.3h-1.7c-3.1 0-5.3.9-5.3 3.2 0 1.7 1.4 2.8 3.3 2.8 2.4 0 3.5-1.5 3.9-2v1c0 .6.3.8.9.8h1.7c.2 0 .2-.1.2-.2v-.9c-.1-.2-.1-.3-.3-.3zm-2.8-1.7c-.5.6-1.6 1.8-3.3 1.8-1.2 0-2-.7-2-1.6 0-1.3 1.7-1.6 3.7-1.6h1.6v1.4zM124.8 12.5h-3.7c-.2 0-.2.1-.2.2v.9c0 .2.1.2.2.2h.9l-2.4 6.8-2.6-6.8h.8c.2 0 .3-.1.3-.2v-.9c0-.2-.1-.2-.3-.2h-3.6c-.2 0-.2.1-.2.2v.9c0 .2.1.2.2.2h1.1l3 7.8c.1.4.3.5.5.5h.3l-.5 1.5c-.5 1.4-1 2-2 2-.6 0-1-.3-1.1-.4-.1-.1-.2-.1-.4 0l-.5.6c-.1.1-.1.2.1.4s.8.8 2 .8c1.9 0 2.6-1.3 3.3-3.4l3.6-9.8h1.1c.2 0 .2-.1.2-.2v-.9c.1-.1 0-.2-.1-.2zM42.5 19.5c-.1-.1-.3-.1-.3.1-.3.5-1.4 1.5-3.2 1.5-1.6 0-3.2-1-3.3-3.3h7.2c.2 0 .3-.1.3-.3 0-3.3-1.5-5.2-4.4-5.2-2.4 0-4.7 1.8-4.7 5s2.2 5.1 4.9 5.1c2.6 0 4-1.7 4.2-2.1.1-.1.1-.2-.1-.4l-.6-.4zm-3.8-5.7c1.7 0 2.7 1.2 2.8 2.7h-5.8c.3-1.8 1.6-2.7 3-2.7zM63 12.5c-3.6 0-4.3 2.8-4.3 2.8h-.1v-2.5c0-.2-.1-.2-.2-.2h-2.3c-.2 0-.2.1-.2.2v.9c0 .2.1.2.2.2h1.1V21h-1.1c-.2 0-.2.1-.2.2v.9c0 .2.1.2.2.2h3.8c.2 0 .2-.1.2-.2v-.9c0-.2-.1-.2-.2-.2h-1.1v-3.4c0-1.7 1.3-3.6 3.7-3.6h.5c.2 0 .3-.1.3-.3v-1.1c-.1 0-.2-.1-.3-.1zM70.1 20.7c-.1-.1-.2-.1-.4 0-.1.1-.5.4-1.1.4-1.1 0-1.7-.7-1.7-2v-5.2h2.5c.2 0 .3-.1.3-.3v-.8c0-.2-.1-.3-.3-.3H67v-2c0-.2-.1-.3-.3-.3h-1.1c-.2 0-.3.1-.3.3v2h-.8c-.2 0-.3.1-.3.3v.8c0 .2.1.3.3.3h.8v5.2c0 2.3 1.2 3.4 3.2 3.4 1.2 0 1.8-.6 2-.8.1-.1.2-.3 0-.4l-.4-.6zM91.5 19.5c-.1-.1-.3-.1-.3.1-.3.5-1.4 1.5-3.2 1.5-1.6 0-3.2-1-3.3-3.3h7.2c.2 0 .3-.1.3-.3 0-3.3-1.5-5.2-4.4-5.2-2.4 0-4.7 1.8-4.7 5s2.2 5.1 4.9 5.1c2.6 0 4-1.7 4.2-2.1.1-.1.1-.2-.1-.4l-.6-.4zm-3.8-5.7c1.7 0 2.7 1.2 2.8 2.7h-5.8c.2-1.8 1.5-2.7 3-2.7zM106.9 15.2c0-1 .9-1.4 1.9-1.4 1.8 0 2.5 1 2.5 1.5v.3c0 .2.1.3.3.3h.9c.2 0 .3-.1.3-.3v-2.8c0-.2-.1-.3-.3-.3h-.7c-.2 0-.3.1-.3.3l.1.7c-.5-.6-1.4-1.2-2.8-1.2-1.9 0-3.3 1.1-3.3 2.8 0 3.5 6 2.4 6 4.4 0 .9-.7 1.4-2.1 1.4-2.2 0-2.8-1.6-2.8-1.6v-.4c0-.2-.1-.3-.3-.3h-.9c-.2 0-.3.1-.3.3v3c0 .2.1.3.3.3h.8c.2 0 .3-.1.3-.3v-1c.2.3 1.1 1.4 3.1 1.4 2.6 0 3.7-1.4 3.7-2.8-.3-3.3-6.4-2.1-6.4-4.3zM81.7 21h-1.1v-5.1c0-2.1-1.3-3.5-3.4-3.5-1.8 0-2.7 1-3.1 1.5 0-.1.1-.9.1-1.2V8.2c0-.2-.1-.2-.2-.2h-2.5c-.2 0-.2.1-.2.2v.9c0 .2.1.2.2.2h1.1V21h-1.1c-.2 0-.2.1-.2.2v.9c0 .2.1.2.2.2h3.8c.2 0 .2-.1.2-.2v-.9c0-.2-.1-.2-.2-.2h-1.1v-5.5s.6-1.7 2.6-1.7c1.5 0 2.2.9 2.2 2.4v5.2c0 .6.3.8.9.8h1.9c.2 0 .3-.1.3-.2v-.9c-.1 0-.2-.1-.4-.1z"/></g><g fill="#453F43"><path d="M6.3 10.3V8.7h-.1c-.3-.1-.7-.1-1-.1h-.4c-.6 0-1.3.1-1.9.2-.3 0-.6.1-.8.1l4.2 5.6v-4.2zM6.4 16L0 14.1v.3c0 .8.2 1.6.4 2.4 0 .1.1.3.2.4l8.7 2.5L6.4 16zM1.5 9.4c0 .1-.1.1-.1.2-.5.9-.9 1.8-1.1 2.7 0 .2-.1.4-.1.6 0 .2 0 .3-.1.5L5.7 15 1.5 9.4zM9.7 2.4l3.8 5V0c-1.1.4-2.2 1-3 1.7-.3.2-.5.4-.8.7zM7.7 5.8l5.8 7.7V8.6L9.2 3c-.6.8-1.1 1.7-1.5 2.8zM10.6 20.3l2.9 3.8v-9.4l-2.9-3.8M9.9 9.9L7.4 6.7c-.2 1-.4 2-.4 3.1v5.8l2.9 3.8V9.9zM1 18.1c.1.2.2.3.2.5.3.6.8 1.3 1.2 1.9l.8 1.1c.1.1.1.2.2.2l9.4 2.7-2.8-3.8-9-2.6zM21.5 14.5l4.2-5.6c-.3-.1-.5-.2-.8-.2-.6-.1-1.3-.2-1.9-.2h-.4c-.3 0-.7.1-1 .1h-.1v5.9zM21.3 16l-2.9 3.8 8.7-2.5c.1-.1.1-.3.2-.4.3-.8.4-1.6.4-2.4v-.3L21.3 16zM27.7 13.3c0-.2 0-.3-.1-.5 0-.2-.1-.4-.1-.6-.2-.9-.6-1.8-1.1-2.7 0-.1-.1-.1-.1-.2L22.1 15l5.6-1.7zM17.3 1.7c-.9-.7-1.9-1.3-3-1.7v7.4l3.8-5c-.3-.3-.6-.5-.8-.7zM18.5 3l-4.3 5.7v4.8L20 5.8c-.3-1.1-.8-2-1.5-2.8zM17.1 10.9l-2.9 3.8v9.4l2.9-3.8M17.9 19.3l2.9-3.8V9.8c0-1.1-.2-2.1-.4-3.1L18 9.9v9.4zM14.9 24.5l9.4-2.7c.1-.1.1-.2.2-.2l.8-1.1c.5-.6.9-1.3 1.2-1.9.1-.2.2-.3.2-.5l-9 2.6-2.8 3.8zM12.6 25.2l-8.3-2.4.6.6c1.3 1.2 2.7 2 4.2 2.3.5.1 1 .2 1.5.2h.4c.5 0 1.1-.1 1.6-.2 0 0 .1 0 .1-.1.1-.1.2-.2.2-.3-.1.1-.1 0-.3-.1.1.1.1 0 0 0zM15 25.8zM15 25.3c-.1 0-.1 0 0 0-.1.1-.2.2-.2.3v.2c0 .1.1.1.2.1h.2c.5.1 1 .1 1.6.1h.4c.5 0 1-.1 1.5-.2 1.5-.3 2.9-1.1 4.2-2.3l.6-.6-8.3 2.4c-.2-.1-.2 0-.2 0z"/></g></svg>
    </defs>
</svg>